<?xml version="1.0" encoding="utf-8"?>
<!-- Generator: Adobe Illustrator 24.1.2, SVG Export Plug-In . SVG Version: 6.00 Build 0)  -->
<svg version="1.1" id="Calque_1" xmlns="http://www.w3.org/2000/svg" xmlns:xlink="http://www.w3.org/1999/xlink" x="0px" y="0px"
	 viewBox="0 0 800 600" style="enable-background:new 0 0 800 600;" xml:space="preserve">
<style type="text/css">
	.st0{fill:url(#SVGID_1_);}
	.st1{fill:url(#SVGID_2_);}
	.st2{opacity:0.25;fill:#AD8998;}
	.st3{opacity:0.6;fill:#AD8998;}
	.st4{opacity:0.41;fill:#AD8998;}
	.st5{fill:url(#SVGID_3_);}
	.st6{fill:url(#SVGID_4_);}
</style>
<g>
	<g>
		<linearGradient id="SVGID_1_" gradientUnits="userSpaceOnUse" x1="240.9764" y1="249.9636" x2="425.0208" y2="434.0079">
			<stop  offset="0" style="stop-color:#F4EAEE"/>
			<stop  offset="1" style="stop-color:#D6C1C9"/>
		</linearGradient>
		<path class="st0" d="M439.95,304.23c0,28.81-8.45,55.62-22.93,78.18c-14.8,22.93-35.84,41.45-60.76,52.99
			c-18.52,8.66-39.2,13.48-61.02,13.48c-7.71,0-15.27-0.58-22.62-1.78c-27.81-4.3-52.99-16.58-73.14-34.42
			c-30.01-26.5-48.95-65.27-48.95-108.46c0-7.66,0.58-15.22,1.78-22.56c9.55-61.34,57.72-109.93,118.9-120.1
			c7.82-1.36,15.85-2.05,24.03-2.05c26.71,0,51.68,7.24,73.09,19.83c33.58,19.68,58.5,52.47,67.69,91.4
			C438.59,281.51,439.95,292.69,439.95,304.23z"/>
		<linearGradient id="SVGID_2_" gradientUnits="userSpaceOnUse" x1="225.2668" y1="304.2171" x2="439.9507" y2="304.2171">
			<stop  offset="0" style="stop-color:#FFFFFF"/>
			<stop  offset="1" style="stop-color:#CCB0BB"/>
		</linearGradient>
		<path class="st1" d="M436.02,270.76c-9.18-38.93-34.11-71.73-67.69-91.4c-21.22-12.48-45.95-19.68-72.4-19.81
			c1.11,0.61,2.25,1.18,3.34,1.82c33.58,19.68,58.5,52.47,67.69,91.4c2.57,10.76,3.94,21.93,3.94,33.48
			c0,28.81-8.45,55.62-22.93,78.18c-14.8,22.93-35.84,41.45-60.76,52.99c-18.52,8.66-39.2,13.49-61.02,13.49
			c-0.31,0-0.61-0.03-0.91-0.03c14.45,8,30.41,13.62,47.36,16.24c7.35,1.21,14.9,1.78,22.62,1.78c21.83,0,42.5-4.83,61.02-13.48
			c24.92-11.54,45.96-30.07,60.76-52.99c14.48-22.56,22.93-49.37,22.93-78.18C439.95,292.69,438.59,281.51,436.02,270.76z"/>
		<path class="st2" d="M225.45,356.18c0,22.61-10.07,42.87-25.97,56.51c-30.01-26.5-48.95-65.27-48.95-108.46
			c0-7.66,0.58-15.22,1.78-22.56C192.87,282.4,225.45,315.46,225.45,356.18z"/>
		<path class="st2" d="M356.26,435.41c-18.52,8.66-39.2,13.48-61.02,13.48c-7.71,0-15.27-0.58-22.62-1.78
			c-0.05-0.68-0.05-1.42-0.05-2.1c0-23.4,18.99-42.4,42.4-42.4C335.11,402.61,351.96,416.62,356.26,435.41z"/>
		<path class="st3" d="M439.95,304.23c0,28.81-8.45,55.62-22.93,78.18c-20.1-9.29-34.05-29.65-34.05-53.26
			c0-30.49,23.3-55.57,53.05-58.4C438.59,281.51,439.95,292.69,439.95,304.23z"/>
		
			<ellipse transform="matrix(0.7733 -0.634 0.634 0.7733 -130.7754 262.9485)" class="st4" cx="302.36" cy="314.37" rx="51.75" ry="51.75"/>
		<path class="st3" d="M243.84,237.77c0,13.51-10.95,24.47-24.47,24.47c-13.51,0-24.47-10.95-24.47-24.47
			c0-13.51,10.95-24.47,24.47-24.47C232.89,213.3,243.84,224.26,243.84,237.77z"/>
		<path class="st2" d="M368.33,179.35c-3.15,24.29-23.87,42.97-49.01,42.97c-27.28,0-49.43-22.09-49.43-49.43
			c0-3.88,0.47-7.71,1.31-11.33c7.82-1.36,15.85-2.05,24.03-2.05C321.94,159.52,346.92,166.76,368.33,179.35z"/>
	</g>
	<g>
		<linearGradient id="SVGID_3_" gradientUnits="userSpaceOnUse" x1="416.8937" y1="392.1733" x2="530.928" y2="506.2076">
			<stop  offset="0" style="stop-color:#F4EAEE"/>
			<stop  offset="1" style="stop-color:#D6C1C9"/>
		</linearGradient>
		<path class="st5" d="M540.18,425.8c0,17.85-5.23,34.46-14.21,48.44c-9.17,14.21-22.2,25.68-37.65,32.84
			c-11.48,5.36-24.29,8.36-37.81,8.36c-4.78,0-9.46-0.36-14.01-1.11c-17.23-2.67-32.84-10.27-45.32-21.33
			c-18.6-16.42-30.33-40.44-30.33-67.2c0-4.75,0.36-9.43,1.11-13.98c5.92-38.01,35.76-68.11,73.67-74.42
			c4.84-0.85,9.82-1.27,14.89-1.27c16.55,0,32.02,4.49,45.29,12.29c20.81,12.19,36.25,32.51,41.94,56.63
			C539.33,411.72,540.18,418.65,540.18,425.8z"/>
		<linearGradient id="SVGID_4_" gradientUnits="userSpaceOnUse" x1="407.1602" y1="425.7888" x2="540.1788" y2="425.7888">
			<stop  offset="0" style="stop-color:#FFFFFF"/>
			<stop  offset="1" style="stop-color:#CCB0BB"/>
		</linearGradient>
		<path class="st6" d="M537.74,405.06c-5.69-24.12-21.13-44.44-41.94-56.63c-13.15-7.73-28.47-12.2-44.86-12.27
			c0.69,0.38,1.39,0.73,2.07,1.13c20.81,12.19,36.25,32.51,41.94,56.63c1.59,6.66,2.44,13.59,2.44,20.74
			c0,17.85-5.23,34.46-14.21,48.44c-9.17,14.21-22.21,25.68-37.65,32.84c-11.48,5.36-24.29,8.35-37.81,8.35
			c-0.19,0-0.38-0.02-0.57-0.02c8.96,4.96,18.84,8.44,29.34,10.06c4.55,0.75,9.23,1.11,14.01,1.11c13.52,0,26.33-2.99,37.81-8.36
			c15.44-7.15,28.48-18.63,37.65-32.84c8.97-13.98,14.21-30.59,14.21-48.44C540.18,418.65,539.33,411.72,537.74,405.06z"/>
		<path class="st2" d="M407.27,457.98c0,14.01-6.24,26.56-16.09,35.01c-18.6-16.42-30.33-40.44-30.33-67.2
			c0-4.75,0.36-9.43,1.11-13.98C387.09,412.27,407.27,432.76,407.27,457.98z"/>
		<path class="st2" d="M488.32,507.07c-11.48,5.36-24.29,8.36-37.81,8.36c-4.78,0-9.46-0.36-14.01-1.11
			c-0.03-0.42-0.03-0.88-0.03-1.3c0-14.5,11.77-26.27,26.27-26.27C475.22,486.76,485.66,495.44,488.32,507.07z"/>
		<path class="st3" d="M540.18,425.8c0,17.85-5.23,34.46-14.21,48.44c-12.45-5.75-21.1-18.37-21.1-33
			c0-18.89,14.43-34.43,32.87-36.18C539.33,411.72,540.18,418.65,540.18,425.8z"/>
		<circle class="st4" cx="454.93" cy="432.08" r="32.07"/>
		<path class="st3" d="M418.67,384.62c0,8.37-6.79,15.16-15.16,15.16c-8.37,0-15.16-6.79-15.16-15.16s6.79-15.16,15.16-15.16
			C411.88,369.46,418.67,376.25,418.67,384.62z"/>
		<path class="st2" d="M495.8,348.42c-1.95,15.05-14.79,26.63-30.36,26.63c-16.91,0-30.63-13.69-30.63-30.63
			c0-2.41,0.29-4.78,0.81-7.02c4.84-0.85,9.82-1.27,14.89-1.27C467.06,336.13,482.54,340.62,495.8,348.42z"/>
	</g>
</g>
</svg>
