<?xml version="1.0" encoding="utf-8"?>
<!-- Generator: Adobe Illustrator 24.1.2, SVG Export Plug-In . SVG Version: 6.00 Build 0)  -->
<svg version="1.1" xmlns="http://www.w3.org/2000/svg" xmlns:xlink="http://www.w3.org/1999/xlink" x="0px" y="0px"
	 viewBox="0 0 750 500" style="enable-background:new 0 0 750 500;" xml:space="preserve">
<style type="text/css">
	.st0{clip-path:url(#SVGID_2_);}
	.st1{fill:url(#SVGID_3_);}
	.st2{opacity:0.16;fill:#FFFFFF;}
	.st3{fill:#FFFFFF;}
	.st4{fill:url(#SVGID_4_);}
	.st5{fill:url(#SVGID_5_);}
	.st6{fill:url(#SVGID_6_);}
	.st7{fill:url(#SVGID_7_);}
	.st8{fill:url(#SVGID_8_);}
	.st9{fill:url(#SVGID_9_);}
	.st10{fill:url(#SVGID_10_);}
	.st11{opacity:0.22;fill:#FFFFFF;}
	.st12{fill:url(#SVGID_11_);}
	.st13{opacity:0.6;}
	.st14{opacity:0.46;fill:#FFFFFF;}
	.st15{fill:url(#SVGID_12_);}
	.st16{opacity:0.7;fill:#E07061;}
	.st17{opacity:0.6;clip-path:url(#SVGID_14_);}
	.st18{fill:url(#SVGID_15_);}
	.st19{fill:none;}
	.st20{fill:url(#SVGID_16_);}
	.st21{fill:url(#SVGID_17_);}
	.st22{clip-path:url(#SVGID_19_);}
	.st23{clip-path:url(#SVGID_21_);}
	.st24{fill:url(#SVGID_22_);}
	.st25{fill:url(#SVGID_23_);}
	.st26{fill:url(#SVGID_24_);}
	.st27{fill:#FFFAD7;}
	.st28{fill:url(#SVGID_25_);}
	.st29{fill:#EC4963;}
	.st30{fill:#D4DFE1;}
	.st31{fill:#88959D;}
	.st32{fill:#62C7CD;}
</style>
<g id="BACKGROUND">
	<g>
		<defs>
			<rect id="SVGID_1_" y="0" width="750" height="500"/>
		</defs>
		<clipPath id="SVGID_2_">
			<use xlink:href="#SVGID_1_"  style="overflow:visible;"/>
		</clipPath>
		<g class="st0">
			<g>
				<g>
					
						<radialGradient id="SVGID_3_" cx="-95.9847" cy="696.8642" r="783.3135" gradientTransform="matrix(1.5 0 0 1 0.0431 0)" gradientUnits="userSpaceOnUse">
						<stop  offset="0" style="stop-color:#FFAB67"/>
						<stop  offset="0.0219" style="stop-color:#FC946B"/>
						<stop  offset="0.1005" style="stop-color:#F1477A"/>
						<stop  offset="0.1367" style="stop-color:#ED2980"/>
						<stop  offset="0.2305" style="stop-color:#DF287E"/>
						<stop  offset="0.4076" style="stop-color:#BA257A"/>
						<stop  offset="0.6496" style="stop-color:#7F2174"/>
						<stop  offset="0.9442" style="stop-color:#2D1A6B"/>
						<stop  offset="1" style="stop-color:#1D1969"/>
					</radialGradient>
					<rect x="0" y="0" class="st1" width="750" height="500"/>
					<g>
						<g>
							<path class="st2" d="M499.55,367.54c-121.83-25.46-243.42-53-371.97-69.17c-47.99-6.04-98.11-10.46-141.92-8.17
								c-2.88,0.15-5.8,0.34-7.89,0.91c-3.06,0.83-3.84,2.34-4.44,3.77c-5.49,13-6.98,26.55-4.43,40.41
								c49.24-14.28,131.33-12.94,208.03-6.12c178.34,15.86,346.9,56.75,513.92,92.96c23.51,5.1,47.74,10.22,72.85,12.58
								c6.1,0.57,13.2,0.88,16.16-0.56c1.9-0.93,1.47-2.33,0.88-3.64c-3.42-7.51-11.47-21.2-29.63-27.94
								c-15.48-5.75-47.91-4.07-66.34-5.46C621.25,392.27,558.72,379.9,499.55,367.54z"/>
							<path class="st2" d="M-0.43,57.85c36.15,9.62,76.27,9.6,114.49,5.41c38.22-4.19,75.27-12.37,112.87-18.75
								c157.68-26.75,329.82-20.56,474.89,30.13c22.77,7.96,46.17,17.98,56.56,34.19c3.46-18.23,8.87-36.27,16.15-53.95
								c-13.36,0.44-26.35-2.75-39.01-5.75c-80.19-18.98-163.92-32.04-248.6-32.72C362.9,15.44,241.11,40.93,117.1,42.6
								c-22.63,0.31-45.47-0.2-67.48-3.87C27.75,35.08,7.22,28.4-13.41,22.16c-4.85-1.47-9.95-2.94-15.22-2.67
								c-13.66,0.7-20.54,13.16-15.78,22.1c4.77,8.95,16.74,14.88,28.06,20.26C-11.99,58.99-6.4,58.14-0.43,57.85z"/>
						</g>
						<g>
							<circle class="st3" cx="399.53" cy="404" r="1"/>
							<circle class="st3" cx="412.36" cy="399.83" r="0.5"/>
							<polygon class="st3" points="424.53,389.67 424.53,389.67 424.53,389.67 424.53,389.67 							"/>
							<circle class="st3" cx="350.07" cy="421.63" r="1.13"/>
							<circle class="st3" cx="365.32" cy="421.63" r="1.13"/>
							<polygon class="st3" points="326.44,381.25 326.44,381.25 326.44,381.25 326.44,381.25 							"/>
							<path class="st3" d="M346.61,390.13c0,0.25-0.21,0.46-0.46,0.46c-0.25,0-0.46-0.21-0.46-0.46c0-0.25,0.21-0.46,0.46-0.46
								C346.41,389.67,346.61,389.87,346.61,390.13z"/>
							<path class="st3" d="M305.03,398.79c0,0.85-0.69,1.54-1.54,1.54s-1.54-0.69-1.54-1.54c0-0.85,0.69-1.54,1.54-1.54
								S305.03,397.94,305.03,398.79z"/>
							<circle class="st3" cx="322.32" cy="381.13" r="1.63"/>
							<path class="st3" d="M293.82,364.31c0,0.45-0.36,0.81-0.81,0.81c-0.45,0-0.81-0.36-0.81-0.81s0.36-0.81,0.81-0.81
								C293.46,363.5,293.82,363.86,293.82,364.31z"/>
							<path class="st3" d="M282.32,384.69c0,0.38-0.31,0.69-0.69,0.69s-0.69-0.31-0.69-0.69s0.31-0.69,0.69-0.69
								S282.32,384.31,282.32,384.69z"/>
							<path class="st3" d="M300.32,421.06c0,0.31-0.25,0.56-0.56,0.56c-0.31,0-0.56-0.25-0.56-0.56s0.25-0.56,0.56-0.56
								C300.07,420.5,300.32,420.75,300.32,421.06z"/>
							<path class="st3" d="M220.31,367.39c0,0.31-0.25,0.56-0.56,0.56c-0.31,0-0.56-0.25-0.56-0.56c0-0.31,0.25-0.56,0.56-0.56
								C220.06,366.83,220.31,367.08,220.31,367.39z"/>
							<path class="st3" d="M253.57,410.19c0,0.38-0.31,0.69-0.69,0.69s-0.69-0.31-0.69-0.69s0.31-0.69,0.69-0.69
								S253.57,409.81,253.57,410.19z"/>
							<path class="st3" d="M186.14,351.08c0,0.68-0.55,1.22-1.22,1.22c-0.68,0-1.22-0.55-1.22-1.22c0-0.68,0.55-1.22,1.22-1.22
								C185.59,349.86,186.14,350.4,186.14,351.08z"/>
							<path class="st3" d="M161.21,366.26c0,0.62-0.51,1.13-1.13,1.13c-0.62,0-1.13-0.51-1.13-1.13c0-0.62,0.51-1.13,1.13-1.13
								C160.7,365.13,161.21,365.63,161.21,366.26z"/>
							<path class="st3" d="M368.69,327.19c0,0.93-0.76,1.69-1.69,1.69c-0.93,0-1.69-0.76-1.69-1.69c0-0.93,0.76-1.69,1.69-1.69
								C367.94,325.5,368.69,326.26,368.69,327.19z"/>
							<circle class="st3" cx="394.44" cy="323.5" r="0.5"/>
							<circle class="st3" cx="302.32" cy="311.38" r="0.38"/>
							<circle class="st3" cx="318.19" cy="300.75" r="1"/>
							<circle class="st3" cx="222.07" cy="271.88" r="0.63"/>
							<path class="st3" d="M250.28,264.71c0,0.08-0.06,0.14-0.14,0.14c-0.08,0-0.14-0.06-0.14-0.14c0-0.08,0.06-0.14,0.14-0.14
								C250.22,264.57,250.28,264.63,250.28,264.71z"/>
							<path class="st3" d="M176.9,255.15c0,0.61-0.49,1.1-1.1,1.1c-0.61,0-1.1-0.49-1.1-1.1c0-0.61,0.49-1.1,1.1-1.1
								C176.41,254.05,176.9,254.54,176.9,255.15z"/>
							<path class="st3" d="M200.17,239.58c0,0.34-0.27,0.61-0.61,0.61s-0.61-0.27-0.61-0.61c0-0.34,0.27-0.61,0.61-0.61
								S200.17,239.24,200.17,239.58z"/>
							<circle class="st3" cx="394.69" cy="261.25" r="0.25"/>
							<path class="st3" d="M418.19,250c0,0-0.95,0-2.13,0c-1.17,0-2.13,0-2.13,0s0.95,0,2.13,0C417.24,250,418.19,250,418.19,250z"
								/>
							<circle class="st3" cx="446.58" cy="260.86" r="1.63"/>
							<path class="st3" d="M464.24,274.85c0,0.61-0.49,1.1-1.1,1.1c-0.61,0-1.1-0.49-1.1-1.1c0-0.61,0.49-1.1,1.1-1.1
								C463.75,273.75,464.24,274.24,464.24,274.85z"/>
							<path class="st3" d="M406.57,206.56c0,0.31-0.25,0.56-0.56,0.56c-0.31,0-0.56-0.25-0.56-0.56s0.25-0.56,0.56-0.56
								C406.32,206,406.57,206.25,406.57,206.56z"/>
							<circle class="st3" cx="391.69" cy="190.5" r="1"/>
							<path class="st3" d="M415.06,169.2c0,0.52-0.42,0.93-0.93,0.93c-0.52,0-0.93-0.42-0.93-0.93c0-0.52,0.42-0.93,0.93-0.93
								C414.64,168.26,415.06,168.68,415.06,169.2z"/>
							<circle class="st3" cx="433.32" cy="204.25" r="0.62"/>
							<circle class="st3" cx="441.69" cy="148.55" r="1"/>
							<path class="st3" d="M456.74,136.12c0,0.46-0.37,0.82-0.82,0.82c-0.46,0-0.82-0.37-0.82-0.82s0.37-0.82,0.82-0.82
								C456.37,135.3,456.74,135.66,456.74,136.12z"/>
							<path class="st3" d="M381.19,141.82c0,1.14-0.93,2.07-2.07,2.07c-1.14,0-2.07-0.93-2.07-2.07s0.93-2.07,2.07-2.07
								C380.27,139.75,381.19,140.68,381.19,141.82z"/>
							<circle class="st3" cx="393.82" cy="120.23" r="1.13"/>
							<circle class="st3" cx="423.08" cy="122.72" r="0.64"/>
							<path class="st3" d="M300.58,144.05c0,0.31-0.25,0.57-0.57,0.57c-0.31,0-0.57-0.25-0.57-0.57c0-0.31,0.25-0.57,0.57-0.57
								C300.32,143.49,300.58,143.74,300.58,144.05z"/>
							<circle class="st3" cx="318.69" cy="142.99" r="0.5"/>
							<path class="st3" d="M292.05,115.37c0,0.1-0.08,0.18-0.18,0.18c-0.1,0-0.18-0.08-0.18-0.18s0.08-0.18,0.18-0.18
								C291.97,115.19,292.05,115.27,292.05,115.37z"/>
							<path class="st3" d="M244.09,159.32c0,0.73-0.59,1.32-1.32,1.32c-0.73,0-1.32-0.59-1.32-1.32c0-0.73,0.59-1.32,1.32-1.32
								C243.5,158,244.09,158.59,244.09,159.32z"/>
							<path class="st3" d="M176.24,84.18c0,0.57-0.46,1.02-1.02,1.02c-0.57,0-1.02-0.46-1.02-1.02c0-0.56,0.46-1.02,1.02-1.02
								C175.78,83.16,176.24,83.62,176.24,84.18z"/>
							<path class="st3" d="M234.79,52.79c0,0.3-0.24,0.54-0.54,0.54c-0.3,0-0.54-0.24-0.54-0.54s0.24-0.54,0.54-0.54
								C234.54,52.25,234.79,52.49,234.79,52.79z"/>
							<path class="st3" d="M188.17,54.03c0,0.68-0.56,1.24-1.24,1.24c-0.68,0-1.24-0.56-1.24-1.24c0-0.68,0.56-1.24,1.24-1.24
								C187.62,52.79,188.17,53.35,188.17,54.03z"/>
							<circle class="st3" cx="30.49" cy="155.96" r="0.63"/>
							<path class="st3" d="M55.78,165.71c0,0.39-0.32,0.71-0.71,0.71c-0.39,0-0.71-0.32-0.71-0.71c0-0.39,0.32-0.71,0.71-0.71
								C55.46,165,55.78,165.32,55.78,165.71z"/>
							<circle class="st3" cx="69.99" cy="184.79" r="1.13"/>
							<circle class="st3" cx="36.36" cy="195.5" r="1"/>
							<path class="st3" d="M162.11,6.21c0,0.48-0.39,0.87-0.87,0.87c-0.48,0-0.87-0.39-0.87-0.87s0.39-0.87,0.87-0.87
								C161.72,5.34,162.11,5.73,162.11,6.21z"/>
							<path class="st3" d="M192.53,14.42c0,0.51-0.41,0.92-0.92,0.92c-0.51,0-0.92-0.41-0.92-0.92c0-0.51,0.41-0.92,0.92-0.92
								C192.12,13.5,192.53,13.91,192.53,14.42z"/>
							<path class="st3" d="M208.53,16.4c0,0-0.45,0-1,0c-0.55,0-1,0-1,0s0.45,0,1,0C208.08,16.4,208.53,16.4,208.53,16.4z"/>
							<path class="st3" d="M235.3,8.86c0,0.29-0.24,0.53-0.53,0.53c-0.29,0-0.53-0.24-0.53-0.53s0.24-0.53,0.53-0.53
								C235.07,8.33,235.3,8.57,235.3,8.86z"/>
							<circle class="st3" cx="385.15" cy="34.46" r="1.13"/>
							<path class="st3" d="M415.53,31.25c0,0.78-0.63,1.42-1.42,1.42s-1.42-0.63-1.42-1.42s0.63-1.42,1.42-1.42
								S415.53,30.47,415.53,31.25z"/>
							<path class="st3" d="M342.69,65.42c0,0.6-0.48,1.08-1.08,1.08c-0.6,0-1.08-0.49-1.08-1.08s0.49-1.08,1.08-1.08
								C342.21,64.33,342.69,64.82,342.69,65.42z"/>
							<circle class="st3" cx="468.44" cy="22.75" r="1.25"/>
							<circle class="st3" cx="134.21" cy="129.77" r="0.85"/>
							<polygon class="st3" points="135.06,72.4 135.06,72.4 135.06,72.4 135.06,72.4 							"/>
							<path class="st3" d="M150.94,27.13c0,0.53-0.43,0.96-0.96,0.96c-0.53,0-0.96-0.43-0.96-0.96c0-0.53,0.43-0.96,0.96-0.96
								C150.52,26.17,150.94,26.6,150.94,27.13z"/>
							<path class="st3" d="M314.78,42.79c0,0.25-0.21,0.46-0.46,0.46c-0.25,0-0.46-0.21-0.46-0.46c0-0.25,0.21-0.46,0.46-0.46
								C314.57,42.33,314.78,42.54,314.78,42.79z"/>
							<path class="st3" d="M406.44,83.29c0,0.25-0.21,0.46-0.46,0.46s-0.46-0.21-0.46-0.46c0-0.25,0.21-0.46,0.46-0.46
								S406.44,83.04,406.44,83.29z"/>
							<path class="st3" d="M458.14,61.72c0,0.49-0.4,0.89-0.89,0.89c-0.49,0-0.89-0.4-0.89-0.89c0-0.49,0.4-0.89,0.89-0.89
								C457.74,60.83,458.14,61.23,458.14,61.72z"/>
							<path class="st3" d="M479.36,88.67c0,0.37-0.3,0.67-0.67,0.67c-0.37,0-0.67-0.3-0.67-0.67s0.3-0.67,0.67-0.67
								C479.06,88,479.36,88.3,479.36,88.67z"/>
							<path class="st3" d="M421.18,236.99c0,0.27-0.22,0.49-0.49,0.49c-0.27,0-0.49-0.22-0.49-0.49c0-0.27,0.22-0.49,0.49-0.49
								C420.96,236.5,421.18,236.72,421.18,236.99z"/>
							<path class="st3" d="M345.86,257.08c0,0.6-0.48,1.08-1.08,1.08c-0.6,0-1.08-0.49-1.08-1.08s0.49-1.08,1.08-1.08
								C345.38,256,345.86,256.49,345.86,257.08z"/>
							<path class="st3" d="M292.11,230.71c0,0.39-0.32,0.71-0.71,0.71c-0.39,0-0.71-0.32-0.71-0.71c0-0.39,0.32-0.71,0.71-0.71
								C291.79,230,292.11,230.32,292.11,230.71z"/>
							<circle class="st3" cx="238.53" cy="188.83" r="1.5"/>
							<path class="st3" d="M227.53,414.42c0,0.51-0.41,0.92-0.92,0.92c-0.51,0-0.92-0.41-0.92-0.92c0-0.51,0.41-0.92,0.92-0.92
								C227.12,413.5,227.53,413.91,227.53,414.42z"/>
							<polygon class="st3" points="290.86,446.17 290.86,446.17 290.86,446.17 290.86,446.17 							"/>
							<path class="st3" d="M270.19,390.33c0,0.37-0.3,0.67-0.67,0.67c-0.37,0-0.67-0.3-0.67-0.67s0.3-0.67,0.67-0.67
								C269.9,389.67,270.19,389.97,270.19,390.33z"/>
							<path class="st3" d="M171.36,389.92c0,0.6-0.49,1.08-1.08,1.08c-0.6,0-1.08-0.49-1.08-1.08s0.49-1.08,1.08-1.08
								C170.88,388.83,171.36,389.32,171.36,389.92z"/>
							<circle class="st3" cx="154.19" cy="318" r="1.5"/>
							<path class="st3" d="M184.92,314.28c0,0.34-0.27,0.61-0.61,0.61s-0.61-0.27-0.61-0.61c0-0.34,0.27-0.61,0.61-0.61
								S184.92,313.94,184.92,314.28z"/>
							<path class="st3" d="M369.94,245.38c0,0.58-0.47,1.04-1.04,1.04c-0.58,0-1.04-0.47-1.04-1.04s0.47-1.04,1.04-1.04
								C369.48,244.33,369.94,244.8,369.94,245.38z"/>
							<path class="st3" d="M289.62,265.56c0,0.39-0.32,0.71-0.71,0.71c-0.39,0-0.71-0.32-0.71-0.71c0-0.39,0.32-0.71,0.71-0.71
								C289.3,264.85,289.62,265.17,289.62,265.56z"/>
							<path class="st3" d="M278.19,68.69c0,0.52-0.42,0.94-0.94,0.94c-0.52,0-0.94-0.42-0.94-0.94c0-0.52,0.42-0.94,0.94-0.94
								C277.77,67.75,278.19,68.17,278.19,68.69z"/>
							<circle class="st3" cx="345.09" cy="107.1" r="0.52"/>
							<circle class="st3" cx="736.35" cy="53.92" r="1"/>
							<circle class="st3" cx="749.19" cy="58.08" r="0.5"/>
							<polygon class="st3" points="761.35,68.25 761.35,68.25 761.35,68.25 761.35,68.25 							"/>
							<circle class="st3" cx="686.89" cy="36.29" r="1.13"/>
							<circle class="st3" cx="702.14" cy="36.29" r="1.13"/>
							<polygon class="st3" points="663.27,76.67 663.27,76.67 663.27,76.67 663.27,76.67 							"/>
							<path class="st3" d="M683.44,67.79c0-0.25-0.21-0.46-0.46-0.46c-0.25,0-0.46,0.21-0.46,0.46c0,0.25,0.21,0.46,0.46,0.46
								C683.23,68.25,683.44,68.04,683.44,67.79z"/>
							<path class="st3" d="M641.85,59.12c0-0.85-0.69-1.54-1.54-1.54c-0.85,0-1.54,0.69-1.54,1.54c0,0.85,0.69,1.54,1.54,1.54
								C641.16,60.67,641.85,59.98,641.85,59.12z"/>
							<circle class="st3" cx="659.14" cy="76.79" r="1.63"/>
							<circle class="st3" cx="629.83" cy="93.6" r="0.81"/>
							<circle class="st3" cx="618.46" cy="73.23" r="0.69"/>
							<circle class="st3" cx="636.58" cy="36.85" r="0.56"/>
							<path class="st3" d="M557.13,90.53c0-0.31-0.25-0.56-0.56-0.56c-0.31,0-0.56,0.25-0.56,0.56c0,0.31,0.25,0.56,0.56,0.56
								C556.88,91.08,557.13,90.84,557.13,90.53z"/>
							<circle class="st3" cx="589.71" cy="47.73" r="0.69"/>
							<path class="st3" d="M522.97,106.84c0-0.68-0.55-1.22-1.22-1.22c-0.68,0-1.22,0.55-1.22,1.22c0,0.68,0.55,1.22,1.22,1.22
								C522.42,108.06,522.97,107.51,522.97,106.84z"/>
							<path class="st3" d="M498.03,91.66c0-0.62-0.51-1.13-1.13-1.13c-0.62,0-1.13,0.51-1.13,1.13c0,0.62,0.51,1.13,1.13,1.13
								C497.53,92.79,498.03,92.28,498.03,91.66z"/>
							<circle class="st3" cx="703.83" cy="130.73" r="1.69"/>
							<circle class="st3" cx="731.27" cy="134.42" r="0.5"/>
							<circle class="st3" cx="639.14" cy="146.54" r="0.38"/>
							<circle class="st3" cx="655.02" cy="157.17" r="1"/>
							<circle class="st3" cx="558.89" cy="186.04" r="0.63"/>
							<circle class="st3" cx="586.97" cy="193.21" r="0.14"/>
							<path class="st3" d="M513.72,202.77c0-0.61-0.49-1.1-1.1-1.1c-0.61,0-1.1,0.49-1.1,1.1c0,0.61,0.49,1.1,1.1,1.1
								C513.23,203.87,513.72,203.38,513.72,202.77z"/>
							<circle class="st3" cx="536.38" cy="218.33" r="0.61"/>
							<circle class="st3" cx="731.52" cy="196.67" r="0.25"/>
							<path class="st3" d="M755.02,207.92c0,0-0.95,0-2.13,0c-1.17,0-2.13,0-2.13,0s0.95,0,2.13,0
								C754.07,207.92,755.02,207.92,755.02,207.92z"/>
							<path class="st3" d="M785.03,197.06c0-0.9-0.73-1.63-1.63-1.63c-0.9,0-1.63,0.73-1.63,1.63c0,0.9,0.73,1.63,1.63,1.63
								C784.3,198.69,785.03,197.96,785.03,197.06z"/>
							<path class="st3" d="M801.07,183.07c0-0.61-0.49-1.1-1.1-1.1s-1.1,0.49-1.1,1.1c0,0.61,0.49,1.1,1.1,1.1
								S801.07,183.67,801.07,183.07z"/>
							<circle class="st3" cx="742.83" cy="251.35" r="0.56"/>
							<circle class="st3" cx="728.52" cy="267.42" r="1"/>
							<circle class="st3" cx="750.95" cy="288.72" r="0.93"/>
							<circle class="st3" cx="770.14" cy="253.66" r="0.62"/>
							<circle class="st3" cx="586.21" cy="114.3" r="1"/>
							<circle class="st3" cx="600.43" cy="126.72" r="0.82"/>
							<path class="st3" d="M718.02,316.1c0-1.14-0.93-2.07-2.07-2.07c-1.14,0-2.07,0.93-2.07,2.07c0,1.14,0.93,2.07,2.07,2.07
								C717.09,318.17,718.02,317.24,718.02,316.1z"/>
							<circle class="st3" cx="730.64" cy="337.68" r="1.13"/>
							<path class="st3" d="M568.23,140.12c0-0.35-0.28-0.64-0.64-0.64c-0.35,0-0.64,0.28-0.64,0.64c0,0.35,0.28,0.64,0.64,0.64
								C567.95,140.76,568.23,140.47,568.23,140.12z"/>
							<path class="st3" d="M637.4,313.86c0-0.31-0.25-0.57-0.57-0.57c-0.31,0-0.57,0.25-0.57,0.57c0,0.31,0.25,0.57,0.57,0.57
								C637.15,314.43,637.4,314.18,637.4,313.86z"/>
							<circle class="st3" cx="655.52" cy="314.93" r="0.5"/>
							<path class="st3" d="M628.88,342.55c0-0.1-0.08-0.18-0.18-0.18s-0.18,0.08-0.18,0.18c0,0.1,0.08,0.18,0.18,0.18
								S628.88,342.65,628.88,342.55z"/>
							<path class="st3" d="M580.92,298.59c0-0.73-0.59-1.32-1.32-1.32c-0.73,0-1.32,0.59-1.32,1.32c0,0.73,0.59,1.32,1.32,1.32
								C580.32,299.92,580.92,299.32,580.92,298.59z"/>
							<path class="st3" d="M513.07,373.73c0-0.56-0.46-1.02-1.02-1.02c-0.57,0-1.02,0.46-1.02,1.02c0,0.57,0.46,1.02,1.02,1.02
								C512.61,374.76,513.07,374.3,513.07,373.73z"/>
							<path class="st3" d="M571.61,405.13c0-0.3-0.24-0.54-0.54-0.54s-0.54,0.24-0.54,0.54s0.24,0.54,0.54,0.54
								S571.61,405.42,571.61,405.13z"/>
							<path class="st3" d="M525,403.89c0-0.68-0.56-1.24-1.24-1.24c-0.68,0-1.24,0.56-1.24,1.24c0,0.68,0.56,1.24,1.24,1.24
								C524.44,405.13,525,404.57,525,403.89z"/>
							<path class="st3" d="M392.6,292.21c0-0.39-0.32-0.71-0.71-0.71s-0.71,0.32-0.71,0.71s0.32,0.71,0.71,0.71
								S392.6,292.6,392.6,292.21z"/>
							<circle class="st3" cx="406.81" cy="273.12" r="1.13"/>
							<path class="st3" d="M498.93,451.7c0-0.48-0.39-0.87-0.87-0.87c-0.48,0-0.87,0.39-0.87,0.87c0,0.48,0.39,0.87,0.87,0.87
								C498.54,452.58,498.93,452.18,498.93,451.7z"/>
							<path class="st3" d="M529.35,443.5c0-0.51-0.41-0.92-0.92-0.92c-0.51,0-0.92,0.41-0.92,0.92c0,0.51,0.41,0.92,0.92,0.92
								C528.94,444.42,529.35,444.01,529.35,443.5z"/>
							<path class="st3" d="M545.35,441.52c0,0-0.45,0-1,0c-0.55,0-1,0-1,0s0.45,0,1,0C544.91,441.52,545.35,441.52,545.35,441.52z"
								/>
							<path class="st3" d="M572.13,449.05c0-0.29-0.24-0.53-0.53-0.53s-0.53,0.24-0.53,0.53c0,0.29,0.24,0.53,0.53,0.53
								S572.13,449.35,572.13,449.05z"/>
							<circle class="st3" cx="721.98" cy="423.46" r="1.13"/>
							<path class="st3" d="M752.35,426.67c0-0.78-0.63-1.42-1.42-1.42s-1.42,0.63-1.42,1.42s0.63,1.42,1.42,1.42
								S752.35,427.45,752.35,426.67z"/>
							<path class="st3" d="M679.52,392.5c0-0.6-0.49-1.08-1.08-1.08c-0.6,0-1.08,0.49-1.08,1.08s0.48,1.08,1.08,1.08
								C679.03,393.58,679.52,393.1,679.52,392.5z"/>
							<circle class="st3" cx="612.96" cy="240.09" r="1.25"/>
							<path class="st3" d="M471.88,328.14c0-0.47-0.38-0.85-0.85-0.85c-0.47,0-0.85,0.38-0.85,0.85c0,0.47,0.38,0.85,0.85,0.85
								C471.5,328.99,471.88,328.61,471.88,328.14z"/>
							<polygon class="st3" points="471.88,385.52 471.88,385.52 471.88,385.52 471.88,385.52 							"/>
							<path class="st3" d="M487.77,430.79c0-0.53-0.43-0.96-0.96-0.96s-0.96,0.43-0.96,0.96c0,0.53,0.43,0.96,0.96,0.96
								S487.77,431.32,487.77,430.79z"/>
							<path class="st3" d="M651.6,415.12c0-0.25-0.21-0.46-0.46-0.46c-0.25,0-0.46,0.21-0.46,0.46c0,0.25,0.21,0.46,0.46,0.46
								C651.4,415.58,651.6,415.38,651.6,415.12z"/>
							<path class="st3" d="M743.27,374.62c0-0.25-0.21-0.46-0.46-0.46s-0.46,0.21-0.46,0.46c0,0.25,0.21,0.46,0.46,0.46
								S743.27,374.88,743.27,374.62z"/>
							<path class="st3" d="M602.66,201.12c0-0.49-0.4-0.89-0.89-0.89c-0.49,0-0.89,0.4-0.89,0.89c0,0.49,0.4,0.89,0.89,0.89
								C602.26,202.01,602.66,201.61,602.66,201.12z"/>
							<path class="st3" d="M623.87,174.18c0-0.37-0.3-0.67-0.67-0.67c-0.37,0-0.67,0.3-0.67,0.67c0,0.37,0.3,0.67,0.67,0.67
								C623.58,174.84,623.87,174.54,623.87,174.18z"/>
							<path class="st3" d="M758.01,220.92c0-0.27-0.22-0.49-0.49-0.49c-0.27,0-0.49,0.22-0.49,0.49c0,0.27,0.22,0.49,0.49,0.49
								C757.78,221.42,758.01,221.19,758.01,220.92z"/>
							<path class="st3" d="M682.69,200.83c0-0.6-0.48-1.08-1.08-1.08c-0.6,0-1.08,0.49-1.08,1.08c0,0.6,0.48,1.08,1.08,1.08
								C682.2,201.92,682.69,201.43,682.69,200.83z"/>
							<path class="st3" d="M628.94,227.21c0-0.39-0.32-0.71-0.71-0.71c-0.39,0-0.71,0.32-0.71,0.71c0,0.39,0.32,0.71,0.71,0.71
								C628.62,227.92,628.94,227.6,628.94,227.21z"/>
							<circle class="st3" cx="575.35" cy="269.08" r="1.5"/>
							<path class="st3" d="M564.35,43.5c0-0.51-0.41-0.92-0.92-0.92c-0.51,0-0.92,0.41-0.92,0.92c0,0.51,0.41,0.92,0.92,0.92
								C563.94,44.42,564.35,44.01,564.35,43.5z"/>
							<polygon class="st3" points="627.69,11.75 627.69,11.75 627.69,11.75 627.69,11.75 							"/>
							<path class="st3" d="M607.02,67.58c0-0.37-0.3-0.67-0.67-0.67c-0.37,0-0.67,0.3-0.67,0.67s0.3,0.67,0.67,0.67
								C606.72,68.25,607.02,67.95,607.02,67.58z"/>
							<path class="st3" d="M508.19,68c0-0.6-0.49-1.08-1.08-1.08c-0.6,0-1.08,0.49-1.08,1.08c0,0.6,0.49,1.08,1.08,1.08
								C507.7,69.08,508.19,68.6,508.19,68z"/>
							<circle class="st3" cx="491.02" cy="139.92" r="1.5"/>
							<circle class="st3" cx="521.13" cy="143.64" r="0.61"/>
							<path class="st3" d="M706.77,212.54c0-0.58-0.47-1.04-1.04-1.04c-0.58,0-1.04,0.47-1.04,1.04s0.47,1.04,1.04,1.04
								C706.3,213.58,706.77,213.12,706.77,212.54z"/>
							<circle class="st3" cx="625.73" cy="192.36" r="0.71"/>
							<circle class="st3" cx="614.08" cy="389.23" r="0.94"/>
							<circle class="st3" cx="681.92" cy="350.81" r="0.52"/>
							<circle class="st3" cx="495" cy="235.6" r="0.56"/>
							<circle class="st3" cx="480.69" cy="251.66" r="1"/>
							<path class="st3" d="M504.05,272.96c0-0.52-0.42-0.93-0.93-0.93c-0.52,0-0.93,0.42-0.93,0.93c0,0.52,0.42,0.93,0.93,0.93
								C503.64,273.9,504.05,273.48,504.05,272.96z"/>
							<path class="st3" d="M522.93,237.91c0-0.34-0.28-0.62-0.62-0.62s-0.62,0.28-0.62,0.62c0,0.34,0.28,0.62,0.62,0.62
								S522.93,238.26,522.93,237.91z"/>
							<circle class="st3" cx="530.69" cy="293.61" r="1"/>
							<circle class="st3" cx="544.9" cy="306.04" r="0.82"/>
							<circle class="st3" cx="468.12" cy="300.35" r="2.07"/>
							<circle class="st3" cx="482.81" cy="321.93" r="1.13"/>
							<path class="st3" d="M512.71,319.44c0-0.35-0.28-0.64-0.64-0.64c-0.35,0-0.64,0.29-0.64,0.64c0,0.35,0.29,0.64,0.64,0.64
								C512.42,320.08,512.71,319.79,512.71,319.44z"/>
							<circle class="st3" cx="407.69" cy="299.18" r="0.5"/>
							<circle class="st3" cx="474.14" cy="407.7" r="1.13"/>
							<path class="st3" d="M504.52,410.91c0-0.78-0.63-1.42-1.42-1.42c-0.78,0-1.42,0.63-1.42,1.42s0.63,1.42,1.42,1.42
								C503.89,412.33,504.52,411.7,504.52,410.91z"/>
							<path class="st3" d="M431.69,376.75c0-0.6-0.49-1.08-1.08-1.08c-0.6,0-1.08,0.48-1.08,1.08c0,0.6,0.49,1.08,1.08,1.08
								C431.2,377.83,431.69,377.34,431.69,376.75z"/>
							<circle class="st3" cx="557.44" cy="419.41" r="1.25"/>
							<path class="st3" d="M495.44,358.87c0-0.25-0.21-0.46-0.46-0.46c-0.25,0-0.46,0.21-0.46,0.46c0,0.25,0.21,0.46,0.46,0.46
								C495.23,359.33,495.44,359.12,495.44,358.87z"/>
							<path class="st3" d="M547.13,380.44c0-0.49-0.4-0.89-0.89-0.89c-0.49,0-0.89,0.4-0.89,0.89c0,0.49,0.4,0.89,0.89,0.89
								C546.74,381.33,547.13,380.93,547.13,380.44z"/>
							<circle class="st3" cx="567.69" cy="353.5" r="0.67"/>
							<circle class="st3" cx="434.09" cy="335.06" r="0.52"/>
						</g>
					</g>
				</g>
				<g>
					<linearGradient id="SVGID_4_" gradientUnits="userSpaceOnUse" x1="508.3654" y1="386.6352" x2="535.8655" y2="374.6352">
						<stop  offset="0" style="stop-color:#FFE139"/>
						<stop  offset="1" style="stop-color:#BF2786"/>
					</linearGradient>
					<path class="st4" d="M538.73,372.52c-2.3,0.86-4.57,2.01-7.02,2.05c-0.62,0.01-1.29-0.03-1.83,0.29
						c-0.62,0.37-0.88,1.11-1.26,1.72c-1.15,1.87-3.45,2.64-5.59,3.1c-2.14,0.46-4.44,0.78-6.14,2.16c-1.7,1.38-2.39,4.29-0.72,5.72
						c1.12,0.95,2.83,0.85,4.14,0.19c1.31-0.66,2.32-1.77,3.36-2.8c2.93-2.91,6.34-5.34,10.04-7.16
						c4.37-2.15,63.14-34.32,75.03-41.27C582.82,350.94,550.49,368.09,538.73,372.52z"/>
					
						<linearGradient id="SVGID_5_" gradientUnits="userSpaceOnUse" x1="402.6388" y1="245.6887" x2="441.0301" y2="245.6887" gradientTransform="matrix(0.9994 0.0334 -0.0334 0.9994 -14.7503 -15.7961)">
						<stop  offset="0" style="stop-color:#00EFA9"/>
						<stop  offset="1" style="stop-color:#3F56F0"/>
					</linearGradient>
					<path class="st5" d="M388.39,248.93c-0.4,0.19-0.8,0.39-1.14,0.68c-0.3,0.26-0.53,0.58-0.84,0.83
						c-0.39,0.32-0.88,0.5-1.36,0.68c-1.07,0.39-2.13,0.78-3.2,1.16c-0.88,0.32-1.8,0.67-2.38,1.4c-0.58,0.73-0.62,1.97,0.16,2.48
						c0.82,0.53,1.89-0.01,2.68-0.58c1.48-1.08,2.86-2.28,4.3-3.41c2.32-1.81,4.79-3.42,7.25-5.02c2.68-1.74,5.37-3.48,8.05-5.22
						c5.44-3.53,10.88-7.06,16.32-10.59c-4.35,2.82-9.04,5.19-13.42,8C399.49,242.77,394.09,246.13,388.39,248.93z"/>
					
						<linearGradient id="SVGID_6_" gradientUnits="userSpaceOnUse" x1="541.1525" y1="53.2409" x2="553.5789" y2="53.2409" gradientTransform="matrix(0.9867 0.1628 -0.1628 0.9867 -81.1069 -45.2849)">
						<stop  offset="0" style="stop-color:#00EFA9"/>
						<stop  offset="1" style="stop-color:#3F56F0"/>
					</linearGradient>
					<path class="st6" d="M446.81,97.56c-0.14,0.05-0.27,0.09-0.39,0.17c-0.11,0.07-0.2,0.16-0.3,0.23
						c-0.14,0.09-0.3,0.12-0.47,0.16c-0.36,0.08-0.72,0.16-1.08,0.24c-0.29,0.07-0.61,0.14-0.82,0.35c-0.22,0.21-0.28,0.61-0.05,0.8
						c0.24,0.21,0.61,0.08,0.88-0.07c0.52-0.28,1.01-0.61,1.52-0.91c0.82-0.48,1.68-0.9,2.54-1.31c0.93-0.45,1.87-0.89,2.8-1.34
						c1.89-0.9,3.79-1.81,5.68-2.71c-1.51,0.72-3.12,1.28-4.64,2C450.63,96.06,448.76,96.91,446.81,97.56z"/>
					
						<linearGradient id="SVGID_7_" gradientUnits="userSpaceOnUse" x1="504.3061" y1="352.1927" x2="516.7324" y2="352.1927" gradientTransform="matrix(0.9867 0.1628 -0.1628 0.9867 -81.1069 -45.2849)">
						<stop  offset="0" style="stop-color:#FFAB67"/>
						<stop  offset="0.0554" style="stop-color:#FF9F6C"/>
						<stop  offset="0.3301" style="stop-color:#FF6784"/>
						<stop  offset="0.4627" style="stop-color:#FF518D"/>
						<stop  offset="1" style="stop-color:#5E309D"/>
					</linearGradient>
					<path class="st7" d="M361.79,386.54c-0.14,0.05-0.27,0.09-0.39,0.17c-0.11,0.07-0.2,0.16-0.3,0.23
						c-0.14,0.09-0.3,0.12-0.47,0.16c-0.36,0.08-0.72,0.16-1.08,0.24c-0.29,0.07-0.61,0.14-0.82,0.35c-0.22,0.21-0.28,0.61-0.05,0.8
						c0.24,0.21,0.61,0.08,0.88-0.07c0.52-0.28,1.01-0.61,1.52-0.91c0.82-0.48,1.68-0.9,2.54-1.31c0.93-0.45,1.87-0.89,2.8-1.34
						c1.89-0.9,3.79-1.81,5.68-2.71c-1.51,0.72-3.12,1.28-4.64,2C365.61,385.03,363.73,385.88,361.79,386.54z"/>
					<linearGradient id="SVGID_8_" gradientUnits="userSpaceOnUse" x1="250.6055" y1="52.2502" x2="287.0562" y2="52.2502">
						<stop  offset="0" style="stop-color:#FFAB67"/>
						<stop  offset="0.0554" style="stop-color:#FF9F6C"/>
						<stop  offset="0.3301" style="stop-color:#FF6784"/>
						<stop  offset="0.4627" style="stop-color:#FF518D"/>
						<stop  offset="1" style="stop-color:#5E309D"/>
					</linearGradient>
					<path class="st8" d="M265.8,54.31c-1.19,0.7-2.43,1.42-3.8,1.52c-1.22,0.09-2.62-0.28-3.57,0.51c-0.68,0.56-1.29,1.7-2.07,1.29
						c0,0.92-1.15,1.3-2.03,1.55c-1.35,0.38-2.63,1.04-3.72,1.92c-0.06,0.59,0.57,1.07,1.16,1.08c0.59,0.01,1.14-0.31,1.64-0.63
						c1.1-0.7,2.16-1.47,3.17-2.29c0.32-0.26,0.64-0.53,0.99-0.75c0.49-0.31,1.03-0.52,1.57-0.73c9.93-4.03,18.88-9.78,27.92-15.47
						c-2.83,2.12-6.14,3.05-9.19,4.85C273.84,49.55,269.82,51.93,265.8,54.31z"/>
					
						<linearGradient id="SVGID_9_" gradientUnits="userSpaceOnUse" x1="256.5405" y1="92.9756" x2="274.6063" y2="92.9756" gradientTransform="matrix(0.986 0.1667 -0.1667 0.986 -93.6081 -45.0944)">
						<stop  offset="0" style="stop-color:#ED6CCD"/>
						<stop  offset="1" style="stop-color:#005184"/>
					</linearGradient>
					<path class="st9" d="M150.71,91.64c-1.24,0.45-2.49,0.91-3.79,1.14c-0.68,0.12-1.37,0.18-2.06,0.18
						c-0.69,0-1.59,0.08-1.76,0.75c-0.12,0.49,0.34,0.99,0.84,1.05c0.5,0.06,1-0.2,1.37-0.55c0.15-0.14,0.3-0.3,0.49-0.39
						c0.35-0.17,0.78-0.07,1.16-0.17c0.47-0.13,0.79-0.54,1.2-0.79c0.5-0.31,1.11-0.37,1.69-0.51c0.6-0.15,1.18-0.39,1.75-0.63
						c3.65-1.54,7.3-3.08,10.94-4.61C158.57,88.54,154.68,90.18,150.71,91.64z"/>
					
						<linearGradient id="SVGID_10_" gradientUnits="userSpaceOnUse" x1="775.0173" y1="-58.945" x2="793.0831" y2="-58.945" gradientTransform="matrix(1 2.100000e-03 -2.100000e-03 1 -94.0661 85.3549)">
						<stop  offset="0" style="stop-color:#ED6CCD"/>
						<stop  offset="1" style="stop-color:#005184"/>
					</linearGradient>
					<path class="st10" d="M688.23,29.17c-1.15,0.65-2.3,1.31-3.55,1.75c-0.65,0.23-1.32,0.4-2,0.51c-0.68,0.11-1.56,0.34-1.61,1.03
						c-0.04,0.51,0.5,0.92,1,0.9c0.51-0.02,0.95-0.36,1.26-0.77c0.13-0.17,0.24-0.35,0.42-0.47c0.32-0.23,0.76-0.19,1.11-0.36
						c0.44-0.2,0.69-0.66,1.06-0.98c0.44-0.39,1.04-0.55,1.58-0.78c0.57-0.25,1.1-0.58,1.62-0.91c3.34-2.12,6.69-4.24,10.03-6.35
						C695.47,24.82,691.91,27.08,688.23,29.17z"/>
					<path class="st11" d="M29.01,167.98c-0.2,0.21-0.4,0.43-0.48,0.71c-0.15,0.55,0.23,1.1,0.24,1.66c0.01,1.14-1.33,1.69-2.3,2.28
						c-1.59,0.97-2.61,2.81-2.59,4.68c2.71-0.02,5.41-0.14,8.11-0.38c2.2-0.2,4.39-0.47,6.58-0.74c0.85-0.1,1.7-0.21,2.55-0.31
						c0.87-0.11,1.75-0.22,2.62-0.35c4.92-0.76,9.69-2.37,14.08-4.72c1.63-0.87,3.21-1.85,4.95-2.5c1.55-0.58,3.19-0.88,4.77-1.38
						c4.53-1.43,8.37-4.45,12.1-7.4c0.48-0.38,0.98-0.8,1.11-1.4c0.07-0.31,0.02-0.63,0.09-0.94c0.26-1.18,1.82-1.44,2.67-2.29
						c0.51-0.5,0.75-1.21,0.97-1.89c0.61-1.82,1.21-3.64,1.82-5.46c-9.85-2.32-20.7-0.01-28.75,6.14c-0.75,0.57-1.49,1.18-2.37,1.51
						c-0.69,0.26-1.44,0.33-2.16,0.51c-3.13,0.81-5.25,3.61-7.9,5.46c-1.27,0.89-2.69,1.57-3.96,2.47
						c-1.94,1.38-3.51,3.29-4.49,5.47c2.21,0.3,4.44,0.6,6.66,0.36c2.22-0.23,4.45-1.06,5.96-2.7c3.33-0.04,6.66-0.71,9.75-1.97
						c4-1.63,7.55-4.2,11.39-6.17c-4.66-2.52-10.97-1.43-14.52,2.49c1.96-1.55,4.45-2.42,6.95-2.44c0.22,0,0.46,0.01,0.64,0.15
						c0.53,0.43-0.16,1.21-0.76,1.51c-1.5,0.75-3,1.5-4.5,2.25c-1.13,0.56-2.27,1.13-3.5,1.38c-1.22,0.25-2.48,0.18-3.73,0.29
						c-1.73,0.15-3.44,0.63-4.99,1.42c-1.18,0.6-2.64,1.37-3.72,0.59c4.58-4.32,9.84-7.93,15.52-10.66c0.66-0.32,1.34-0.63,1.9-1.1
						c0.42-0.35,0.76-0.77,1.16-1.15c1.43-1.38,3.39-2.03,5.28-2.65c4.05-1.32,8.22-2.65,12.47-2.35c1.13,0.08,2.56,0.63,2.49,1.76
						c-0.02,0.41-0.26,0.78-0.49,1.12c-5.03,7.31-12.53,12.66-20.61,16.35c-8.07,3.69-16.75,5.83-25.42,7.77
						c-0.34,0.08-0.71,0.15-1.02-0.01c-0.53-0.27-0.59-1.07-1.1-1.38c-0.45-0.28-1.03-0.04-1.56-0.05c-1.28-0.02-2.1-1.53-1.9-2.78
						c0.21-1.26,1.11-2.28,1.99-3.2c10.52-11.02,23.84-19.34,38.36-23.95c-11.98,3.22-23.26,8.93-32.82,16.85
						C33.92,163.08,31.38,165.46,29.01,167.98z"/>
					<path class="st11" d="M310.56,189.44c-4.14-1.12-8.46-1.43-12.74-1.72c-0.85-0.06-1.71-0.11-2.53,0.1
						c-1.15,0.3-2.09,1.12-2.84,2.03c-2.3,2.81-2.99,6.84-1.76,10.26c0.26,0.73,0.61,1.52,0.36,2.26c-0.2,0.56-0.71,0.95-1.06,1.42
						c-1.27,1.7-0.39,4.12,0.64,5.98c2.47,4.44,5.67,8.47,9.43,11.89c3.51,3.19,7.48,5.83,11.43,8.46c2.01,1.34,4.04,2.68,6.26,3.63
						c2.47,1.05,5.16,1.6,7.84,1.59c3.27-0.01,6.79-1.02,8.73-3.65c1.47-1.99,1.81-4.63,1.44-7.08c-0.37-2.44-1.39-4.73-2.46-6.96
						c-3.18-6.67-7.13-13.39-13.46-17.21c-2.02-1.22-4.23-2.1-6.47-2.81c-2.51-0.79-5.33-1.36-7.7-0.21
						c-3.2,1.56-4.29,5.83-3.31,9.26c0.98,3.42,3.51,6.16,6.05,8.66c1.6,1.57,3.24,3.12,5.07,4.4c1.34,0.94,2.83,1.76,4.46,1.98
						c1.63,0.22,3.42-0.24,4.47-1.5c1.13-1.35,1.21-3.37,0.53-4.99c-0.68-1.62-2.01-2.9-3.45-3.92c-0.78-0.55-1.87-1.04-2.63-0.46
						c0.99-1.34-0.47-3.49-2.14-3.38c-1.67,0.11-2.87,1.9-2.75,3.57c0.12,1.67,1.27,3.11,2.63,4.07c1.07,0.75,2.95,1.01,3.32-0.24
						c0.28-0.92-0.6-1.75-1.38-2.31c1.94-0.87,4.52,0.37,5.04,2.44c0.52,2.06-1.16,4.39-3.28,4.54c-2.05,0.15-3.79-1.39-5.27-2.82
						c-2.55-2.47-5.11-4.97-7.14-7.88c-0.81-1.16-1.55-2.46-1.55-3.88c0-2.43,2.3-4.4,4.71-4.76c2.41-0.36,4.83,0.54,6.98,1.67
						c9.33,4.88,15.91,14.67,16.89,25.15c0.08,0.88,0.09,1.87-0.51,2.51c-0.98,1.05-2.79,0.47-4.09,1.08
						c-0.58,0.27-1.03,0.76-1.58,1.08c-1.43,0.82-3.22,0.35-4.78-0.19c-11.67-4.05-22.81-11.18-28.82-21.97
						c1.7-1.59,1.98-4.47,0.62-6.36c0.88-1.22-0.07-2.87-0.4-4.34c-0.65-2.93,1.55-5.93,4.33-7.07c2.78-1.14,5.94-0.8,8.87-0.12
						c-0.44,0.06-0.55-0.69-0.18-0.94c0.37-0.24,0.86-0.11,1.27,0.03c5.18,1.78,10.02,4.52,14.21,8.04c-0.1-0.86,0.9-1.52,1.76-1.41
						s1.57,0.7,2.22,1.27c2.13,1.88,4.26,3.75,6.39,5.63C325.67,198.45,319.36,191.82,310.56,189.44z"/>
				</g>
			</g>
			<g>
				<g>
					<linearGradient id="SVGID_11_" gradientUnits="userSpaceOnUse" x1="695.0195" y1="281.0285" x2="831.5127" y2="137.0357">
						<stop  offset="0" style="stop-color:#ED6CCD"/>
						<stop  offset="1" style="stop-color:#005184"/>
					</linearGradient>
					<circle class="st12" cx="783.15" cy="188.06" r="102.08"/>
					<g>
						<path class="st13" d="M711.21,151.37c0.63-0.58,1.44-1.12,2.28-0.95c1.15,0.24,1.62,1.62,1.83,2.78
							c1.2,6.67,0.96,13.59-0.7,20.16c-0.4,1.6-0.93,3.24-2.07,4.44c-0.23,0.24-0.5,0.49-0.59,0.81c-0.22,0.88,0.93,1.41,1.82,1.57
							c-0.06-0.35-0.11-0.69-0.17-1.04c1.09,0.34,2.18,0.69,3.27,1.03c-1.31-2.3-0.21-5.63,2.21-6.69c-1-0.68-0.81-2.23-0.27-3.32
							c0.53-1.09,1.31-2.19,1.12-3.39c-0.09-0.54-0.37-1.08-0.23-1.61c0.12-0.47,0.54-0.79,0.94-1.07c1.31-0.94,2.61-1.87,3.92-2.81
							c-1.79,0.38-3.78-0.42-4.81-1.94c2.87-0.39,4.83-3.02,6.45-5.42c-1.45,0.58-2.97,1.17-4.53,1.08
							c-1.56-0.09-3.19-1.07-3.5-2.61c0.83-0.38,1.56-0.96,2.13-1.67c-0.77,0.13-1.55,0.25-2.32,0.38c2.06-2.27,3.25-5.3,3.29-8.36
							c-0.77,1.7-2.14,3.13-3.81,3.97c-2.34,1.19-5.22,1.27-7.25,2.94c-2.47,2.03-3.29,5.76-3.37,8.74
							C707.59,155.53,709.45,153.02,711.21,151.37z"/>
						<path class="st13" d="M706.6,174.59c0.13,0.72,0.29,1.46,0.7,2.06c0.55,0.81,1.53,1.32,2.52,1.28
							c0.98-0.04,1.93-0.61,2.42-1.46c-1.08,0.82-2.75,0.31-3.59-0.75c-0.85-1.06-1.06-2.48-1.18-3.83
							c-0.41-4.7,0.06-9.47,1.38-13.99c-0.38,1.31-1.17,2.53-1.57,3.86c-0.35,1.17-0.59,2.4-0.78,3.61
							C706.03,168.42,706.06,171.55,706.6,174.59z"/>
						<path class="st14" d="M707.96,179.4c0.46,0.18,0.96,0.21,1.44,0.3c1.13,0.22,2.19,0.82,2.94,1.7c-0.6-0.39-1.26-0.7-1.95-0.9
							c1.37,1.28,2.25,3.07,2.43,4.93c-1.39-1.68-3.06-3.11-4.72-4.52c0.43,1.14,0.5,2.42,0.19,3.6c0.01-0.98-0.12-1.96-0.37-2.9
							c-0.36,0.64-0.85,1.2-1.43,1.64c0.19-0.8,0.39-1.62,0.37-2.45c-0.02-0.83-0.28-1.68-0.88-2.26c-0.1-0.09-0.2-0.18-0.28-0.29
							c-0.09-0.14-0.13-0.31-0.15-0.47c-0.26-1.43-0.31-2.89-0.15-4.33C705.76,175.29,705.88,178.57,707.96,179.4z"/>
					</g>
					<g>
						<path class="st13" d="M713.81,237.36c1.07,0.22,1.81,1.16,2.4,2.08c2.39,3.71,3.89,7.98,4.35,12.36
							c0.3-3.06-0.65-6.11-1.97-8.89c-0.41-0.87-0.79-2.06-0.04-2.66c-0.25-0.08-0.49-0.15-0.74-0.23c0.06-0.82,0.13-1.65,0.19-2.47
							c0.01-0.14,0.02-0.3-0.04-0.42c-0.32-0.65-1.67,0.26-1.97-0.41c0.85-1.35,1.26-2.97,1.16-4.56c-0.74,1.62-2.09,2.96-3.72,3.68
							c-0.02-1.2-0.12-2.39-0.31-3.57c-0.18,1.54-1.2,2.84-1.8,4.28c-0.54,1.29-0.73,3.35,0.65,4.17
							C712.18,239.51,711.27,236.85,713.81,237.36z"/>
						<path class="st13" d="M717.4,250.39c0.28,0.32,0.59,0.64,1,0.76s0.93-0.05,1.06-0.45c-0.24,0.75-1.19,1.18-1.91,0.86
							c-0.33-0.15-0.6-0.42-0.84-0.69c-1.98-2.22-3.23-5.09-3.52-8.05c0.06,0.63,0.42,1.28,0.78,1.78c0.41,0.57,0.65,1.19,0.95,1.83
							C715.59,247.85,716.38,249.21,717.4,250.39z"/>
						<path class="st14" d="M718.29,252.83c0.52,0.3,1.17,0.52,1.71,0.26c0.75-0.35,0.88-1.33,0.92-2.15
							c0.39-0.21,0.78-0.42,1.17-0.62c-0.19,0.02-0.28,0.28-0.18,0.43c0.11,0.15,0.35,0.18,0.51,0.07c-0.06,0.1,0.03,0.23,0.14,0.26
							c0.11,0.03,0.23-0.01,0.34-0.04c0.41-0.14,0.82-0.28,1.23-0.42c-0.46,0.41-0.99,0.75-1.55,1c1.03,0.21,2.02,0.62,2.89,1.19
							c-0.79,0.01-1.57,0.15-2.32,0.4c1.09,0.85,1.9,2.06,2.28,3.39c-0.88-0.95-2.11-1.48-3.33-1.9c-1.22-0.41-2.49-0.74-3.61-1.38
							c-1.99-1.14-3.33-3.14-4.41-5.1c0.56,0.84,1.28,1.56,1.88,2.37C716.6,251.48,717.35,252.28,718.29,252.83z"/>
					</g>
					<g>
						<path class="st13" d="M689.22,197.43c0.29-0.44,0.82-0.75,1.34-0.66c0.48,0.09,0.83,0.49,1.1,0.89
							c0.58,0.84,0.97,1.81,1.16,2.81c-0.11-1.06-0.22-2.12-0.56-3.13c-0.34-1.01-0.94-1.96-1.85-2.52
							c-0.51-0.32-1.24-0.48-1.69-0.08c-0.26,0.24-0.36,0.61-0.43,0.96c-0.33,1.72-0.47,4.37,0.47,5.93
							C689.16,200.28,688.37,198.72,689.22,197.43z"/>
						<path class="st13" d="M691.29,208.34c0.21,0.33,0.46,0.67,0.82,0.83c0.36,0.16,0.85,0.09,1.05-0.25
							c-0.13,0.29-0.27,0.59-0.51,0.81c-0.24,0.22-0.6,0.33-0.88,0.19c-0.17-0.08-0.29-0.24-0.39-0.39
							c-1.05-1.47-2.08-3.81-1.8-5.66c0.28,0.54,0.33,1.22,0.5,1.81C690.35,206.62,690.76,207.52,691.29,208.34z"/>
						<path class="st14" d="M693.73,208.63c0.1-1.71,0.13-3.43,0.11-5.14c0.57-0.16,1.18-0.23,1.77-0.2
							c-0.29,0.21-0.59,0.43-0.88,0.64c-0.06,0.04-0.13,0.1-0.13,0.17c0,0.1,0.11,0.17,0.21,0.2c0.56,0.21,1.12,0.42,1.69,0.63
							c-0.45,0.06-0.91,0.13-1.27,0.4c-0.36,0.27-0.54,0.82-0.28,1.18c0.38,0.08,0.75,0.26,1.04,0.52
							c-0.28,0.12-0.71-0.12-0.85,0.15c-0.19,0.35,0.61,0.6,0.5,0.98c-0.23-0.32-0.77-0.06-0.93,0.3c-0.16,0.36-0.13,0.8-0.35,1.13
							c-0.07,0.1-0.16,0.2-0.17,0.33c-0.01,0.11,0.06,0.21,0.12,0.3c0.41,0.59,0.82,1.19,1.23,1.78c-0.3-0.57-0.78-1.05-1.36-1.34
							c0.5,1,0.81,2.08,0.92,3.19c-0.32-0.74-0.66-1.52-1.32-1.98c-0.45-0.31-1-0.44-1.5-0.67c-0.5-0.22-1.18-0.71-1.09-1.33
							c0.41,0.2,0.7,0.75,1.2,0.82C693.48,210.86,693.69,209.39,693.73,208.63z"/>
						<path class="st13" d="M691.56,194.9c0.49,0.57,0.81,1.25,1.13,1.92c0.38-0.12,0.75-0.28,1.11-0.47
							c-0.29-0.02-0.59-0.05-0.88-0.07c0.3-0.4,0.6-0.79,0.9-1.19c0.3-0.39,0.6-0.8,0.7-1.28c-0.31,0.32-0.7,0.57-1.11,0.73
							c0.49-1.14,0.75-2.39,0.76-3.63c-0.88,1.28-2.13,2.3-3.57,2.9c0.18-0.49,0.37-0.97,0.55-1.46c-0.26,0.7-1.06,1.09-1.48,1.64
							c0.25,0.08,0.53,0,0.79,0.07C690.89,194.2,691.28,194.58,691.56,194.9z"/>
					</g>
					<path class="st13" d="M720.71,120.52c0.18-0.31,0.35-0.7,0.18-1.02c0.41-0.25,0.96,0.19,0.99,0.67
						c0.03,0.48-0.26,0.91-0.54,1.3c-0.73,1.01-1.47,2.02-2.43,2.8c-0.87,0.71-2.01,1.28-3.16,1.26c-1.21-0.02-1.36-0.96-0.17-1.15
						C717.74,124.04,719.62,122.39,720.71,120.52z"/>
					<path class="st13" d="M727.21,203.32c0.49-0.2,1.07-0.03,1.49,0.31c0.41,0.33,0.69,0.81,0.93,1.28
						c0.89,1.76,1.46,3.75,1.24,5.71c-0.03,0.28-0.09,0.58-0.29,0.79c-0.3,0.32-0.84,0.28-1.21,0.05s-0.61-0.62-0.84-1
						c0.32,0.78,0.91,1.45,1.65,1.85c0.28,0.16,0.6,0.28,0.93,0.25c0.83-0.06,1.29-1,1.44-1.82c0.4-2.23-0.24-4.57-1.47-6.47
						c-0.79-1.22-2.01-2.37-3.47-2.32c-0.18,0.01-0.37,0.03-0.52,0.14c-0.27,0.18-0.34,0.53-0.38,0.85
						c-0.06,0.45-0.09,0.91-0.11,1.36C726.57,203.89,726.82,203.48,727.21,203.32z"/>
					<path class="st13" d="M702.15,232.44c0.11-0.15,0.13-0.34,0.13-0.52c0.01-1.02-0.37-2.08-1.2-2.67
						c-0.16-0.12-0.36-0.22-0.56-0.2c-0.2,0.01-0.4,0.18-0.39,0.38c-0.09-0.27-0.19-0.54-0.16-0.82c0.03-0.28,0.21-0.57,0.49-0.62
						c0.13-0.02,0.26,0,0.39,0.04c0.84,0.25,1.51,0.92,1.89,1.71c0.38,0.79,0.48,1.69,0.41,2.56c-0.03,0.34-0.09,0.72-0.36,0.94
						c-0.26,0.22-0.66,0.21-0.96,0.07c-0.43-0.2-0.79-0.65-1.02-1.05C701.19,232.34,701.74,232.99,702.15,232.44z"/>
					<path class="st13" d="M731.63,257.47c0.33,0.01,0.63,0.19,0.9,0.38c0.26,0.19,0.51,0.41,0.68,0.69
						c0.17,0.28,0.25,0.62,0.17,0.93c0.07-0.49,0.15-1.01-0.05-1.46c-0.13-0.28-0.35-0.51-0.59-0.71c-0.25-0.2-0.53-0.38-0.82-0.52
						c-0.17-0.08-0.35-0.16-0.53-0.17c-0.19-0.01-0.39,0.04-0.51,0.17c-0.12,0.12-0.16,0.3-0.19,0.46c-0.05,0.34-0.12,0.97,0.2,1.19
						C730.8,257.92,731.03,257.45,731.63,257.47z"/>
					<path class="st13" d="M692.52,169.78c-0.13,0.58-0.46,1.14-0.99,1.4c0.48,0.15,1.04,0.03,1.43-0.29
						c0.61-0.52,0.71-1.42,0.7-2.22c-0.01-0.39-0.34-2.56-1.18-2.12C692.14,166.72,692.63,169.28,692.52,169.78z"/>
					<path class="st13" d="M705.36,142.95c0.87-0.11,1.64-0.72,2.04-1.5c0.35-0.69,0.44-1.56,0.24-2.31
						c-0.19-0.73-0.59-1.01-0.78-0.12c-0.16,0.72-0.07,1.41-0.33,2.13C706.39,141.5,705.82,142.89,705.36,142.95z"/>
					<path class="st13" d="M731.99,138.76c0.61-0.12,1.11-0.54,1.57-0.96c0.65-0.57,1.34-1.19,1.73-1.98
						c0.14-0.28,0.48-0.93,0.2-1.17c-0.21-0.19-0.9,0.1-1.1,0.25c-0.5,0.36-0.55,0.98-0.77,1.51
						C733.26,137.31,732.69,138.12,731.99,138.76z"/>
				</g>
				<g>
					<linearGradient id="SVGID_12_" gradientUnits="userSpaceOnUse" x1="294.805" y1="351.3923" x2="329.4682" y2="313.5778">
						<stop  offset="0" style="stop-color:#E86376"/>
						<stop  offset="1" style="stop-color:#363090"/>
					</linearGradient>
					<circle class="st15" cx="313.66" cy="330.83" r="17.46"/>
					<path class="st16" d="M288.49,346.45c0.98,0.12,1.91-0.37,2.77-0.85c11.93-6.62,23.85-13.25,35.66-20.07
						c2.77-1.6,5.59-3.26,7.7-5.67c-2.19,0.24-4.32,0.99-6.18,2.17c5.58-4.17,12.26-6.85,19.17-7.69c-3.25,3.3-7.14,5.88-11,8.44
						c-16.8,11.12-33.82,22.36-52.84,28.98c-0.54,0.19-1.38,0.18-1.41-0.39c-0.01-0.22,0.13-0.41,0.27-0.58
						c4.05-5.06,8.91-9.51,14.4-12.96C294.24,340.77,291.1,343.35,288.49,346.45z"/>
					<g>
						<defs>
							<circle id="SVGID_13_" cx="313.66" cy="330.83" r="17.46"/>
						</defs>
						<clipPath id="SVGID_14_">
							<use xlink:href="#SVGID_13_"  style="overflow:visible;"/>
						</clipPath>
						<path class="st17" d="M298.81,331.61c2.37-0.61,4.14-2.56,6.27-3.77c0.87-0.49,1.86-0.87,2.85-0.75
							c0.86,0.11,1.64,0.59,2.5,0.74c0.9,0.15,1.81-0.08,2.73-0.07c1.4,0.01,2.79,0.6,3.77,1.61c0.97,1.01,1.52,2.42,1.49,3.82
							c0.83,0.62,1.22,1.65,1.54,2.63c0.35,1.08,0.65,2.23,0.39,3.34c-0.26,1.11-1.25,2.12-2.38,2c-0.47-0.05-1.04-0.25-1.35,0.1
							c-0.26,0.29-0.13,0.76,0.09,1.08c0.22,0.33,0.51,0.63,0.56,1.01c0.04,0.3-0.07,0.59-0.18,0.87c-0.62,1.55-1.29,3.18-2.6,4.22
							c-1.1,0.88-2.55,1.23-3.96,1.25c-1.41,0.01-2.8-0.29-4.17-0.62c0.75-0.31,1.17-1.24,0.92-2.01c-0.28-0.83-1.19-1.36-1.32-2.22
							c-0.12-0.78,0.47-1.51,1.14-1.92c0.67-0.41,1.46-0.62,2.12-1.05c1.17-0.75,1.86-2.15,1.85-3.54s-0.69-2.74-1.73-3.66
							c-0.95-0.85-2.29-1.36-3.53-1.02c-0.23,0.06-0.47,0.15-0.7,0.11c-0.69-0.13-0.68-1.16-1.17-1.67c-0.42-0.44-1.16-0.39-1.7-0.1
							c-0.54,0.29-0.94,0.77-1.41,1.16c-0.58,0.49-1.36,1.07-1.17,1.81c0.16,0.62,0.91,0.84,1.53,0.99
							c0.65,0.15,1.32,0.35,1.81,0.79c0.5,0.45,0.77,1.21,0.46,1.8c-0.28,0.53-0.93,0.79-1.19,1.33c-0.22,0.45-0.1,0.99-0.14,1.49
							c-0.08,1.09-1.02,2.06-2.11,2.18c-1.14,0.12-2.19-0.58-3.06-1.33c-1.64-1.42-3.03-3.17-3.75-5.21
							c-0.33-0.95-0.5-1.96-0.49-2.97c0.01-0.77,0.09-2.43,0.69-3c0.54-0.52,1.68,0.41,2.35,0.58
							C296.75,331.86,297.81,331.87,298.81,331.61z"/>
						<path class="st17" d="M301.36,319.22c0.36,0.61,1.09,0.95,1.79,0.93s1.38-0.36,1.89-0.84c0.24-0.23,0.5-0.51,0.83-0.5
							c0.3,0.01,0.55,0.25,0.85,0.3c0.76,0.12,1.14-0.99,1.88-1.21c0.49-0.15,1.02,0.13,1.52,0.04c0.82-0.15,1.16-1.13,1.83-1.62
							c0.38-0.27,0.85-0.37,1.3-0.47c0.44-0.09,0.88-0.18,1.31-0.27c0.92-0.19,1.88-0.39,2.81-0.19c0.56,0.12,1.09,0.38,1.52,0.75
							c-0.45,0.26-1-0.04-1.48-0.25c-0.48-0.21-1.21-0.2-1.34,0.31c-0.13,0.52,0.53,0.86,1.06,0.99c1.07,0.26,2.15,0.51,3.22,0.77
							c1.5,0.36,3.03,0.72,4.56,0.61c0.1-1.39-0.47-2.81-1.5-3.75c-0.63-0.58-1.41-0.96-2.2-1.31c-3.41-1.49-7.14-2.25-10.87-2.21
							c-1.82,0.02-3.66,0.23-5.36,0.85c-1.71,0.63-3.29,1.7-4.32,3.2c-0.57,0.82-0.15,0.98,0.15,1.64
							C301.14,317.68,300.95,318.52,301.36,319.22z"/>
						<path class="st17" d="M308.69,320.14c-0.36-0.07-0.86-0.04-0.94,0.32c-0.02,0.07-0.01,0.14-0.05,0.2
							c-0.1,0.18-0.37,0.08-0.57,0.03c-0.45-0.11-0.88,0.19-1.25,0.46c-0.11,0.08-0.22,0.18-0.24,0.31
							c-0.02,0.12,0.04,0.23,0.11,0.32c0.28,0.37,0.77,0.57,1.23,0.5c0.28-0.04,0.54-0.18,0.82-0.23c0.25-0.05,0.51-0.04,0.76-0.04
							c0.65,0.01,1.35-0.03,1.84-0.45c0.37-0.31,0.58-0.79,1.01-1.02c0.44-0.24,1.11-0.21,1.29-0.69c0.1-0.28-0.05-0.59-0.29-0.77
							c-0.24-0.17-0.54-0.22-0.83-0.25c-0.11-0.01-0.21-0.02-0.32,0.01c-0.24,0.08-0.35,0.34-0.51,0.53
							C310.36,319.89,309.32,320.26,308.69,320.14z"/>
						<path class="st17" d="M328.02,321.3c-0.36,0.17-0.73,0.46-0.71,0.86c0.02,0.49,0.63,0.77,0.7,1.26
							c0.03,0.2-0.04,0.41-0.04,0.61c0,0.27,0.13,0.52,0.25,0.76c0.26,0.49,0.51,0.98,0.77,1.48c0.16,0.31,0.33,0.63,0.36,0.98
							c0.04,0.35-0.09,0.74-0.39,0.92c-0.17,0.1-0.38,0.13-0.58,0.18c-0.99,0.24-1.76,1.2-1.78,2.22c0,0.12,0,0.25-0.04,0.37
							c-0.09,0.22-0.34,0.32-0.56,0.41c-0.58,0.24-1.2,0.7-1.14,1.32c0.02,0.22,0.13,0.42,0.23,0.62c0.56,1.13,0.84,2.37,1.12,3.6
							c0.58-0.19,1.21-0.38,1.78-0.16c0.58,0.23,0.94,0.85,1.02,1.47c0.08,0.62-0.07,1.25-0.22,1.86c-0.05,0.19-0.1,0.39-0.04,0.58
							c0.05,0.17,0.19,0.3,0.35,0.38c0.49,0.26,1.12,0.04,1.5-0.37c0.37-0.41,0.55-0.96,0.68-1.49c0.63-2.46,0.78-5.02,0.93-7.56
							c0.15-2.68,0.31-5.39-0.12-8.04c-0.05-0.3-0.1-0.63,0.08-0.88c0.21-0.31,0.64-0.46,0.43-0.89c-0.12-0.25-0.95-0.48-1.2-0.57
							C330.31,320.79,329.08,320.79,328.02,321.3z"/>
					</g>
				</g>
				<g>
					<linearGradient id="SVGID_15_" gradientUnits="userSpaceOnUse" x1="18.7929" y1="189.7702" x2="15.7931" y2="-51.7176">
						<stop  offset="0" style="stop-color:#F35C5F"/>
						<stop  offset="1" style="stop-color:#8B3791"/>
					</linearGradient>
					<circle class="st18" cx="16.71" cy="22.14" r="113.51"/>
					<g>
						<g>
							<path class="st13" d="M41.03,108.08c-1.11,0.02-2.36-0.18-3.02-1.08c-0.9-1.24-0.14-2.96,0.67-4.26
								c4.66-7.45,10.93-13.88,18.25-18.74c1.78-1.18,3.72-2.31,5.86-2.45c0.44-0.03,0.91-0.03,1.27-0.27
								c0.98-0.65,0.33-2.16-0.38-3.09c-0.25,0.38-0.49,0.76-0.74,1.15c-0.75-1.28-1.5-2.56-2.24-3.84
								c-0.75,3.35-4.71,5.58-7.96,4.49c0.36,1.53-1.17,2.84-2.63,3.42c-1.46,0.58-3.17,0.96-4.03,2.28
								c-0.39,0.59-0.59,1.36-1.18,1.75c-0.53,0.34-1.21,0.28-1.83,0.21c-2.07-0.24-4.14-0.48-6.21-0.72
								c2.05,1.2,3.26,3.7,2.92,6.05c-3.1-2.13-7.27-1.32-10.92-0.43c1.9,0.71,3.87,1.47,5.29,2.92c1.42,1.45,2.13,3.81,1.08,5.56
								c-1.13-0.36-2.33-0.45-3.5-0.26c0.85,0.55,1.71,1.11,2.56,1.66c-3.95,0.38-7.74,2.25-10.45,5.15
								c2.23-0.96,4.78-1.13,7.12-0.49c3.28,0.9,6.12,3.34,9.52,3.5c4.15,0.2,8.18-2.66,10.86-5.45
								C48.13,107.25,44.16,108.04,41.03,108.08z"/>
							<path class="st13" d="M65.71,89.82c0.51-0.8,0.99-1.65,1.13-2.59c0.18-1.26-0.33-2.6-1.3-3.42c-0.97-0.82-2.38-1.1-3.59-0.71
								c1.75,0.15,2.9,2.1,2.79,3.86s-1.14,3.31-2.2,4.71c-3.7,4.86-8.32,9.03-13.53,12.23c1.51-0.93,3.33-1.4,4.87-2.34
								c1.36-0.82,2.66-1.78,3.89-2.78C60.88,96.24,63.58,93.21,65.71,89.82z"/>
							<path class="st14" d="M68.6,84.01c-0.28-0.58-0.74-1.04-1.13-1.55c-0.9-1.2-1.38-2.7-1.34-4.2c0.24,0.9,0.6,1.77,1.08,2.57
								c-0.2-2.42,0.51-4.91,1.97-6.85c-0.14,2.83,0.23,5.65,0.59,8.46c0.58-1.47,1.63-2.76,2.96-3.62
								c-0.86,0.93-1.59,1.98-2.17,3.11c0.9-0.3,1.86-0.41,2.81-0.32c-0.89,0.6-1.79,1.22-2.49,2.03c-0.7,0.81-1.2,1.86-1.13,2.93
								c0.01,0.17,0.04,0.35,0.01,0.52c-0.03,0.21-0.15,0.4-0.26,0.59c-1,1.59-2.23,3.04-3.63,4.29
								C67.13,89.87,69.87,86.63,68.6,84.01z"/>
						</g>
						<g>
							<path class="st13" d="M113.54,23.28c-0.84-1.14-0.72-2.7-0.49-4.09c0.94-5.64,3.22-11.05,6.61-15.66
								c-2.96,2.67-4.7,6.44-5.87,10.25c-0.36,1.19-1.04,2.67-2.28,2.59c0.17,0.29,0.34,0.58,0.51,0.87
								c-0.78,0.74-1.56,1.47-2.34,2.21c-0.14,0.13-0.28,0.26-0.33,0.44c-0.26,0.91,1.83,1.21,1.53,2.11
								c-1.99,0.55-3.8,1.75-5.09,3.37c2.13-0.91,4.59-1.01,6.78-0.28c-1.03,1.16-1.97,2.4-2.82,3.7c1.52-1.32,3.63-1.69,5.46-2.54
								c1.64-0.76,3.62-2.58,3.02-4.57C116.97,22.64,115.53,25.99,113.54,23.28z"/>
							<path class="st13" d="M121.46,7.65c0.02-0.55,0-1.13-0.29-1.6c-0.29-0.47-0.93-0.76-1.41-0.49c0.88-0.51,2.17-0.09,2.58,0.84
								c0.19,0.43,0.21,0.92,0.2,1.39c-0.04,3.86-1.33,7.7-3.65,10.8c0.49-0.66,0.71-1.6,0.8-2.4c0.1-0.91,0.41-1.72,0.68-2.59
								C120.98,11.67,121.4,9.67,121.46,7.65z"/>
							<path class="st14" d="M122.73,4.53c-0.24-0.74-0.67-1.51-1.41-1.74c-1.02-0.32-2.01,0.51-2.76,1.26
								c-0.56-0.14-1.11-0.28-1.67-0.42c0.2,0.15,0.52-0.02,0.55-0.26c0.03-0.24-0.18-0.47-0.42-0.51c0.14-0.05,0.17-0.25,0.09-0.38
								c-0.08-0.13-0.23-0.19-0.36-0.25c-0.51-0.22-1.03-0.45-1.54-0.67c0.8,0.01,1.6,0.14,2.36,0.4c-0.8-1.1-1.4-2.35-1.74-3.67
								c0.76,0.68,1.64,1.23,2.57,1.64c-0.3-1.77-0.03-3.63,0.77-5.24c0.01,1.67,0.73,3.26,1.54,4.72c0.81,1.46,1.74,2.88,2.26,4.47
								c0.92,2.83,0.46,5.92-0.21,8.74c0.19-1.29,0.13-2.61,0.26-3.92C123.17,7.3,123.16,5.87,122.73,4.53z"/>
						</g>
						<g>
							<path class="st13" d="M102.31,83.06c-0.66,0.17-1.45,0.01-1.86-0.54c-0.38-0.5-0.37-1.19-0.28-1.81
								c0.18-1.31,0.64-2.58,1.33-3.71c-0.82,1.11-1.65,2.23-2.19,3.49c-0.55,1.26-0.8,2.7-0.43,4.03c0.21,0.76,0.77,1.54,1.56,1.55
								c0.46,0,0.88-0.27,1.24-0.55c1.81-1.36,4.27-3.78,4.72-6.1C104.86,80.37,104.25,82.57,102.31,83.06z"/>
							<path class="st13" d="M109.84,70.78c0.08-0.51,0.13-1.04-0.07-1.52c-0.2-0.47-0.74-0.84-1.23-0.68
								c0.38-0.16,0.77-0.33,1.19-0.33c0.41,0,0.86,0.2,1.01,0.59c0.09,0.22,0.07,0.48,0.04,0.72c-0.28,2.33-1.32,5.47-3.21,7
								c0.21-0.76,0.75-1.46,1.1-2.17C109.24,73.25,109.64,72.03,109.84,70.78z"/>
							<path class="st14" d="M107.75,68.37c-1.59,1.56-3.12,3.18-4.59,4.85c-0.69-0.35-1.33-0.8-1.87-1.35
								c0.47,0.05,0.94,0.1,1.4,0.16c0.1,0.01,0.21,0.02,0.28-0.05c0.1-0.1,0.04-0.26-0.02-0.38c-0.36-0.69-0.71-1.38-1.07-2.08
								c0.48,0.33,0.99,0.67,1.57,0.72c0.58,0.05,1.24-0.32,1.3-0.9c-0.3-0.41-0.49-0.9-0.55-1.4c0.37,0.13,0.58,0.74,0.95,0.6
								c0.48-0.17-0.06-1.1,0.38-1.38c-0.06,0.51,0.69,0.73,1.16,0.52c0.47-0.21,0.82-0.65,1.32-0.78c0.16-0.04,0.33-0.06,0.44-0.17
								c0.1-0.1,0.13-0.26,0.15-0.4c0.13-0.93,0.25-1.85,0.38-2.78c-0.21,0.81-0.16,1.69,0.13,2.47c0.39-1.39,1.04-2.71,1.89-3.87
								c-0.34,0.98-0.69,2.03-0.46,3.05c0.16,0.69,0.57,1.3,0.86,1.95c0.28,0.65,0.52,1.71-0.11,2.23
								c-0.22-0.56-0.01-1.33-0.44-1.84C109.93,66.45,108.46,67.67,107.75,68.37z"/>
							<path class="st13" d="M97.86,83.43c0.03-0.97,0.31-1.9,0.59-2.83c-0.47-0.21-0.96-0.39-1.47-0.52
								c0.26,0.28,0.52,0.56,0.78,0.83c-0.63,0.12-1.27,0.24-1.9,0.36c-0.62,0.12-1.27,0.25-1.79,0.61
								c0.58-0.03,1.17,0.06,1.71,0.27c-1.47,0.67-2.8,1.64-3.9,2.82c1.96-0.46,4.06-0.35,5.96,0.33c-0.6,0.31-1.2,0.62-1.8,0.92
								c0.86-0.44,1.96-0.12,2.84-0.29c-0.17-0.29-0.51-0.46-0.69-0.76C97.89,84.7,97.84,83.99,97.86,83.43z"/>
						</g>
						<path class="st13" d="M5.01,129.4c-0.45,0.14-0.95,0.37-1.06,0.83c-0.61-0.11-0.75-1.02-0.36-1.51
							c0.39-0.49,1.04-0.65,1.65-0.78c1.57-0.33,3.17-0.65,4.78-0.57c1.46,0.08,3.04,0.52,4.13,1.54c1.14,1.07,0.47,2.1-0.83,1.25
							C10.94,128.62,7.68,128.57,5.01,129.4z"/>
						<path class="st13" d="M70.99,44.27c-0.65-0.24-1.06-0.91-1.16-1.59c-0.1-0.68,0.05-1.37,0.23-2.04
							c0.68-2.47,1.86-4.87,3.79-6.56c0.28-0.24,0.6-0.48,0.97-0.51c0.57-0.04,1.06,0.46,1.2,1.01c0.15,0.55,0.04,1.13-0.06,1.69
							c0.38-1.02,0.39-2.18,0.03-3.21c-0.14-0.4-0.34-0.79-0.67-1.05c-0.86-0.67-2.11-0.17-2.97,0.49
							c-2.33,1.78-3.75,4.59-4.22,7.49c-0.3,1.86-0.14,4.03,1.3,5.25c0.18,0.15,0.38,0.29,0.61,0.32c0.41,0.06,0.79-0.21,1.11-0.48
							c0.45-0.38,0.88-0.79,1.3-1.21C72.1,44.28,71.5,44.46,70.99,44.27z"/>
						<path class="st13" d="M120.44,38.18c-0.23,0.05-0.42,0.22-0.58,0.39c-0.9,0.96-1.46,2.33-1.18,3.62
							c0.06,0.26,0.15,0.52,0.36,0.68c0.21,0.16,0.54,0.18,0.7-0.03c-0.14,0.34-0.29,0.69-0.56,0.93c-0.27,0.25-0.7,0.36-1.01,0.17
							c-0.15-0.09-0.25-0.23-0.34-0.38c-0.58-0.97-0.65-2.2-0.32-3.28c0.33-1.08,1.01-2.03,1.84-2.81c0.32-0.31,0.72-0.61,1.16-0.58
							c0.44,0.02,0.81,0.37,0.98,0.78c0.24,0.57,0.19,1.31,0.06,1.9C121.27,39.1,121.31,38,120.44,38.18z"/>
						<path class="st13" d="M113.98-11.56c-0.3-0.3-0.44-0.73-0.53-1.15c-0.09-0.41-0.13-0.84-0.06-1.25
							c0.08-0.41,0.3-0.81,0.65-1.04c-0.5,0.4-1.02,0.84-1.22,1.44c-0.13,0.38-0.11,0.79-0.05,1.19c0.06,0.42,0.17,0.82,0.33,1.21
							c0.09,0.23,0.2,0.45,0.36,0.63c0.17,0.18,0.4,0.3,0.65,0.28c0.22-0.02,0.41-0.14,0.59-0.28c0.35-0.27,0.96-0.83,0.84-1.32
							C115.16-11.26,114.53-11.02,113.98-11.56z"/>
						<path class="st13" d="M75.03,106.72c0.63-0.44,1.44-0.69,2.17-0.48c-0.34-0.57-0.97-0.94-1.63-0.96
							c-1.04-0.03-1.92,0.74-2.61,1.53c-0.33,0.38-1.9,2.76-0.71,3.06C72.72,109.99,74.49,107.1,75.03,106.72z"/>
						<path class="st13" d="M39.3,121.27c-0.94-0.65-2.2-0.74-3.27-0.33c-0.94,0.36-1.78,1.12-2.25,2.01
							c-0.46,0.87-0.32,1.48,0.64,0.8c0.77-0.55,1.3-1.29,2.17-1.75C37.06,121.76,38.81,120.93,39.3,121.27z"/>
						<path class="st13" d="M10.09,102.06c-0.69-0.42-1.54-0.44-2.34-0.45c-1.12-0.01-2.32-0.03-3.39,0.39
							c-0.37,0.14-1.27,0.48-1.21,0.96c0.04,0.37,0.96,0.69,1.27,0.73c0.79,0.09,1.38-0.46,2.06-0.79
							C7.6,102.35,8.86,102.07,10.09,102.06z"/>
					</g>
					<path class="st14" d="M11.52,39.76c-0.1,2.08,0.26,4.32,1.66,5.86c1.22,1.34,3.06,1.96,4.85,2.26c2.92,0.49,5.95,0.3,8.78-0.57
						c-5.25,3.24-12.05,3.82-17.78,1.53c-1.98-0.79-3.87-1.92-5.98-2.26c1.03,0.17,2.1-0.02,3.02-0.51
						C4.31,44.8,2.45,43.67,0.5,42.7c1.24,0.03,2.57-0.29,3.39-1.22c0.82-0.93,0.86-2.58-0.16-3.29c0.93,0.09,1.86,0.19,2.79,0.28
						c0.06-0.38,0.11-0.76,0.17-1.14c-2.22-0.27-4.4-0.86-6.45-1.74c1.96,0.1,3.94-0.38,5.62-1.38c0.98-0.58,1.9-1.4,2.21-2.5
						c0.3-1.1-0.26-2.48-1.37-2.73c0.56-0.09,1.11-0.18,1.67-0.28c-1.2-1.18-2.4-2.37-3.61-3.55c2.37,1.27,5.38,1.25,7.73-0.05
						c1.69-0.93,2.98-2.43,4.45-3.67c2.88-2.44,6.78-4.17,10.59-4.26c-3.76,1.88-6.84,3.57-9.48,6.92
						C14.68,28.36,11.79,34.27,11.52,39.76z"/>
					<path class="st19" d="M20.82,17.25c0.04,0,0.08,0,0.13,0"/>
					<path class="st13" d="M35.64,13.96c-5.79-0.15-11.62,1.5-16.49,4.65c-0.27,0.17-0.53,0.35-0.84,0.43
						c-0.77,0.2-1.56-0.24-2.35-0.21c0.61-0.04,1.21-0.08,1.82-0.12c0.02-0.37-0.18-0.74-0.49-0.94c0.45-0.03,0.87-0.34,1.02-0.76
						c-2.04-2.29-3.53-5.06-4.33-8.02c2.56,2.44,5.99,3.94,9.52,4.18c-0.43-1.52-0.85-3.04-1.28-4.56c1.09,0.32,1.63,1.53,2.59,2.13
						c1.54,0.96,3.52,0.1,5.11-0.77c-0.08-1.46,0.02-2.94,0.28-4.38c0.53,0.82,1.07,1.63,1.6,2.45c0.48-2.55,1.6-4.97,3.24-6.97
						C35,3.67,35.59,6.28,36.75,8.6c0.44,0.87,0.97,1.72,1.73,2.33c1.15,0.92,2.67,1.19,4.13,1.42c0.29-1.19,0.73-2.35,1.31-3.43
						c-0.55,2.33-0.55,4.79-0.02,7.12c0.14,0.61,0.84,1.26,0.86,1.89c0.02,0.69,0,6-3.75,10.81c0.94-2.24,3.2-6.61,2.08-10.55
						C42.18,15.03,38.43,14.03,35.64,13.96z"/>
					<path class="st13" d="M28.57,39.69c-1.86,1.59-3.94,3.06-6.34,3.55c-0.92,0.19-2.04,0.15-2.59-0.61
						c-0.11-0.16-0.21-0.35-0.38-0.42c-0.29-0.13-0.59,0.11-0.89,0.22c-0.77,0.3-1.58-0.24-2.21-0.77
						c-1.35-1.15-2.73-2.74-2.36-4.48c-0.37,2.17-0.68,4.62,0.65,6.38c0.68,0.89,1.69,1.46,2.7,1.94c1.43,0.69,2.98,1.27,4.56,1.17
						c1.12-0.07,2.2-0.47,3.22-0.93c0-0.18,3.76-2.13,4.17-2.43c1.35-0.97,2.6-2.07,3.75-3.27c2.32-2.42,4.2-5.24,5.62-8.28
						c0.78-1.67,1.51-3.46,1.92-5.26c-1.74,2.13-3.58,4.02-5.24,6.21C33.22,35.27,31.01,37.62,28.57,39.69z"/>
					<path class="st13" d="M16.37,71.93c-0.52,0.98-0.8,2.06-1.09,3.13c-0.13,0.47-0.25,0.97-0.14,1.44
						c0.12,0.47,0.56,0.91,1.04,0.83c-1.47,0.07-2.78-1.2-3.1-2.63c-0.32-1.44,0.17-2.95,0.95-4.2c1.1-1.75,2.82-3.06,4.76-3.76
						c1.01-0.37,4.99-1.35,5.78-0.12c0.82,1.28-2.94,1.48-3.6,1.66C19.05,68.82,17.31,70.15,16.37,71.93z"/>
				</g>
				<g>
					
						<linearGradient id="SVGID_16_" gradientUnits="userSpaceOnUse" x1="1079.5746" y1="-353.5328" x2="1216.0708" y2="-497.5288" gradientTransform="matrix(-0.866 0.5 -0.5 -0.866 1203.0426 -482.5291)">
						<stop  offset="0" style="stop-color:#FFAB67"/>
						<stop  offset="0.0488" style="stop-color:#FC946B"/>
						<stop  offset="0.2236" style="stop-color:#F1477A"/>
						<stop  offset="0.3042" style="stop-color:#ED2980"/>
						<stop  offset="0.3798" style="stop-color:#DF287E"/>
						<stop  offset="0.5226" style="stop-color:#BA257A"/>
						<stop  offset="0.7176" style="stop-color:#7F2174"/>
						<stop  offset="0.955" style="stop-color:#2D1A6B"/>
						<stop  offset="1" style="stop-color:#1D1969"/>
					</linearGradient>
					<circle class="st20" cx="415.06" cy="488" r="102.08"/>
					<path class="st13" d="M484.14,438.4c-2.91,0.41-5.87-0.3-8.63-1.29c-7.46-2.68-13.99-7.38-20.89-11.28
						c-9.45-5.34-19.72-9.24-30.33-11.52c-6.19-1.33-12.54-2.11-18.87-1.74c-3.2,0.18-6.55,0.73-9.04,2.74
						c-2.49,2.01-3.73,5.88-1.92,8.52c1.81,2.64,6.89,2.15,7.44-1c-0.83,2.23-4.65,1.79-5.48-0.44c-0.83-2.23,0.85-4.79,3.07-5.65
						c2.57-1,5.75-0.09,7.4,2.11c2.25,2.99,1.35,7.52-1.18,10.28c-2.53,2.76-6.27,4.06-9.94,4.78c-8.59,1.68-17.69,0.68-25.71-2.83
						c-5.25-2.3-10.1-5.66-15.67-6.96c-6.31-1.48-13.24-0.07-18.47,3.75c-5.23,3.82-8.68,10-9.18,16.46
						c6.46-6.57,16.36-8.72,25.54-7.97c9.18,0.75,17.94,4.01,26.69,6.9c8.75,2.88,17.86,5.44,27.04,4.68
						c9.18-0.76,18.54-5.45,22.55-13.74c0.7-1.44,1.26-3.01,2.45-4.08c1.15-1.03,2.73-1.45,4.27-1.58
						c9.02-0.78,16.55,6.64,21.72,14.07c5.16,7.43,9.94,15.98,18.24,19.58c4.96,2.15,10.81,2.16,15.79,0.04
						c1.93-0.82,3.82-2.04,4.8-3.9c0.98-1.86,0.78-4.46-0.89-5.73c1.05,3.44-3.67,6.68-6.83,4.97c-3.16-1.72-3.61-6.56-1.36-9.36
						c2.25-2.8,6.35-3.62,9.84-2.76c3.49,0.86,6.47,3.13,9.07,5.61c-2-1.91-3.03-7.67-4.26-10.27c-1.67-3.54-3.59-7-6.01-10.09
						c-3.3-4.22-3.23-2.37-4.02,1.55C490.63,435.71,487.53,437.91,484.14,438.4z"/>
					<path class="st13" d="M361.09,458.51c22.15-1.58,44.17,4.12,66.37,4.63c3.93,0.09,8.42-0.23,10.88-3.3
						c1.71,1.79,4.15,2.66,6.53,3.34c11.38,3.2,24.31,3.49,33.21,11.27c-5.9,0.16-11.37,2.91-17,4.68c-6.35,1.99-13.02,2.75-19.67,3
						c-17.32,0.65-34.57-2.06-51.69-4.76c-8.82-1.39-17.66-2.79-26.23-5.27c-3.63-1.05-14.7-3.92-15.27-8.59
						C347.73,459.62,358.46,458.69,361.09,458.51z"/>
					<path class="st13" d="M399.04,397.74c3.44-0.78,7.05-0.76,10.49,0.05c1.02,0.24,2.29,1.09,1.81,2.03
						c-0.2,0.39-0.64,0.58-1.06,0.69c-1.19,0.31-2.49,0.18-3.61-0.34c0.41,1.71,2.24,2.94,3.97,2.68c1.74-0.26,3.13-1.97,3.02-3.72
						c2.51,1.87,5.83,2.34,8.94,2.08c3.12-0.26,6.14-1.16,9.21-1.78c10.18-2.03,21.41-0.58,29.65,5.73c0.9,0.69,1.79,1.45,2.86,1.84
						c0.9,0.33,1.88,0.37,2.83,0.48c2.85,0.32,5.64,1.26,8.11,2.73c-5.63-6.04-12.73-10.7-20.52-13.44c0.54,0.4,0.68,1.24,0.31,1.79
						c-9.82-2.81-20.08-4.05-30.28-3.67c-5.39,0.2-10.97,0.83-16.05-1.01c-3.53-1.28-6.88-3.76-10.61-3.35
						c-1.64,0.18-3.15,0.91-4.7,1.46c-4.12,1.48-9.32,1.82-12.5,5.16c3.65-1.72,4.84-1.6,7.64,0.93
						C391.49,400.71,395.67,398.5,399.04,397.74z"/>
				</g>
				<g>
					<linearGradient id="SVGID_17_" gradientUnits="userSpaceOnUse" x1="534.3273" y1="201.7778" x2="601.8239" y2="132.7813">
						<stop  offset="0" style="stop-color:#20D6DE"/>
						<stop  offset="1" style="stop-color:#5E309D"/>
					</linearGradient>
					<circle class="st21" cx="551.56" cy="184.17" r="30.44"/>
					<g>
						<defs>
							
								<ellipse id="SVGID_18_" transform="matrix(0.7071 -0.7071 0.7071 0.7071 31.3226 443.9503)" cx="551.56" cy="184.17" rx="30.44" ry="30.44"/>
						</defs>
						<clipPath id="SVGID_19_">
							<use xlink:href="#SVGID_18_"  style="overflow:visible;"/>
						</clipPath>
						<g class="st22">
							<path class="st13" d="M572.57,192.5c-6.13-0.31-12.28-0.24-18.41,0.2c-4.97,0.36-10.82,1.61-12.72,6.22
								c-3.92-0.22-7.91,1.56-10.35,4.64c-2.44,3.08-3.27,7.37-2.16,11.13c0.55,1.87,1.65,3.69,3.41,4.53
								c1.01,0.48,2.16,0.6,3.28,0.64c2.9,0.1,5.95-0.32,8.32-1.99c2.37-1.67,3.86-4.84,2.9-7.58c-0.96-2.74-4.82-4.22-7.03-2.34
								c0.38-1.93,2.26-3.28,4.19-3.66c1.93-0.38,3.92,0.01,5.85,0.41c0.73,0.15,1.48,0.31,2.06,0.78c1.18,0.96,0.97,3.13-0.38,3.84
								c1.53,0.37,1.92,2.48,1.34,3.94c-0.58,1.46-1.76,2.63-2.34,4.1c-0.35,0.88-0.46,1.83-0.81,2.7
								c-0.86,2.17-2.99,3.58-5.19,4.36c-7.06,2.5-15.72-0.94-19.15-7.6c-3.43-6.66-1.19-15.7,4.95-20c1.29-0.9,2.73-1.62,3.78-2.79
								c0.84-0.93,1.37-2.1,2.13-3.09c1.65-2.16,4.26-3.39,6.91-4c4.6-1.05,9.4-0.41,14.06,0.29c4.67,0.7,9.42,1.47,14.07,0.68
								c4.65-0.79,9.27-3.46,11.07-7.82c1.8-4.36-0.28-10.31-4.84-11.53c3.59,2.62,2.36,9-1.59,11.05
								c-3.95,2.05-9.04,0.4-12.13-2.81c2.63,1.75,6.2,1.98,9.03,0.6c2.84-1.39,4.84-4.34,5.08-7.49c0.14-1.84-0.27-3.79,0.48-5.48
								c1.03-2.32,4.03-3.27,6.48-2.62c2.45,0.64,4.41,2.51,5.93,4.54c3.57,4.74,7.68,14.59,3.82,20.23
								C590.03,193.33,579.57,192.86,572.57,192.5z"/>
							<path class="st13" d="M567.58,168.82c-4,2.13-8.66,2.64-13.19,2.83c-4.53,0.19-9.12,0.1-13.53,1.18
								c-10.85,2.66-19.35,12.99-19.85,24.15c-2.36-3.47-4.07-7.38-5.02-11.46c-0.16-0.7-0.29-1.47,0.05-2.11
								c0.34-0.63,1.36-0.9,1.77-0.31c0.1-0.51,0.19-1.01,0.29-1.52c0.37,0.23,0.75,0.46,1.12,0.69c1.72-3.59,3.96-7.03,7.13-9.43
								c3.17-2.4,7.38-3.66,11.23-2.63c0.69-1.82,3.08-2.36,5-1.99c1.92,0.38,3.69,1.37,5.63,1.55c2.71,0.26,5.35-1.09,8.07-1.03
								c-1.2-0.86-2.28-1.87-3.21-3.01c3.77,2.43,9.17,1.91,12.41-1.19c0.74-0.71,1.38-1.55,1.65-2.53c0.54-1.96-0.6-4.12-2.32-5.21
								s-3.88-1.27-5.9-1c-1.81,0.25-3.76,1-4.5,2.67c-0.74,1.67,0.77,4.11,2.51,3.54c0.84-0.27,1.36-1.08,1.82-1.84
								c0.08-0.55-0.34-1.12-0.89-1.2c1.29-0.79,3.25,0.55,2.97,2.04c-0.28,1.53-2.11,2.13-3.63,2.45c-1.44,0.3-2.89,0.6-4.33,0.9
								c-2.01,0.42-4.07,0.83-6.09,0.5s-4.02-1.6-4.63-3.56c-0.6-1.96,0.77-4.45,2.82-4.5c-2.76,0.26-5.29,2.25-6.2,4.87
								c-0.35,1.02-0.14,2.55,0.93,2.61c-1.65,0.61-3.45-1.03-3.64-2.78c-0.19-1.75,0.73-3.42,1.74-4.86c1.26-1.81,2.75-3.5,4.6-4.7
								c3.05-1.97,6.84-2.44,10.47-2.29c6.77,0.28,13.3,2.59,18.87,6.43c2.64,1.83,3.56,2.9,2.19,6.11
								C572.69,165.06,570.29,167.38,567.58,168.82z"/>
							<path class="st13" d="M567.15,208.39c0.71-0.54,1.41-1.08,2.12-1.63c0.51-0.39,1.03-0.79,1.42-1.31
								c0.58-0.78,0.82-1.76,1.04-2.7c0.2-0.85,0.39-1.74,0.18-2.58c-0.49-1.92-2.94-2.72-4.86-2.23c-0.54-1.18-1.88-1.86-3.17-1.84
								c-1.29,0.02-2.52,0.64-3.51,1.48c-0.56,0.48-1.08,1.06-1.28,1.77c-0.2,0.71-0.03,1.57,0.57,2c-0.89,0.58-1.41,1.67-1.3,2.72
								c0.11,1.05,0.84,2.02,1.82,2.4c0.78,0.31,1.65,0.26,2.47,0.13c0.44-0.07,0.88-0.16,1.27-0.37c1.14-0.6,1.63-2.19,1.01-3.32
								c-0.59-0.36-1.39-0.36-1.98,0.01c0.39-0.09,0.83,0.19,0.92,0.58c-0.07,0.54-0.71,0.87-1.24,0.73
								c-0.52-0.13-0.9-0.62-1.06-1.14c-0.21-0.7-0.05-1.52,0.48-2.02c0.65-0.6,1.64-0.6,2.52-0.56c0.47,0.02,0.93,0.04,1.39,0.06
								c1.11,0.05,2.41,0.21,2.96,1.17c0.39,0.68,0.25,1.57-0.16,2.24c-0.41,0.67-1.03,1.18-1.65,1.66
								c-0.59,0.47-1.18,0.94-1.77,1.41c-1.1,0.88-2.25,1.78-3.6,2.18c-1.34,0.4-2.85,0.19-3.88-0.8
								C558.96,213.37,564.71,210.25,567.15,208.39z"/>
						</g>
					</g>
				</g>
			</g>
		</g>
	</g>
</g>
<g id="OBJECTS">
	<g>
		<defs>
			<rect id="SVGID_20_" x="0" y="0" width="750" height="500"/>
		</defs>
		<clipPath id="SVGID_21_">
			<use xlink:href="#SVGID_20_"  style="overflow:visible;"/>
		</clipPath>
		<g class="st23">
			<g>
				
					<linearGradient id="SVGID_22_" gradientUnits="userSpaceOnUse" x1="-75.1336" y1="371.7947" x2="833.6002" y2="371.7947" gradientTransform="matrix(0.9968 -0.0799 0.0799 0.9968 25.2845 26.2353)">
					<stop  offset="0" style="stop-color:#FFE139"/>
					<stop  offset="1" style="stop-color:#BF2786"/>
				</linearGradient>
				<path class="st24" d="M223.45,190.53c-25.4,36.83-35.39,78.62-33.92,119.72c0.66,18.35,3.6,36.88,12.63,54
					c15.71,29.8,50.28,56.7,88.9,71.89c38.61,15.19,77.64,27.54,121.23,31.66c68.79,6.51,148.45-4.5,202.07-36.67
					c21.77-13.06,38.55-30.47,47.98-49.78c10.03-20.53,11.5-43.93-1.05-63.66c-12.55-19.72-40.65-34.72-70.59-33.95
					c-29.94,0.77-58.35,19.76-57.57,41.52c-12.39-14.98-1.68-37.33,20.88-43.57c8.58-2.37,18.19-2.67,26.24-5.88
					c6.46-2.58,11.36-6.82,17.5-9.79c21.96-10.61,56.85,2.08,58.21,21.18c0.21,2.9-0.17,5.97,1.69,8.53c6.5,8.91,25.25,0.52,39,2.01
					c14.2,1.53,20.54,13.69,22.55,24.01c4.17,21.39,1.74,43.46-7.08,64.13c18.71-8.86,29.33-24.77,32.88-40.77
					c3.55-16,0.92-32.32-1.72-48.39c17.53,16.83,24.98,39.02,20.1,59.88c24.33-55.23,13.93-115.12-2.34-171.78
					c-2.95-10.28-6.11-20.78-4.25-31.21c1.86-10.43,9.82-20.97,23.22-24.97c25.74-7.68,51.16,11.66,62.67,30
					c15.09,24.06,22.6,50.26,28.49,76.38c10.55,46.75,16.3,94.09,17.19,141.49c0.69,36.64-1.63,73.78-16.14,108.92
					c-14.51,35.14-42.3,68.43-84.14,89.02c-32.37,15.92-70.96,23.4-108.74,30.62c-68.3,13.04-136.91,26.13-207.1,31.5
					c-70.19,5.37-142.58,2.75-208.7-14.93c-28.32-7.57-63.04-17.15-85.86-2.69c-6.62,4.19-11.61,10.22-19.94,12.21
					c-8.96,2.14-18.46-1.16-26.77-4.36c-25.41-9.8-50.81-19.61-76.22-29.41c-12.63-4.87-25.86-10.16-33.18-19.08
					c-12.29-14.99-5.62-37.47-24.59-48.18c5.44-7.79-15.44-6.83-3.44-7.27c6.96-74.69-3.78-141.12,37.48-229.57
					c15.09-32.35,42.48-61.01,73.43-86.77c64.94-54.04,152.17-100.47,253.1-107.09C299.58,113.3,250.16,151.81,223.45,190.53z"/>
				
					<linearGradient id="SVGID_23_" gradientUnits="userSpaceOnUse" x1="183.447" y1="190.1548" x2="357.0552" y2="687.6774" gradientTransform="matrix(0.9968 -0.0799 0.0799 0.9968 25.2845 26.2353)">
					<stop  offset="0" style="stop-color:#FFE139"/>
					<stop  offset="1" style="stop-color:#BF2786"/>
				</linearGradient>
				<path class="st25" d="M164.43,202.46c5-5.53,11.59-10.15,18.12-14.71c26.93-18.81,47.15-26.36,74.08-45.17
					c-28.85,23.83-46.67,39.29-65.27,68.23c-26.93,41.9-48.1,89.9-37.68,135.7c0.69,3.04,1.59,6.14,3.87,8.72
					c3.14,3.55,8.61,5.75,11.34,9.48c2.54,3.46,2.31,7.62,2.47,11.55c1.38,32.4,33.44,59.31,66.89,80.05
					c25.02,15.51,51.88,29.37,80.18,41.36c-37.47-19.35-75.8-39.34-101.55-67.37c32.21,23.07,73.33,39.16,117.11,45.81
					c16.69,2.54,36.04,4.81,44.8,15.69c2.79,3.47,4.16,7.5,7.08,10.91c8.88,10.34,28.57,11.54,44.8,9.44
					c16.23-2.1,32.93-6.37,48.75-2.96c8.44,1.82,15.76,5.69,23.42,8.9c19.08,7.99,41.09,12.06,62.97,11.63
					c-57.81,8.48-111.86,27.75-169.31,37.49c-40.38,6.85-81.91,8.9-123.23,10.93c-27.04,1.33-54.34,2.65-81.12-0.44
					c25.59-5.79,49.42-15.82,69.28-29.16c-26.11-16.41-50.53-34.32-72.97-53.52c-38.16-32.64-71.7-71.41-74.67-114.64
					c-2.73-4.5-2.27-9.99,1.17-14.21c1.81,15.01,7.16,29.78,15.73,43.43c7.82-8.55,1.77-19.93-1.14-30.05
					c-2.26-7.84-2.43-15.92-2.6-23.94c-0.5-24.19-1-48.37-1.5-72.56c-15.51,24.89-19.26,53.74-10.44,80.38
					c-10.12-16.3-20.44-34.59-12.89-51.64c3.02-6.81,8.78-12.99,10.06-20.1c1.09-6.08-1.23-12.24-0.82-18.37
					c0.87-12.92,11.61-31.24,21.81-41.81c3.61-3.74,8.44-6.62,12.78-9.86C150.5,218.25,164.98,207.63,164.43,202.46z"/>
				
					<linearGradient id="SVGID_24_" gradientUnits="userSpaceOnUse" x1="-69.1699" y1="414.3946" x2="90.5072" y2="414.3946" gradientTransform="matrix(0.9968 -0.0799 0.0799 0.9968 25.2845 26.2353)">
					<stop  offset="0" style="stop-color:#FFE139"/>
					<stop  offset="1" style="stop-color:#BF2786"/>
				</linearGradient>
				<path class="st26" d="M18.78,372.05c0.29-10.61,3.45-21.04,6.6-31.38c2.71-8.92,5.43-17.85,9.47-26.49
					c5.05-10.81,12.29-21.21,22.87-29.51c-16.96,46.63-13.45,95.86-9.81,144.09c1.38,18.24,2.94,37.05,13.71,53.46
					c1.75,2.68,3.77,5.32,4.48,8.26c1.09,4.51-1.05,9.07-3.15,13.38c-2.48,5.1-4.97,10.19-7.45,15.29
					c-1.35,2.78-2.73,5.75-1.82,8.63c1.22,3.89,6.13,6.37,9.95,9.17c8.82,6.45,12.98,15.92,22.38,21.9
					c15.4,9.8,38.62,6.93,58.08,2.75c-10.09-7.3-22.63-12.71-36.15-15.58c-6.94-1.47-14.5-2.43-19.85-6.04
					c4.86-3.17,9.73-6.34,14.6-9.52c1.66-1.08,3.42-2.29,3.83-3.9c0.65-2.56-2.26-4.75-4.75-6.58
					c-15.82-11.63-23.43-28.03-28.68-44.12C64.6,449.8,61,422.87,62.42,396.09c-0.71,19.07,5.78,37.85,12.95,56.16
					c13.31,34.01,31.73,70.04,71.91,89c2.96,1.4,6.13,2.77,7.97,4.99c3.47,4.2,0.96,9.62,1.52,14.54c0.54,4.69,3.98,9.23,2.88,13.87
					c-1.16,4.88-7.06,8.36-13.12,10.39c-17.16,5.73-37,3.34-55.5,0.83c-14.73-1.99-29.71-4.05-43.01-9.18
					c-17.75-6.84-31.05-18.55-43.87-29.97c-3.12-2.78-6.36-5.74-7.18-9.32c-0.65-2.84,0.3-5.73,0.85-8.58
					c1.33-6.92,0.24-13.96-0.6-20.93c-2.96-24.7-8.34-58.18,4.38-81.77c3.88-7.19,12.92-11.44,16.82-18.39
					C24.32,397.22,18.48,383.12,18.78,372.05z"/>
				<path class="st27" d="M56.64,311.87c-0.19-4.83,3.93-9.05,8.57-10.59s9.67-1,14.5-0.33c58.02,8.17,113.1,34.65,155.3,74.67
					c-5.64,4.91-11.95,10.09-19.42,10.3c13.13,3.3,28.06-1.53,36.81-11.91c1.25-1.8,2.5-3.6,3.75-5.4
					c-19.08-13.91-39.6-25.89-61.14-35.69c-18.09-8.23-36.86-14.92-55.13-22.73c-31.78-13.59-64.91-31.05-99.16-25
					c7.31,1.94,14.62,3.88,21.92,5.82c-5.9,1.21-11.79,2.43-17.69,3.64c-1.52,0.31-3.22,0.75-3.98,2.1c-0.76,1.34,0.64,3.52,2,2.76
					c-22.38-3-45.63,0.16-66.47,9.05c3.66-1.56,29.47,59.78,37.32,34.89c2.5-7.91-1.61-16.4,3.47-24.24
					C25.78,306.11,43.77,309.22,56.64,311.87z"/>
				<path class="st27" d="M264.55,112.97c0.96-1.52,3.75-1.78,4.32-0.07c1.05-0.55,2.41-0.15,3.28,0.67
					c0.87,0.82,1.34,1.96,1.73,3.08c2.66,7.68,2.42,16.33-0.67,23.85c-0.96-0.51-2.3,0.56-2.01,1.6c0.32,1.17,2.13,1.35,2.94,0.46
					c0.81-0.9,0.71-2.34,0.12-3.4c2.08-0.33,2.97-2.8,3.29-4.88c1.1-7.15,0.3-14.59-2.31-21.34c-0.42-1.1-1.18-2.37-2.36-2.3
					c-0.02,0.4-0.04,0.8-0.06,1.2c-0.27-1.13-0.62-2.37-1.6-2.99c-0.98-0.63-2.68,0.03-2.5,1.17c-2.35-1.63-5.91-1.17-7.76,1.01
					c-1.23,1.44-2.41,6.93,0.29,7.77C264.51,119.8,263.74,114.26,264.55,112.97z"/>
				<g>
					<path class="st27" d="M124.01,182.96c1.11-0.83,2.54-1.29,3.96-1.6c3.27-0.74,6.69-0.86,9.94-0.36
						c1.55,0.24,3.07,0.61,4.65,0.65c2.03,0.05,4.05-0.47,6.08-0.65c3.92-0.36,7.77,0.51,11.37,1.64
						c8.08,2.54,15.47,6.46,21.61,11.45c-4.74-4.7-9.66-9.51-16.3-12.21c-4.17-1.69-8.83-2.47-13.43-3.22
						c-6.76-1.11-13.52-2.22-20.28-3.34c-3.2-0.53-6.55-1.05-9.78-0.29c-3.23,0.76-6.27,3.22-6.13,5.98
						c0.08,1.44,0.98,2.76,0.92,4.21c-0.04,0.99-0.54,1.94-0.93,2.89c-1.43,3.52-2.07,6.45-0.66,9.83c2.88-2.26,7.65-5.93,7.65-5.93
						S120.44,185.42,124.01,182.96z"/>
					<path class="st27" d="M213.6,226.41c0.34,0.96,0.63,2.01,0.2,2.97c-0.43,0.96-1.89,1.66-2.82,1.09
						c4.83,2.92,4.61,10.29-0.4,13.41c-3.5,2.18-8.95,1.66-13.1,1.17c-1.22,3.98-1.9,6.81-2.65,9.95
						c7.22-0.29,14.63-3.68,19.29-8.65c0.9-0.96,1.77-2.02,3.06-2.53c0.7-0.27,1.49-0.36,2.14-0.74c1.06-0.62,1.41-1.83,1.43-2.91
						c0.05-2.94-1.81-5.76-4.72-7.15c1.65-2.15,1.17-4.96,0.25-7.31c-3.48-8.88-11.96-15.36-20.43-21.06
						c3.82,2.57,6.57,7.51,10.15,10.49C209.75,218.24,212.03,221.97,213.6,226.41z"/>
					<path class="st27" d="M194.74,198.3c-0.78-0.21-1.55-0.41-2.33-0.62c0.95,1.62,2.15,3.12,3.55,4.47
						c0.25,0.24,0.53,0.49,0.88,0.62c0.26,0.09,0.55,0.12,0.82,0.2c0.29,0.09,0.55,0.23,0.8,0.38c0.68,0.39,4.21,3.02,5.05,2.65
						c0.8-0.35-0.13-1.52-0.42-1.97C201.29,201.22,198.39,199.27,194.74,198.3z"/>
				</g>
				<linearGradient id="SVGID_25_" gradientUnits="userSpaceOnUse" x1="445.8705" y1="505.4482" x2="705.3251" y2="363.0299">
					<stop  offset="0" style="stop-color:#FFE139"/>
					<stop  offset="1" style="stop-color:#BF2786"/>
				</linearGradient>
				<path class="st28" d="M675.4,360.47c3.38-14.17,3.89-29.6-5.74-42.08c8.26,2.46,16.14,5.63,23.43,9.42
					c3.75,1.95,7.51,4.21,9.18,7.38c2.48,4.69-0.27,10.03-3.98,14.25c-3.71,4.22-8.47,8.06-10.59,12.85
					c-1.26,2.85-1.46,6.13,0.53,8.74c1.82,2.4,5.26,3.99,6.76,6.51c2.61,4.37-1.69,9.35-6.7,12.34c-5.01,2.99-11.16,5.27-14.3,9.44
					c-0.69,0.92-1.18,2.15-0.29,2.97c0.75,0.69,2.12,0.75,3.32,0.71c4.76-0.14,9.48-0.8,13.98-1.97c-1.91,1.94-3.82,3.87-5.73,5.81
					c22.33-5.82,43.58-13.92,62.97-24.02c-19.72,18.06-39.92,35.82-60.6,53.27c-2.09,1.76-4.27,3.57-7.13,4.55
					c-3.76,1.29-8.11,0.98-12.25,1.08c-13.67,0.36-26.9,5.96-34.29,14.53c-2.67,3.1-4.73,6.64-8.62,8.92
					c-2.99,1.75-6.76,2.56-10.43,3.33c-30.94,6.5-61.87,13-92.81,19.5c32.58-7.1,63.87-17.48,92.76-30.76
					c-12.6,1.27-25.19,2.53-37.79,3.8c-6.03,0.61-12.11,1.22-17.83,2.77c-5.01,1.36-9.63,3.4-14.43,5.13
					c-22.95,8.3-49.24,9.38-74.72,10.3c19.35-0.71,41.85-8.1,60.16-12.6c19.25-4.73,37.89-10.56,56.91-15.7
					c30.71-8.31,54.61-28.67,69.54-49.77C665.73,388.45,672.01,374.64,675.4,360.47z"/>
			</g>
			<g>
				<g>
					<g>
						<g>
							<path class="st29" d="M325.64,88.64c-0.24-0.29-0.5-0.61-0.85-0.75c-0.38-0.16-0.82-0.1-1.22-0.02
								c-7.74,1.45-14.39,6.69-18.99,13.09c-0.17,0.24-0.34,0.49-0.39,0.77c-0.06,0.31,0.04,0.63,0.15,0.93
								c0.29,0.78,0.69,1.51,1.19,2.18c1.74-2.86,4.64-4.95,7.83-5.97c2.02-0.65,4.23-0.89,6.28-0.32c2.05,0.57,3.91,2.03,4.63,4.03
								c1.5-1.41,2.97-2.85,4.39-4.33c0.66-0.69,1.31-1.39,1.96-2.09c0.5-0.54,1.83-1.56,2-2.27c0.27-1.13-2.47-1.51-3.36-2.04
								C327.86,91.01,326.67,89.88,325.64,88.64z"/>
						</g>
						<g>
							<path class="st29" d="M338.29,119.16c0.04,0.38,0.08,0.78-0.07,1.13c-0.16,0.38-0.51,0.64-0.85,0.88
								c-6.5,4.45-14.91,5.45-22.68,4.18c-0.29-0.05-0.59-0.1-0.83-0.27c-0.26-0.18-0.42-0.47-0.55-0.76
								c-0.35-0.75-0.58-1.56-0.7-2.38c3.26,0.79,6.78,0.21,9.76-1.32c1.89-0.97,3.62-2.37,4.66-4.22c1.05-1.85,1.33-4.2,0.42-6.12
								c2.06-0.07,4.11-0.08,6.17-0.04c0.95,0.02,1.91,0.05,2.86,0.09c0.73,0.03,2.4-0.19,3.02,0.19c0.99,0.61-0.68,2.82-0.93,3.81
								C338.18,115.9,338.14,117.55,338.29,119.16z"/>
						</g>
					</g>
					<g>
						<path class="st30" d="M327.47,113.1c-1.57,0.04-3.08,0.07-4.54,0.11l-1.97-4.75c0,0-0.07,0.02,0-0.01l-1.97-4.75
							c1.06-1.01,2.16-2.06,3.29-3.14c7.77-7.39,17.27-16.03,27.03-19.18c7.96-2.57,17.55-2.05,24.41-0.95
							c5.15,0.82,8.75,1.98,8.93,2.42c0,0.01,0.01,0.02,0.01,0.03c0.29,0.27-1.44,3.7-4.58,8.05c-4.06,5.62-10.48,12.78-17.92,16.59
							C351.01,112.21,338.19,112.83,327.47,113.1z"/>
					</g>
					<g>
						<path class="st31" d="M327.47,113.1c-1.57,0.04-3.08,0.07-4.54,0.11l-1.97-4.75c0,0-0.07,0.02,0-0.01l-1.97-4.75
							c1.06-1.01,2.16-2.06,3.29-3.14L327.47,113.1z"/>
					</g>
					<g>
						<path class="st29" d="M378.06,90.94l-4.35-10.5c5.15,0.82,8.75,1.98,8.93,2.42c0,0.01,0.01,0.02,0.01,0.03
							C382.93,83.16,381.2,86.59,378.06,90.94z"/>
					</g>
					<g>
						<g>
							<path class="st31" d="M364.2,98.72c-3.83,1.59-8.23-0.23-9.82-4.06c-1.59-3.83,0.23-8.23,4.06-9.82
								c3.83-1.59,8.23,0.23,9.82,4.06C369.85,92.73,368.03,97.13,364.2,98.72z"/>
						</g>
						<g>
							<circle class="st32" cx="361.32" cy="91.78" r="5.41"/>
						</g>
					</g>
					<g>
						<g>
							<path class="st31" d="M345.7,104.78c-3.08,1.28-6.61-0.18-7.88-3.26c-1.28-3.08,0.18-6.61,3.26-7.88
								c3.08-1.28,6.61,0.18,7.88,3.26C350.24,99.98,348.78,103.51,345.7,104.78z"/>
						</g>
						<g>
							<path class="st32" d="M345.06,103.23c-2.22,0.92-4.76-0.13-5.68-2.35c-0.92-2.22,0.13-4.76,2.35-5.68
								c2.22-0.92,4.76,0.13,5.68,2.35C348.33,99.76,347.28,102.31,345.06,103.23z"/>
						</g>
					</g>
					<path d="M357.89,104.85c-0.98,0.05-2-0.06-2.93,0.26c-1.73,0.58-3.01,2.56-4.83,2.36c-1-0.11-1.86-0.89-2.87-0.84
						c-0.78,0.04-1.44,0.58-2.19,0.81c-1.06,0.33-2.2,0.01-3.31,0.04c-0.9,0.02-1.78,0.28-2.66,0.5c-5.68,1.43-11.71,1.5-17.42,0.17
						l1.51,3.65c4.2-0.24,8.39-0.36,12.58-0.6c5.39-0.31,10.82-0.62,16.07-1.89c5.25-1.28,10.36-3.58,14.19-7.4
						C363.34,103,360.92,104.69,357.89,104.85z"/>
					<path class="st3" d="M368.94,81.22c-0.26-0.02-0.52-0.04-0.77,0.02c-0.45,0.1-0.82,0.47-0.93,0.92
						c-0.11,0.44,0.05,0.94,0.4,1.24c0.49,0.42,1.21,0.4,1.83,0.24c0.62-0.16,1.22-0.43,1.86-0.44c0.65-0.02,1.28,0.23,1.92,0.33
						c0.62,0.1,1.26,0.06,1.88,0.02c1.18-0.07,2.35-0.15,3.53-0.22c0.22-0.01,1.26,0.06,1.36-0.15c0.18-0.38-0.64-0.47-0.79-0.5
						c-2.19-0.44-4.4-0.8-6.62-1.07C371.4,81.46,370.18,81.33,368.94,81.22z"/>
					<path d="M379.37,87.52c-0.94,0.77-1.89,1.54-2.89,2.23c-0.44,0.3-0.9,0.59-1.31,0.94c-0.4,0.33-0.76,0.71-1.09,1.11
						c-0.43,0.53-0.82,1.14-0.89,1.82c-0.02,0.23,0.04,0.53,0.27,0.58c0.18,0.04,0.34-0.1,0.47-0.23c1.15-1.16,2.31-2.31,3.45-3.48
						c0.36-0.36,0.62-0.75,0.91-1.17c0.2-0.29,0.41-0.56,0.6-0.86C378.97,88.33,379.25,87.58,379.37,87.52z"/>
					<path d="M341.91,109.7c-4.04-0.02-8.08-0.04-12.12-0.06c-2.29-0.01-4.5-0.27-6.77-0.46c-0.03,3.05,2.84,2.11,4.94,1.93
						c2.99-0.25,5.98-0.51,8.97-0.83C338.56,110.11,340.29,109.7,341.91,109.7z"/>
					<path class="st3" d="M365.51,90.92c-0.29,0.03-0.57-0.04-0.85-0.11c-2-0.52-4.02-1.05-5.91-1.91c-0.22-0.1-0.44-0.21-0.61-0.38
						c-0.17-0.17-0.28-0.42-0.23-0.65c-1.3,1.41-1.68,3.5-1.38,5.4c0.32-0.53,0.71-1.11,1.32-1.2c0.21-0.03,0.43,0,0.64,0.04
						c0.33,0.05,0.65,0.11,0.98,0.16c0.34,0.06,0.69,0.11,1.02,0.19c1.16,0.27,2.24,0.79,3.31,1.31c0.2,0.1,0.41,0.2,0.56,0.36
						c0.16,0.16,0.26,0.39,0.21,0.61c-0.06,0.23-0.27,0.39-0.5,0.45c-0.23,0.06-0.47,0.03-0.7,0c-1.82-0.23-3.61-0.65-5.34-1.26
						c-0.31-0.11-0.68-0.3-0.69-0.63c-0.22,0.17-0.46,0.31-0.71,0.42c0.2,0.6,0.57,1.14,1.04,1.56c0.05,0.05,0.11,0.1,0.18,0.12
						c0.08,0.02,0.17,0.01,0.25,0c0.37-0.03,0.73,0.05,1.09,0.12c1.27,0.27,2.54,0.54,3.81,0.81c0.22,0.05,0.45,0.09,0.67,0.06
						c0.34-0.04,0.63-0.26,0.88-0.49c1.33-1.22,2.3-3.61,1.61-5.4C366.01,90.73,365.79,90.89,365.51,90.92z"/>
					<path class="st3" d="M346.54,99.35c-0.28,0.05-0.57,0.01-0.85-0.03c-0.59-0.09-1.18-0.17-1.77-0.26
						c-0.76-0.11-1.55-0.23-2.22-0.6c-0.67-0.38-1.23-1.07-1.21-1.84c-0.71,0.66-1.07,1.65-1.03,2.62c0.03,0.97,0.43,1.9,1.03,2.67
						c-0.08-0.24,0.01-0.51,0.17-0.71s0.39-0.32,0.62-0.43c0.65-0.29,1.37-0.42,2.08-0.36c0.31,0.03,0.64,0.09,0.89,0.27
						c0.26,0.18,0.43,0.51,0.36,0.82c-0.03,0.15-0.12,0.28-0.23,0.4c-0.27,0.28-0.65,0.43-1.04,0.48c-0.39,0.05-0.78,0.02-1.17-0.01
						c0.2,0.32,0.53,0.56,0.9,0.63c0.27,0.06,0.54,0.03,0.81-0.02c1.47-0.27,2.76-1.39,3.21-2.81c0.11-0.35,0.26-0.92,0.1-1.26
						C347.03,99.14,346.81,99.3,346.54,99.35z"/>
					<path class="st3" d="M364.93,91.35c-0.5-0.13-1.01-0.27-1.51-0.4c-1.69-0.45-3.39-0.91-4.97-1.66
						c-0.26-0.13-0.54-0.27-0.68-0.53c-0.25,0.14-0.41,0.41-0.48,0.68c-0.07,0.28-0.07,0.57-0.07,0.85c0.63-0.3,1.39-0.19,2.05,0.04
						c0.66,0.23,1.28,0.59,1.95,0.78c0.4,0.12,0.82,0.17,1.23,0.26c0.5,0.1,1,0.24,1.49,0.38c0.59,0.17,1.22,0.36,1.59,0.84
						c-0.01-0.01,0.22-0.54,0.23-0.59c0.05-0.17,0.14-0.48,0.06-0.64C365.52,91.46,365.24,91.43,364.93,91.35z"/>
					<path class="st3" d="M342.84,99.28c-0.54-0.11-1.09-0.22-1.58-0.48c-0.49-0.26-0.91-0.7-1.03-1.24
						c-0.37,0.6-0.47,1.36-0.29,2.04c0.41-0.19,0.88-0.18,1.33-0.15c0.44,0.03,0.88,0.08,1.32,0.15c1.37,0.21,2.78,0.59,4.13,0.27
						c-0.17-0.21-0.48-0.24-0.75-0.19c-0.23,0.04-0.47,0.14-0.71,0.11c-0.22-0.02-0.46-0.11-0.67-0.15
						C344.01,99.52,343.43,99.4,342.84,99.28z"/>
					<path d="M333.24,115.2c1.54,0.39,3.04,1.11,4.15,2.25c0.1-1.46,0.42-2.91,0.96-4.27c-0.46-0.08-0.94-0.02-1.4,0.04
						c-1.43,0.16-2.86,0.27-4.3,0.31c-1.42,0.05-2.89-0.12-4.3-0.02c-0.2,1.21,0.67,1.17,1.6,1.23
						C331.05,114.8,332.16,114.93,333.24,115.2z"/>
					<path d="M337.45,113.49c-0.11,0.48-0.22,0.96-0.32,1.44c-1.96-0.29-3.91-0.58-5.87-0.87c-0.08-0.01,0.3-0.22,0.36-0.23
						c0.25-0.03,0.56,0.03,0.82,0.03c0.55,0.01,1.11,0,1.66-0.03C335.23,113.79,336.35,113.67,337.45,113.49z"/>
					<g>
						<path d="M324.88,95.03c0.81-1.37,1.36-2.93,1.34-4.53c1.1,0.97,2.35,1.76,3.7,2.34c-0.27,0.38-0.65,0.68-1.02,0.97
							c-1.13,0.9-2.21,1.84-3.26,2.82c-1.04,0.98-1.96,2.12-3.02,3.06c-1-0.71-0.36-1.3,0.26-2
							C323.62,96.86,324.31,95.99,324.88,95.03z"/>
						<path d="M329.07,93.26c-0.42-0.26-0.83-0.53-1.25-0.79c-1.18,1.59-2.36,3.18-3.53,4.76c-0.05,0.06,0.37-0.06,0.42-0.1
							c0.2-0.16,0.37-0.42,0.55-0.6c0.39-0.4,0.79-0.78,1.2-1.16C327.28,94.62,328.15,93.91,329.07,93.26z"/>
					</g>
				</g>
				<g>
					
						<rect x="307.8" y="107.56" transform="matrix(0.9238 -0.3829 0.3829 0.9238 -16.8661 131.6129)" class="st29" width="28.7" height="1.23"/>
				</g>
			</g>
		</g>
	</g>
</g>
<g id="DESIGNED_BY_FREEPIK">
</g>
</svg>
