<?xml version="1.0" encoding="utf-8"?>
<!-- Generator: Adobe Illustrator 24.1.2, SVG Export Plug-In . SVG Version: 6.00 Build 0)  -->
<svg version="1.1" id="Calque_1" xmlns="http://www.w3.org/2000/svg" xmlns:xlink="http://www.w3.org/1999/xlink" x="0px" y="0px"
	 viewBox="0 0 800 600" style="enable-background:new 0 0 800 600;" xml:space="preserve">
<style type="text/css">
	.st0{clip-path:url(#SVGID_2_);fill:#00B3E4;}
	.st1{clip-path:url(#SVGID_2_);fill:#00B8E3;}
	.st2{clip-path:url(#SVGID_2_);fill:#00C2E3;}
	.st3{clip-path:url(#SVGID_2_);}
	.st4{fill:#009DC8;}
	.st5{fill:#00CAF5;}
	.st6{fill:#00B0D6;}
	.st7{clip-path:url(#SVGID_2_);fill:#00D0E3;}
	.st8{clip-path:url(#SVGID_2_);fill:#00E4E2;}
	.st9{clip-path:url(#SVGID_2_);fill:none;stroke:#00B0D6;stroke-miterlimit:10;}
	.st10{opacity:0.37;clip-path:url(#SVGID_2_);fill:#00D0E3;}
	.st11{opacity:0.34;clip-path:url(#SVGID_2_);fill:#00E4E2;}
</style>
<g>
	<defs>
		
			<ellipse id="SVGID_1_" transform="matrix(0.9765 -0.2154 0.2154 0.9765 -55.3189 93.3281)" cx="400.6" cy="300.51" rx="46" ry="46"/>
	</defs>
	<clipPath id="SVGID_2_">
		<use xlink:href="#SVGID_1_"  style="overflow:visible;"/>
	</clipPath>
	<ellipse transform="matrix(0.9765 -0.2154 0.2154 0.9765 -55.3189 93.3281)" class="st0" cx="400.6" cy="300.51" rx="46" ry="46"/>
	<path class="st1" d="M393.48,263.51c-3.21,4.56-3.92,10.59-2.64,16.02c1.28,5.43,4.37,10.29,8.14,14.41
		c5.32,5.8,12.42,10.4,20.27,10.96c7.85,0.56,16.3-3.76,18.91-11.19c2.51-7.15-0.71-15.11-5.31-21.14
		C424.44,261.53,404.74,247.54,393.48,263.51z"/>
	<path class="st2" d="M413.56,283.27c2.4,1.67,4.97,3.2,7.81,3.87c2.85,0.66,6.04,0.35,8.38-1.39c3.4-2.52,4.21-7.51,2.88-11.52
		c-1.33-4.01-4.39-7.21-7.6-9.96c-6.22-5.31-19.34-12.59-26.04-3.61C392.97,268.73,407.89,279.31,413.56,283.27z"/>
	<g class="st3">
		<g>
			<path class="st4" d="M391.4,309.8c-0.36-0.94,0-2.06,0.75-2.72c0.75-0.67,1.81-0.91,2.81-0.78c0.39,0.05,0.81,0.16,1.2,0.33
				c-0.67-0.57-1.6-0.96-2.42-1.06c-0.99-0.13-2.06,0.11-2.81,0.78c-0.75,0.67-1.11,1.79-0.75,2.72c0.3,0.78,1.01,1.29,1.8,1.58
				C391.73,310.41,391.53,310.13,391.4,309.8z"/>
			<path class="st5" d="M394.95,306.29c-0.99-0.12-2.06,0.12-2.81,0.79c-0.75,0.67-1.1,1.79-0.74,2.73
				c0.13,0.33,0.34,0.61,0.59,0.85c0.29,0.1,0.59,0.18,0.89,0.22c1.28,0.19,2.71-0.07,3.57-1.03c1.12-1.26,0.67-2.43-0.29-3.24
				C395.76,306.45,395.34,306.34,394.95,306.29z"/>
		</g>
		<g>
			<path class="st4" d="M433.41,309.68c-0.19-0.49,0-1.07,0.39-1.42c0.39-0.35,0.94-0.47,1.46-0.41c0.2,0.03,0.42,0.08,0.63,0.17
				c-0.35-0.3-0.83-0.5-1.26-0.55c-0.52-0.07-1.07,0.06-1.46,0.41c-0.39,0.35-0.58,0.93-0.39,1.42c0.15,0.4,0.52,0.67,0.94,0.82
				C433.59,310,433.48,309.85,433.41,309.68z"/>
			<path class="st5" d="M435.26,307.85c-0.52-0.06-1.07,0.06-1.46,0.41c-0.39,0.35-0.57,0.93-0.38,1.42
				c0.07,0.17,0.18,0.32,0.31,0.44c0.15,0.05,0.31,0.09,0.46,0.12c0.66,0.1,1.41-0.04,1.85-0.54c0.58-0.65,0.35-1.26-0.15-1.68
				C435.68,307.94,435.46,307.88,435.26,307.85z"/>
		</g>
		<g>
			<path class="st4" d="M388.38,271.37c-0.27-0.71,0-1.56,0.57-2.06c0.57-0.5,1.37-0.68,2.12-0.59c0.3,0.04,0.61,0.12,0.91,0.25
				c-0.51-0.43-1.21-0.72-1.83-0.8c-0.75-0.09-1.56,0.09-2.12,0.59c-0.57,0.5-0.84,1.35-0.57,2.06c0.22,0.59,0.76,0.98,1.36,1.2
				C388.63,271.83,388.47,271.62,388.38,271.37z"/>
			<path class="st5" d="M391.06,268.72c-0.75-0.09-1.56,0.09-2.12,0.6c-0.56,0.51-0.83,1.36-0.56,2.06c0.1,0.25,0.25,0.46,0.45,0.64
				c0.22,0.08,0.45,0.14,0.67,0.17c0.96,0.15,2.05-0.05,2.7-0.78c0.84-0.95,0.51-1.84-0.22-2.45
				C391.67,268.84,391.36,268.76,391.06,268.72z"/>
		</g>
		<g>
			<path class="st4" d="M373.89,323.27c-0.57-1.5,0.01-3.3,1.21-4.37c1.2-1.07,2.91-1.45,4.51-1.25c0.63,0.08,1.29,0.26,1.93,0.53
				c-1.08-0.91-2.56-1.54-3.89-1.7c-1.6-0.2-3.31,0.18-4.51,1.25c-1.2,1.07-1.78,2.87-1.21,4.37c0.48,1.25,1.62,2.08,2.9,2.54
				C374.43,324.25,374.09,323.81,373.89,323.27z"/>
			<path class="st6" d="M379.59,317.64c-1.6-0.19-3.31,0.2-4.5,1.27c-1.2,1.08-1.77,2.88-1.19,4.38c0.21,0.53,0.54,0.98,0.95,1.36
				c0.46,0.17,0.95,0.29,1.42,0.36c2.05,0.31,4.35-0.11,5.72-1.66c1.79-2.02,1.08-3.9-0.47-5.19
				C380.88,317.9,380.22,317.72,379.59,317.64z"/>
		</g>
		<g>
			<path class="st4" d="M394,334.11c1.28-0.97,3.17-0.91,4.54-0.06c1.36,0.86,2.21,2.39,2.46,3.98c0.1,0.63,0.11,1.32,0.03,2
				c0.57-1.29,0.76-2.89,0.55-4.21c-0.25-1.59-1.1-3.13-2.46-3.98c-1.36-0.86-3.25-0.91-4.54,0.06c-1.07,0.81-1.55,2.13-1.63,3.49
				C393.2,334.9,393.54,334.45,394,334.11z"/>
			<path class="st6" d="M400.99,338.02c-0.26-1.59-1.11-3.12-2.48-3.97c-1.37-0.85-3.26-0.9-4.54,0.08
				c-0.45,0.35-0.79,0.79-1.04,1.29c-0.03,0.49-0.01,0.99,0.05,1.47c0.27,2.05,1.32,4.14,3.19,5.04c2.44,1.16,4.05-0.05,4.86-1.89
				C401.11,339.33,401.09,338.64,400.99,338.02z"/>
		</g>
		<g>
			<path class="st4" d="M373.45,277.35c0.19-1.6,1.55-2.92,3.11-3.3c1.56-0.39,3.26,0.07,4.57,1c0.52,0.36,1.02,0.84,1.46,1.37
				c-0.53-1.31-1.55-2.55-2.65-3.32c-1.32-0.92-3.01-1.38-4.57-1c-1.56,0.39-2.92,1.71-3.11,3.3c-0.16,1.33,0.46,2.59,1.38,3.6
				C373.47,278.47,373.39,277.92,373.45,277.35z"/>
			<path class="st6" d="M381.12,275.03c-1.32-0.92-3.02-1.37-4.58-0.98c-1.56,0.39-2.91,1.72-3.09,3.32
				c-0.07,0.57,0.02,1.12,0.2,1.64c0.33,0.36,0.7,0.7,1.09,0.98c1.67,1.23,3.9,1.93,5.84,1.2c2.53-0.95,2.77-2.95,2.01-4.81
				C382.15,275.86,381.65,275.39,381.12,275.03z"/>
		</g>
		<g>
			<path class="st4" d="M393.27,318.85c0.27,0.73-0.03,1.6-0.62,2.11c-0.59,0.51-1.42,0.68-2.2,0.57c-0.3-0.04-0.63-0.14-0.93-0.27
				c0.52,0.45,1.23,0.77,1.87,0.86c0.77,0.11,1.61-0.06,2.2-0.57s0.89-1.38,0.62-2.11c-0.22-0.61-0.77-1.02-1.39-1.26
				C393.02,318.37,393.17,318.59,393.27,318.85z"/>
			<path class="st5" d="M390.46,321.54c0.77,0.11,1.61-0.07,2.19-0.58c0.59-0.51,0.88-1.38,0.61-2.11c-0.1-0.26-0.25-0.48-0.45-0.67
				c-0.22-0.08-0.46-0.15-0.69-0.19c-0.99-0.17-2.11,0.02-2.79,0.76c-0.89,0.96-0.55,1.88,0.19,2.52
				C389.83,321.4,390.15,321.49,390.46,321.54z"/>
		</g>
		<g>
			<path class="st4" d="M365.46,312.29c0.27,0.73-0.03,1.6-0.62,2.11c-0.59,0.51-1.42,0.68-2.2,0.57c-0.3-0.04-0.63-0.14-0.93-0.27
				c0.52,0.45,1.23,0.77,1.87,0.86c0.77,0.11,1.61-0.06,2.2-0.57c0.59-0.51,0.89-1.38,0.62-2.11c-0.22-0.61-0.77-1.02-1.39-1.26
				C365.21,311.81,365.36,312.03,365.46,312.29z"/>
			<path class="st5" d="M362.65,314.98c0.77,0.11,1.61-0.07,2.19-0.58c0.59-0.51,0.88-1.38,0.61-2.11c-0.1-0.26-0.25-0.48-0.45-0.67
				c-0.22-0.08-0.46-0.15-0.69-0.19c-0.99-0.17-2.11,0.02-2.79,0.76c-0.89,0.96-0.55,1.88,0.19,2.52
				C362.02,314.85,362.34,314.94,362.65,314.98z"/>
		</g>
		<g>
			<path class="st4" d="M417.13,309.91c-0.21,0.66-0.89,1.11-1.59,1.14c-0.69,0.03-1.37-0.3-1.85-0.8c-0.19-0.2-0.36-0.44-0.51-0.7
				c0.12,0.6,0.44,1.21,0.85,1.62c0.48,0.5,1.16,0.83,1.85,0.8c0.69-0.03,1.37-0.48,1.59-1.14c0.18-0.55,0.02-1.13-0.29-1.64
				C417.22,309.44,417.21,309.68,417.13,309.91z"/>
			<path class="st5" d="M413.7,310.26c0.48,0.5,1.16,0.83,1.86,0.79c0.69-0.04,1.37-0.49,1.58-1.15c0.07-0.23,0.08-0.47,0.05-0.71
				c-0.11-0.18-0.24-0.35-0.38-0.5c-0.6-0.66-1.49-1.14-2.37-0.99c-1.15,0.19-1.42,1.02-1.25,1.87
				C413.34,309.83,413.51,310.07,413.7,310.26z"/>
		</g>
		<g>
			<path class="st4" d="M405.36,314.91c0.35,0.3,0.45,0.83,0.29,1.26c-0.16,0.43-0.53,0.76-0.96,0.93
				c-0.17,0.07-0.36,0.11-0.56,0.13c0.39,0.08,0.85,0.04,1.21-0.1c0.43-0.17,0.81-0.5,0.96-0.93c0.16-0.43,0.06-0.96-0.29-1.26
				c-0.29-0.25-0.69-0.3-1.07-0.24C405.1,314.74,405.24,314.81,405.36,314.91z"/>
			<path class="st5" d="M404.7,317.1c0.43-0.17,0.8-0.5,0.96-0.93c0.15-0.43,0.05-0.96-0.3-1.26c-0.12-0.11-0.27-0.17-0.42-0.21
				c-0.14,0.02-0.28,0.06-0.41,0.1c-0.56,0.2-1.08,0.62-1.21,1.19c-0.18,0.75,0.26,1.13,0.82,1.24
				C404.34,317.21,404.53,317.17,404.7,317.1z"/>
		</g>
	</g>
	<path class="st7" d="M394.1,327.21c6.8-1.8,13.13-5,19.76-7.36c13.91-4.95,29.16-6.1,43.65-3.28c-0.42,3.58-1.02,7.13-1.8,10.65
		c-0.84,3.78-2.09,7.83-5.29,10.01c-4.59,3.13-10.73,1.01-16.14-0.28c-10.25-2.43-20.97-1.38-31.44-0.23
		c-10.47,1.15-21.14,2.38-31.46,0.29c-5.27-1.07-12.17-3.22-16.09-7.13c-3.68-3.66-2.16-6.44,3.39-6.17
		c5.41,0.26,11.34,4.12,17.04,4.78C381.86,329.18,388.13,328.79,394.1,327.21z"/>
	<path class="st8" d="M376.01,313.4c7.28-2.5,13-8.07,19.46-12.25c17.8-11.54,42.26-11.81,60.31-0.66
		c1.27-6.35,1.42-12.93,0.45-19.33c-0.64-4.21-1.93-8.63-5.2-11.35c-3.01-2.51-7.16-3.12-11.08-3.13
		c-13.93-0.03-27.06,6.26-39.15,13.2c-10.61,6.09-22.3,13.07-34.26,10.45c-6.04-1.32-12.33-5.04-17.97-2.49
		c-10.13,4.58-3.14,15.92,2.64,20.62C357.99,313.96,367.62,316.28,376.01,313.4z"/>
	<path class="st7" d="M382.67,298.7c7.13-3.06,13.54-7.55,20.27-11.42c8.89-5.11,18.57-9.21,28.78-10.22
		c10.21-1.01,21.03,1.34,28.9,7.92c-0.09-4.69-0.18-9.39-0.26-14.08c-0.03-1.64-0.07-3.34-0.74-4.84c-0.82-1.84-2.48-3.18-4.25-4.14
		c-6.22-3.38-13.93-2.79-20.59-0.39c-6.65,2.4-12.57,6.42-18.73,9.9c-8.5,4.79-17.56,8.59-26.93,11.29
		c-4.76,1.37-10.03,2.54-14.99,1.66c-5.81-1.02-7.68-4.98-12.27-7.57c-5.01-2.82-7.85-0.13-9.76,5.07
		C344.62,302.27,368.96,304.59,382.67,298.7z"/>
	<path class="st9" d="M353.5,277.89c2.06,7.21,9.66,11.76,17.14,12.36c7.47,0.6,14.82-1.98,21.68-4.98
		c5.54-2.43,10.95-5.15,16.2-8.16c5.06-2.9,10.01-6.09,15.44-8.22c5.44-2.13,11.52-3.15,17.13-1.55"/>
	<path class="st9" d="M357.98,327.96c5.4,4.08,12.26,5.94,19.02,6.12c6.77,0.18,13.49-1.24,19.97-3.19
		c7.01-2.11,13.93-4.87,21.24-5.36c10.82-0.73,21.37,3.58,30.79,8.95"/>
	<path class="st10" d="M408.53,269.03c1.65,1.94,3.94,3.27,6.34,4.13c1.98,0.71,4.16,1.12,6.2,0.61c2.05-0.51,3.92-2.12,4.24-4.2
		c0.13-0.83,0.01-1.69-0.23-2.5c-1.11-3.64-4.62-6.03-8.17-7.42c-2.72-1.07-7.76-2.44-9.94,0.39
		C405,262.59,406.74,266.92,408.53,269.03z"/>
	<path class="st11" d="M361.1,310.61c1.41,9.26,5.79,18.27,13.1,24.12c4.25,3.4,9.33,5.64,14.53,7.25c7.39,2.3,15.33,3.41,22.9,1.79
		c0.64-0.14,1.3-0.3,1.8-0.72c0.52-0.44,0.8-1.09,1.06-1.72c0.84-2.03,1.69-4.18,1.36-6.35c-0.39-2.55-2.36-4.59-4.52-5.99
		c-2.17-1.4-4.61-2.34-6.75-3.78c-3.98-2.68-6.76-7.08-7.45-11.83c-0.86-5.88,1.35-11.79,1.32-17.73
		c-0.04-7.45-4.36-19.87-10.44-24.18c-5.69-4.03-18.36-0.55-22.5,7.25C360.38,288.38,359.48,299.94,361.1,310.61z"/>
	<path class="st11" d="M366.7,297.41c0.57,12.82,5.11,25.81,14.34,34.73c9.22,8.92,23.48,13.02,35.46,8.44
		c3.24-1.24,6.62-3.65,6.73-7.11c0.05-1.52-0.57-2.98-1.34-4.29c-5.85-9.88-19.9-12.42-25.8-22.26c-5.72-9.53-1.62-21.76-3.06-32.78
		c-0.56-4.3-2.58-9.06-6.75-10.24c-5.54-1.57-12.01,4.54-14.67,8.98C367.34,279.99,366.34,289.31,366.7,297.41z"/>
	<path class="st11" d="M389.72,304.15c-0.71,5.12-3.78,9.86-8.15,12.6c-4.38,2.74-9.98,3.44-14.89,1.86
		c-1.83-0.59-3.58-1.49-5.01-2.79c-2.86-2.58-4.19-6.47-4.76-10.29c-0.75-5-0.35-10.28,1.87-14.83c4.02-8.23,14.29-12.75,23.1-10.43
		c3.81,1,5.95,2.69,6.75,6.56C389.72,292.07,390.45,298.88,389.72,304.15z"/>
	<path class="st11" d="M401.04,338.39c2.87,2.77,7.15,3.75,11.11,3.24c3.96-0.51,7.63-2.35,10.94-4.59
		c4.94-3.35,10.17-8.88,8.35-15.42c-1.47-5.26-7.15-8.96-12.45-7.69c-5.38,1.29-10.7,5.9-15.13,9.02
		C398.54,326.7,395.49,333.04,401.04,338.39z"/>
</g>
</svg>
