<?xml version="1.0" encoding="utf-8"?>
<!-- Generator: Adobe Illustrator 24.1.2, SVG Export Plug-In . SVG Version: 6.00 Build 0)  -->
<svg version="1.1" id="Calque_1" xmlns="http://www.w3.org/2000/svg" xmlns:xlink="http://www.w3.org/1999/xlink" x="0px" y="0px"
	 viewBox="0 0 800 600" style="enable-background:new 0 0 800 600;" xml:space="preserve">
<style type="text/css">
	.st0{clip-path:url(#SVGID_2_);fill:#FFC7AF;}
	.st1{clip-path:url(#SVGID_2_);}
	.st2{fill:#FFD4C2;}
	.st3{fill:#FFE1D4;}
	.st4{fill:#FFBB54;}
	.st5{fill:#FFD98B;}
	.st6{clip-path:url(#SVGID_2_);fill:#FFD07E;}
	.st7{clip-path:url(#SVGID_2_);fill:#FFBB54;}
	.st8{opacity:0.61;clip-path:url(#SVGID_2_);fill:#C86E2C;}
	.st9{opacity:0.18;clip-path:url(#SVGID_2_);fill:#FFA177;}
	.st10{fill:#D58B5A;}
	.st11{opacity:0.32;clip-path:url(#SVGID_2_);fill:#FFA177;}
	.st12{clip-path:url(#SVGID_2_);fill:#FFECE3;}
</style>
<g>
	<defs>
		<circle id="SVGID_1_" cx="398.02" cy="300.29" r="46"/>
	</defs>
	<clipPath id="SVGID_2_">
		<use xlink:href="#SVGID_1_"  style="overflow:visible;"/>
	</clipPath>
	
		<ellipse transform="matrix(0.1295 -0.9916 0.9916 0.1295 48.7104 656.0716)" class="st0" cx="398.02" cy="300.29" rx="46" ry="46"/>
	<g class="st1">
		
			<ellipse transform="matrix(0.2988 -0.9543 0.9543 0.2988 23.8552 580.4219)" class="st2" cx="406.88" cy="273.98" rx="15.55" ry="27"/>
	</g>
	<g class="st1">
		
			<ellipse transform="matrix(0.2988 -0.9543 0.9543 0.2988 31.1185 585.829)" class="st3" cx="414.19" cy="271.74" rx="11.55" ry="20.06"/>
	</g>
	<g class="st1">
		<path class="st4" d="M385.75,279.03c-0.28,0-0.54,0.2-0.83,0.18c-0.16-0.02-0.31-0.11-0.43-0.21c-0.38-0.32-0.57-0.74-0.61-1.16
			c-0.06,0.49,0.1,1.02,0.55,1.4c0.11,0.09,0.24,0.17,0.38,0.19c0.25,0.02,0.48-0.16,0.74-0.16c0.21,0,0.41,0.12,0.62,0.12
			c0.18,0,0.35-0.11,0.47-0.26c-0.06,0.02-0.12,0.03-0.18,0.04C386.21,279.17,385.99,279.03,385.75,279.03z"/>
		<path class="st5" d="M386.78,278.26c-0.08-0.55-0.37-1.09-0.83-1.4c-1.09-0.72-1.96,0.05-2.06,0.98c0.04,0.42,0.24,0.84,0.61,1.16
			c0.12,0.1,0.27,0.19,0.43,0.21c0.28,0.03,0.54-0.18,0.83-0.18c0.24,0,0.46,0.14,0.69,0.13c0.06,0,0.13-0.01,0.18-0.04
			c0.03-0.05,0.06-0.1,0.09-0.15C386.81,278.76,386.81,278.5,386.78,278.26z"/>
	</g>
	<g class="st1">
		<path class="st4" d="M392.75,286.4c-0.28,0-0.54,0.2-0.83,0.18c-0.16-0.02-0.31-0.11-0.43-0.21c-0.38-0.32-0.57-0.74-0.61-1.16
			c-0.06,0.49,0.1,1.02,0.55,1.4c0.11,0.09,0.24,0.17,0.38,0.19c0.25,0.02,0.48-0.16,0.74-0.16c0.21,0,0.41,0.12,0.62,0.12
			c0.18,0,0.35-0.11,0.47-0.26c-0.06,0.02-0.12,0.03-0.18,0.04C393.21,286.54,392.99,286.4,392.75,286.4z"/>
		<path class="st5" d="M393.78,285.64c-0.08-0.55-0.37-1.09-0.83-1.4c-1.09-0.72-1.96,0.05-2.06,0.98c0.04,0.42,0.24,0.84,0.61,1.16
			c0.12,0.1,0.27,0.19,0.43,0.21c0.28,0.03,0.54-0.18,0.83-0.18c0.24,0,0.46,0.14,0.69,0.13c0.06,0,0.13-0.01,0.18-0.04
			c0.03-0.05,0.06-0.1,0.09-0.15C393.81,286.13,393.81,285.88,393.78,285.64z"/>
	</g>
	<g class="st1">
		<path class="st4" d="M376.78,285.13c-0.14-0.24-0.45-0.37-0.57-0.63c-0.07-0.15-0.06-0.32-0.03-0.48
			c0.09-0.49,0.35-0.86,0.69-1.11c-0.45,0.2-0.84,0.6-0.94,1.18c-0.03,0.14-0.03,0.29,0.03,0.42c0.11,0.23,0.38,0.34,0.51,0.56
			c0.11,0.18,0.1,0.41,0.21,0.59c0.1,0.16,0.27,0.25,0.46,0.27c-0.05-0.04-0.09-0.09-0.12-0.14
			C376.89,285.59,376.9,285.33,376.78,285.13z"/>
		<path class="st5" d="M377.96,285.63c0.44-0.35,0.76-0.87,0.8-1.43c0.08-1.31-1.03-1.67-1.88-1.3c-0.34,0.25-0.61,0.63-0.69,1.11
			c-0.03,0.16-0.03,0.33,0.03,0.48c0.12,0.26,0.42,0.38,0.57,0.63c0.12,0.2,0.11,0.46,0.23,0.67c0.03,0.05,0.08,0.1,0.12,0.14
			c0.06,0.01,0.12,0.01,0.17,0C377.55,285.91,377.77,285.78,377.96,285.63z"/>
	</g>
	<path class="st6" d="M405.97,294.01c0.94,0.93,2.48,1.2,3.68,0.64c0.31-0.14,0.59-0.33,0.82-0.58c0.72-0.8,0.67-2.09,0.08-2.99
		c-0.59-0.9-1.61-1.43-2.65-1.68C404.82,288.66,404.02,292.09,405.97,294.01z"/>
	<path class="st6" d="M426.04,312.76c-0.08,0.45,0.14,0.94,0.53,1.18c0.1,0.06,0.21,0.11,0.33,0.12c0.37,0.05,0.73-0.22,0.87-0.56
		c0.14-0.34,0.1-0.74-0.04-1.09C427.34,311.39,426.21,311.83,426.04,312.76z"/>
	<path class="st6" d="M423.12,285.81c-0.6-0.46-1.49-0.51-2.14-0.11c-0.16,0.1-0.32,0.23-0.43,0.39c-0.35,0.5-0.23,1.24,0.16,1.7
		s1.02,0.7,1.63,0.77C424.15,288.77,424.36,286.76,423.12,285.81z"/>
	<path class="st7" d="M372.04,328.76c-0.08,0.45,0.14,0.94,0.53,1.18c0.1,0.06,0.21,0.11,0.33,0.12c0.37,0.05,0.73-0.22,0.87-0.56
		c0.14-0.34,0.1-0.74-0.04-1.09C373.34,327.39,372.21,327.83,372.04,328.76z"/>
	<path class="st8" d="M361.78,288.16L361.78,288.16c0.55-0.82,1.85,0.07,2.1,1.02c0.26,0.95,0.3,2.16,1.2,2.58
		c0.64,0.3,1.39-0.01,2.03-0.32l2.33-1.12c2.68-1.29,5.78-0.69,8.03,1.24c1,0.85,2.3,1.43,3.59,1.53c2.97,0.23,5.78-1.19,8.45-2.49
		c2.68-1.3,5.63-2.55,8.54-1.94c2.23,0.47,4.19,1.99,6.46,2.16c4.12,0.3,8.15-3.89,11.9-2.16c1.11,0.51,1.94,1.47,2.97,2.13
		c2.91,1.86,6.57,0.98,9.88-0.37c1-0.41,2.14-0.39,3.1,0.11c2.74,1.41,6.75-0.72,9.85-2.31c3.43-1.75,7.29-2.67,11.15-2.63
		c-0.93,4.69-8.51,3.58-11.75,7.09c-0.96,1.04-1.48,2.45-2.56,3.35c-3.17,2.65-7.84-0.79-11.97-0.59
		c-4.57,0.21-8.04,4.95-12.61,4.97c-2.56,0.01-4.95-1.47-7.35-2.48c-2.39-1.01-5.2-0.01-6.36,2.31c-0.44,0.87-0.96,1.69-1.64,2.4
		c-1.43,1.49-3.74,2.35-5.62,1.49c-1.18-0.54-1.9-1.89-1.87-3.14c0.01-0.76-0.69-1.33-1.41-1.06l-0.04,0.02
		c-1.36,0.51-2.41,1.61-2.88,2.99c-0.53,1.55-2.45,2.77-3.96,1.93c-0.05-0.05-0.09-0.09-0.14-0.14c-1.29-2.02-4.09-2.26-5.47-0.34
		c-1.58,2.2-3.16,4.71-5.57,4.5c-1.38-0.12-2.51-1.19-3.87-1.45c-1.82-0.35-3.55,0.8-5.29,1.46c-5.76,2.18-12.7-1.52-15.09-7.2
		c-1.41-3.34-2.21-11.92,1.33-14.49c2.68-1.94,5.67-0.36,8.82-1.19C359.66,285.61,361.31,286.57,361.78,288.16z"/>
	<path class="st9" d="M380.97,314.92c2.5,2.07,5.58,3.42,8.79,3.86c1,0.14,2.06,0.18,2.97-0.24c1.64-0.75,2.29-2.68,3.19-4.24
		c0.9-1.56,2.82-3.02,4.37-2.1c0.82,2.72,2.02,5.48,4.31,7.16s5.9,1.83,7.71-0.36c-0.8-0.45-0.49-1.94,0.42-2.04
		c3.76-2.68,8.59,1.53,13.18,1.95c1.69,0.16,3.37-0.22,5.02-0.6c4.79-1.09,9.59-2.19,14.38-3.28c1.82-3.06,3.23-6.37,4.17-9.8
		c0.7-2.56,1.12-5.33,0.21-7.81c-0.91-2.49-3.55-4.5-6.13-3.9c0.55,1.13,1.09,2.26,1.64,3.39c-1.66,2.59-4.67,3.91-7.51,5.1
		c-6.95,2.89-13.9,5.78-20.84,8.67c-2.76,1.15-7.22,1.36-7.45-1.62c-3.87-2.21-8.93-2.16-12.76,0.13c-1.45,0.87-2.76,2.04-4.38,2.5
		c-3.32,0.94-6.77-1.34-10.2-1.03c-3.27,0.3-5.96,2.87-9.21,3.29c-1.81,0.23-3.62-0.23-5.39-0.68c-4.91-1.27-10.04-3.15-15.05-3.7
		c2.94,2.73,7.72,5.29,11.37,7.17c3.91,2.01,5.42,2.11,9.44,0.5C375.4,316.37,378.36,313.18,380.97,314.92z"/>
	<g class="st1">
		<path class="st10" d="M365.95,285.7c0.15,0.1,0.33,0.17,0.51,0.15c0.4-0.03,0.65-0.46,1.03-0.6c0.19-0.07,0.4-0.07,0.6-0.1
			c0.2-0.03,0.42-0.12,0.51-0.3c0.12-0.22,0-0.51-0.18-0.68c-0.18-0.18-0.42-0.29-0.61-0.45c-0.14-0.11-0.26-0.25-0.39-0.37
			c-0.31-0.28-0.72-0.45-1.13-0.48c-0.32-0.03-0.68,0.04-0.88,0.3c-0.1,0.14-0.15,0.31-0.18,0.48
			C365.1,284.42,365.25,285.26,365.95,285.7z"/>
		<path class="st10" d="M370.65,291.39c-0.17-0.05-0.36-0.08-0.54-0.02c-0.38,0.13-0.52,0.6-0.85,0.84
			c-0.17,0.12-0.37,0.17-0.56,0.25c-0.19,0.08-0.37,0.22-0.42,0.42c-0.06,0.25,0.13,0.49,0.35,0.62s0.47,0.17,0.7,0.28
			c0.16,0.07,0.31,0.18,0.47,0.26c0.37,0.19,0.81,0.25,1.22,0.19c0.32-0.05,0.65-0.21,0.78-0.51c0.07-0.16,0.06-0.34,0.05-0.51
			C371.79,292.41,371.44,291.64,370.65,291.39z"/>
		<path class="st10" d="M380.35,311.43c0.15,0.1,0.33,0.17,0.51,0.15c0.4-0.03,0.65-0.46,1.03-0.6c0.19-0.07,0.4-0.07,0.6-0.1
			c0.2-0.03,0.42-0.12,0.51-0.3c0.12-0.22,0-0.51-0.18-0.68s-0.42-0.29-0.61-0.45c-0.14-0.11-0.26-0.25-0.39-0.37
			c-0.31-0.28-0.72-0.45-1.13-0.48c-0.32-0.03-0.68,0.04-0.88,0.3c-0.1,0.14-0.15,0.31-0.18,0.48
			C379.5,310.15,379.64,310.99,380.35,311.43z"/>
		<path class="st10" d="M380.67,323.35c-0.17,0.06-0.34,0.16-0.44,0.31c-0.22,0.33-0.05,0.79-0.17,1.18
			c-0.06,0.19-0.2,0.36-0.3,0.53c-0.1,0.18-0.17,0.4-0.09,0.58c0.1,0.23,0.4,0.32,0.65,0.29c0.25-0.03,0.48-0.15,0.73-0.2
			c0.17-0.04,0.35-0.05,0.53-0.08c0.41-0.07,0.8-0.28,1.09-0.58c0.22-0.23,0.39-0.56,0.31-0.87c-0.04-0.17-0.15-0.31-0.27-0.44
			C382.2,323.48,381.45,323.08,380.67,323.35z"/>
		<path class="st10" d="M390.31,334.85c-0.17,0.06-0.34,0.16-0.44,0.31c-0.22,0.33-0.05,0.79-0.17,1.18
			c-0.06,0.19-0.2,0.36-0.3,0.53s-0.17,0.4-0.09,0.58c0.1,0.23,0.4,0.32,0.65,0.29c0.25-0.03,0.48-0.15,0.73-0.2
			c0.17-0.04,0.35-0.05,0.53-0.08c0.41-0.07,0.8-0.28,1.09-0.58c0.22-0.23,0.39-0.56,0.31-0.87c-0.04-0.17-0.15-0.31-0.27-0.44
			C391.84,334.99,391.09,334.58,390.31,334.85z"/>
		<path class="st10" d="M363.48,309.25c-0.1-0.04-0.22-0.06-0.32-0.03c-0.23,0.07-0.34,0.35-0.54,0.47
			c-0.11,0.07-0.23,0.09-0.35,0.13c-0.12,0.04-0.23,0.12-0.27,0.24c-0.04,0.15,0.06,0.3,0.19,0.39c0.13,0.08,0.28,0.12,0.42,0.2
			c0.1,0.05,0.18,0.12,0.27,0.17c0.22,0.13,0.48,0.18,0.73,0.16c0.2-0.02,0.4-0.1,0.49-0.28c0.05-0.09,0.05-0.2,0.05-0.31
			C364.13,309.92,363.95,309.44,363.48,309.25z"/>
		<path class="st10" d="M376.38,279.64c0.08-0.02,0.15-0.04,0.23-0.05c0.21-0.02,0.41,0.08,0.6,0.16c0.27,0.11,0.59,0.16,0.82-0.02
			c0.2-0.15,0.26-0.45,0.18-0.68c-0.08-0.24-0.28-0.43-0.5-0.55c-0.47-0.26-1.54-0.61-2.02-0.18
			C375.16,278.82,375.67,279.79,376.38,279.64z"/>
		<path class="st10" d="M377.16,295.43c0.08-0.02,0.15-0.04,0.23-0.05c0.21-0.02,0.41,0.08,0.6,0.16c0.27,0.11,0.59,0.16,0.82-0.02
			c0.2-0.15,0.26-0.45,0.18-0.68c-0.08-0.24-0.28-0.43-0.5-0.55c-0.47-0.26-1.54-0.61-2.02-0.18
			C375.93,294.61,376.45,295.57,377.16,295.43z"/>
		<path class="st10" d="M372.69,313.47c0.04,0.07,0.08,0.13,0.11,0.2c0.08,0.19,0.04,0.41,0.02,0.62c-0.03,0.29,0.02,0.62,0.25,0.78
			c0.2,0.15,0.5,0.12,0.71-0.03c0.21-0.15,0.33-0.39,0.38-0.63c0.11-0.53,0.14-1.65-0.42-1.98
			C373.12,312.06,372.35,312.83,372.69,313.47z"/>
		<path class="st10" d="M385.85,320.55c-0.04,0.04-0.07,0.08-0.11,0.12c-0.11,0.1-0.26,0.12-0.4,0.15c-0.19,0.05-0.4,0.15-0.45,0.34
			c-0.05,0.17,0.03,0.35,0.18,0.45c0.14,0.1,0.33,0.13,0.5,0.1c0.37-0.05,1.1-0.28,1.2-0.71
			C386.87,320.51,386.19,320.18,385.85,320.55z"/>
		<path class="st10" d="M376.21,327.58c-0.04,0.04-0.07,0.08-0.11,0.12c-0.11,0.1-0.26,0.12-0.4,0.15c-0.19,0.05-0.4,0.15-0.45,0.34
			c-0.05,0.17,0.03,0.35,0.18,0.45c0.14,0.1,0.33,0.13,0.5,0.1c0.37-0.05,1.1-0.28,1.2-0.71
			C377.23,327.54,376.55,327.21,376.21,327.58z"/>
		<path class="st10" d="M383.31,332.27c-0.07,0.03-0.13,0.08-0.21,0.11c-0.2,0.08-0.41,0.02-0.62,0c-0.29-0.04-0.62,0-0.79,0.22
			c-0.16,0.2-0.14,0.5,0,0.71c0.14,0.21,0.37,0.34,0.62,0.4c0.52,0.13,1.64,0.2,2-0.33C384.7,332.76,383.96,331.95,383.31,332.27z"
			/>
		<path class="st10" d="M395.14,328.52c-0.07,0.03-0.13,0.08-0.21,0.11c-0.2,0.08-0.41,0.02-0.62,0c-0.29-0.04-0.62,0-0.79,0.22
			c-0.16,0.2-0.14,0.5,0,0.71c0.14,0.21,0.37,0.34,0.62,0.4c0.52,0.13,1.64,0.2,2-0.33C396.53,329.01,395.79,328.2,395.14,328.52z"
			/>
		<path class="st10" d="M382.03,319.95c0.01,0.02,0.03,0.05,0.04,0.07c0.03,0.07,0.01,0.15,0.01,0.22c-0.01,0.1,0.01,0.22,0.09,0.28
			c0.07,0.05,0.18,0.04,0.25-0.01s0.11-0.14,0.13-0.22c0.04-0.19,0.05-0.58-0.15-0.7C382.18,319.46,381.91,319.73,382.03,319.95z"/>
		<path class="st10" d="M387.93,328.25c-0.05-0.01-0.1-0.02-0.15-0.04c-0.13-0.05-0.21-0.16-0.3-0.26c-0.12-0.14-0.3-0.26-0.48-0.23
			c-0.16,0.03-0.28,0.18-0.3,0.35c-0.02,0.16,0.04,0.33,0.13,0.46c0.2,0.29,0.72,0.79,1.12,0.68
			C388.4,329.08,388.38,328.37,387.93,328.25z"/>
		<path class="st10" d="M380.09,286.27c0.03-0.01,0.07-0.02,0.1-0.02c0.09-0.01,0.18,0.04,0.27,0.07c0.12,0.05,0.27,0.07,0.37-0.01
			c0.09-0.07,0.12-0.2,0.08-0.31c-0.04-0.11-0.12-0.19-0.22-0.25c-0.21-0.12-0.69-0.27-0.9-0.08
			C379.54,285.9,379.77,286.34,380.09,286.27z"/>
		<path class="st10" d="M377.98,283.52c-0.01,0.02-0.02,0.03-0.03,0.05c-0.03,0.04-0.08,0.06-0.12,0.09
			c-0.06,0.03-0.12,0.09-0.13,0.16c0,0.06,0.04,0.12,0.1,0.14s0.12,0.01,0.18-0.01c0.12-0.05,0.36-0.19,0.35-0.35
			C378.33,283.42,378.06,283.36,377.98,283.52z"/>
		<path class="st10" d="M375.82,310.37c-0.01,0.02-0.02,0.03-0.03,0.05c-0.03,0.04-0.08,0.06-0.12,0.09
			c-0.06,0.03-0.12,0.09-0.13,0.16c0,0.06,0.04,0.12,0.1,0.14c0.06,0.02,0.12,0.01,0.18-0.01c0.12-0.05,0.36-0.19,0.35-0.35
			C376.16,310.26,375.9,310.21,375.82,310.37z"/>
		<path class="st10" d="M376.98,314.94c-0.01,0.02-0.02,0.03-0.03,0.05c-0.03,0.04-0.08,0.06-0.12,0.09
			c-0.06,0.03-0.12,0.09-0.13,0.16c0,0.06,0.04,0.12,0.1,0.14c0.06,0.02,0.12,0.01,0.18-0.01c0.12-0.05,0.36-0.19,0.35-0.35
			C377.33,314.84,377.06,314.78,376.98,314.94z"/>
		<path class="st10" d="M389.55,305.07c-0.01,0.02-0.02,0.03-0.03,0.05c-0.03,0.04-0.08,0.06-0.12,0.09
			c-0.06,0.03-0.12,0.09-0.13,0.16c0,0.06,0.04,0.12,0.1,0.14c0.06,0.02,0.12,0.01,0.18-0.01c0.12-0.05,0.36-0.19,0.35-0.35
			C389.9,304.97,389.63,304.92,389.55,305.07z"/>
		<path class="st10" d="M371.62,306.95c-0.01,0.02-0.02,0.05-0.04,0.07c-0.04,0.06-0.12,0.09-0.18,0.13
			c-0.09,0.05-0.18,0.13-0.18,0.23c0,0.09,0.06,0.17,0.15,0.21c0.08,0.03,0.18,0.02,0.26-0.01c0.18-0.07,0.52-0.28,0.51-0.51
			C372.13,306.8,371.75,306.72,371.62,306.95z"/>
		<path class="st10" d="M372.76,297.64c-0.01,0.02-0.02,0.05-0.04,0.07c-0.04,0.06-0.12,0.09-0.18,0.13
			c-0.09,0.05-0.18,0.13-0.18,0.23c0,0.09,0.06,0.17,0.15,0.21s0.18,0.02,0.26-0.01c0.18-0.07,0.52-0.28,0.51-0.51
			C373.26,297.49,372.88,297.41,372.76,297.64z"/>
		<path class="st10" d="M365.41,305.1c0.1,0.41,0.42,0.72,0.79,0.93c0.33,0.19,0.72,0.31,1.09,0.23c0.37-0.08,0.71-0.38,0.74-0.76
			c0.01-0.17-0.04-0.35-0.1-0.51c-0.06-0.15-0.13-0.29-0.24-0.41c-0.14-0.14-0.33-0.23-0.52-0.29
			C366.47,304.03,365.12,303.85,365.41,305.1z"/>
		<path class="st10" d="M377.01,303.05c-0.08-0.2-0.26-0.33-0.46-0.41c-0.18-0.07-0.38-0.11-0.56-0.04
			c-0.18,0.06-0.33,0.24-0.32,0.43c0.01,0.09,0.04,0.17,0.09,0.25c0.04,0.07,0.08,0.14,0.15,0.19c0.08,0.06,0.18,0.09,0.28,0.11
			C376.55,303.65,377.24,303.65,377.01,303.05z"/>
		<path class="st10" d="M381.84,300.96c-0.08-0.2-0.26-0.33-0.46-0.41c-0.18-0.07-0.38-0.11-0.56-0.04
			c-0.18,0.06-0.33,0.24-0.32,0.43c0.01,0.09,0.04,0.17,0.09,0.25c0.04,0.07,0.08,0.14,0.15,0.19c0.08,0.06,0.18,0.09,0.28,0.11
			C381.38,301.56,382.07,301.56,381.84,300.96z"/>
		<path class="st10" d="M372.24,278.28c-0.09-0.24-0.32-0.41-0.56-0.5c-0.22-0.09-0.47-0.13-0.69-0.05
			c-0.22,0.08-0.41,0.29-0.39,0.53c0.01,0.11,0.05,0.21,0.11,0.3c0.05,0.09,0.1,0.17,0.18,0.23c0.1,0.08,0.22,0.11,0.34,0.14
			C371.68,279.02,372.53,279.02,372.24,278.28z"/>
		<path class="st10" d="M382.05,291.38c0.22-0.14,0.34-0.39,0.38-0.65c0.04-0.23,0.03-0.48-0.08-0.69c-0.12-0.2-0.37-0.34-0.59-0.28
			c-0.1,0.03-0.19,0.09-0.28,0.16c-0.07,0.06-0.15,0.13-0.19,0.22c-0.06,0.11-0.07,0.24-0.07,0.36
			C381.22,290.97,381.39,291.8,382.05,291.38z"/>
		<path class="st10" d="M401,288.95c0.22-0.14,0.34-0.39,0.38-0.65c0.04-0.23,0.03-0.48-0.08-0.69c-0.12-0.2-0.37-0.34-0.59-0.28
			c-0.1,0.03-0.19,0.09-0.28,0.16c-0.07,0.06-0.15,0.13-0.19,0.22c-0.06,0.11-0.07,0.24-0.07,0.36
			C400.16,288.54,400.33,289.37,401,288.95z"/>
		<path class="st10" d="M380.52,306.13c0.2,0.21,0.52,0.29,0.81,0.29c0.27,0,0.55-0.07,0.75-0.25c0.2-0.18,0.3-0.49,0.18-0.73
			c-0.05-0.11-0.15-0.2-0.25-0.27c-0.09-0.07-0.18-0.13-0.29-0.17c-0.14-0.04-0.28-0.02-0.42,0
			C380.79,305.1,379.9,305.48,380.52,306.13z"/>
		<path class="st10" d="M402.52,301.26c0.2,0.21,0.52,0.29,0.81,0.29c0.27,0,0.55-0.07,0.75-0.25c0.2-0.18,0.3-0.49,0.18-0.73
			c-0.05-0.11-0.15-0.2-0.25-0.27c-0.09-0.07-0.18-0.13-0.29-0.17c-0.14-0.04-0.28-0.02-0.42,0
			C402.79,300.23,401.9,300.6,402.52,301.26z"/>
		<path class="st10" d="M401.99,322.09c0.2,0.21,0.52,0.29,0.81,0.29c0.27,0,0.55-0.07,0.75-0.25s0.3-0.49,0.18-0.73
			c-0.05-0.11-0.15-0.2-0.25-0.27c-0.09-0.07-0.18-0.13-0.29-0.17c-0.14-0.04-0.28-0.02-0.42,0
			C402.26,321.06,401.36,321.43,401.99,322.09z"/>
		<path class="st10" d="M390.13,324.34c-0.09-0.23-0.3-0.39-0.53-0.48c-0.21-0.08-0.44-0.12-0.65-0.05
			c-0.21,0.07-0.38,0.28-0.37,0.5c0.01,0.1,0.05,0.2,0.1,0.29c0.05,0.08,0.1,0.16,0.17,0.22c0.09,0.07,0.21,0.11,0.32,0.13
			C389.6,325.04,390.4,325.03,390.13,324.34z"/>
		<path class="st10" d="M400.1,314.53c-0.09-0.23-0.3-0.39-0.53-0.48c-0.21-0.08-0.44-0.12-0.65-0.05c-0.21,0.07-0.38,0.28-0.37,0.5
			c0.01,0.1,0.05,0.2,0.1,0.29c0.05,0.08,0.1,0.16,0.17,0.22c0.09,0.07,0.21,0.11,0.32,0.13
			C399.57,315.23,400.37,315.23,400.1,314.53z"/>
		<path class="st10" d="M376.46,320.67c-0.09-0.23-0.3-0.39-0.53-0.48c-0.21-0.08-0.44-0.12-0.65-0.05
			c-0.21,0.07-0.38,0.28-0.37,0.5c0.01,0.1,0.05,0.2,0.1,0.29c0.05,0.08,0.1,0.16,0.17,0.22c0.09,0.07,0.21,0.11,0.32,0.13
			C375.93,321.37,376.73,321.37,376.46,320.67z"/>
		<path class="st10" d="M365.2,315.33c0.13,0.33,0.32,0.67,0.62,0.86c0.28,0.18,0.63,0.22,0.95,0.3c0.3,0.08,0.58,0.21,0.84,0.39
			c0.17,0.11,0.33,0.24,0.52,0.29c0.21,0.05,0.44-0.02,0.63-0.12c0.4-0.22,0.69-0.62,0.78-1.06c0.1-0.51-0.05-1.04-0.22-1.54
			c-0.07-0.21-0.15-0.42-0.28-0.6c-0.11-0.15-0.26-0.27-0.43-0.38c-0.86-0.54-1.83-0.41-2.75-0.11
			C365,313.63,364.89,314.56,365.2,315.33z"/>
		<path class="st10" d="M372.94,317.1c-0.1,0.01-0.21,0.03-0.28,0.09c-0.07,0.06-0.11,0.15-0.16,0.23
			c-0.05,0.07-0.11,0.14-0.17,0.19c-0.04,0.04-0.09,0.07-0.12,0.12c-0.03,0.05-0.03,0.12-0.02,0.18c0.03,0.12,0.11,0.24,0.22,0.3
			c0.13,0.07,0.28,0.07,0.43,0.07c0.06,0,0.13,0,0.18-0.02c0.05-0.02,0.1-0.05,0.14-0.08c0.22-0.19,0.26-0.46,0.26-0.73
			C373.41,317.19,373.17,317.08,372.94,317.1z"/>
		<path class="st10" d="M379.27,317.07c-0.12,0.01-0.24,0.03-0.32,0.11c-0.08,0.07-0.13,0.17-0.18,0.26
			c-0.05,0.08-0.12,0.16-0.2,0.22c-0.05,0.04-0.11,0.08-0.14,0.13c-0.04,0.06-0.04,0.14-0.02,0.21c0.03,0.14,0.13,0.27,0.25,0.34
			c0.15,0.08,0.33,0.08,0.49,0.08c0.07,0,0.14,0,0.21-0.03c0.06-0.02,0.11-0.06,0.16-0.1c0.25-0.21,0.3-0.53,0.3-0.83
			C379.81,317.17,379.53,317.05,379.27,317.07z"/>
		<path class="st10" d="M396.44,306.51c-0.12,0.01-0.24,0.03-0.32,0.11c-0.08,0.07-0.13,0.17-0.18,0.26
			c-0.05,0.08-0.12,0.16-0.2,0.22c-0.05,0.04-0.11,0.08-0.14,0.13c-0.04,0.06-0.04,0.14-0.02,0.21c0.03,0.14,0.13,0.27,0.25,0.34
			c0.15,0.08,0.33,0.08,0.49,0.08c0.07,0,0.14,0,0.21-0.03c0.06-0.02,0.11-0.06,0.16-0.1c0.25-0.21,0.3-0.53,0.3-0.83
			C396.98,306.61,396.7,306.49,396.44,306.51z"/>
		<path class="st10" d="M392.3,319.78c-0.12,0.01-0.24,0.03-0.32,0.11c-0.08,0.07-0.13,0.17-0.18,0.26
			c-0.05,0.08-0.12,0.16-0.2,0.22c-0.05,0.04-0.11,0.08-0.14,0.13c-0.04,0.06-0.04,0.14-0.02,0.21c0.03,0.14,0.13,0.27,0.25,0.34
			c0.15,0.08,0.33,0.08,0.49,0.08c0.07,0,0.14,0,0.21-0.03c0.06-0.02,0.11-0.06,0.16-0.1c0.25-0.21,0.3-0.53,0.3-0.83
			C392.84,319.88,392.56,319.76,392.3,319.78z"/>
		<path class="st10" d="M383.5,314.14c-0.12,0.01-0.24,0.03-0.32,0.11c-0.08,0.07-0.13,0.17-0.18,0.26
			c-0.05,0.08-0.12,0.16-0.2,0.22c-0.05,0.04-0.11,0.08-0.14,0.13c-0.04,0.06-0.04,0.14-0.02,0.21c0.03,0.14,0.13,0.27,0.25,0.34
			c0.15,0.08,0.33,0.08,0.49,0.08c0.07,0,0.14-0.01,0.21-0.03c0.06-0.02,0.11-0.06,0.16-0.1c0.25-0.21,0.3-0.53,0.3-0.83
			C384.04,314.24,383.77,314.12,383.5,314.14z"/>
		<path class="st10" d="M361.43,317.79c-0.12,0.01-0.24,0.03-0.32,0.11c-0.08,0.07-0.13,0.17-0.18,0.26
			c-0.05,0.08-0.12,0.16-0.2,0.22c-0.05,0.04-0.11,0.08-0.14,0.13c-0.04,0.06-0.04,0.14-0.02,0.21c0.03,0.14,0.13,0.27,0.25,0.34
			c0.15,0.08,0.33,0.08,0.49,0.08c0.07,0,0.14,0,0.21-0.03c0.06-0.02,0.11-0.06,0.16-0.1c0.25-0.21,0.3-0.53,0.3-0.83
			C361.97,317.89,361.69,317.77,361.43,317.79z"/>
	</g>
	<path class="st11" d="M411.52,335.54c-24.75,0-44.82-20.07-44.82-44.82c0-11.8,4.57-22.53,12.03-30.54
		c-14.38,7.46-24.21,22.48-24.21,39.79c0,24.75,20.07,44.82,44.82,44.82c12.95,0,24.61-5.5,32.79-14.28
		C425.96,333.72,418.95,335.54,411.52,335.54z"/>
	<ellipse transform="matrix(0.5 -0.866 0.866 0.5 -24.9999 495.0598)" class="st12" cx="416.24" cy="269.18" rx="7.72" ry="13.4"/>
	<path class="st9" d="M371.28,281.88c3.96-0.81,6.67-6.92,10.29-5.13l1.92,4.58c2.17,1.87,4.86-1.84,7.65-2.52
		c3.27-0.79,5.81,2.78,8.92,4.07c6.7,2.78,14.72-5.5,21.03-1.9c1.43,0.82,2.49,2.14,3.82,3.11c4.53,3.27,10.81,1.65,16.05-0.27
		c1.98-0.73,4.16-1.49,6.14-0.37c1.02,0.57,1.66,1.72,1.41,2.86c-0.3,1.39-1.81,0.66-2.96,0.99c-7.09,2-14.12,4.53-21.45,5.27
		c-4.53-4.79-11.78-6.76-18.14-5.07c-0.86,0.23-1.78,0.18-2.56-0.25c-2.6-1.44-5.99-1.18-8.95-0.42c-3.38,0.87-6.71,2.31-10.2,2.15
		c-2.9-0.13-5.63-1.36-8.49-1.83c-2.04-0.33-4.36-0.14-6.07,0.89c-1.21,0.73-2.75,0.7-3.89-0.14c-2.54-1.88-5.45-3.21-8.52-3.98
		c-2.96-0.74-8.4-0.95-4.37-5.36C358.31,272.63,365.86,282.99,371.28,281.88z"/>
	<path class="st8" d="M369.78,321.7c1.71-0.91,3.51-2.31,5.36-1.72c1.48,0.47,2.4,2.12,3.93,2.42c1.59,0.3,3.26-1,4.76-0.39
		c0.59,0.24,1.03,0.73,1.51,1.14c3,2.53,8.36,1.14,9.75-2.53c0.53-1.39,0.79-3.23,2.21-3.64c1.33-0.39,2.61,0.93,2.93,2.28
		c0.33,1.35,0.07,2.77,0.32,4.14c0.24,1.36,1.29,2.8,2.67,2.67c1.58-0.16,2.33-2.17,3.84-2.68c2.48-0.83,5.59,2.7,7.38,0.79
		c0.5-0.53,0.61-1.31,1-1.92c1.25-2,4.48-1.25,6.12,0.46c0.4,0.42,0.79,0.9,1.34,1.08c0.51,0.17,1.06,0.05,1.58-0.07
		c6.04-1.38,12.07-2.76,18.11-4.14c0.24,1.91-1.08,3.9-2.94,4.42c-1.75,0.49-3.59-0.22-5.41-0.27c-5.03-0.14-9.91,4.72-14.52,2.68
		c-0.48-0.21-0.94-0.5-1.46-0.6c-1.47-0.27-2.71,1-3.82,2.01c-1.1,1.01-2.9,1.84-3.98,0.81c-0.46-0.44-0.68-1.14-1.26-1.39
		c-0.67-0.29-1.4,0.18-2,0.6c-1.43,1.01-3.02,1.88-4.76,2.07c-1.74,0.18-3.65-0.46-4.59-1.93c-0.32-0.51-0.53-1.1-0.95-1.53
		c-1.5-1.53-4.05,0.05-5.41,1.71c-1.36,1.66-3.31,3.67-5.26,2.78c-1.49-0.68-2.36-2.92-3.96-2.57c-0.45,0.1-0.82,0.4-1.25,0.55
		c-2.54,0.9-3.99-3.35-6.61-3.95c-2.25-0.51-4.01,1.78-5.69,3.37c-2.99,2.82-7.26,3.85-11.36,4.14c-0.37,0.03-0.76,0.04-1.09-0.13
		c-0.4-0.21-0.62-0.64-0.81-1.05c-1.42-2.99-6.04-9.79-0.03-9.78C360.53,321.52,364.72,324.4,369.78,321.7z"/>
</g>
</svg>
