<?xml version="1.0" encoding="utf-8"?>
<!-- Generator: Adobe Illustrator 24.1.2, SVG Export Plug-In . SVG Version: 6.00 Build 0)  -->
<svg version="1.1" id="Calque_1" xmlns="http://www.w3.org/2000/svg" xmlns:xlink="http://www.w3.org/1999/xlink" x="0px" y="0px"
	 viewBox="0 0 800 600" style="enable-background:new 0 0 800 600;" xml:space="preserve">
<style type="text/css">
	.st0{fill:url(#SVGID_1_);}
	.st1{fill:url(#SVGID_2_);}
	.st2{opacity:0.77;fill:url(#SVGID_3_);}
	.st3{fill:url(#SVGID_4_);}
	.st4{opacity:0.61;fill:#C14E00;}
	.st5{opacity:0.25;fill:#C14E00;}
	.st6{opacity:0.3;fill:#C14E00;}
	.st7{opacity:0.18;fill:#C14E00;}
	.st8{opacity:0.21;fill:#C14E00;}
</style>
<g>
	<linearGradient id="SVGID_1_" gradientUnits="userSpaceOnUse" x1="188.2475" y1="106.3645" x2="567.9849" y2="486.102">
		<stop  offset="0" style="stop-color:#F2A330"/>
		<stop  offset="1" style="stop-color:#DD5E07"/>
	</linearGradient>
	<path class="st0" d="M613.48,300c0,22.14-3.11,43.57-8.91,63.85c-16.07,56.11-52.78,103.53-101.39,133.45
		c-13.4,8.28-27.7,15.21-42.74,20.62c-24.52,8.84-50.97,13.67-78.54,13.67c-34.85,0-67.91-7.69-97.55-21.53
		C205.16,473.3,150.27,393.04,150.27,300c0-28.29,5.07-55.4,14.38-80.45c20.3-54.84,60.76-99.88,112.39-126.11
		c30.32-15.43,64.51-24.37,100.71-24.98c1.37-0.05,2.74-0.05,4.14-0.05c72.25,0,136.79,33.09,179.25,84.96
		C593.86,193.31,613.48,244.35,613.48,300z"/>
	<linearGradient id="SVGID_2_" gradientUnits="userSpaceOnUse" x1="188.2538" y1="106.3699" x2="567.9927" y2="486.1088">
		<stop  offset="0" style="stop-color:#F2A330"/>
		<stop  offset="1" style="stop-color:#DD5E07"/>
	</linearGradient>
	<path class="st1" d="M613.47,299.99v1.89c-0.03,4.99-0.24,9.97-0.62,14.89c-1.13,16.2-3.95,31.94-8.29,47.07
		c-1.2,4.16-2.51,8.29-3.95,12.34c-7.19,20.7-17.23,40.06-29.67,57.59c-18.05,25.48-41.12,47.14-67.77,63.54
		c-3.16,1.96-6.36,3.82-9.63,5.6c-10.56,5.85-21.63,10.87-33.11,14.99c-22.04,7.94-45.66,12.65-70.25,13.51
		c-2.75,0.14-5.5,0.17-8.29,0.17c-14.23,0-28.13-1.27-41.64-3.75c-19.63-3.54-38.37-9.59-55.91-17.78
		c-27.58-12.83-52.26-30.95-72.65-53.02c-16.71-18.09-30.57-38.82-40.85-61.51c-12.17-26.78-19.39-56.32-20.42-87.37
		c-0.14-2.72-0.17-5.43-0.17-8.18c0-28.26,5.09-55.39,14.41-80.46c6.98-18.88,16.33-36.58,27.75-52.74
		c14.96-21.25,33.39-39.85,54.5-55.01c9.52-6.84,19.6-12.96,30.12-18.33c14.1-7.19,29.02-12.96,44.6-17.09
		c17.95-4.85,36.72-7.56,56.11-7.91c1.38-0.03,2.75-0.03,4.16-0.03c17.05,0,33.66,1.86,49.65,5.36
		c38.03,8.29,72.58,25.92,101.09,50.44c10.35,8.87,19.87,18.64,28.5,29.16c8.6,10.45,16.26,21.7,22.93,33.56
		C602.81,220.39,613.47,258.93,613.47,299.99z"/>
	<linearGradient id="SVGID_3_" gradientUnits="userSpaceOnUse" x1="414.6054" y1="472.1541" x2="517.8062" y2="133.2969">
		<stop  offset="0" style="stop-color:#FFFFFF"/>
		<stop  offset="1" style="stop-color:#E96100"/>
	</linearGradient>
	<path class="st2" d="M613.47,299.99c0,22.14-3.09,43.56-8.91,63.85c-16.06,56.11-52.78,103.53-101.4,133.48
		c-13.41,8.25-27.71,15.2-42.74,20.6c-24.52,8.84-50.96,13.68-78.53,13.68c-34.86,0-67.94-7.7-97.55-21.52
		c-10.87-5.05-21.25-10.93-31.08-17.54c27.06-0.14,53.05-4.92,77.16-13.62c15.03-5.43,29.33-12.34,42.74-20.63
		c48.58-29.91,85.31-77.33,101.36-133.44c5.81-20.29,8.94-41.71,8.94-63.85c0-55.67-19.63-106.69-52.33-146.65
		c-14.51-17.67-31.56-33.18-50.58-45.94h1.34c19.67,0,38.79,2.48,57.04,7.08c31.22,7.91,59.93,22.18,84.65,41.36
		c13.86,10.69,26.48,22.97,37.55,36.52C593.87,193.3,613.47,244.35,613.47,299.99z"/>
	<linearGradient id="SVGID_4_" gradientUnits="userSpaceOnUse" x1="367.3176" y1="80.3178" x2="213.4646" y2="386.9399">
		<stop  offset="0" style="stop-color:#FFFFFF"/>
		<stop  offset="1" style="stop-color:#FFFFFF;stop-opacity:0"/>
	</linearGradient>
	<path class="st3" d="M398.95,238.24c0,18.88-2.65,37.13-7.6,54.43c-13.72,47.86-45.01,88.26-86.47,113.81
		c-11.41,7.05-23.62,12.96-36.41,17.57c-20.91,7.53-43.46,11.66-66.98,11.66c-2.48,0-4.92-0.07-7.39-0.17
		c-27.54-38.1-43.84-84.89-43.84-135.54c0-28.26,5.09-55.39,14.41-80.46c13.17-35.55,34.8-67.01,62.47-91.84
		c14.99-13.51,31.77-25.03,49.89-34.25c7.05-3.58,14.3-6.81,21.73-9.66c5.81-2.23,11.72-4.26,17.78-6.02
		c14.1,10.11,26.82,22.04,37.79,35.45C382.21,147.29,398.95,190.79,398.95,238.24z"/>
	<path class="st4" d="M256.33,240.57c0,41.16-33.35,74.54-74.51,74.54c-11.21,0-21.87-2.48-31.39-6.95
		c-0.14-2.72-0.17-5.43-0.17-8.18c0-28.26,5.09-55.39,14.41-80.46c6.98-18.88,16.33-36.58,27.75-52.74
		C228.55,171.91,256.33,203.03,256.33,240.57z"/>
	<circle class="st5" cx="333.92" cy="259.59" r="31.94"/>
	<circle class="st4" cx="288.67" cy="419.69" r="9.13"/>
	<path class="st5" d="M416.44,451.25c0,9.66-7.83,17.49-17.49,17.49c-9.66,0-17.49-7.83-17.49-17.49c0-9.66,7.83-17.49,17.49-17.49
		C408.61,433.76,416.44,441.59,416.44,451.25z"/>
	<circle class="st5" cx="493.26" cy="358.08" r="25.1"/>
	<circle class="st4" cx="487.93" cy="247.8" r="18.25"/>
	<path class="st4" d="M399.71,355.8c0,7.56-6.13,13.69-13.69,13.69c-7.56,0-13.69-6.13-13.69-13.69c0-7.56,6.13-13.69,13.69-13.69
		C393.58,342.11,399.71,348.24,399.71,355.8z"/>
	<path class="st6" d="M570.94,433.77c-18.05,25.48-41.12,47.14-67.77,63.54c-3.16,1.96-6.36,3.82-9.63,5.6
		c-5.47-8.29-8.66-18.19-8.66-28.85c0-28.99,23.52-52.47,52.5-52.47C550.17,421.6,561.83,426.17,570.94,433.77z"/>
	<path class="st5" d="M612.85,316.77c-1.13,16.2-3.95,31.94-8.29,47.07c-1.2,4.16-2.51,8.29-3.95,12.34
		c-2.48,0.62-5.05,0.93-7.74,0.93c-18.46,0-33.45-14.99-33.45-33.49c0-18.46,14.99-33.45,33.45-33.45
		C600.37,310.17,607.25,312.61,612.85,316.77z"/>
	<path class="st4" d="M613.47,299.99v1.89c-5.09,1.44-10.45,2.2-16.02,2.2c-32.77,0-59.31-26.54-59.31-59.31
		c0-28.16,19.6-51.75,45.94-57.83C602.81,220.39,613.47,258.93,613.47,299.99z"/>
	<path class="st7" d="M523.59,116.86c-8.63,12.07-22.8,19.91-38.79,19.91c-26.37,0-47.79-21.42-47.79-47.79
		c0-4.71,0.65-9.21,1.93-13.48C470.16,83.41,498.87,97.67,523.59,116.86z"/>
	<circle class="st4" cx="378.41" cy="151.97" r="21.3"/>
	<path class="st4" d="M301.96,99.88c0,23.52-19.05,42.57-42.6,42.57c-12.89,0-24.45-5.71-32.22-14.75
		c14.99-13.51,31.77-25.03,49.89-34.25c7.05-3.58,14.3-6.81,21.73-9.66C300.86,88.77,301.96,94.2,301.96,99.88z"/>
	<path class="st8" d="M236.94,421.22c0,16.5-10.52,30.57-25.24,35.83c-16.71-18.09-30.57-38.82-40.85-61.51
		c6.95-7.6,16.95-12.34,28.06-12.34C219.92,383.2,236.94,400.22,236.94,421.22z"/>
	<path class="st5" d="M390.19,531.11v0.31c-2.75,0.14-5.5,0.17-8.29,0.17c-14.23,0-28.13-1.27-41.64-3.75
		c1.58-12.31,12.07-21.83,24.82-21.83C378.98,506.01,390.19,517.26,390.19,531.11z"/>
	<circle class="st4" cx="280.68" cy="332.6" r="15.97"/>
	<circle class="st4" cx="422.14" cy="257.31" r="9.13"/>
	<circle class="st4" cx="538.51" cy="170.61" r="6.85"/>
</g>
</svg>
