<?xml version="1.0" encoding="utf-8"?>
<!-- Generator: Adobe Illustrator 24.1.2, SVG Export Plug-In . SVG Version: 6.00 Build 0)  -->
<svg version="1.1" id="Calque_1" xmlns="http://www.w3.org/2000/svg" xmlns:xlink="http://www.w3.org/1999/xlink" x="0px" y="0px"
	 viewBox="0 0 800 600" style="enable-background:new 0 0 800 600;" xml:space="preserve">
<style type="text/css">
	.st0{fill:url(#SVGID_1_);}
	.st1{fill:url(#SVGID_2_);}
	.st2{fill:url(#SVGID_3_);}
	.st3{fill:url(#SVGID_4_);}
	.st4{fill:url(#SVGID_5_);}
	.st5{fill:url(#SVGID_6_);}
	.st6{fill:url(#SVGID_7_);}
</style>
<g>
	<linearGradient id="SVGID_1_" gradientUnits="userSpaceOnUse" x1="261.5763" y1="168.5188" x2="451.2593" y2="358.2018">
		<stop  offset="0" style="stop-color:#1CCAF9"/>
		<stop  offset="1" style="stop-color:#0C8EBC"/>
	</linearGradient>
	<path class="st0" d="M595.47,311.1c0,18.29-2.57,35.99-7.36,52.74c-13.27,46.35-43.6,85.52-83.76,110.24
		c-11.07,6.84-22.88,12.56-35.3,17.04c-20.25,7.3-42.1,11.29-64.88,11.29c-28.79,0-56.1-6.35-80.58-17.78
		c-65.41-30.37-110.75-96.67-110.75-173.53c0-23.37,4.19-45.76,11.88-66.46c16.77-45.3,50.2-82.51,92.84-104.17
		c25.05-12.75,53.29-20.13,83.19-20.64c1.13-0.04,2.27-0.04,3.42-0.04c59.68,0,112.99,27.33,148.08,70.18
		C579.27,222.97,595.47,265.13,595.47,311.1z"/>
	<linearGradient id="SVGID_2_" gradientUnits="userSpaceOnUse" x1="431.1833" y1="453.3055" x2="516.4365" y2="173.379">
		<stop  offset="0" style="stop-color:#FFFFFF"/>
		<stop  offset="1" style="stop-color:#0267A5"/>
	</linearGradient>
	<path class="st1" d="M552.24,189.97c-35.08-42.85-88.39-70.18-148.08-70.18c-0.37,0-0.74,0.01-1.11,0.01
		c15.73,10.53,29.82,23.34,41.78,37.95c27.03,33,43.24,75.16,43.24,121.13c0,18.29-2.57,35.99-7.36,52.74
		c-13.27,46.35-43.6,85.52-83.76,110.24c-11.07,6.84-22.88,12.56-35.3,17.04c-19.91,7.18-41.37,11.13-63.73,11.26
		c8.14,5.44,16.71,10.3,25.67,14.46c24.48,11.43,51.79,17.78,80.58,17.78c22.78,0,44.63-3.99,64.88-11.29
		c12.42-4.47,24.24-10.2,35.3-17.04c40.16-24.72,70.49-63.89,83.76-110.24c4.79-16.75,7.36-34.46,7.36-52.74
		C595.47,265.13,579.27,222.97,552.24,189.97z"/>
	<g>
		<linearGradient id="SVGID_3_" gradientUnits="userSpaceOnUse" x1="592.8152" y1="422.7185" x2="259.6807" y2="89.584">
			<stop  offset="0" style="stop-color:#00B77E"/>
			<stop  offset="1" style="stop-color:#1CF9B5"/>
		</linearGradient>
		<path class="st2" d="M595.47,311.1c0,18.29-2.57,35.99-7.36,52.74l-27.56-32.94c0,0-8.72,18.45-15.76,24.82
			c-7.06,6.39-24.72-14.77-24.72-14.77l-4.09,29.74c-0.85,5.16,1.25,10.36,5.46,13.47c6.86,5.08,17.18,13.09,22.68,19.22
			c4.05,4.53-19.36,42.24-39.78,70.69c-11.07,6.84-22.88,12.56-35.3,17.04c-9.08-28.16-19.58-86.05-19.58-86.05
			s-44.98,5.71-54.71,4.03c-9.73-1.68-17.12-55.37-15.44-64.78c1.68-9.39,34.9-28.18,39.61-30.21c4.69-2,66.1,15.46,66.1,15.46
			l7.04-1.15c15.84-2.61,28.97-14.38,32.23-30.11c1.27-6.07,0.87-11.86-3.01-15.74c-12.08-12.08-34.9,13.76-48.21,21.06
			c-13.31,7.28-56.51-3.62-74.29-12c-17.78-8.4,41.29-36.26,61.08-34.58c19.81,1.68,29.22-12.75,35.59-30.21
			c6.37-17.46-30.55-2.35-54.38-2.69c-23.81-0.32,9.75-25.17,26.52-42.29c16.79-17.12,34.58-10.08,54.04,15.09
			c10.24,13.25,21.87,4.39,30.61-7C579.27,222.97,595.47,265.13,595.47,311.1z"/>
		<linearGradient id="SVGID_4_" gradientUnits="userSpaceOnUse" x1="604.457" y1="411.0746" x2="271.3245" y2="77.9422">
			<stop  offset="0" style="stop-color:#00B77E"/>
			<stop  offset="1" style="stop-color:#1CF9B5"/>
		</linearGradient>
		<path class="st3" d="M381.78,173.03c2.97,3.94,6.6,8.36,9.73,11.07c6.7,5.83-26.18,18.13-34.01,36.92
			c-7.83,18.8-17.12,19.97-30.89-4.25c-13.76-24.22-8.27-34.68-6.03-56.16c0.63-6.15-0.75-13.21-3.03-20.15
			c25.05-12.75,53.29-20.13,83.19-20.64c0.26,6.7,0.49,13.21,0.61,18.41c0.28,11.59-9.27,18.88-16.75,22.78
			C380.14,163.34,378.77,169.03,381.78,173.03z"/>
		<linearGradient id="SVGID_5_" gradientUnits="userSpaceOnUse" x1="480.1024" y1="535.4319" x2="146.9671" y2="202.2966">
			<stop  offset="0" style="stop-color:#00B77E"/>
			<stop  offset="1" style="stop-color:#1CF9B5"/>
		</linearGradient>
		<path class="st4" d="M362.87,428.24c-7.83,4.49-8.92,12.89-8.48,19.1c0.34,4.73-2.75,9.06-7.28,10.52l-9.13,1.34
			c-4.79,0.69-8.68,4.17-9.93,8.82c-1.19,4.49-2.79,10.48-4.47,16.61c-65.41-30.37-110.75-96.67-110.75-173.53
			c0-23.37,4.19-45.76,11.88-66.46c12.89,7.73,27.07,15.78,27.07,15.78s6.72-41.96,18.13-39.27c11.41,2.69,79.21,43.3,49,49
			c-30.21,5.71-30.21,5.71-30.21,5.71s12.08,12.42,6.7,18.45c-5.36,6.05-35.22,26.18-34.9,27.86c0.34,1.68,9.41,18.8,2.02,18.47
			c-7.26-0.34-40.24-12.69-41.27-13.07c0.53,1.21,20.96,46.96,32.88,46.29c12.08-0.67,29.54-10.74,35.24-6.72
			c5.71,4.05,34.23,14.45,34.23,14.45l6.72,18.13c0,0,16.77-2.02,24.5,3.36C362.52,408.43,376.3,420.51,362.87,428.24z"/>
	</g>
	<g>
		<linearGradient id="SVGID_6_" gradientUnits="userSpaceOnUse" x1="574.7651" y1="239.1501" x2="373.4181" y2="440.497">
			<stop  offset="0" style="stop-color:#037C54"/>
			<stop  offset="0.0133" style="stop-color:#097F58"/>
			<stop  offset="0.1758" style="stop-color:#49A083"/>
			<stop  offset="0.3361" style="stop-color:#80BDA9"/>
			<stop  offset="0.4901" style="stop-color:#AED5C8"/>
			<stop  offset="0.6368" style="stop-color:#D1E7E0"/>
			<stop  offset="0.7741" style="stop-color:#EAF4F1"/>
			<stop  offset="0.8986" style="stop-color:#FAFCFB"/>
			<stop  offset="0.9989" style="stop-color:#FFFFFF"/>
		</linearGradient>
		<path class="st5" d="M595.47,311.1c0,18.29-2.57,35.99-7.36,52.74l-27.56-32.94c0,0-8.72,18.45-15.76,24.82
			c-7.06,6.39-24.72-14.77-24.72-14.77l-4.09,29.74c-0.85,5.16,1.25,10.36,5.46,13.47c6.86,5.08,17.18,13.09,22.68,19.22
			c4.05,4.53-19.36,42.24-39.78,70.69c-11.07,6.84-22.88,12.56-35.3,17.04c-9.08-28.16-19.58-86.05-19.58-86.05
			s-4.07,0.51-10.01,1.17c18.96-21.18,33.22-46.59,41.25-74.64c0.28-1.01,0.57-2.02,0.83-3.03c2.21,0.63,3.5,0.99,3.5,0.99
			l7.04-1.15c15.84-2.61,28.97-14.38,32.23-30.11c1.27-6.07,0.87-11.86-3.01-15.74c-8.36-8.36-21.83,1.42-33.77,10.66
			c0.36-4.73,0.55-9.53,0.55-14.36c0-11.13-0.95-22.01-2.77-32.61c4.27-5.28,7.49-12.08,10.16-19.4c3.28-8.98-4.9-9.35-16.85-7.63
			c-3.86-11.76-8.82-23-14.79-33.63c1.34-1.27,2.59-2.51,3.78-3.72c16.79-17.12,34.58-10.08,54.04,15.09
			c10.24,13.25,21.87,4.39,30.61-7C579.27,222.97,595.47,265.13,595.47,311.1z"/>
	</g>
	<linearGradient id="SVGID_7_" gradientUnits="userSpaceOnUse" x1="392.1196" y1="129.621" x2="265.0227" y2="382.9196">
		<stop  offset="0" style="stop-color:#FFFFFF"/>
		<stop  offset="1" style="stop-color:#FFFFFF;stop-opacity:0"/>
	</linearGradient>
	<path class="st6" d="M350.18,127.52c-11.35,3.33-22.27,7.67-32.63,12.94c-42.65,21.67-76.07,58.87-92.84,104.17
		c-7.69,20.7-11.88,43.09-11.88,66.46c0,41.82,13.44,80.49,36.22,111.97c2.02,0.07,4.05,0.13,6.09,0.13
		c19.42,0,38.05-3.4,55.32-9.63c10.59-3.81,20.67-8.69,30.1-14.52c34.24-21.08,60.1-54.48,71.42-93.99
		c4.09-14.28,6.28-29.38,6.28-44.97c0-39.19-13.82-75.14-36.86-103.28C372.32,145.73,361.82,135.88,350.18,127.52z"/>
</g>
</svg>
