<?xml version="1.0" encoding="utf-8"?>
<!-- Generator: Adobe Illustrator 24.1.2, SVG Export Plug-In . SVG Version: 6.00 Build 0)  -->
<svg version="1.1" id="Calque_1" xmlns="http://www.w3.org/2000/svg" xmlns:xlink="http://www.w3.org/1999/xlink" x="0px" y="0px"
	 viewBox="0 0 800 600" style="enable-background:new 0 0 800 600;" xml:space="preserve">
<style type="text/css">
	.st0{clip-path:url(#SVGID_2_);fill:url(#SVGID_3_);}
	.st1{clip-path:url(#SVGID_2_);fill:#00EDAB;}
	.st2{clip-path:url(#SVGID_2_);fill:#00EDB9;}
	.st3{clip-path:url(#SVGID_2_);fill:none;}
	.st4{clip-path:url(#SVGID_2_);}
	.st5{opacity:0.36;fill:#00A200;}
	.st6{opacity:0.36;fill:#00BC00;}
	.st7{fill:#00ED6B;}
	.st8{opacity:0.36;fill:#009900;}
	.st9{fill:#00C95B;}
	.st10{opacity:0.2;fill:#009900;}
	.st11{opacity:0.35;fill:#00ED6B;}
	.st12{opacity:0.36;fill:#00B3E4;}
	.st13{opacity:0.11;fill:#00B3E4;}
	.st14{fill:#5DED8E;}
	.st15{fill:#A1EDB4;}
</style>
<g>
	<defs>
		
			<ellipse id="SVGID_1_" transform="matrix(0.7887 -0.6148 0.6148 0.7887 -100.9759 309.3789)" cx="399.53" cy="301.57" rx="46" ry="46"/>
	</defs>
	<clipPath id="SVGID_2_">
		<use xlink:href="#SVGID_1_"  style="overflow:visible;"/>
	</clipPath>
	
		<radialGradient id="SVGID_3_" cx="450.6362" cy="195.7551" r="82.5585" gradientTransform="matrix(0.8974 -0.4411 0.4411 0.8974 -76.8155 278.0351)" gradientUnits="userSpaceOnUse">
		<stop  offset="0.0809" style="stop-color:#00F5B2"/>
		<stop  offset="0.8841" style="stop-color:#00B860"/>
	</radialGradient>
	<circle class="st0" cx="399.53" cy="301.57" r="46"/>
	<path class="st1" d="M408.21,267.06c1.05,2.85,3.14,5.17,5.19,7.4c3.9,4.26,7.82,8.53,12.35,12.1c1.69,1.33,3.53,2.59,5.64,3.04
		c2.11,0.44,4.55-0.1,5.84-1.82c1.62-2.17,0.93-5.26-0.16-7.74c-4.36-9.96-14.57-17.7-25.48-18.72
		C408.19,261,407.11,264.06,408.21,267.06z"/>
	<path class="st2" d="M434.86,275.19c0.78,1.35,1.37,3.2,0.32,4.36c-0.45,0.49-1.12,0.73-1.77,0.87c-2.72,0.56-5.55-0.39-7.95-1.8
		c-3.31-1.94-6.08-4.77-8.07-8.05c-0.82-1.35-1.53-2.92-1.17-4.46c0.96-4.17,7.4-0.7,9.62,0.47
		C429.57,268.55,432.75,271.55,434.86,275.19z"/>
	<path class="st3" d="M359.11,332.39c-0.55,2.61-2.04,5.05-1.86,7.72c0.18,2.67,1.94,5.43,4.58,5.82c2.57,0.38,4.95-1.56,6.34-3.76
		c0.96-1.52,1.63-3.22,2.45-4.81c-3.94-3.18-7.41-7.05-10.19-11.55C360.04,327.92,359.58,330.17,359.11,332.39z"/>
	<g class="st4">
		<path class="st5" d="M422.97,330.29c-1.18-0.22-1.97-1.13-2.37-2.24c-0.06,3.78,1.9,7.33,5.94,4.12c1.72-1.36,2.83-3.43,3.14-5.6
			c0.03-0.17,0.04-0.35,0.05-0.53c-1.05,1.68-2.61,3.04-4.43,3.83C424.57,330.21,423.76,330.44,422.97,330.29z"/>
		<path class="st6" d="M428.05,321.68c-1.78-1.2-4.33-0.33-5.78,1.26c-1.08,1.18-1.64,3.18-1.67,5.12c0.4,1.11,1.19,2.02,2.37,2.24
			c0.79,0.15,1.6-0.09,2.33-0.41c1.82-0.79,3.37-2.15,4.43-3.83C429.86,324.39,429.41,322.6,428.05,321.68z"/>
	</g>
	<g class="st4">
		<path class="st5" d="M381.99,292.84c-0.21-0.49-0.08-1.01,0.24-1.44c-1.42,0.93-2.24,2.54-0.04,3.24c0.94,0.3,1.98,0.19,2.87-0.23
			c0.07-0.03,0.14-0.07,0.21-0.11c-0.89,0.03-1.78-0.21-2.53-0.68C382.42,293.41,382.13,293.17,381.99,292.84z"/>
		<path class="st6" d="M386.46,292.56c0-0.96-0.96-1.69-1.91-1.83c-0.71-0.11-1.59,0.19-2.32,0.66c-0.31,0.43-0.45,0.95-0.24,1.44
			c0.14,0.33,0.43,0.57,0.74,0.76c0.75,0.48,1.65,0.71,2.53,0.68C385.91,293.92,386.46,293.3,386.46,292.56z"/>
	</g>
	<g class="st4">
		<path class="st5" d="M438.79,308.03c-0.74-0.12-1.25-0.68-1.51-1.37c0.01,2.37,1.28,4.57,3.77,2.51c1.06-0.88,1.73-2.18,1.9-3.55
			c0.01-0.11,0.02-0.22,0.03-0.33c-0.64,1.06-1.6,1.94-2.73,2.46C439.79,307.96,439.29,308.11,438.79,308.03z"/>
		<path class="st6" d="M441.87,302.57c-1.13-0.73-2.72-0.15-3.61,0.86c-0.66,0.75-0.99,2.01-0.98,3.23
			c0.26,0.69,0.77,1.25,1.51,1.37c0.5,0.08,1-0.07,1.46-0.28c1.13-0.52,2.09-1.39,2.73-2.46
			C443.04,304.25,442.73,303.13,441.87,302.57z"/>
	</g>
	<g class="st4">
		<path class="st5" d="M367.56,328.29c-0.51-0.27-0.74-0.8-0.76-1.36c-0.57,1.72-0.18,3.62,2.12,2.74c0.98-0.38,1.78-1.16,2.24-2.11
			c0.04-0.08,0.07-0.15,0.1-0.23c-0.72,0.62-1.63,1.01-2.57,1.12C368.3,328.48,367.9,328.47,367.56,328.29z"/>
		<path class="st6" d="M371.12,325.08c-0.64-0.8-1.93-0.77-2.82-0.26c-0.66,0.38-1.21,1.22-1.5,2.1c0.02,0.57,0.26,1.09,0.76,1.36
			c0.34,0.18,0.74,0.19,1.13,0.15c0.94-0.1,1.85-0.5,2.57-1.12C371.55,326.57,371.61,325.69,371.12,325.08z"/>
	</g>
	<g class="st4">
		<path class="st6" d="M384.61,266.55c-0.25-2,1.4-3.67,2.84-5.07c3.67-3.58,6.89-7.61,9.58-11.97c0.84-1.36,2.11-2.97,3.65-2.54
			c0.81,0.23,1.36,1.01,1.64,1.8c0.99,2.88-0.8,5.9-1.44,8.88c-0.82,3.84,0.31,7.78,0.64,11.69c0.13,1.57,0.11,3.24-0.65,4.62
			c-0.76,1.38-2.48,2.35-3.95,1.78c-0.95-0.36-1.6-1.25-2.14-2.12c-1.28-2.06-1.68-4.88-4.37-5.03
			C388.25,268.48,385.08,270.35,384.61,266.55z"/>
		<path class="st7" d="M390.43,262.16c-0.71,0.94-1.39,2.35-0.53,3.16c0.91,0.86,2.47-0.05,3.63,0.42c1.19,0.47,1.72,2.28,3,2.22
			c0.67-0.03,1.19-0.63,1.37-1.28c0.18-0.64,0.11-1.33,0.07-1.99c-0.12-1.92,0.08-3.87,0.59-5.73c0.7-2.6,2.07-5.15,1.76-7.89
			C397.17,250.13,392.2,259.79,390.43,262.16z"/>
	</g>
	<g class="st4">
		<path class="st6" d="M412.41,267.63c-3.07,0.38-5.51,3.53-5.11,6.6c-1.38-0.43-2.81-0.68-4.24-0.77c-0.83-0.05-1.17,1.05-0.47,1.5
			l3.6,2.26c-2.42,0.51-4.79,1.24-7.09,2.17c-1.51,2.69,4.43-0.33,6.3,0.82c1.28,0.79,1.34,2.67,0.84,4.1
			c-0.49,1.43-1.38,2.75-1.47,4.26c-0.06,0.99,0.39,1.95,1.14,2.59c4.58,3.97,5.65-0.05,8.19-0.5c2.24-0.39,3.81,2.07,4.82,4.12
			c0.29,0.6,0.63,1.22,1.21,1.55c1.16,0.66,2.64-0.25,3.35-1.38c0.71-1.13,1.02-2.5,1.87-3.54c1.45-1.77,4.14-2.08,6.31-1.34
			c2.17,0.74,3.93,2.31,5.63,3.85c1.79,0.48-1.08-3.48-2.76-4.26c-1.67-0.78-3.61-1.1-4.99-2.32c-0.2-0.18-0.39-0.38-0.48-0.63
			c-0.33-1,1.01-1.63,2.02-1.94c1-0.31,2.11-1.54,1.29-2.19c-1.31,0.12-2.65,0.24-3.91-0.14c-1.26-0.38-2.41-1.39-2.57-2.69
			c-0.15-1.3,0.69-2.49,0.91-3.78c0.32-1.83-0.79-3.81-2.52-4.49c-2.38-0.94-3.7,0.95-5.69-0.11
			C416.21,270.08,416.16,267.16,412.41,267.63z"/>
		<path class="st7" d="M412.77,271.11c-1.15,0.2-0.61,2.29-0.32,3.42c0.11,0.43,0.28,0.91,0.06,1.3c-0.14,0.26-0.43,0.41-0.71,0.52
			c-1,0.37-2.11,0.32-3.16,0.5c-1.05,0.18-2.18,0.72-2.5,1.74c0.14,0.49,0.97,0.48,1.93,0.45c1.15-0.03,1.82,1.3,1.09,2.19
			c-1.11,1.36-2.06,2.84-2.85,4.41c-0.5,1.01-0.81,2.49,0.16,3.05c0.63,0.37,1.43,0.09,2.06-0.28c1.21-0.71,2.22-1.73,3.46-2.39
			c1.24-0.66,2.89-0.87,3.96,0.03c0.45,0.38,0.75,0.91,1.04,1.43c0.71,1.28,1.41,2.56,2.12,3.84c0.19,0.34,0.41,0.72,0.79,0.83
			c0.63,0.18,1.2-0.5,1.31-1.14c0.12-0.65,0-1.34,0.24-1.94c0.43-1.07,1.76-1.44,2.91-1.53c1.15-0.09,2.43-0.11,3.28-0.9
			c-0.28-1.2-2.55-0.5-3.1-1.6c-0.24-0.48,0.03-1.09,0.45-1.41c0.43-0.32,2.9-0.14,3.43-0.24c-0.32-0.98-3.65-1.18-4.58-1.64
			c-0.88-0.44-1.35-1.48-1.36-2.47c-0.01-0.99,0.36-1.94,0.77-2.83c0.42-0.92,0.89-2.03,0.34-2.88c-0.53-0.83-1.76-0.89-2.67-0.5
			c-0.9,0.39-1.63,1.11-2.48,1.6c-1.21,0.7-2.29,0.67-3.22-0.25C415.15,274.35,413.93,270.91,412.77,271.11z"/>
	</g>
	<g class="st4">
		<path class="st8" d="M366.27,284.62c0.76-0.71,2.22-1.18,2.63-0.22c0.13,0.31,0.08,0.66,0.02,0.99c-0.27,1.61-0.55,3.23-0.82,4.84
			c0.5,0.85,1.79,0.71,2.66,0.26c0.88-0.45,1.75-1.12,2.72-1.01c0.37,0.04,0.77,0.26,0.84,0.63c0.03,0.18-0.02,0.36-0.09,0.52
			c-0.37,0.85-1.24,1.34-1.94,1.93c-0.71,0.59-1.32,1.56-0.94,2.4c0.57,1.24,2.4,0.81,3.75,1.03c1.92,0.31,3.1,2.17,4.56,3.46
			c1.88,1.67,4.52,2.45,7.01,2.08c0.56-0.08,1.12-0.22,1.68-0.12c0.56,0.1,1.1,0.53,1.12,1.09c0.01,0.42-0.28,0.8-0.56,1.09
			c-0.83,0.85-1.95,1.4-3.13,1.5c-3.11,0.26-5.62-1.34-8.12-2.79c-0.91-0.53-1.87-1.05-2.92-1.17s-2.23,0.28-2.73,1.21
			c-0.47,0.86-0.26,1.79,0.25,2.66c0.59,1.01,0.54,2.24,0,3.28c-0.24,0.46-0.38,0.98-0.42,1.48c-0.09,1.24,0.31,2.45,0.56,3.66
			c0.5,2.42,0.47,4.92,0.43,7.39c-0.01,0.87-0.05,1.8-0.95,2.36c-0.61,0.38-1.39,0.4-2.06,0.15c-1.19-0.45-1.92-1.56-2.49-2.66
			c-1.11-2.16-1.79-4.53-2.01-6.94c-0.07-0.76-0.14-1.61-0.72-2.1c-0.36-0.3-0.83-0.39-1.29-0.47c-1.42-0.25-3.27-0.3-3.88,1.01
			c-0.13,0.27-0.18,0.58-0.36,0.82c-0.48,0.64-1.58,0.37-2-0.3c-0.41-0.68-0.32-1.54-0.14-2.32c0.18-0.77,0.44-1.56,0.32-2.35
			c-0.14-0.86-0.72-1.58-1.08-2.37c-0.88-1.95-0.25-4.47,1.44-5.78c0.71-0.55,1.55-0.89,2.27-1.42c0.72-0.53,1.33-1.36,1.22-2.25
			c-0.11-0.96-0.98-1.61-1.6-2.35c-1.08-1.29-1.48-3.13-1.03-4.75c0.67-2.41,2.04-1.89,3.81-1.71
			C364.41,287.59,364.81,285.99,366.27,284.62z"/>
		<path class="st9" d="M362.01,294c0.79,1.12,1.76,2.34,1.51,3.69c-0.21,1.14-1.22,1.94-2.25,2.46c-1.03,0.52-2.16,0.89-3.02,1.66
			c-0.85,0.77-1.33,2.15-0.66,3.09c0.31,0.44,0.83,0.72,1.07,1.19c0.34,0.68,0.03,1.48-0.07,2.23c-0.1,0.75,0.26,1.75,1.02,1.7
			c0.53-2.22,3.67-3.27,5.43-1.81c1.13,0.94,1.52,2.47,1.84,3.9c0.32,1.42,0.64,2.83,0.97,4.25c0.1,0.43,0.27,0.94,0.71,1.03
			c0.53,0.11,0.91-0.51,1.04-1.04c0.78-3.15-0.88-6.53-0.06-9.67c0.18-0.68,0.47-1.36,0.39-2.06c-0.15-1.29-1.5-2.73-0.56-3.64
			c0.28-0.27,0.67-0.36,1.05-0.44c1.09-0.23,2.18-0.46,3.28-0.68c0.49-0.7-0.41-1.59-1.25-1.71c-0.84-0.12-1.77,0.08-2.48-0.39
			c-0.66-0.43-0.9-1.33-0.77-2.11c0.13-0.78,0.56-1.48,0.98-2.15c-0.62-0.88-2.09,0.32-3.06-0.14c-0.63-0.3-0.74-1.16-0.57-1.84
			c0.17-0.68,0.53-1.32,0.53-2.01c0-0.7-0.6-1.47-1.27-1.28c-0.24,0.07-0.43,0.25-0.59,0.44c-1.23,1.52-1.26,1.94-3,2.68
			C360.79,292,360.77,292.25,362.01,294z"/>
	</g>
	<g class="st4">
		<path class="st8" d="M385.15,321c0.15-0.46,0.42-0.95,0.89-1.09c0.82-0.24,1.45,0.72,1.78,1.51l2.57,6.28
			c0.34,0.84,1.01,1.56,1.88,1.82c1.81,0.53,2.95-1.22,3.98-2.55c0.93-1.19,2.79-2.21,3.82-1.1c0.72,0.77,0.43,2.04-0.11,2.95
			c-0.72,1.22-1.83,2.32-1.27,3.95c0.4,1.17,1.5,1.96,2.72,2.19c2.61,0.51,4.92-0.9,7.42-1.26c1.48-0.21,3.5,0.47,3.36,1.97
			c-2.85,2.36-5.94,4.81-9.62,5.2c-1.21,0.13-2.44,0.02-3.64,0.26c-2.3,0.46-4.73,2.14-6.74,0.95c-1.94-1.16-2.13-4.43-4.31-5.03
			c-0.86-0.24-1.77,0.05-2.64,0.26c-2.53,0.61-5.35,0.47-7.53-0.95c-0.89-0.58-1.67-1.4-2-2.41c-0.33-1.01-0.13-2.23,0.65-2.95
			c1.46-1.35,3.79-0.37,5.77-0.52c0.57-0.04,1.2-0.23,1.48-0.73c0.22-0.39,0.17-0.86,0.12-1.3c-0.1-0.85-1.34-2.81-2.22-4.46
			c-0.45-0.85,0.23-1.83,1.19-1.76C383.96,322.33,384.83,321.98,385.15,321z"/>
		<path class="st9" d="M378.37,333.25c-0.25,0.63-0.02,1.44,0.57,1.77c0.3,0.17,0.66,0.21,1,0.23c1.86,0.11,3.72-0.26,5.59-0.29
			c1.87-0.03,3.87,0.34,5.18,1.66c0.7,0.7,1.14,1.61,1.73,2.4c0.59,0.79,1.42,1.52,2.4,1.56c1.3,0.06,2.33-1.05,3.54-1.52
			c1.28-0.49,2.7-0.25,4.07-0.29c1.8-0.04,3.59-0.57,5.12-1.52c0.23-0.14,0.49-0.43,0.32-0.65c-0.06-0.08-0.17-0.12-0.27-0.14
			c-0.82-0.19-1.66,0.1-2.47,0.31c-1.02,0.25-2.08,0.36-3.14,0.33c-1.42-0.05-2.91-0.4-3.92-1.39c-1.07-1.04-1.43-2.74-0.89-4.14
			c0.26-0.67,0.68-1.52,0.16-2.01c-0.55-0.52-1.43,0.04-1.95,0.59c-0.53,0.55-1.07,1.1-1.6,1.65c-0.38,0.39-0.82,0.81-1.37,0.82
			c-0.9,0.01-1.38-1.03-1.67-1.88c-0.55-1.6-1.23-3.16-2.04-4.65c-0.13-0.23-0.35-0.5-0.59-0.41c-0.1,0.04-0.17,0.12-0.23,0.21
			c-0.32,0.42-0.64,0.85-0.96,1.27c-0.21,0.28-0.5,0.59-0.84,0.52c-0.18-0.03-0.32-0.17-0.43-0.3c-0.7-0.83-0.92-2.07-1.85-2.62
			c-0.08-0.05-0.17-0.09-0.25-0.08c-0.3,0.03-0.29,0.46-0.19,0.74c0.41,1.15,0.91,2.26,1.51,3.32c0.4,0.71,0.85,1.56,0.49,2.29
			c-0.45,0.92-1.76,0.87-2.75,0.63C381.07,331.29,379.05,331.52,378.37,333.25z"/>
	</g>
	<g class="st4">
		<path class="st10" d="M402.48,306.06c-0.95,0.41-1.81,1.48-1.37,2.42c0.49,1.06,2.16,1.05,2.76,2.06
			c0.56,0.94-0.15,2.09-0.66,3.05c-0.67,1.25-1.04,2.65-1.08,4.07c-0.03,1.14,0.33,2.5,1.42,2.83c1.06,0.32,2.08-0.55,2.85-1.35
			c1.04-1.07,2.07-2.14,3.1-3.22c1.34-1.39,3.07-2.9,4.95-2.44c0.68,0.17,1.26,0.58,1.88,0.89c1.59,0.8,3.62,0.92,5.1-0.08
			c1.47-1,2.08-3.25,0.99-4.67c-0.85-1.11-2.52-1.58-2.94-2.92c-0.69-2.23,2.79-3.94,2.56-6.26c-0.1-1.02-0.97-1.86-1.96-2.14
			c-0.99-0.28-2.06-0.07-3,0.34c-1.9,0.84-3.36,2.5-4.27,4.37c-0.45,0.93-0.93,2.05-1.94,2.25c-1.03,0.21-1.92-0.67-2.67-1.4
			c-0.86-0.84-1.81-1.58-2.83-2.21c-0.52-0.32-1.2-0.61-1.71-0.27c-0.69,0.46-0.35,1.57,0.26,2.12
			C406.11,305.47,404.59,305.16,402.48,306.06z"/>
		<path class="st11" d="M406.53,304.22c-0.52,0.07-0.68,0.74-0.63,1.26c0.06,0.52,0.19,1.11-0.14,1.51
			c-0.32,0.38-0.88,0.39-1.37,0.49c-0.48,0.11-1.02,0.54-0.83,1c0.2,0.49,0.9,0.38,1.42,0.47c0.95,0.17,1.48,1.29,1.38,2.25
			c-0.1,0.96-0.66,1.81-1.14,2.65c-0.48,0.84-0.92,1.78-0.78,2.74c0.06,0.36,0.22,0.74,0.55,0.9c0.7,0.34,1.37-0.48,1.77-1.14
			c0.94-1.58,2.21-3.03,3.89-3.79c1.25-0.56,2.68-0.71,4.01-0.41c1.63,0.36,3.34,1.36,4.85,0.65c0.52-0.25,0.98-0.81,0.81-1.37
			c-0.09-0.31-0.36-0.53-0.61-0.72c-0.94-0.7-2.04-1.35-2.45-2.45c-0.38-1.02-0.04-2.17,0.44-3.15c0.48-0.98,1.11-1.9,1.35-2.97
			c0.11-0.47,0.06-1.1-0.4-1.27c-0.22-0.08-0.48-0.02-0.7,0.06c-2,0.74-3.09,2.84-4.52,4.43c-0.45,0.5-0.97,0.97-1.62,1.16
			c-0.92,0.28-2.22-0.05-3.02-0.57C408.11,305.51,407.44,304.1,406.53,304.22z"/>
	</g>
	<g class="st4">
		<path class="st12" d="M379.26,288.13c-0.33,12.59,3.15,25.73,11.79,34.9c8.64,9.17,22.98,13.4,34.45,8.18
			c2.34-1.07,5.63-2.24,7.01-0.08c1.17,1.83-0.47,4.16-2.19,5.49c-4.68,3.61-10.65,5.22-16.55,5.59c-5.9,0.36-11.8-0.45-17.66-1.26
			c-5.66-0.78-11.39-1.58-16.71-3.67c-12.45-4.89-21.63-17.09-23.17-30.38c-1.17-10.14,2.05-20.59,8.32-28.58
			c2.34-2.99,6.66-9.34,10.96-6.77C380.56,274.54,379.39,283.37,379.26,288.13z"/>
		<path class="st13" d="M404.33,296.99c6.26,4.93,14.79,5.38,22.67,6.62c4.24,0.67,8.76,1.82,11.45,5.16c2.41,3,2.8,7.2,2.13,10.99
			c-1.38,7.79-6.85,14.5-13.7,18.45c-6.85,3.95-14.96,5.34-22.86,5.08c-7.71-0.25-15.44-2.03-22.17-5.79
			c-6.73-3.76-12.41-9.58-15.42-16.68c-1.58-3.74-2.41-7.76-2.93-11.79c-1.57-12.12-0.28-26.61,7.85-36.37
			c9.55-11.47,18-1.23,22.68,8.53C396.75,286.86,399.25,292.99,404.33,296.99z"/>
		<path class="st13" d="M366.77,275.61c2.3-1.69,5.54-1.71,8.15-0.55c2.61,1.16,4.66,3.29,6.39,5.56c2.29,3.02,4.13,6.36,5.98,9.67
			c5.7,10.18,12.25,20.73,22.71,25.88c4.26,2.1,8.93,3.17,13.57,4.18c1.89,0.41,3.93,0.92,5.12,2.44c0.7,0.9,1,2.06,1.09,3.2
			c0.16,2.18-0.45,4.41-1.7,6.21c-2.1,3.03-5.73,4.61-9.32,5.45c-9.35,2.18-21.31,2.08-29.97-2.08c-8.33-4-14.67-9.83-19.33-20
			c-2.95-6.43-5.43-12.32-6.33-19.33C362.28,289.75,362.28,278.92,366.77,275.61z"/>
	</g>
	<g class="st4">
		<path class="st14" d="M406.63,264.54c0.91,0.13,1.91,0.02,2.59-0.59c0.01-0.01,0.03-0.02,0.04-0.04c0.67-0.64,0.74-1.93-0.05-2.43
			C406.82,259.99,402.21,263.91,406.63,264.54z"/>
		<path class="st14" d="M433.06,292.07c-0.01,0.48,0.1,1,0.46,1.31c0.01,0.01,0.01,0.01,0.02,0.02c0.37,0.31,1.05,0.27,1.26-0.16
			C435.44,291.91,433.13,289.73,433.06,292.07z"/>
		<path class="st14" d="M432.03,275.25c-0.01,0.48,0.1,1,0.46,1.31c0.01,0.01,0.01,0.01,0.02,0.02c0.37,0.31,1.05,0.27,1.26-0.16
			C434.41,275.09,432.1,272.92,432.03,275.25z"/>
		<path class="st14" d="M440.52,295.9c-0.02,0.58,0.12,1.21,0.55,1.6c0.01,0.01,0.02,0.01,0.03,0.02c0.45,0.38,1.27,0.33,1.53-0.2
			C443.41,295.7,440.6,293.06,440.52,295.9z"/>
		<path class="st14" d="M432.82,302.09c1.07,0.3,2.3,0.34,3.21-0.29c0.02-0.01,0.03-0.02,0.05-0.04c0.92-0.66,1.21-2.2,0.34-2.92
			C433.78,296.65,427.6,300.62,432.82,302.09z"/>
		<path class="st15" d="M418.42,278.69c0.4,0.11,0.85,0.13,1.19-0.11c0.01,0,0.01-0.01,0.02-0.01c0.34-0.25,0.45-0.82,0.13-1.08
			C418.78,276.67,416.48,278.15,418.42,278.69z"/>
		<path class="st15" d="M413.92,275.36c0.4,0.11,0.85,0.13,1.19-0.11c0.01,0,0.01-0.01,0.02-0.01c0.34-0.25,0.45-0.82,0.13-1.08
			C414.28,273.34,411.98,274.81,413.92,275.36z"/>
		<path class="st15" d="M423.45,281.69c0.18,0.53,0.53,1.04,1.05,1.23c0.01,0,0.02,0.01,0.03,0.01c0.54,0.18,1.25-0.14,1.3-0.71
			C425.97,280.52,422.55,279.13,423.45,281.69z"/>
		<path class="st15" d="M395.78,265.25c0.4,0.11,0.85,0.13,1.19-0.11c0.01,0,0.01-0.01,0.02-0.01c0.34-0.25,0.45-0.82,0.13-1.08
			C396.14,263.24,393.85,264.71,395.78,265.25z"/>
		<path class="st14" d="M422.82,271.9c-0.48,0.4-0.9,0.96-0.9,1.58c0,0.01,0,0.02,0,0.04c0.01,0.64,0.63,1.27,1.25,1.1
			C425.03,274.1,425.18,269.95,422.82,271.9z"/>
		<path class="st14" d="M382.97,262.54c0.48,0,0.99-0.13,1.3-0.5c0.01-0.01,0.01-0.01,0.02-0.02c0.3-0.38,0.24-1.06-0.2-1.25
			C382.73,260.16,380.63,262.54,382.97,262.54z"/>
		<path class="st14" d="M396.61,259.59c0.48,0,0.99-0.13,1.3-0.5c0.01-0.01,0.01-0.01,0.02-0.02c0.3-0.38,0.24-1.06-0.2-1.25
			C396.37,257.21,394.27,259.59,396.61,259.59z"/>
	</g>
</g>
</svg>
