<svg id="Capa_1" enable-background="new 0 0 505.324 505.324" height="512" viewBox="0 0 505.324 505.324" width="512" xmlns="http://www.w3.org/2000/svg"><path d="m487.127 18.193c-33.869-33.869-107.613-19.897-197.552 37.307-61.702-9.287-126.885 9.762-174.293 57.17-17.551 17.55-31.577 37.852-41.69 60.341-1.699 3.777-.013 8.217 3.764 9.916.999.449 2.043.662 3.072.662 2.862 0 5.595-1.647 6.845-4.426 9.364-20.824 22.356-39.627 38.616-55.886 31.771-31.771 72.896-50.78 117.163-54.484-51.425 62.058-109.113 120.69-171.856 174.627.814-11.818 2.726-23.571 5.755-35.08 1.054-4.006-1.338-8.107-5.344-9.162s-8.108 1.339-9.162 5.344c-6.986 26.547-8.489 54.29-4.558 81.361-58.923 91.401-74.045 166.988-39.742 201.29 12.11 12.11 29.395 18.15 50.907 18.15 23.896 0 53.007-7.455 86.022-22.323 17.698-7.97 35.988-17.82 54.553-29.299 16.202 4.045 32.816 6.095 49.442 6.094 17.159 0 34.326-2.156 51.028-6.469 34.99-9.036 67.065-27.392 92.758-53.083 25.842-25.842 44.25-58.121 53.234-93.346 8.448-33.122 8.395-67.989-.076-101.07 10.472-17.244 19.52-34.23 26.939-50.705 28.254-62.738 29.737-111.367 4.175-136.929zm-224.123 49.966c18.936.386 37.41 3.548 54.953 9.299-12.318 15.928-25.158 31.821-38.283 47.353-2.674 3.164-2.276 7.896.888 10.569 1.408 1.19 3.127 1.771 4.837 1.771 2.132 0 4.249-.904 5.732-2.659 14.268-16.886 28.209-34.193 41.513-51.514 15.007 6.367 29.187 14.701 42.208 24.889-73.792 98.143-161.935 187.948-262.155 267.103-10.395-12.829-19.052-26.94-25.739-41.955 66.648-53.557 128.26-112.135 183.159-174.214 2.744-3.103 2.453-7.842-.649-10.586-3.106-2.746-7.843-2.454-10.587.65-53.341 60.316-113.099 117.297-177.694 169.528-1.638-4.708-3.113-9.477-4.372-14.316-3.467-13.327-5.436-26.977-5.936-40.673 70.758-59.758 135.365-125.414 192.125-195.245zm158.111 65.454c-5.593-7.361-11.696-14.379-18.26-20.943-8.875-8.875-18.378-16.749-28.36-23.637 26.97-12.806 46.949-16.04 54.481-8.507 5.494 5.494 4.256 16.876 2.249 25.458-1.863 7.972-5.295 17.311-10.11 27.629zm-305.833 266.63c6.901 6.902 14.298 13.296 22.076 19.119-7.149 3.495-13.869 6.359-20.075 8.543-18.091 6.365-31.163 6.763-36.805 1.12-9.074-9.074-1.369-34.361 10.399-58.307 7.165 10.535 15.316 20.437 24.405 29.525zm276.966-10.606c-23.606 23.606-53.027 40.513-85.12 48.951 54.413-40.701 99.475-86.196 134.52-135.786-.033.129-.06.259-.093.388-8.319 32.616-25.368 62.509-49.307 86.447zm54.829-122.265c-40.692 66.259-99.075 125.746-173.577 176.86-15.315 1.166-30.747.472-45.915-2.085 39.244-26.235 79.271-59.356 117.215-97.3 39.136-39.136 73.144-80.488 99.754-120.911 2.503 14.342 3.353 28.926 2.523 43.436zm-112.885 66.868c-60.592 60.592-126.391 108.565-185.277 135.083-55.827 25.141-99.626 27.782-120.164 7.244-17.36-17.36-15.153-47.383-10.245-69.513 6.442-29.047 21.457-63.32 43.645-99.802.051.2.094.402.146.602 4.369 16.794 10.908 32.904 19.356 47.965-21.834 40.736-25.922 69.674-11.783 83.812 5.558 5.558 13.293 8.339 23.129 8.339 8.281 0 18.05-1.971 29.261-5.916 21.242-7.474 47.77-22.17 76.715-42.501 3.39-2.38 4.208-7.059 1.827-10.448-2.381-3.39-7.059-4.207-10.448-1.827-13.436 9.437-26.263 17.577-38.194 24.278-9.351-6.464-18.174-13.821-26.273-21.92-1.112-1.112-2.195-2.25-3.277-3.388 100.735-79.642 189.39-169.959 263.695-268.653 2.013 1.848 3.999 3.736 5.944 5.681 7.825 7.825 14.962 16.33 21.263 25.328-1.566 2.876-3.209 5.799-4.948 8.776-24.689 42.282-64.456 91.737-111.976 139.256-26.614 26.614-53.722 50.71-80.571 71.619-3.268 2.545-3.854 7.257-1.31 10.525 1.479 1.899 3.689 2.893 5.923 2.893 1.61 0 3.233-.517 4.603-1.583 27.336-21.288 54.912-45.797 81.963-72.847 48.401-48.402 89.002-98.938 114.321-142.299 12.536-21.468 20.717-40.157 24.314-55.546 4.178-17.873 2.076-31.155-6.248-39.479-13.875-13.874-40.778-10.583-79.994 9.766-15.436-8.772-31.781-15.365-48.589-19.776 35.28-21.062 68.379-35.311 96.511-41.466 21.952-4.804 51.744-6.907 69.007 10.356 20.538 20.538 17.897 64.336-7.243 120.164-26.517 58.886-74.491 124.685-135.083 185.277z"/></svg>