<?xml version="1.0" encoding="utf-8"?>
<!-- Generator: Adobe Illustrator 24.1.2, SVG Export Plug-In . SVG Version: 6.00 Build 0)  -->
<svg version="1.1" id="Calque_1" xmlns="http://www.w3.org/2000/svg" xmlns:xlink="http://www.w3.org/1999/xlink" x="0px" y="0px"
	 viewBox="0 0 800 600" style="enable-background:new 0 0 800 600;" xml:space="preserve">
<style type="text/css">
	.st0{fill:url(#SVGID_1_);}
	.st1{fill:url(#SVGID_2_);}
	.st2{opacity:0.55;fill:url(#SVGID_3_);}
	.st3{opacity:0.19;fill:#0025D4;}
</style>
<g>
	<g>
		<linearGradient id="SVGID_1_" gradientUnits="userSpaceOnUse" x1="188.8092" y1="287.0609" x2="611.1908" y2="287.0609">
			<stop  offset="0" style="stop-color:#0BD3BB"/>
			<stop  offset="1" style="stop-color:#1670DB"/>
		</linearGradient>
		<path class="st0" d="M611.19,287.06c0,20.19-2.84,39.73-8.13,58.22c-14.65,51.16-48.13,94.4-92.46,121.69
			c-12.22,7.55-25.26,13.87-38.97,18.8c-22.35,8.06-46.47,12.46-71.62,12.46c-31.78,0-61.93-7.01-88.95-19.63
			c-72.2-33.52-122.25-106.71-122.25-191.55c0-25.79,4.62-50.52,13.11-73.36c18.51-50,55.41-91.07,102.49-114.99
			c27.65-14.07,58.82-22.22,91.83-22.78c1.25-0.04,2.5-0.04,3.77-0.04c65.88,0,124.73,30.17,163.45,77.47
			C593.3,189.78,611.19,236.32,611.19,287.06z"/>
		<linearGradient id="SVGID_2_" gradientUnits="userSpaceOnUse" x1="386.7214" y1="86.7411" x2="246.4259" y2="366.3438">
			<stop  offset="0" style="stop-color:#FFFFFF"/>
			<stop  offset="1" style="stop-color:#FFFFFF;stop-opacity:0"/>
		</linearGradient>
		<path class="st1" d="M340.42,84.42c-12.53,3.68-24.58,8.47-36.02,14.29c-47.08,23.92-83.97,64.99-102.49,114.99
			c-8.49,22.85-13.11,47.57-13.11,73.36c0,46.16,14.84,88.85,39.98,123.6c2.23,0.08,4.47,0.14,6.72,0.14
			c21.44,0,42.01-3.75,61.07-10.63c11.69-4.21,22.81-9.6,33.23-16.03c37.8-23.27,66.34-60.13,78.83-103.76
			c4.51-15.77,6.93-32.43,6.93-49.64c0-43.26-15.25-82.94-40.69-114C364.86,104.52,353.27,93.65,340.42,84.42z"/>
		<linearGradient id="SVGID_3_" gradientUnits="userSpaceOnUse" x1="429.8414" y1="444.039" x2="523.9477" y2="135.0434">
			<stop  offset="0" style="stop-color:#FFFFFF"/>
			<stop  offset="1" style="stop-color:#0025D4"/>
		</linearGradient>
		<path class="st2" d="M563.47,153.35c-38.73-47.3-97.57-77.47-163.45-77.47c-0.41,0-0.82,0.01-1.22,0.01
			c17.37,11.63,32.91,25.76,46.12,41.89c29.84,36.42,47.73,82.97,47.73,133.71c0,20.19-2.84,39.73-8.13,58.22
			c-14.65,51.16-48.13,94.4-92.46,121.69c-12.22,7.55-25.26,13.87-38.97,18.8c-21.98,7.93-45.67,12.29-70.35,12.43
			c8.99,6.01,18.45,11.37,28.34,15.97c27.02,12.62,57.17,19.63,88.95,19.63c25.15,0,49.27-4.4,71.62-12.46
			c13.71-4.94,26.75-11.26,38.97-18.8c44.33-27.29,77.81-70.53,92.46-121.69c5.29-18.49,8.13-38.03,8.13-58.22
			C611.19,236.32,593.3,189.78,563.47,153.35z"/>
	</g>
	<path class="st3" d="M572.31,165.03c-89.91,4.59-249.31,12.83-356.77,19.18c20.43-36.59,51.43-66.46,88.85-85.51
		c0.44-0.19,0.82-0.44,1.26-0.63c11.82,1.76,23.45,3.33,34.71,4.72c40.62,4.9,113.62,10,184.98,14.27
		c14.15,10.44,26.97,22.64,38.1,36.28C566.52,157.11,569.54,161.01,572.31,165.03z"/>
	<path class="st3" d="M610.79,274.75l-403.92,97.77c-10.88-24.4-17.17-51.25-17.92-79.48c67.15-9.56,164.68-22.82,211.71-26.09
		c39.8-2.77,129.34-14.96,205.48-25.97C608.59,251.93,610.16,263.24,610.79,274.75z"/>
	<path class="st3" d="M584.95,389.06c-8.05,14.52-17.73,28.04-28.86,40.24c-75.77,16.1-170.77,35.84-244.28,49.61
		c-0.25-0.06-0.5-0.19-0.75-0.31c-32.38-15.09-60.3-38.04-81.24-66.52c46.53-2.14,111.1-5.53,171.28-10.25
		C455.04,397.61,526.22,392.83,584.95,389.06z"/>
	<path class="st3" d="M609.97,309.58c-1.26,12.26-3.65,24.21-6.92,35.71c-1.26,4.34-2.64,8.61-4.15,12.76
		c-98.4,4.46-255.16,11.44-267.79,11.44C317.97,369.51,502.83,331.4,609.97,309.58z"/>
	<path class="st3" d="M545.96,205.71c0,3.21-242.14,39.42-355.63,56.21c1.63-14.15,4.72-27.85,9.05-41
		C324.32,214.26,545.96,202.76,545.96,205.71z"/>
</g>
</svg>
