<?xml version="1.0" encoding="utf-8"?>
<!-- Generator: Adobe Illustrator 24.1.2, SVG Export Plug-In . SVG Version: 6.00 Build 0)  -->
<svg version="1.1" id="Calque_1" xmlns="http://www.w3.org/2000/svg" xmlns:xlink="http://www.w3.org/1999/xlink" x="0px" y="0px"
	 viewBox="0 0 800 600" style="enable-background:new 0 0 800 600;" xml:space="preserve">
<style type="text/css">
	.st0{fill:url(#SVGID_1_);}
	.st1{opacity:0.25;fill:#E92700;}
	.st2{opacity:0.77;fill:url(#SVGID_2_);}
	.st3{fill:url(#SVGID_3_);}
</style>
<g>
	<linearGradient id="SVGID_1_" gradientUnits="userSpaceOnUse" x1="183.7638" y1="306.6046" x2="587.4092" y2="306.6046">
		<stop  offset="0" style="stop-color:#FF7006"/>
		<stop  offset="1" style="stop-color:#F1AE00"/>
	</linearGradient>
	<path class="st0" d="M587.41,306.61c0,19.29-2.71,37.97-7.77,55.64c-14,48.89-45.99,90.21-88.36,116.29
		c-11.67,7.21-24.14,13.25-37.24,17.97c-21.36,7.7-44.41,11.91-68.45,11.91c-30.37,0-59.18-6.7-85.01-18.76
		c-69-32.04-116.83-101.97-116.83-183.05c0-24.65,4.42-48.28,12.53-70.11c17.69-47.78,52.95-87.03,97.94-109.89
		c26.42-13.45,56.22-21.24,87.76-21.77c1.2-0.04,2.39-0.04,3.61-0.04c62.96,0,119.2,28.83,156.2,74.04
		C570.31,213.64,587.41,258.12,587.41,306.61z"/>
	<path class="st1" d="M289.16,245.96c40.38-66.87,5.49-91.3-25.4-100.23c-30.35,23.01-54,54.41-67.46,90.77
		c-8.11,21.83-12.53,45.46-12.53,70.11c0,80.33,46.96,149.7,114.92,182.13C348.28,419.15,235.6,334.67,289.16,245.96z"/>
	<path class="st1" d="M385.6,104.79c-1.22,0-2.41,0-3.61,0.04c-19.9,0.34-39.11,3.58-57.21,9.29c-2.17,31.79,8.59,69.89,71.74,72.19
		c109.36,3.98-3.98,83.51,115.32,141.17c39.8,19.24,44.84,54.63,40.63,92.59c11.93-17.5,21.2-36.96,27.17-57.82
		c5.06-17.67,7.77-36.35,7.77-55.64c0-48.49-17.1-92.97-45.61-127.78C504.79,133.63,448.56,104.79,385.6,104.79z"/>
	<path class="st1" d="M385.6,508.42c24.03,0,47.08-4.2,68.45-11.91c13.1-4.72,25.57-10.76,37.24-17.97
		c5.54-3.41,10.88-7.09,16.05-11c-8.54-89.86-71.7-143.57-121.41-213.62c-58.32-82.18-22.53-54.35-50.37,9.28
		c-27.84,63.63-1.33,49.05,29.16,121.95c16.2,38.74,5.83,85.71-7.45,121.23C366.53,507.67,375.97,508.42,385.6,508.42z"/>
	<linearGradient id="SVGID_2_" gradientUnits="userSpaceOnUse" x1="414.1039" y1="456.6201" x2="504.036" y2="161.3304">
		<stop  offset="0" style="stop-color:#FFFFFF"/>
		<stop  offset="1" style="stop-color:#E92700"/>
	</linearGradient>
	<path class="st2" d="M541.8,178.83c-37.01-45.2-93.24-74.04-156.2-74.04c-0.39,0-0.78,0.01-1.17,0.01
		c16.6,11.11,31.45,24.62,44.07,40.03c28.51,34.81,45.61,79.29,45.61,127.78c0,19.29-2.71,37.97-7.77,55.64
		c-14,48.89-45.99,90.21-88.36,116.29c-11.67,7.21-24.14,13.25-37.24,17.97c-21,7.57-43.64,11.74-67.23,11.88
		c8.59,5.74,17.63,10.87,27.08,15.26c25.82,12.06,54.64,18.76,85.01,18.76c24.03,0,47.08-4.2,68.45-11.91
		c13.1-4.72,25.57-10.76,37.24-17.97c42.36-26.08,74.36-67.4,88.36-116.29c5.06-17.67,7.77-36.35,7.77-55.64
		C587.41,258.12,570.31,213.64,541.8,178.83z"/>
	<linearGradient id="SVGID_3_" gradientUnits="userSpaceOnUse" x1="372.8965" y1="115.1707" x2="238.8241" y2="382.3712">
		<stop  offset="0" style="stop-color:#FFFFFF"/>
		<stop  offset="1" style="stop-color:#FFFFFF;stop-opacity:0"/>
	</linearGradient>
	<path class="st3" d="M328.65,112.95c-11.97,3.51-23.49,8.09-34.42,13.65c-44.99,22.86-80.25,62.11-97.94,109.89
		c-8.11,21.83-12.53,45.46-12.53,70.11c0,44.11,14.18,84.91,38.2,118.12c2.13,0.08,4.27,0.13,6.42,0.13
		c20.49,0,40.14-3.58,58.36-10.15c11.17-4.02,21.8-9.17,31.75-15.32c36.12-22.24,63.4-57.47,75.33-99.15
		c4.31-15.07,6.62-30.99,6.62-47.44c0-41.34-14.58-79.26-38.89-108.94C352.01,132.16,340.93,121.77,328.65,112.95z"/>
</g>
</svg>
