<?xml version="1.0" encoding="utf-8"?>
<!-- Generator: Adobe Illustrator 24.1.2, SVG Export Plug-In . SVG Version: 6.00 Build 0)  -->
<svg version="1.1" id="Calque_1" xmlns="http://www.w3.org/2000/svg" xmlns:xlink="http://www.w3.org/1999/xlink" x="0px" y="0px"
	 viewBox="0 0 800 600" style="enable-background:new 0 0 800 600;" xml:space="preserve">
<style type="text/css">
	.st0{fill:url(#SVGID_1_);}
	.st1{fill:url(#SVGID_2_);}
	.st2{fill:url(#SVGID_3_);}
	.st3{opacity:0.26;fill:#EF5000;}
	.st4{fill:url(#SVGID_4_);}
	.st5{fill:url(#SVGID_5_);}
	.st6{fill:url(#SVGID_6_);}
	.st7{fill:url(#SVGID_7_);}
	.st8{opacity:0.26;}
	.st9{fill:#EF5000;}
	.st10{fill:url(#SVGID_8_);}
</style>
<g>
	<linearGradient id="SVGID_1_" gradientUnits="userSpaceOnUse" x1="230.7308" y1="166.2204" x2="709.4796" y2="644.9692">
		<stop  offset="0" style="stop-color:#F2A330"/>
		<stop  offset="1" style="stop-color:#DD5E07"/>
	</linearGradient>
	<circle class="st0" cx="350.87" cy="286.36" r="260.51"/>
	<linearGradient id="SVGID_2_" gradientUnits="userSpaceOnUse" x1="230.7448" y1="166.2111" x2="709.3839" y2="644.8502">
		<stop  offset="0" style="stop-color:#F2A330"/>
		<stop  offset="1" style="stop-color:#DD5E07"/>
	</linearGradient>
	<path class="st1" d="M611.33,286.38c0,27.39-4.25,53.75-12.09,78.5c-12.56,39.96-34.48,75.66-63.19,104.57
		c-18.04,18.42-38.73,34.01-61.49,46.29c-36.74,19.93-78.97,31.17-123.65,31.17c-27.77,0-54.6-4.34-79.72-12.47
		c-6.8-2.17-13.41-4.63-19.93-7.37c-24.65-10.2-47.42-24.09-67.63-41.09c-44.59-37.31-76.42-89.17-88.23-148.4v-0.09
		c-3.31-16.53-5.01-33.63-5.01-51.1c0-6.05,0.19-12.09,0.66-18.04c5.29-77.74,44.68-146.04,103.25-190.15
		c26.83-20.21,57.62-35.33,91.15-44.02c6.9-1.79,13.89-3.21,20.97-4.44c14.45-2.55,29.28-3.87,44.49-3.87
		c139.99,0,254.19,110.52,260.15,249.09C611.24,278.73,611.33,282.51,611.33,286.38z"/>
	<g>
		<linearGradient id="SVGID_3_" gradientUnits="userSpaceOnUse" x1="436.0473" y1="350.5005" x2="269.9348" y2="269.0114">
			<stop  offset="0" style="stop-color:#F2A330"/>
			<stop  offset="1" style="stop-color:#DD5E07"/>
		</linearGradient>
		<circle class="st2" cx="394.75" cy="330.24" r="95.59"/>
		<path class="st3" d="M394.75,234.65c-1.4,0-2.76,0.15-4.14,0.21c33.92,14.68,57.67,48.42,57.67,87.74
			c0,51.4-40.6,93.2-91.46,95.38c11.63,5.04,24.44,7.86,37.92,7.86c52.79,0,95.59-42.8,95.59-95.59
			C490.35,277.45,447.55,234.65,394.75,234.65z"/>
	</g>
	<g>
		<linearGradient id="SVGID_4_" gradientUnits="userSpaceOnUse" x1="285.4727" y1="92.3252" x2="209.0896" y2="48.3324">
			<stop  offset="0" style="stop-color:#F2A330"/>
			<stop  offset="1" style="stop-color:#DD5E07"/>
		</linearGradient>
		<path class="st4" d="M325.78,76.39c0,36.37-29.47,65.84-65.84,65.84c-5.01,0-9.82-0.57-14.45-1.7c-1.89-0.38-3.68-0.85-5.48-1.42
			c-2.08-0.66-4.16-1.51-6.14-2.36c-22.86-9.82-38.92-32.31-39.58-58.57c26.83-20.21,57.62-35.33,91.15-44.02
			c6.9-1.79,13.89-3.21,20.97-4.44C318.41,41.63,325.78,58.16,325.78,76.39z"/>
		<path class="st3" d="M325.78,76.39c0,36.37-29.47,65.84-65.84,65.84c-5.01,0-9.82-0.57-14.45-1.7c-1.89-0.38-3.68-0.85-5.48-1.42
			c-2.08-0.66-4.16-1.51-6.14-2.36c35.05-1.51,63.01-30.23,63.01-65.65c0-13.7-4.16-26.35-11.43-36.94
			c6.9-1.79,13.89-3.21,20.97-4.44C318.41,41.63,325.78,58.16,325.78,76.39z"/>
	</g>
	<g>
		<linearGradient id="SVGID_5_" gradientUnits="userSpaceOnUse" x1="150.1694" y1="313.6393" x2="90.695" y2="271.9028">
			<stop  offset="0" style="stop-color:#F2A330"/>
			<stop  offset="1" style="stop-color:#DD5E07"/>
		</linearGradient>
		<path class="st5" d="M183.24,300.45c0,28.62-23.24,51.76-51.77,51.76c-14.07,0-26.83-5.57-36.08-14.64v-0.09
			c-3.31-16.53-5.01-33.63-5.01-51.1c0-6.05,0.19-12.09,0.66-18.04c9.45-11.9,24.09-19.55,40.43-19.55
			C160,248.78,183.24,271.93,183.24,300.45z"/>
		<path class="st3" d="M131.48,248.75c-0.76,0-1.49,0.08-2.24,0.11c18.35,7.94,31.2,26.2,31.2,47.46c0,27.81-21.96,50.42-49.48,51.6
			c6.29,2.72,13.22,4.25,20.52,4.25c28.56,0,51.71-23.15,51.71-51.71C183.2,271.91,160.04,248.75,131.48,248.75z"/>
	</g>
	<g>
		<linearGradient id="SVGID_6_" gradientUnits="userSpaceOnUse" x1="253.6322" y1="497.1981" x2="195.6799" y2="447.0771">
			<stop  offset="0" style="stop-color:#F2A330"/>
			<stop  offset="1" style="stop-color:#DD5E07"/>
		</linearGradient>
		<path class="st6" d="M285.35,498.92c0,13.79-5.38,26.26-14.17,35.52c-32.4-10.39-62.06-27.02-87.57-48.46
			c5.67-22.29,25.98-38.73,50.06-38.73C262.21,447.25,285.35,470.39,285.35,498.92z"/>
		<path class="st3" d="M285.35,498.92c0,13.79-5.38,26.26-14.17,35.52c-6.8-2.17-13.41-4.63-19.93-7.37
			c7.08-8.88,11.33-20.03,11.33-32.31c0-21.25-12.85-39.49-31.17-47.42c0.76-0.1,1.51-0.1,2.27-0.1
			C262.21,447.25,285.35,470.39,285.35,498.92z"/>
	</g>
	<g>
		<linearGradient id="SVGID_7_" gradientUnits="userSpaceOnUse" x1="607.2146" y1="322.2184" x2="567.3517" y2="291.2139">
			<stop  offset="0" style="stop-color:#F2A330"/>
			<stop  offset="1" style="stop-color:#DD5E07"/>
		</linearGradient>
		<path class="st7" d="M611.33,286.38c0,27.39-4.25,53.75-12.09,78.5c-16.06-7.65-27.11-24.09-27.11-43.07
			c0-23.33,16.81-42.7,38.92-46.85C611.24,278.73,611.33,282.51,611.33,286.38z"/>
	</g>
	<g class="st8">
		<path class="st9" d="M536.05,469.45c-18.04,18.42-38.73,34.01-61.49,46.29c-5.29-6.61-8.41-14.83-8.41-23.9
			c0-21.25,17.29-38.54,38.63-38.54C517.72,453.29,529.15,459.62,536.05,469.45z"/>
	</g>
	<g class="st8">
		<circle class="st9" cx="217.96" cy="379.04" r="27.64"/>
	</g>
	<g class="st8">
		<path class="st9" d="M204.86,191.77c0,11.81-9.57,21.37-21.37,21.37c-11.81,0-21.38-9.57-21.38-21.37s9.57-21.38,21.38-21.38
			C195.29,170.4,204.86,179.97,204.86,191.77z"/>
	</g>
	<g class="st8">
		<circle class="st9" cx="532.17" cy="219.2" r="28.18"/>
	</g>
	<g class="st8">
		<path class="st9" d="M365.21,169.62c0,7.77-6.3,14.07-14.07,14.07s-14.07-6.3-14.07-14.07c0-7.77,6.3-14.07,14.07-14.07
			S365.21,161.84,365.21,169.62z"/>
	</g>
	<g>
		<linearGradient id="SVGID_8_" gradientUnits="userSpaceOnUse" x1="455.2425" y1="110.4215" x2="410.3191" y2="83.2585">
			<stop  offset="0" style="stop-color:#F2A330"/>
			<stop  offset="1" style="stop-color:#DD5E07"/>
		</linearGradient>
		<path class="st10" d="M472.84,102.45c0,17-13.78,30.78-30.78,30.78c-17,0-30.78-13.78-30.78-30.78c0-17,13.78-30.78,30.78-30.78
			C459.06,71.67,472.84,85.45,472.84,102.45z"/>
		<path class="st3" d="M442.06,71.67c-0.45,0-0.89,0.05-1.33,0.07c10.92,4.73,18.57,15.59,18.57,28.25
			c0,16.55-13.07,30.01-29.45,30.71c3.74,1.62,7.87,2.53,12.21,2.53c17,0,30.78-13.78,30.78-30.78
			C472.84,85.45,459.06,71.67,442.06,71.67z"/>
	</g>
</g>
</svg>
