<?xml version="1.0" encoding="utf-8"?>
<!-- Generator: Adobe Illustrator 24.1.2, SVG Export Plug-In . SVG Version: 6.00 Build 0)  -->
<svg version="1.1" id="Calque_1" xmlns="http://www.w3.org/2000/svg" xmlns:xlink="http://www.w3.org/1999/xlink" x="0px" y="0px"
	 viewBox="0 0 800 600" style="enable-background:new 0 0 800 600;" xml:space="preserve">
<style type="text/css">
	.st0{clip-path:url(#SVGID_2_);fill:url(#SVGID_3_);}
	.st1{clip-path:url(#SVGID_2_);}
	.st2{fill:#2F98EA;}
	.st3{fill:#33A1F9;}
	.st4{opacity:0.36;clip-path:url(#SVGID_2_);fill:#5FA6FF;}
	.st5{clip-path:url(#SVGID_2_);fill:#62B4FF;}
	.st6{opacity:0.18;fill:#5FA6FF;}
	.st7{opacity:0.28;fill:#1111CD;}
	.st8{opacity:0.15;fill:#1111CD;}
	.st9{opacity:0.66;fill:#00D0E3;}
	.st10{fill:#009CAB;}
	.st11{fill:#00D0E3;}
	.st12{fill:#007ED9;}
</style>
<g>
	<defs>
		
			<ellipse id="SVGID_1_" transform="matrix(0.7071 -0.7071 0.7071 0.7071 -95.3515 370.3864)" cx="399.42" cy="300.29" rx="46" ry="46"/>
	</defs>
	<clipPath id="SVGID_2_">
		<use xlink:href="#SVGID_1_"  style="overflow:visible;"/>
	</clipPath>
	
		<radialGradient id="SVGID_3_" cx="399.4203" cy="300.2926" r="46.0033" fx="370.1657" fy="300.0298" gradientUnits="userSpaceOnUse">
		<stop  offset="0.3571" style="stop-color:#4397E0"/>
		<stop  offset="0.7329" style="stop-color:#007ED9"/>
	</radialGradient>
	<circle class="st0" cx="399.42" cy="300.29" r="46"/>
	<g class="st1">
		<g>
			
				<ellipse transform="matrix(0.2988 -0.9543 0.9543 0.2988 24.8354 581.7559)" class="st2" cx="408.28" cy="273.98" rx="15.55" ry="27"/>
		</g>
	</g>
	<g class="st1">
		
			<ellipse transform="matrix(0.2988 -0.9543 0.9543 0.2988 32.0994 587.1638)" class="st3" cx="415.59" cy="271.74" rx="11.55" ry="20.06"/>
	</g>
	<path class="st4" d="M412.92,335.54c-24.75,0-44.82-20.07-44.82-44.82c0-11.8,4.57-22.53,12.03-30.54
		c-14.38,7.46-24.21,22.48-24.21,39.79c0,24.75,20.07,44.82,44.82,44.82c12.95,0,24.61-5.5,32.79-14.28
		C427.36,333.72,420.35,335.54,412.92,335.54z"/>
	<path class="st5" d="M429.24,275.88c-2.13,3.69-9.05,3.68-15.46-0.02c-6.41-3.7-9.88-9.69-7.75-13.38
		c2.13-3.69,9.05-3.68,15.46,0.02C427.9,266.2,431.37,272.19,429.24,275.88z"/>
	<g class="st1">
		<path class="st6" d="M382.37,314.92c2.5,2.07,5.58,3.42,8.79,3.86c1,0.14,2.06,0.18,2.97-0.24c1.64-0.75,2.29-2.68,3.19-4.24
			c0.9-1.56,2.82-3.02,4.37-2.1c0.82,2.72,2.02,5.48,4.31,7.16c2.28,1.68,5.9,1.83,7.71-0.36c-0.8-0.45-0.49-1.94,0.42-2.04
			c3.76-2.68,8.59,1.53,13.18,1.95c1.69,0.16,3.37-0.22,5.02-0.6c4.79-1.09,9.59-2.19,14.38-3.28c1.82-3.06,3.23-6.37,4.17-9.8
			c0.7-2.56,1.12-5.33,0.21-7.81c-0.91-2.49-3.55-4.5-6.13-3.9c0.55,1.13,1.09,2.26,1.64,3.39c-1.66,2.59-4.67,3.91-7.51,5.1
			c-6.95,2.89-13.9,5.78-20.84,8.67c-2.76,1.15-7.22,1.36-7.45-1.62c-3.87-2.21-8.93-2.16-12.76,0.13c-1.45,0.87-2.76,2.04-4.38,2.5
			c-3.32,0.94-6.77-1.34-10.2-1.03c-3.27,0.3-5.96,2.87-9.21,3.29c-1.81,0.23-3.62-0.23-5.39-0.68c-4.91-1.27-10.04-3.15-15.05-3.7
			c2.94,2.73,7.72,5.29,11.37,7.17c3.91,2.01,5.42,2.11,9.44,0.5C376.8,316.37,379.76,313.18,382.37,314.92z"/>
		<path class="st6" d="M372.68,281.88c3.96-0.81,6.67-6.92,10.29-5.13l1.92,4.58c2.17,1.87,4.86-1.84,7.65-2.52
			c3.27-0.79,5.81,2.78,8.92,4.07c6.7,2.78,14.72-5.5,21.03-1.9c1.43,0.82,2.49,2.14,3.83,3.11c4.53,3.27,10.81,1.65,16.05-0.27
			c1.98-0.73,4.16-1.49,6.14-0.37c1.02,0.57,1.66,1.72,1.41,2.86c-0.3,1.39-1.81,0.66-2.96,0.99c-7.09,2-14.12,4.53-21.45,5.27
			c-4.53-4.79-11.78-6.76-18.14-5.07c-0.86,0.23-1.78,0.18-2.56-0.25c-2.6-1.44-5.99-1.18-8.95-0.42c-3.38,0.87-6.71,2.31-10.2,2.15
			c-2.9-0.13-5.63-1.36-8.49-1.83c-2.04-0.33-4.36-0.14-6.07,0.89c-1.21,0.73-2.75,0.7-3.89-0.14c-2.54-1.88-5.45-3.21-8.52-3.98
			c-2.96-0.74-8.4-0.95-4.37-5.36C359.71,272.63,367.26,282.99,372.68,281.88z"/>
		<path class="st7" d="M371.18,321.7c1.71-0.91,3.51-2.31,5.36-1.72c1.48,0.47,2.4,2.12,3.93,2.42c1.59,0.3,3.26-1,4.76-0.39
			c0.59,0.24,1.03,0.73,1.51,1.14c3,2.53,8.36,1.14,9.75-2.53c0.53-1.39,0.79-3.23,2.21-3.64c1.33-0.39,2.61,0.93,2.93,2.28
			c0.33,1.35,0.07,2.77,0.32,4.14c0.24,1.36,1.29,2.8,2.67,2.67c1.58-0.16,2.33-2.17,3.84-2.68c2.48-0.83,5.59,2.7,7.38,0.79
			c0.5-0.53,0.61-1.31,1-1.92c1.25-2,4.48-1.25,6.12,0.46c0.4,0.42,0.79,0.9,1.34,1.08c0.51,0.17,1.06,0.05,1.58-0.07
			c6.04-1.38,12.07-2.76,18.11-4.14c0.24,1.91-1.08,3.9-2.94,4.42c-1.75,0.49-3.59-0.22-5.41-0.27c-5.03-0.14-9.91,4.72-14.52,2.68
			c-0.48-0.21-0.94-0.5-1.46-0.6c-1.47-0.27-2.71,1-3.82,2.01c-1.1,1.01-2.9,1.84-3.98,0.81c-0.46-0.44-0.68-1.14-1.26-1.39
			c-0.67-0.29-1.4,0.18-2,0.6c-1.43,1.01-3.02,1.88-4.76,2.07c-1.74,0.18-3.65-0.46-4.59-1.93c-0.32-0.51-0.53-1.1-0.95-1.53
			c-1.5-1.53-4.05,0.05-5.41,1.71c-1.36,1.66-3.31,3.67-5.26,2.78c-1.49-0.68-2.36-2.92-3.96-2.57c-0.45,0.1-0.82,0.4-1.25,0.55
			c-2.54,0.9-3.99-3.35-6.61-3.95c-2.25-0.51-4.01,1.78-5.69,3.37c-2.99,2.82-7.26,3.85-11.36,4.14c-0.37,0.03-0.76,0.04-1.09-0.13
			c-0.4-0.21-0.62-0.64-0.81-1.05c-1.42-2.99-6.04-9.79-0.03-9.78C361.93,321.52,366.12,324.4,371.18,321.7z"/>
		<path class="st7" d="M369.5,316.32c4.37,0.34,8.3-2.41,12.03-4.7c1.37-0.84,3.21-1.61,4.45-0.59c1.05,0.85,0.99,2.49,1.78,3.58
			c1.17,1.62,3.72,1.44,5.43,0.42c1.71-1.02,3-2.65,4.7-3.7c1.7-1.04,4.23-1.28,5.46,0.29c0.61,0.78,0.74,1.83,1.21,2.7
			c1.25,2.33,5.07,2.6,6.63,0.47c0.59-0.8,1.1-1.17,2.09-1.33c0.68-0.11,1.69,0.51,2.33,0.75c1.2,0.45,2.99-0.09,4.25-0.33
			c6.75-1.3,18.98-6.01,25.42-8.42c3.71-1.39,1.12-1.41,2.77-5.01c-8.95,3.64-17.41,6.38-26.36,10.01c-3.46,1.41-9,2.17-11,0.85
			c-1.08-0.71-1.39-2.18-2.16-3.22c-2.06-2.77-6.34-3.56-9.25-1.72c-2.64,1.66-4.6,5.22-7.69,4.81c-0.76-0.1-1.45-0.45-2.16-0.74
			c-3.56-1.45-7.7-1.41-11.23,0.13c-1.67,0.73-3.21,1.78-4.95,2.32c-4.02,1.25-8.32-0.38-12.22-1.98c-3.44-1.42-6.99-3.28-10.58-4.2
			C354.46,310.28,364.17,316.32,369.5,316.32z"/>
		<path class="st8" d="M368.37,297.52c3.08-2.32,6.05-5.24,9.88-5.74c1.7-0.22,3.67,0.21,4.58,1.67c0.37,0.59,0.53,1.28,0.7,1.95
			c0.58,2.31,1.93,5.01,4.31,5c1.47,0,2.68-1.08,3.82-2.02c2.54-2.08,5.46-3.7,8.58-4.75c2.37-0.8,5.47-1.07,6.95,0.95
			c0.63,0.86,0.81,1.95,1.24,2.92c1.34,3.05,5.45,4.51,8.42,2.98c1.15-0.59,2.09-1.53,3.25-2.08c1.67-0.78,3.73-0.64,5.28,0.36
			c0.81,0.52,1.47,1.26,2.32,1.7c2.09,1.09,4.63,0.17,6.75-0.86c3.16-1.54,6.19-3.31,9.08-5.3c2.47-1.7,5.09-4.15,4.7-7.13
			c-0.07-0.56-0.27-1.11-0.65-1.52c-0.56-0.59-1.41-0.77-2.22-0.83c-6.48-0.49-12.76,4.78-19.01,3c-1.77-0.51-3.33-1.55-5.01-2.29
			c-3.07-1.36-6.58-1.71-9.86-0.99c-1.53,0.34-3.03,0.91-4.59,1.02c-4.68,0.34-8.99-3.37-13.65-2.85c-1.88,0.21-3.63,1.11-5.49,1.47
			c-1.86,0.37-4.11,0.01-5.08-1.62c-0.32-0.54-0.47-1.18-0.83-1.7c-1.19-1.69-3.86-1.18-5.59-0.05c-1.73,1.13-3.34,2.76-5.4,2.85
			c-1.94,0.08-3.65-1.25-4.94-2.71c-1.28-1.46-2.38-3.14-4.02-4.19c-2.96-1.88-7.12-1.06-9.67,1.35
			c-3.65,3.45-4.63,10.01-2.84,14.63c1.28,3.31,6.28,6.64,9.53,7.6C362.21,301.33,365.79,299.47,368.37,297.52z"/>
		<path class="st9" d="M360.61,307.36c3.48,1.41,7.57,1.76,10.91,0.04c2.55-1.31,4.43-3.67,7.01-4.92
			c3.79-1.83,8.78-0.68,11.38,2.63c0.33,0.42,0.65,0.89,1.16,1.06c0.81,0.27,1.62-0.36,2.26-0.94c2.29-2.07,4.85-3.99,7.85-4.72
			c3-0.73,6.52-0.02,8.42,2.41c0.78,1,1.27,2.24,2.23,3.07c2.21,1.9,5.56,0.72,8.32-0.24c2.91-1.01,5.94-1.66,9.01-1.94
			c3.39-0.31,6.59-2.15,9.72-3.5c1.6-0.69,6.14-3.58,7.75-4.25c1.61-0.67,0.77,2.9,2.25,3.83c-1.29,2.49,1.82,7.59,0.25,9.92
			c-1.47,2.19-4.41,2.5-7,3c-3.78,0.73-7.75,1.75-11.81,3.19c-3.75,1.33-4.87,1.19-8.69,2.31c-0.78,0.23-3.25,1.75-4.53,2.77
			c-0.44,0.35-0.95-0.64-1.5-0.79c-1.14-0.3-2.13,0.74-3.17,1.31c-1.8,0.98-4.1,0.52-5.81-0.6c-1.71-1.12-2.97-2.8-4.22-4.42
			c-0.41-0.53-0.85-1.08-1.46-1.36c-1.13-0.53-2.53,0.02-3.39,0.93c-0.86,0.91-1.34,2.1-1.89,3.22c-1.04,2.09-2.92,4.25-5.24,3.94
			c-1.92-0.26-3.17-2.1-4.79-3.16c-2.37-1.55-5.43-1.36-8.27-1.19c-9.6,0.57-19.25,0.27-28.8-0.89c-1.5-0.18-1.02-16.28,0.56-17.5
			C352.07,298.28,358.02,306.3,360.61,307.36z"/>
	</g>
	<g class="st1">
		<path class="st10" d="M371.47,304.7c0.2-0.08,0.36-0.24,0.56-0.33c0.26-0.12,0.57-0.11,0.81-0.28c0.38-0.27,0.34-0.86,0.14-1.28
			c-0.11-0.24-0.27-0.47-0.5-0.6c-0.19-0.11-0.4-0.15-0.62-0.17C369.67,301.85,370.25,305.15,371.47,304.7z"/>
		<path class="st10" d="M389.22,321.57c0.2-0.08,0.36-0.24,0.56-0.33c0.26-0.12,0.57-0.11,0.81-0.28c0.38-0.27,0.34-0.86,0.14-1.28
			c-0.11-0.24-0.27-0.47-0.5-0.6c-0.19-0.11-0.4-0.15-0.62-0.17C387.42,318.72,388,322.03,389.22,321.57z"/>
		<path class="st10" d="M371.05,296.11c0.2-0.08,0.36-0.24,0.56-0.33c0.26-0.12,0.57-0.11,0.81-0.28c0.38-0.27,0.34-0.86,0.14-1.28
			c-0.11-0.24-0.27-0.47-0.5-0.6c-0.19-0.11-0.4-0.15-0.62-0.16C369.26,293.26,369.83,296.57,371.05,296.11z"/>
		<path class="st9" d="M379.02,297.02c0.06-0.02,0.11-0.08,0.18-0.11c0.08-0.04,0.18-0.04,0.25-0.09c0.12-0.09,0.11-0.27,0.04-0.4
			c-0.04-0.08-0.09-0.15-0.16-0.19c-0.06-0.03-0.13-0.05-0.19-0.05C378.45,296.12,378.63,297.17,379.02,297.02z"/>
		<path class="st9" d="M376.15,308.45c0.08-0.03,0.14-0.09,0.22-0.13c0.1-0.05,0.22-0.04,0.32-0.11c0.15-0.11,0.13-0.33,0.05-0.5
			c-0.04-0.09-0.11-0.18-0.2-0.24c-0.07-0.04-0.16-0.06-0.24-0.06C375.44,307.33,375.67,308.62,376.15,308.45z"/>
		<path class="st9" d="M379.5,276.39c0.06-0.02,0.11-0.08,0.18-0.1c0.08-0.04,0.18-0.04,0.25-0.09c0.12-0.09,0.11-0.27,0.04-0.4
			c-0.04-0.08-0.09-0.15-0.16-0.19c-0.06-0.03-0.13-0.05-0.19-0.05C378.93,275.49,379.11,276.53,379.5,276.39z"/>
		<path class="st9" d="M388.27,302.4c0.06-0.02,0.11-0.08,0.18-0.11c0.08-0.04,0.18-0.04,0.25-0.09c0.12-0.09,0.11-0.27,0.04-0.4
			c-0.04-0.08-0.09-0.15-0.16-0.19c-0.06-0.03-0.13-0.05-0.19-0.05C387.7,301.5,387.88,302.54,388.27,302.4z"/>
		<path class="st9" d="M385.82,304.53c0.06-0.02,0.11-0.08,0.18-0.11c0.08-0.04,0.18-0.04,0.25-0.09c0.12-0.09,0.11-0.27,0.04-0.4
			c-0.04-0.08-0.09-0.15-0.16-0.19c-0.06-0.03-0.13-0.05-0.19-0.05C385.25,303.63,385.43,304.67,385.82,304.53z"/>
		<path class="st9" d="M382.5,308.01c0.06-0.02,0.11-0.08,0.18-0.1c0.08-0.04,0.18-0.04,0.25-0.09c0.12-0.09,0.11-0.27,0.04-0.4
			c-0.04-0.08-0.09-0.15-0.16-0.19c-0.06-0.03-0.13-0.05-0.19-0.05C381.93,307.11,382.11,308.16,382.5,308.01z"/>
		<path class="st9" d="M386.02,279.91c0.06-0.02,0.11-0.08,0.18-0.11c0.08-0.04,0.18-0.04,0.25-0.09c0.12-0.09,0.11-0.27,0.04-0.4
			c-0.04-0.08-0.09-0.15-0.16-0.19c-0.06-0.03-0.13-0.05-0.19-0.05C385.46,279.01,385.64,280.05,386.02,279.91z"/>
		<path class="st10" d="M392.49,302.55c-0.13,0.05-0.24,0.16-0.37,0.22c-0.17,0.08-0.38,0.07-0.54,0.18
			c-0.25,0.18-0.23,0.57-0.09,0.85c0.07,0.16,0.18,0.31,0.33,0.4c0.12,0.07,0.27,0.1,0.41,0.11
			C393.68,304.45,393.3,302.25,392.49,302.55z"/>
		<path class="st10" d="M386.75,308.05c0.13-0.07,0.21-0.19,0.33-0.27c0.16-0.1,0.37-0.13,0.5-0.26c0.22-0.21,0.14-0.6-0.03-0.85
			c-0.1-0.15-0.22-0.28-0.39-0.35c-0.13-0.05-0.28-0.06-0.42-0.05C385.29,306.35,385.99,308.47,386.75,308.05z"/>
		<path class="st11" d="M376.47,298.54c-0.18-0.22-0.43-0.38-0.69-0.51c-0.11-0.06-0.25-0.14-0.39-0.22
			c0.17,0.29,0.31,0.57,0.43,0.79c0.17,0.32,0.33,0.65,0.37,1.01c0.04,0.32-0.02,0.65-0.13,0.96c0.25,0.04,0.5,0.01,0.66-0.17
			c0.15-0.17,0.16-0.41,0.15-0.63C376.86,299.32,376.75,298.87,376.47,298.54z"/>
		<path class="st11" d="M376.19,299.6c-0.04-0.36-0.2-0.69-0.37-1.01c-0.12-0.22-0.26-0.5-0.43-0.79c-0.61-0.33-1.41-0.71-1.92-0.33
			c-0.63,0.46-0.62,1.7-0.39,2.34c0.13,0.36,0.41,0.73,0.79,0.73c0.32,0,0.59-0.25,0.91-0.3c0.34-0.05,0.66,0.12,0.98,0.24
			c0.09,0.03,0.19,0.06,0.3,0.07C376.17,300.25,376.23,299.93,376.19,299.6z"/>
		<path class="st11" d="M376.19,299.6c-0.04-0.36-0.2-0.69-0.37-1.01c-0.12-0.22-0.26-0.5-0.43-0.79c-0.61-0.33-1.41-0.71-1.92-0.33
			c-0.63,0.46-0.62,1.7-0.39,2.34c0.13,0.36,0.41,0.73,0.79,0.73c0.32,0,0.59-0.25,0.91-0.3c0.34-0.05,0.66,0.12,0.98,0.24
			c0.09,0.03,0.19,0.06,0.3,0.07C376.17,300.25,376.23,299.93,376.19,299.6z"/>
		<path class="st11" d="M381.75,300.5c-0.28,0.33-0.46,0.84-0.49,1.3c-0.04,0.45,0.05,0.85,0.2,1.15c0.18,0.37,0.48,0.63,0.85,0.55
			c0.37-0.08,0.8-0.55,0.94-1.13c0.14-0.58-0.06-1.06-0.31-1.33C382.68,300.78,382.17,300.01,381.75,300.5z"/>
		<path class="st11" d="M385.66,314.29c-0.15-0.4-0.5-0.81-0.88-1.07s-0.76-0.38-1.1-0.4c-0.42-0.03-0.78,0.11-0.9,0.46
			c-0.12,0.36,0.08,0.97,0.51,1.38c0.44,0.41,0.95,0.48,1.31,0.39C384.95,314.95,385.88,314.89,385.66,314.29z"/>
		<path class="st11" d="M374.92,279.65c0.12-0.31,0.07-0.7-0.07-1.01s-0.39-0.53-0.65-0.68c-0.32-0.18-0.69-0.24-1-0.06
			s-0.51,0.64-0.4,1.05c0.11,0.43,0.48,0.67,0.82,0.75C373.96,279.79,374.74,280.11,374.92,279.65z"/>
		<path class="st11" d="M379.2,291.25c-0.25,0.38-0.25,0.89-0.06,1.3c0.19,0.41,0.54,0.74,0.93,0.96c0.49,0.27,1.08,0.41,1.61,0.22
			c0.53-0.18,0.94-0.74,0.84-1.29c-0.1-0.56-0.66-0.92-1.21-1.08C380.79,291.21,379.57,290.68,379.2,291.25z"/>
		<path class="st11" d="M379.2,318.38c-0.25,0.38-0.25,0.89-0.06,1.3c0.19,0.41,0.54,0.74,0.93,0.96c0.49,0.27,1.08,0.41,1.61,0.22
			c0.53-0.18,0.94-0.74,0.84-1.29c-0.1-0.56-0.66-0.92-1.21-1.08C380.79,318.33,379.57,317.81,379.2,318.38z"/>
	</g>
	<g class="st1">
		<path class="st12" d="M404.49,296.49c0.22-0.08,0.42-0.26,0.65-0.22c0.19,0.03,0.36,0.21,0.55,0.15c0.14-0.04,0.21-0.19,0.25-0.33
			c0.18-0.72-0.19-1.53-0.85-1.87C402.48,292.89,402.78,297.13,404.49,296.49z"/>
		<path class="st12" d="M403.81,321.7c-0.13,0.19-0.2,0.45-0.41,0.56c-0.17,0.08-0.41,0.04-0.54,0.19
			c-0.09,0.11-0.06,0.28-0.01,0.41c0.26,0.69,1.04,1.14,1.77,1.04C407.52,323.5,404.85,320.2,403.81,321.7z"/>
		<path class="st12" d="M418.01,302.3c0.12,0.22,0.33,0.38,0.55,0.5c0.07,0.04,0.15,0.08,0.24,0.09c0.17,0,0.31-0.14,0.4-0.29
			c0.22-0.34,0.35-0.8,0.15-1.16c-0.08-0.15-0.22-0.27-0.37-0.37C418.23,300.61,417.67,301.67,418.01,302.3z"/>
		<path class="st12" d="M434.63,317.67c0.12,0.22,0.33,0.38,0.55,0.5c0.07,0.04,0.15,0.08,0.24,0.09c0.17,0,0.31-0.14,0.4-0.29
			c0.22-0.34,0.35-0.8,0.15-1.16c-0.08-0.15-0.22-0.27-0.37-0.37C434.85,315.98,434.29,317.05,434.63,317.67z"/>
		<path class="st12" d="M397.88,295.94c-0.23,0.11-0.4,0.31-0.53,0.53c-0.05,0.07-0.09,0.15-0.1,0.23
			c-0.01,0.17,0.13,0.32,0.27,0.42c0.33,0.24,0.78,0.39,1.15,0.21c0.16-0.08,0.29-0.2,0.38-0.35
			C399.56,296.25,398.53,295.63,397.88,295.94z"/>
		<path class="st12" d="M425.71,301.58c-0.25-0.04-0.5,0.03-0.74,0.13c-0.08,0.03-0.16,0.07-0.21,0.14
			c-0.11,0.13-0.08,0.33-0.02,0.5c0.14,0.39,0.42,0.76,0.82,0.83c0.17,0.03,0.35,0,0.51-0.07
			C426.91,302.79,426.42,301.69,425.71,301.58z"/>
		<path class="st12" d="M422.1,299.6c-0.11-0.02-0.23,0.02-0.34,0.06c-0.04,0.02-0.07,0.03-0.1,0.06c-0.05,0.06-0.03,0.15,0,0.23
			c0.07,0.17,0.2,0.34,0.38,0.37c0.08,0.01,0.16,0,0.23-0.03C422.65,300.14,422.42,299.65,422.1,299.6z"/>
		<path class="st12" d="M413.5,304.8c-0.11-0.02-0.23,0.02-0.34,0.06c-0.04,0.02-0.07,0.03-0.1,0.06c-0.05,0.06-0.03,0.15,0,0.23
			c0.07,0.17,0.2,0.34,0.38,0.37c0.08,0.01,0.16,0,0.23-0.03C414.05,305.34,413.82,304.84,413.5,304.8z"/>
		<path class="st12" d="M426.89,320.55c-0.18-0.03-0.36,0.03-0.53,0.1c-0.06,0.02-0.11,0.05-0.15,0.1c-0.08,0.1-0.05,0.24-0.01,0.35
			c0.1,0.27,0.31,0.54,0.6,0.58c0.12,0.02,0.25-0.01,0.37-0.05C427.76,321.4,427.39,320.62,426.89,320.55z"/>
	</g>
</g>
</svg>
