<?xml version="1.0" encoding="utf-8"?>
<!-- Generator: Adobe Illustrator 24.1.2, SVG Export Plug-In . SVG Version: 6.00 Build 0)  -->
<svg version="1.1" id="Calque_1" xmlns="http://www.w3.org/2000/svg" xmlns:xlink="http://www.w3.org/1999/xlink" x="0px" y="0px"
	 viewBox="0 0 800 600" style="enable-background:new 0 0 800 600;" xml:space="preserve">
<style type="text/css">
	.st0{fill:url(#SVGID_1_);}
	.st1{fill:url(#SVGID_2_);}
	.st2{fill:url(#SVGID_3_);}
	.st3{fill:url(#SVGID_4_);}
	.st4{fill:url(#SVGID_5_);}
	.st5{fill:url(#SVGID_6_);}
	.st6{fill:url(#SVGID_7_);}
	.st7{fill:url(#SVGID_8_);}
	.st8{fill:url(#SVGID_9_);}
	.st9{fill:url(#SVGID_10_);}
	.st10{fill:url(#SVGID_11_);}
	.st11{fill:url(#SVGID_12_);}
	.st12{fill:url(#SVGID_13_);}
	.st13{fill:url(#SVGID_14_);}
	.st14{fill:url(#SVGID_15_);}
	.st15{fill:url(#SVGID_16_);}
	.st16{fill:url(#SVGID_17_);}
	.st17{fill:url(#SVGID_18_);}
	.st18{fill:url(#SVGID_19_);}
	.st19{fill:url(#SVGID_20_);}
	.st20{fill:url(#SVGID_21_);}
	.st21{fill:url(#SVGID_22_);}
	.st22{fill:url(#SVGID_23_);}
	.st23{fill:url(#SVGID_24_);}
	.st24{fill:url(#SVGID_25_);}
	.st25{fill:url(#SVGID_26_);}
	.st26{fill:url(#SVGID_27_);}
	.st27{fill:url(#SVGID_28_);}
	.st28{fill:url(#SVGID_29_);}
	.st29{fill:url(#SVGID_30_);}
	.st30{fill:url(#SVGID_31_);}
	.st31{fill:url(#SVGID_32_);}
	.st32{fill:url(#SVGID_33_);}
	.st33{fill:#FF631A;}
	.st34{fill:#FF1B09;}
	.st35{fill:#FF3904;}
	.st36{opacity:0.19;fill:#FF5E10;}
	.st37{fill:none;}
	.st38{fill:#FF7E45;}
	.st39{fill:#FF4500;}
	.st40{opacity:0.34;fill:#FFFF00;}
	.st41{opacity:0.34;fill:#FFA700;}
	.st42{opacity:0.41;fill:#FF631A;}
</style>
<g>
	<g>
		<radialGradient id="SVGID_1_" cx="435.6648" cy="223.7984" r="20.1555" gradientUnits="userSpaceOnUse">
			<stop  offset="0.1736" style="stop-color:#FF920B"/>
			<stop  offset="0.6708" style="stop-color:#FFB000"/>
		</radialGradient>
		<path class="st0" d="M424.84,226.22c-0.36,0.89-0.24,1.96,0.29,2.76c0.28,0.42,0.67,0.77,1.09,1.06c0.48,0.32,1.02,0.58,1.59,0.62
			c1.14,0.08,2.16-0.67,3.05-1.39c0.32-0.26,0.66-0.53,0.82-0.91c0.13-0.3,0.13-0.65,0.09-0.98c-0.14-1.02-0.74-1.96-1.61-2.51
			C428.45,223.79,425.65,224.2,424.84,226.22z"/>
		
			<radialGradient id="SVGID_2_" cx="788.7201" cy="517.2962" r="24.3781" gradientTransform="matrix(0.7355 -0.6775 0.6775 0.7355 -575.518 507.2264)" gradientUnits="userSpaceOnUse">
			<stop  offset="0.1736" style="stop-color:#FF920B"/>
			<stop  offset="0.6708" style="stop-color:#FFB000"/>
		</radialGradient>
		<path class="st1" d="M347.41,364.36c0.42,1.09,1.39,1.94,2.52,2.22c0.6,0.15,1.23,0.14,1.84,0.04c0.69-0.1,1.38-0.32,1.92-0.75
			c1.08-0.86,1.37-2.37,1.57-3.74c0.07-0.49,0.15-1.01-0.02-1.48c-0.13-0.38-0.41-0.69-0.72-0.94c-0.95-0.79-2.27-1.14-3.49-0.91
			C348.63,359.25,346.47,361.91,347.41,364.36z"/>
		<radialGradient id="SVGID_3_" cx="437.91" cy="235.7244" r="21.563" gradientUnits="userSpaceOnUse">
			<stop  offset="0.1736" style="stop-color:#FF920B"/>
			<stop  offset="0.6708" style="stop-color:#FFB000"/>
		</radialGradient>
		<path class="st2" d="M426.33,238.32c-0.38,0.96-0.26,2.1,0.31,2.95c0.3,0.45,0.72,0.82,1.17,1.13c0.51,0.35,1.09,0.62,1.7,0.66
			c1.22,0.09,2.31-0.72,3.26-1.49c0.34-0.28,0.7-0.57,0.88-0.98c0.14-0.33,0.14-0.69,0.1-1.04c-0.15-1.09-0.8-2.1-1.73-2.68
			C430.19,235.72,427.19,236.16,426.33,238.32z"/>
		<radialGradient id="SVGID_4_" cx="428.41" cy="362.7244" r="21.563" gradientUnits="userSpaceOnUse">
			<stop  offset="0.1736" style="stop-color:#FF920B"/>
			<stop  offset="0.6708" style="stop-color:#FFB000"/>
		</radialGradient>
		<path class="st3" d="M416.83,365.32c-0.38,0.96-0.26,2.1,0.31,2.95c0.3,0.45,0.72,0.82,1.17,1.13c0.51,0.35,1.09,0.62,1.7,0.66
			c1.22,0.09,2.31-0.72,3.26-1.49c0.34-0.28,0.7-0.57,0.88-0.98c0.14-0.33,0.14-0.69,0.1-1.04c-0.15-1.09-0.8-2.1-1.73-2.68
			C420.69,362.72,417.69,363.16,416.83,365.32z"/>
		
			<radialGradient id="SVGID_5_" cx="-73.033" cy="574.4625" r="8.8804" gradientTransform="matrix(0.502 0.8649 -0.8649 0.502 982.5157 35.5836)" gradientUnits="userSpaceOnUse">
			<stop  offset="0.1736" style="stop-color:#FF920B"/>
			<stop  offset="0.6708" style="stop-color:#FFB000"/>
		</radialGradient>
		<path class="st4" d="M445.68,257.21c-0.42,0.06-0.8,0.34-0.99,0.72c-0.1,0.2-0.15,0.43-0.16,0.65c-0.02,0.25,0,0.51,0.12,0.74
			c0.22,0.45,0.73,0.67,1.21,0.85c0.17,0.07,0.35,0.13,0.53,0.11c0.14-0.02,0.28-0.09,0.39-0.18c0.36-0.28,0.58-0.72,0.6-1.17
			C447.41,258.05,446.63,257.07,445.68,257.21z"/>
		
			<radialGradient id="SVGID_6_" cx="-16.2856" cy="580.8119" r="8.8804" gradientTransform="matrix(0.502 0.8649 -0.8649 0.502 982.5157 35.5836)" gradientUnits="userSpaceOnUse">
			<stop  offset="0.1736" style="stop-color:#FF920B"/>
			<stop  offset="0.6708" style="stop-color:#FFB000"/>
		</radialGradient>
		<path class="st5" d="M468.68,309.48c-0.42,0.06-0.8,0.34-0.99,0.72c-0.1,0.2-0.15,0.43-0.16,0.65c-0.02,0.25,0,0.51,0.12,0.74
			c0.22,0.45,0.73,0.67,1.21,0.85c0.17,0.07,0.35,0.13,0.53,0.11c0.14-0.02,0.28-0.09,0.39-0.18c0.36-0.28,0.58-0.72,0.6-1.17
			C470.4,310.31,469.63,309.34,468.68,309.48z"/>
		
			<radialGradient id="SVGID_7_" cx="-28.5053" cy="577.3015" r="8.8804" gradientTransform="matrix(0.502 0.8649 -0.8649 0.502 982.5157 35.5836)" gradientUnits="userSpaceOnUse">
			<stop  offset="0.1736" style="stop-color:#FF920B"/>
			<stop  offset="0.6708" style="stop-color:#FFB000"/>
		</radialGradient>
		<path class="st6" d="M465.58,297.15c-0.42,0.06-0.8,0.34-0.99,0.72c-0.1,0.2-0.15,0.43-0.16,0.65c-0.02,0.25,0,0.51,0.12,0.74
			c0.22,0.45,0.73,0.67,1.21,0.85c0.17,0.07,0.35,0.13,0.53,0.11c0.14-0.02,0.28-0.09,0.39-0.18c0.36-0.28,0.58-0.72,0.6-1.17
			C467.3,297.98,466.53,297.01,465.58,297.15z"/>
		
			<radialGradient id="SVGID_8_" cx="-71.9851" cy="564.5759" r="8.8804" gradientTransform="matrix(0.502 0.8649 -0.8649 0.502 982.5157 35.5836)" gradientUnits="userSpaceOnUse">
			<stop  offset="0.1736" style="stop-color:#FF920B"/>
			<stop  offset="0.6708" style="stop-color:#FFB000"/>
		</radialGradient>
		<path class="st7" d="M454.76,253.15c-0.42,0.06-0.8,0.34-0.99,0.72c-0.1,0.2-0.15,0.43-0.16,0.65c-0.02,0.25,0,0.51,0.12,0.74
			c0.22,0.45,0.73,0.67,1.21,0.85c0.17,0.07,0.35,0.13,0.53,0.11c0.14-0.02,0.28-0.09,0.39-0.18c0.36-0.28,0.58-0.72,0.6-1.17
			C456.48,253.99,455.71,253.01,454.76,253.15z"/>
		
			<radialGradient id="SVGID_9_" cx="-7.1481" cy="598.7259" r="8.8804" gradientTransform="matrix(0.502 0.8649 -0.8649 0.502 982.5157 35.5836)" gradientUnits="userSpaceOnUse">
			<stop  offset="0.1736" style="stop-color:#FF920B"/>
			<stop  offset="0.6708" style="stop-color:#FFB000"/>
		</radialGradient>
		<path class="st8" d="M457.77,326.37c-0.42,0.06-0.8,0.34-0.99,0.72c-0.1,0.2-0.15,0.43-0.16,0.65c-0.02,0.25,0,0.51,0.12,0.74
			c0.22,0.45,0.73,0.67,1.21,0.85c0.17,0.07,0.35,0.13,0.53,0.11c0.14-0.02,0.28-0.09,0.39-0.18c0.36-0.28,0.58-0.72,0.6-1.17
			C459.49,327.21,458.72,326.23,457.77,326.37z"/>
		
			<radialGradient id="SVGID_10_" cx="507.6325" cy="243.4374" r="8.8802" gradientTransform="matrix(0.9978 -0.067 0.067 0.9978 -55.6644 46.8505)" gradientUnits="userSpaceOnUse">
			<stop  offset="0.1736" style="stop-color:#FF920B"/>
			<stop  offset="0.6708" style="stop-color:#FFB000"/>
		</radialGradient>
		<path class="st9" d="M462.48,257.12c-0.13,0.4-0.05,0.87,0.21,1.21c0.14,0.18,0.32,0.32,0.51,0.43c0.22,0.13,0.46,0.22,0.72,0.23
			c0.51,0,0.93-0.36,1.3-0.7c0.13-0.12,0.27-0.25,0.33-0.43c0.05-0.14,0.04-0.29,0.01-0.43c-0.09-0.44-0.38-0.84-0.78-1.05
			C463.99,255.95,462.77,256.21,462.48,257.12z"/>
		
			<radialGradient id="SVGID_11_" cx="-104.8844" cy="701.274" r="15.5946" gradientTransform="matrix(0.502 0.8649 -0.8649 0.502 982.5157 35.5836)" gradientUnits="userSpaceOnUse">
			<stop  offset="0.1736" style="stop-color:#FF920B"/>
			<stop  offset="0.6708" style="stop-color:#FFB000"/>
		</radialGradient>
		<path class="st10" d="M317.51,290.61c-0.74,0.11-1.41,0.6-1.74,1.27c-0.17,0.35-0.25,0.75-0.28,1.14c-0.03,0.44,0.01,0.9,0.2,1.3
			c0.39,0.8,1.29,1.18,2.12,1.5c0.3,0.12,0.61,0.23,0.93,0.19c0.25-0.03,0.49-0.16,0.69-0.32c0.63-0.49,1.02-1.26,1.05-2.05
			C320.53,292.08,319.17,290.36,317.51,290.61z"/>
		
			<radialGradient id="SVGID_12_" cx="-57.0678" cy="714.6174" r="15.5946" gradientTransform="matrix(0.502 0.8649 -0.8649 0.502 982.5157 35.5836)" gradientUnits="userSpaceOnUse">
			<stop  offset="0.1736" style="stop-color:#FF920B"/>
			<stop  offset="0.6708" style="stop-color:#FFB000"/>
		</radialGradient>
		<path class="st11" d="M329.97,338.66c-0.74,0.11-1.41,0.6-1.74,1.27c-0.17,0.35-0.25,0.75-0.28,1.14c-0.03,0.44,0.01,0.9,0.2,1.3
			c0.39,0.8,1.29,1.18,2.12,1.5c0.3,0.12,0.61,0.23,0.93,0.19c0.25-0.03,0.49-0.16,0.69-0.32c0.63-0.49,1.02-1.26,1.05-2.05
			C332.99,340.13,331.63,338.42,329.97,338.66z"/>
		
			<radialGradient id="SVGID_13_" cx="-103.9614" cy="687.8426" r="15.5945" gradientTransform="matrix(0.502 0.8649 -0.8649 0.502 982.5157 35.5836)" gradientUnits="userSpaceOnUse">
			<stop  offset="0.1736" style="stop-color:#FF920B"/>
			<stop  offset="0.6708" style="stop-color:#FFB000"/>
		</radialGradient>
		<path class="st12" d="M329.59,284.66c-0.74,0.11-1.41,0.6-1.74,1.27c-0.17,0.35-0.25,0.75-0.28,1.14c-0.03,0.44,0.01,0.9,0.2,1.3
			c0.39,0.8,1.29,1.18,2.12,1.5c0.3,0.12,0.61,0.23,0.93,0.19c0.25-0.03,0.49-0.16,0.69-0.32c0.63-0.49,1.02-1.26,1.05-2.05
			C332.61,286.13,331.25,284.42,329.59,284.66z"/>
		
			<radialGradient id="SVGID_14_" cx="6.2865" cy="611.7863" r="10.1816" gradientTransform="matrix(0.502 0.8649 -0.8649 0.502 982.5157 35.5836)" gradientUnits="userSpaceOnUse">
			<stop  offset="0.1736" style="stop-color:#FF920B"/>
			<stop  offset="0.6708" style="stop-color:#FFB000"/>
		</radialGradient>
		<path class="st13" d="M452.74,344.02c-0.48,0.07-0.92,0.39-1.13,0.83c-0.11,0.23-0.17,0.49-0.18,0.74c-0.02,0.29,0,0.59,0.13,0.85
			c0.25,0.52,0.84,0.77,1.38,0.98c0.19,0.08,0.4,0.15,0.61,0.13c0.17-0.02,0.32-0.11,0.45-0.21c0.41-0.32,0.67-0.82,0.69-1.34
			C454.71,344.98,453.82,343.86,452.74,344.02z"/>
		
			<radialGradient id="SVGID_15_" cx="-57.9593" cy="566.6415" r="15.5946" gradientTransform="matrix(0.502 0.8649 -0.8649 0.502 982.5157 35.5836)" gradientUnits="userSpaceOnUse">
			<stop  offset="0.1736" style="stop-color:#FF920B"/>
			<stop  offset="0.6708" style="stop-color:#FFB000"/>
		</radialGradient>
		<path class="st14" d="M457.51,263.61c-0.74,0.11-1.41,0.6-1.74,1.27c-0.17,0.35-0.25,0.75-0.28,1.14c-0.03,0.44,0.01,0.9,0.2,1.3
			c0.39,0.8,1.29,1.18,2.12,1.5c0.3,0.12,0.61,0.23,0.93,0.19c0.25-0.03,0.49-0.16,0.69-0.32c0.63-0.49,1.02-1.26,1.05-2.05
			C460.53,265.08,459.17,263.36,457.51,263.61z"/>
		
			<radialGradient id="SVGID_16_" cx="-17.1957" cy="586.1619" r="15.5945" gradientTransform="matrix(0.502 0.8649 -0.8649 0.502 982.5157 35.5836)" gradientUnits="userSpaceOnUse">
			<stop  offset="0.1736" style="stop-color:#FF920B"/>
			<stop  offset="0.6708" style="stop-color:#FFB000"/>
		</radialGradient>
		<path class="st15" d="M461.09,308.66c-0.74,0.11-1.41,0.6-1.74,1.27c-0.17,0.35-0.25,0.75-0.28,1.14c-0.03,0.44,0.01,0.9,0.2,1.3
			c0.39,0.8,1.29,1.18,2.12,1.5c0.3,0.12,0.61,0.23,0.93,0.19c0.25-0.03,0.49-0.16,0.69-0.32c0.63-0.49,1.02-1.26,1.05-2.05
			C464.11,310.13,462.75,308.42,461.09,308.66z"/>
		
			<radialGradient id="SVGID_17_" cx="83.79" cy="1305.0846" r="8.8807" gradientTransform="matrix(-0.7187 0.6953 -0.6953 -0.7187 1437.4984 1172.1125)" gradientUnits="userSpaceOnUse">
			<stop  offset="0.1736" style="stop-color:#FF920B"/>
			<stop  offset="0.6708" style="stop-color:#FFB000"/>
		</radialGradient>
		<path class="st16" d="M472.54,288.33c-0.16-0.39-0.52-0.7-0.94-0.79c-0.22-0.05-0.45-0.04-0.67,0c-0.25,0.04-0.5,0.13-0.69,0.29
			c-0.39,0.32-0.48,0.87-0.54,1.38c-0.02,0.18-0.04,0.37,0.02,0.54c0.05,0.14,0.16,0.25,0.27,0.34c0.35,0.28,0.84,0.39,1.28,0.3
			C472.14,290.2,472.9,289.21,472.54,288.33z"/>
		
			<radialGradient id="SVGID_18_" cx="71.5697" cy="1301.5746" r="8.8808" gradientTransform="matrix(-0.7187 0.6953 -0.6953 -0.7187 1437.4984 1172.1125)" gradientUnits="userSpaceOnUse">
			<stop  offset="0.1736" style="stop-color:#FF920B"/>
			<stop  offset="0.6708" style="stop-color:#FFB000"/>
		</radialGradient>
		<path class="st17" d="M483.76,282.35c-0.16-0.39-0.52-0.7-0.94-0.79c-0.22-0.05-0.45-0.04-0.67,0c-0.25,0.04-0.5,0.13-0.69,0.29
			c-0.39,0.32-0.48,0.87-0.54,1.38c-0.02,0.18-0.04,0.37,0.02,0.54c0.05,0.14,0.16,0.25,0.27,0.34c0.35,0.28,0.84,0.39,1.28,0.3
			C483.36,284.22,484.13,283.24,483.76,282.35z"/>
		
			<radialGradient id="SVGID_19_" cx="80.3531" cy="1319.2234" r="8.8809" gradientTransform="matrix(-0.7187 0.6953 -0.6953 -0.7187 1437.4984 1172.1125)" gradientUnits="userSpaceOnUse">
			<stop  offset="0.1736" style="stop-color:#FF920B"/>
			<stop  offset="0.6708" style="stop-color:#FFB000"/>
		</radialGradient>
		<path class="st18" d="M465.18,275.77c-0.16-0.39-0.52-0.7-0.94-0.79c-0.22-0.05-0.45-0.04-0.67,0c-0.25,0.04-0.5,0.13-0.69,0.29
			c-0.39,0.32-0.48,0.87-0.54,1.38c-0.02,0.18-0.04,0.37,0.02,0.54c0.05,0.14,0.16,0.25,0.27,0.34c0.35,0.28,0.84,0.39,1.28,0.3
			C464.78,277.65,465.54,276.66,465.18,275.77z"/>
		
			<radialGradient id="SVGID_20_" cx="90.8176" cy="1313.6729" r="10.1821" gradientTransform="matrix(-0.7187 0.6953 -0.6953 -0.7187 1437.4984 1172.1125)" gradientUnits="userSpaceOnUse">
			<stop  offset="0.1736" style="stop-color:#FF920B"/>
			<stop  offset="0.6708" style="stop-color:#FFB000"/>
		</radialGradient>
		<path class="st19" d="M461.91,286.44c-0.18-0.45-0.6-0.8-1.07-0.9c-0.25-0.05-0.51-0.04-0.77,0c-0.29,0.05-0.57,0.15-0.79,0.33
			c-0.44,0.37-0.55,1-0.62,1.58c-0.03,0.21-0.05,0.42,0.02,0.62c0.06,0.16,0.18,0.28,0.31,0.39c0.41,0.32,0.96,0.45,1.47,0.34
			C461.45,288.59,462.33,287.46,461.91,286.44z"/>
		
			<radialGradient id="SVGID_21_" cx="82.8803" cy="1310.4351" r="15.5952" gradientTransform="matrix(-0.7187 0.6953 -0.6953 -0.7187 1437.4984 1172.1125)" gradientUnits="userSpaceOnUse">
			<stop  offset="0.1736" style="stop-color:#FF920B"/>
			<stop  offset="0.6708" style="stop-color:#FFB000"/>
		</radialGradient>
		<path class="st20" d="M471.5,280.76c-0.28-0.69-0.92-1.22-1.65-1.38c-0.39-0.08-0.79-0.07-1.18,0c-0.44,0.08-0.88,0.22-1.22,0.51
			c-0.68,0.57-0.84,1.54-0.95,2.42c-0.04,0.32-0.08,0.65,0.04,0.95c0.09,0.24,0.27,0.43,0.47,0.59c0.62,0.49,1.47,0.69,2.25,0.53
			C470.8,284.05,472.14,282.31,471.5,280.76z"/>
		
			<radialGradient id="SVGID_22_" cx="1161.1096" cy="408.7606" r="8.8806" gradientTransform="matrix(0.725 -0.5465 0.6891 0.575 -799.2223 725.0196)" gradientUnits="userSpaceOnUse">
			<stop  offset="0.1736" style="stop-color:#FF920B"/>
			<stop  offset="0.6708" style="stop-color:#FFB000"/>
		</radialGradient>
		<path class="st21" d="M321.54,328.73c0.16,0.31,0.52,0.56,0.93,0.63c0.22,0.04,0.45,0.03,0.67,0c0.25-0.03,0.5-0.1,0.7-0.23
			c0.39-0.25,0.48-0.69,0.55-1.09c0.02-0.14,0.05-0.29-0.02-0.43c-0.05-0.11-0.15-0.2-0.27-0.27c-0.35-0.22-0.83-0.32-1.28-0.25
			C321.95,327.25,321.18,328.03,321.54,328.73z"/>
		
			<radialGradient id="SVGID_23_" cx="1152.7529" cy="411.6611" r="8.8806" gradientTransform="matrix(0.725 -0.5465 0.6891 0.575 -799.2223 725.0196)" gradientUnits="userSpaceOnUse">
			<stop  offset="0.1736" style="stop-color:#FF920B"/>
			<stop  offset="0.6708" style="stop-color:#FFB000"/>
		</radialGradient>
		<path class="st22" d="M317.48,334.96c0.16,0.31,0.52,0.56,0.93,0.63c0.22,0.04,0.45,0.03,0.67,0c0.25-0.03,0.5-0.1,0.7-0.23
			c0.39-0.25,0.48-0.69,0.55-1.09c0.02-0.14,0.05-0.29-0.02-0.43c-0.05-0.11-0.15-0.2-0.27-0.27c-0.35-0.23-0.83-0.32-1.28-0.25
			C317.89,333.48,317.12,334.26,317.48,334.96z"/>
		
			<radialGradient id="SVGID_24_" cx="1166.3916" cy="414.8837" r="7.8038" gradientTransform="matrix(0.725 -0.5465 0.6891 0.575 -799.2223 725.0196)" gradientUnits="userSpaceOnUse">
			<stop  offset="0.1736" style="stop-color:#FF920B"/>
			<stop  offset="0.6708" style="stop-color:#FFB000"/>
		</radialGradient>
		<path class="st23" d="M329.92,328.97c0.14,0.27,0.45,0.49,0.82,0.55c0.19,0.03,0.39,0.03,0.59,0c0.22-0.03,0.44-0.09,0.61-0.2
			c0.34-0.22,0.43-0.61,0.48-0.96c0.02-0.13,0.04-0.26-0.01-0.38c-0.04-0.1-0.14-0.17-0.23-0.24c-0.31-0.2-0.73-0.28-1.12-0.22
			C330.28,327.67,329.6,328.35,329.92,328.97z"/>
		
			<radialGradient id="SVGID_25_" cx="1203.0098" cy="1276.6923" r="8.8807" gradientTransform="matrix(-0.2967 -0.7576 0.9552 -0.2353 -547.4383 1524.233)" gradientUnits="userSpaceOnUse">
			<stop  offset="0.1736" style="stop-color:#FF920B"/>
			<stop  offset="0.6708" style="stop-color:#FFB000"/>
		</radialGradient>
		<path class="st24" d="M317.56,315.79c0.42,0.03,0.86-0.12,1.12-0.38c0.14-0.14,0.24-0.3,0.3-0.47c0.07-0.19,0.11-0.4,0.05-0.59
			c-0.11-0.39-0.57-0.65-0.99-0.87c-0.15-0.08-0.31-0.16-0.49-0.18c-0.14-0.01-0.29,0.02-0.42,0.07c-0.41,0.15-0.73,0.45-0.84,0.8
			C316.07,314.84,316.6,315.73,317.56,315.79z"/>
		
			<radialGradient id="SVGID_26_" cx="1180.3268" cy="401.3028" r="15.595" gradientTransform="matrix(0.725 -0.5465 0.6891 0.575 -799.2223 725.0196)" gradientUnits="userSpaceOnUse">
			<stop  offset="0.1736" style="stop-color:#FF920B"/>
			<stop  offset="0.6708" style="stop-color:#FFB000"/>
		</radialGradient>
		<path class="st25" d="M328.27,316.37c0.28,0.55,0.91,0.98,1.63,1.11c0.38,0.07,0.79,0.06,1.18,0.01c0.44-0.06,0.88-0.17,1.22-0.4
			c0.69-0.45,0.85-1.21,0.97-1.91c0.04-0.25,0.08-0.52-0.03-0.75c-0.09-0.19-0.27-0.35-0.47-0.47c-0.62-0.4-1.46-0.56-2.24-0.43
			C329,313.77,327.65,315.14,328.27,316.37z"/>
		
			<radialGradient id="SVGID_27_" cx="-51.3191" cy="727.9766" r="15.5946" gradientTransform="matrix(0.502 0.8649 -0.8649 0.502 982.5157 35.5836)" gradientUnits="userSpaceOnUse">
			<stop  offset="0.1736" style="stop-color:#FF920B"/>
			<stop  offset="0.6708" style="stop-color:#FFB000"/>
		</radialGradient>
		<path class="st26" d="M321.3,350.34c-0.74,0.11-1.41,0.6-1.74,1.27c-0.17,0.35-0.25,0.75-0.28,1.14c-0.03,0.44,0.01,0.9,0.2,1.3
			c0.39,0.8,1.29,1.18,2.12,1.5c0.3,0.12,0.61,0.23,0.93,0.19c0.25-0.03,0.49-0.16,0.69-0.32c0.63-0.49,1.02-1.26,1.05-2.05
			C324.33,351.81,322.96,350.1,321.3,350.34z"/>
		
			<radialGradient id="SVGID_28_" cx="-120.8387" cy="697.9888" r="6.4031" gradientTransform="matrix(0.502 0.8649 -0.8649 0.502 982.5157 35.5836)" gradientUnits="userSpaceOnUse">
			<stop  offset="0.1736" style="stop-color:#FF920B"/>
			<stop  offset="0.6708" style="stop-color:#FFB000"/>
		</radialGradient>
		<path class="st27" d="M315.77,278.87c-0.3,0.04-0.58,0.25-0.71,0.52c-0.07,0.15-0.1,0.31-0.12,0.47c-0.01,0.18,0,0.37,0.08,0.54
			c0.16,0.33,0.53,0.49,0.87,0.62c0.12,0.05,0.25,0.1,0.38,0.08c0.1-0.01,0.2-0.07,0.28-0.13c0.26-0.2,0.42-0.52,0.43-0.84
			C317.01,279.48,316.46,278.77,315.77,278.87z"/>
		
			<radialGradient id="SVGID_29_" cx="-47.0677" cy="712.0445" r="6.4031" gradientTransform="matrix(0.502 0.8649 -0.8649 0.502 982.5157 35.5836)" gradientUnits="userSpaceOnUse">
			<stop  offset="0.1736" style="stop-color:#FF920B"/>
			<stop  offset="0.6708" style="stop-color:#FFB000"/>
		</radialGradient>
		<path class="st28" d="M340.65,349.73c-0.3,0.04-0.58,0.25-0.71,0.52c-0.07,0.15-0.1,0.31-0.12,0.47c-0.01,0.18,0,0.37,0.08,0.54
			c0.16,0.33,0.53,0.49,0.87,0.62c0.12,0.05,0.25,0.1,0.38,0.08c0.1-0.01,0.2-0.07,0.28-0.13c0.26-0.2,0.42-0.52,0.43-0.84
			C341.89,350.34,341.33,349.63,340.65,349.73z"/>
		
			<radialGradient id="SVGID_30_" cx="419.7975" cy="231.3644" r="26.8339" fx="396.6304" fy="232.7726" gradientUnits="userSpaceOnUse">
			<stop  offset="0.1736" style="stop-color:#FF920B"/>
			<stop  offset="0.6708" style="stop-color:#FFB000"/>
		</radialGradient>
		<path class="st29" d="M406.58,237.68c2.15,0.65,4.52,0.46,6.59-0.42c2.63-1.11,4.89-3.7,4.57-6.54c-0.1-0.9-0.45-1.76-0.89-2.56
			c-2.11-3.82-7.04-6.79-11.49-6.05c-4.51,0.75-5.53,5.87-4.5,9.7C401.61,234.63,403.79,236.83,406.58,237.68z"/>
		
			<radialGradient id="SVGID_31_" cx="262.0646" cy="1570.8062" r="20.8362" fx="244.0756" fy="1571.8997" gradientTransform="matrix(-0.9449 0.3272 -0.3272 -0.9449 1195.436 1766.0383)" gradientUnits="userSpaceOnUse">
			<stop  offset="0.1736" style="stop-color:#FF920B"/>
			<stop  offset="0.6708" style="stop-color:#FFB000"/>
		</radialGradient>
		<path class="st30" d="M441.94,359.54c-1.74,0.07-3.44,0.81-4.73,1.98c-1.64,1.48-2.65,3.96-1.69,5.96c0.3,0.64,0.78,1.18,1.3,1.65
			c2.52,2.27,6.89,3.19,9.97,1.52c3.12-1.69,2.57-5.71,0.84-8.26C446.36,360.52,444.2,359.45,441.94,359.54z"/>
		
			<radialGradient id="SVGID_32_" cx="-133.8428" cy="987.8831" r="22.8212" fx="-153.5455" fy="989.0807" gradientTransform="matrix(0.077 0.997 -0.997 0.077 1357.9486 437.9161)" gradientUnits="userSpaceOnUse">
			<stop  offset="0.1736" style="stop-color:#FF920B"/>
			<stop  offset="0.6708" style="stop-color:#FFB000"/>
		</radialGradient>
		<path class="st31" d="M356.5,369.74c-0.41,1.87-0.1,3.87,0.78,5.56c1.12,2.15,3.46,3.9,5.84,3.45c0.76-0.14,1.47-0.5,2.11-0.92
			c3.1-2.04,5.29-6.42,4.38-10.14c-0.93-3.78-5.34-4.31-8.52-3.18C358.77,365.33,357.04,367.32,356.5,369.74z"/>
	</g>
	<g>
		<g>
			<radialGradient id="SVGID_33_" cx="365.2861" cy="344.4701" r="117.0644" gradientUnits="userSpaceOnUse">
				<stop  offset="0.1736" style="stop-color:#FF920B"/>
				<stop  offset="0.6708" style="stop-color:#FFB000"/>
			</radialGradient>
			<circle class="st32" cx="393.97" cy="301.78" r="61.37"/>
			<g>
				<path class="st33" d="M380.41,341.25c-0.9,3.85,2.9,7.24,6.64,8.53c2.99,1.03,7.08,0.94,8.41-1.93
					c1.27-2.73-0.94-5.73-3.01-7.91c-2.35-2.47-5.81-5.11-8.82-3.5c-1.74,0.93-2.53,2.97-3.18,4.84"/>
				<path class="st34" d="M391.95,341.65c-0.14-0.15-0.28-0.31-0.42-0.45c-1.75-1.83-4.31-3.79-6.54-2.6
					c-1.29,0.69-1.88,2.2-2.35,3.59l-0.03-0.02c-0.09,0.39-0.11,0.77-0.08,1.14c0.16-0.51,0.38-0.99,0.73-1.42
					C385.22,339.45,389.06,340.41,391.95,341.65z"/>
				<path class="st35" d="M387.53,348.49c2.22,0.77,5.25,0.69,6.24-1.43c0.85-1.84-0.42-3.85-1.82-5.42
					c-2.9-1.24-6.73-2.19-8.7,0.24c-0.34,0.43-0.57,0.91-0.73,1.42C382.71,345.68,385.13,347.67,387.53,348.49z"/>
			</g>
			<g>
				<path class="st33" d="M360.76,312.42c-1.08-2.24-4.27-2.4-6.61-1.56c-1.87,0.67-3.84,2.33-3.36,4.26
					c0.46,1.83,2.72,2.44,4.59,2.69c2.13,0.28,4.86,0.21,5.7-1.76c0.49-1.14,0.07-2.45-0.35-3.62"/>
				<path class="st34" d="M354.95,316.78c0.13,0.02,0.26,0.04,0.38,0.06c1.58,0.21,3.6,0.16,4.23-1.31
					c0.36-0.85,0.05-1.82-0.26-2.68l0.02,0c-0.11-0.22-0.25-0.42-0.41-0.59c0.12,0.31,0.2,0.64,0.2,0.98
					C359.11,315.2,356.86,316.24,354.95,316.78z"/>
				<path class="st35" d="M354.42,311.68c-1.39,0.5-2.84,1.73-2.49,3.16c0.31,1.24,1.72,1.72,3.02,1.93
					c1.91-0.53,4.16-1.58,4.16-3.55c0-0.34-0.08-0.67-0.2-0.98C357.89,311.16,355.92,311.14,354.42,311.68z"/>
			</g>
			<g>
				<path class="st35" d="M430.73,290.14c7.04-3.47,13.02,2.9,12.67,9.3c2.89-7.15-3.84-16.32-12-12.31c-2.41,1.19-4.8,3.9-4.54,6.7
					C427.7,292.24,429.21,290.89,430.73,290.14z"/>
				<path class="st33" d="M431.73,298.66c1.7,1.4,2.9,3.96,4.72,5.05c1.77,1.06,4.08-0.13,5.41-1.71c0.67-0.8,1.17-1.66,1.53-2.55
					c0.36-6.41-5.62-12.77-12.67-9.3c-1.52,0.75-3.02,2.1-3.87,3.69c0.04,0.45,0.15,0.91,0.34,1.36
					C428.05,297.18,430.23,297.42,431.73,298.66z"/>
			</g>
			<g>
				<path class="st35" d="M437.56,321.11c0.09,3.55-3.65,4.8-6.21,3.44c2.39,2.54,7.42,1.51,7.32-2.6
					c-0.03-1.21-0.69-2.71-1.89-3.13C437.27,319.47,437.54,320.35,437.56,321.11z"/>
				<path class="st33" d="M433.88,319.91c-0.9,0.43-2.17,0.44-2.96,0.98c-0.77,0.53-0.72,1.7-0.32,2.54
					c0.2,0.43,0.46,0.79,0.76,1.11c2.56,1.36,6.3,0.1,6.21-3.44c-0.02-0.76-0.29-1.64-0.78-2.29c-0.19-0.07-0.4-0.11-0.62-0.12
					C435.18,318.68,434.67,319.53,433.88,319.91z"/>
			</g>
			<g>
				<path class="st35" d="M400.45,310.44c1.85-1.45,3.99,0.04,4.29,1.94c0.4-2.27-2.14-4.54-4.28-2.86
					c-0.63,0.5-1.16,1.44-0.91,2.24C399.69,311.25,400.05,310.76,400.45,310.44z"/>
				<path class="st33" d="M401.27,312.87c0.59,0.3,1.09,0.98,1.69,1.19c0.58,0.2,1.19-0.29,1.48-0.84c0.15-0.28,0.24-0.56,0.29-0.84
					c-0.29-1.9-2.44-3.39-4.29-1.94c-0.4,0.31-0.75,0.8-0.9,1.32c0.04,0.13,0.1,0.26,0.18,0.38
					C400.1,312.67,400.76,312.61,401.27,312.87z"/>
			</g>
			<g>
				<path class="st35" d="M361.64,298.12c-0.43-2.31,1.88-3.52,3.7-2.9c-1.83-1.41-5.01-0.21-4.51,2.47
					c0.15,0.79,0.74,1.7,1.56,1.85C362,299.16,361.73,298.62,361.64,298.12z"/>
				<path class="st33" d="M364.17,298.52c0.54-0.38,1.38-0.52,1.83-0.95c0.45-0.43,0.29-1.19-0.06-1.7
					c-0.18-0.26-0.38-0.47-0.61-0.65c-1.82-0.62-4.13,0.59-3.7,2.9c0.09,0.5,0.36,1.04,0.75,1.41c0.13,0.02,0.27,0.03,0.42,0.01
					C363.45,299.46,363.7,298.85,364.17,298.52z"/>
			</g>
			<g>
				<path class="st35" d="M427.19,328.98c1.76,0.45,1.85,2.47,0.82,3.54c1.58-0.82,1.78-3.44-0.25-3.96
					c-0.6-0.16-1.43-0.04-1.8,0.49C426.34,328.89,426.81,328.88,427.19,328.98z"/>
				<path class="st33" d="M426.08,330.62c0.09,0.5-0.09,1.13,0.07,1.59c0.15,0.45,0.74,0.59,1.21,0.52
					c0.24-0.04,0.46-0.11,0.65-0.22c1.03-1.07,0.94-3.08-0.82-3.54c-0.38-0.1-0.85-0.09-1.23,0.06c-0.06,0.09-0.11,0.18-0.14,0.29
					C425.66,329.81,426,330.18,426.08,330.62z"/>
			</g>
			<g>
				<path class="st35" d="M411.42,287.24c-1.13-3.36,2.08-5.66,4.93-5.11c-3.03-1.72-7.54,0.74-6.23,4.63
					c0.39,1.15,1.45,2.38,2.72,2.43C412.18,288.72,411.66,287.96,411.42,287.24z"/>
				<path class="st33" d="M415.29,287.3c0.73-0.68,1.95-1.06,2.54-1.81c0.58-0.73,0.19-1.84-0.44-2.53
					c-0.32-0.35-0.67-0.63-1.05-0.84c-2.85-0.55-6.06,1.75-4.93,5.11c0.24,0.72,0.76,1.48,1.42,1.95c0.2,0.01,0.41-0.01,0.63-0.07
					C414.41,288.86,414.65,287.9,415.29,287.3z"/>
			</g>
			<g>
				<path class="st35" d="M437.04,267.47c1.37-2.48,4.47-0.85,5.7,1.78c-0.63-3.31-4.53-5.95-6.13-3.08
					c-0.47,0.85-0.62,2.3,0.04,3.38C436.58,268.78,436.75,268,437.04,267.47z"/>
				<path class="st33" d="M439.11,270.73c0.8,0.3,1.69,1.14,2.45,1.3c0.75,0.15,1.19-0.68,1.25-1.52c0.03-0.42,0-0.85-0.07-1.26
					c-1.23-2.62-4.33-4.25-5.7-1.78c-0.3,0.53-0.46,1.31-0.38,2.08c0.11,0.17,0.23,0.34,0.38,0.49
					C437.71,270.7,438.41,270.47,439.11,270.73z"/>
			</g>
			<path class="st33" d="M402.07,257.92c2.38,0.66,5.01,0.91,6.88,2.53c2.92,2.53,2.66,7.2,4.86,10.37
				c2.34,3.38,7.59,4.26,10.9,1.82c3.16-2.32,4.08-6.92,2.79-10.62c-1.29-3.7-4.42-6.54-7.92-8.31c-3.5-1.78-7.38-2.63-11.21-3.46
				c-2.91-0.63-8.54-1.69-10.36,1.76C396.36,255.16,399.22,257.13,402.07,257.92z"/>
			<path class="st35" d="M408.37,253.25c3.83,0.83,7.71,1.68,11.21,3.46c3.5,1.78,6.62,4.61,7.92,8.31c0.21,0.6,0.34,1.24,0.43,1.87
				c0.24-1.63,0.11-3.33-0.43-4.88c-1.29-3.7-4.42-6.54-7.92-8.31c-3.5-1.78-7.38-2.63-11.21-3.46c-2.91-0.63-8.54-1.69-10.36,1.76
				c-0.66,1.26-0.59,2.33-0.09,3.21c0.03-0.07,0.06-0.14,0.09-0.21C399.82,251.56,405.46,252.62,408.37,253.25z"/>
			<path class="st33" d="M402.07,257.92c2.38,0.66,5.01,0.91,6.88,2.53c2.92,2.53,2.66,7.2,4.86,10.37
				c2.34,3.38,7.59,4.26,10.9,1.82c1.84-1.35,2.9-3.48,3.23-5.75c-0.09-0.64-0.22-1.27-0.43-1.87c-1.29-3.7-4.42-6.54-7.92-8.31
				c-3.5-1.78-7.38-2.63-11.21-3.46c-2.91-0.63-8.54-1.69-10.36,1.76c-0.04,0.07-0.06,0.14-0.09,0.21
				C398.66,256.54,400.36,257.44,402.07,257.92z"/>
			<path class="st35" d="M356.33,275.82c4.01,1.52,5.7,7.19,3.19,10.66c-1.55,2.13-4.2,3.27-5.7,5.44
				c-1.15,1.65-1.66,3.91-3.43,4.87c-2.48,1.34-5.46-0.9-6.78-3.39c-2.18-4.11-2.16-9.23-0.33-13.51
				C345.95,273.66,350.8,273.73,356.33,275.82z"/>
			<path class="st34" d="M344.39,283.01c2.67-6.23,7.53-6.17,13.05-4.08c1.35,0.51,2.43,1.5,3.18,2.71
				c-0.34-2.52-1.9-4.92-4.29-5.82c-5.53-2.09-10.39-2.16-13.05,4.08c-1.78,4.16-1.83,9.1,0.17,13.15
				C342.69,289.74,343.04,286.15,344.39,283.01z"/>
			<path class="st35" d="M350.39,296.79c1.77-0.96,2.28-3.22,3.43-4.87c1.5-2.17,4.16-3.3,5.7-5.44c1.01-1.39,1.33-3.14,1.11-4.84
				c-0.75-1.21-1.83-2.2-3.18-2.71c-5.53-2.09-10.39-2.16-13.05,4.08c-1.34,3.14-1.7,6.73-0.94,10.04c0.06,0.12,0.1,0.24,0.16,0.35
				C344.93,295.89,347.91,298.13,350.39,296.79z"/>
			<path class="st33" d="M349.01,334.82c1.06,2.62,2.91,4.99,5.41,6.29c1.11,0.58,2.37,0.95,3.61,0.81
				c1.45-0.15,2.76-0.97,3.86-1.94c2.29-2.03,3.89-4.92,4.04-7.98c0.16-3.06-1.26-6.23-3.83-7.89c-1.82-1.18-4.05-1.55-6.21-1.64
				C347.59,322.12,346.31,328.12,349.01,334.82z"/>
			<path class="st35" d="M351.31,334.05c0.75,1.85,2.06,3.52,3.83,4.45c0.79,0.41,1.67,0.67,2.56,0.58
				c1.03-0.11,1.95-0.69,2.73-1.37c1.62-1.44,2.75-3.48,2.86-5.64c0.11-2.16-0.89-4.41-2.71-5.58c-1.29-0.83-2.86-1.09-4.39-1.16
				C350.3,325.07,349.4,329.32,351.31,334.05z"/>
			<path class="st34" d="M356.96,327.81c1.65,0.07,3.35,0.35,4.74,1.25c0.56,0.36,1.05,0.83,1.46,1.36
				c-0.32-1.59-1.22-3.06-2.58-3.94c-1.29-0.83-2.86-1.09-4.39-1.16c-5.19-0.22-6.5,3.07-5.42,7.1
				C350.92,329.59,352.75,327.63,356.96,327.81z"/>
			<path class="st35" d="M355.14,338.5c0.79,0.41,1.67,0.67,2.56,0.58c1.03-0.11,1.95-0.69,2.73-1.37c1.62-1.44,2.75-3.48,2.86-5.64
				c0.03-0.55-0.02-1.1-0.13-1.65c-0.41-0.53-0.89-0.99-1.46-1.36c-1.39-0.9-3.08-1.18-4.74-1.25c-4.2-0.18-6.04,1.79-6.2,4.62
				c0.14,0.53,0.32,1.08,0.55,1.63C352.06,335.9,353.36,337.58,355.14,338.5z"/>
			<path class="st36" d="M410.38,347.59c-32.4,0-58.67-26.27-58.67-58.67c0-14.08,4.96-26.99,13.23-37.1
				c-17.26,10.21-28.84,29.01-28.84,50.51c0,32.4,26.27,58.67,58.67,58.67c18.32,0,34.68-8.4,45.44-21.57
				C431.47,344.61,421.28,347.59,410.38,347.59z"/>
			<circle class="st37" cx="393.97" cy="301.78" r="61.37"/>
			<g>
				<path class="st33" d="M415.55,328.33c1.54,1.26,2.72,2.9,3.88,4.52c2.42,3.37,4.95,7.16,4.51,11.28c-0.51,4.78-5,8.29-9.64,9.51
					c-1.42,0.37-3,0.58-4.32-0.07c-0.75-0.37-1.35-0.98-1.85-1.65c-1.46-1.93-2.17-4.41-1.96-6.82c0.14-1.66,0.69-3.42-0.01-4.93
					c-2.07-4.48-10.56-2.19-7.21-9.26C401.83,324.84,410.89,324.52,415.55,328.33z"/>
				<path class="st34" d="M409.83,332.59c3.37-0.26,6.88,1.93,9.65,4.66c-2.13-3.37-6.54-7.7-10.7-7.38
					c-3.57,0.28-3.66,2.48-2.85,4.94C406.36,333.61,407.5,332.77,409.83,332.59z"/>
				<path class="st35" d="M409.35,346.32c-0.14-0.62-0.44-1.37-0.81-2.2c-0.1,1.86-0.23,3.7,0.85,5.14
					c0.05,0.07,0.12,0.12,0.17,0.18C409.6,348.38,409.58,347.33,409.35,346.32z"/>
				<path class="st35" d="M415.63,350.63c1.34-0.4,2.63-1.07,3.61-2.06c2.72-2.75,2.51-7.42,0.58-10.77
					c-0.1-0.18-0.22-0.37-0.34-0.55c-2.78-2.72-6.28-4.92-9.65-4.66c-2.33,0.18-3.48,1.02-3.9,2.21c0.72,2.19,2.14,4.59,2.47,6.05
					c0.24,1.05,0.2,2.16,0.14,3.27c0.37,0.83,0.67,1.58,0.81,2.2c0.23,1,0.25,2.06,0.21,3.13
					C410.97,351.08,413.54,351.25,415.63,350.63z"/>
			</g>
			<g>
				<path class="st33" d="M371.76,324.6c0.87,0.72,1.77,1.46,2.86,1.75c1.96,0.51,3.94-0.56,5.93-0.87
					c2.91-0.45,5.99,0.71,8.78-0.23c3.19-1.08,4.96-4.82,4.55-8.17c-0.41-3.35-2.58-6.26-5.18-8.41
					c-5.69-4.69-15.18-6.26-21.33-1.33C360.83,312.57,367.15,320.77,371.76,324.6z"/>
				<path class="st35" d="M391.3,316.17c-0.25-1.35-1.07-2.52-2.01-3.51c-2.53-2.68-5.85-4.09-9.35-4.5
					c-1.15,0.32-2.21,1.02-3.15,1.78c-2.09,1.71-3.75,5.49-5.94,6.79c0.42,0.87,0.89,1.75,1.33,2.59c0.71,1.35,1.04,3.07,2.37,3.82
					c1.76,1,3.84-0.38,5.72-1.12c1.97-0.78,4.2-0.85,6.22-0.2c1.11,0.36,2.44,0.89,3.32,0.13c0.33-0.29,0.52-0.71,0.68-1.12
					C391.07,319.34,391.59,317.74,391.3,316.17z"/>
				<path class="st34" d="M376.79,309.94c0.94-0.77,1.99-1.46,3.15-1.78c-2.02-0.24-4.1-0.15-6.13,0.22
					c-5.65,1.05-4.74,4.69-2.96,8.36C373.04,315.43,374.7,311.65,376.79,309.94z"/>
			</g>
			<g>
				<path class="st33" d="M417.37,313.93c-0.42-0.08-0.85-0.16-1.26-0.06c-0.74,0.18-1.2,0.89-1.8,1.36
					c-0.88,0.67-2.1,0.84-2.85,1.66c-0.86,0.93-0.77,2.48-0.03,3.51s1.98,1.6,3.22,1.84c2.72,0.52,6.13-0.67,7.27-3.4
					C423.14,315.93,419.58,314.37,417.37,313.93z"/>
				<path class="st35" d="M412.44,320.23c0.32,0.4,0.81,0.64,1.3,0.79c1.32,0.43,2.66,0.3,3.89-0.2c0.32-0.31,0.55-0.73,0.72-1.16
					c0.38-0.94,0.25-2.49,0.74-3.31c-0.3-0.21-0.61-0.42-0.91-0.61c-0.48-0.32-0.9-0.82-1.47-0.83c-0.76-0.01-1.2,0.82-1.68,1.4
					c-0.51,0.61-1.23,1.04-2.01,1.19c-0.43,0.08-0.96,0.15-1.12,0.55c-0.06,0.16-0.04,0.33-0.02,0.49
					C411.95,319.14,412.07,319.77,412.44,320.23z"/>
				<path class="st34" d="M418.35,319.67c-0.17,0.42-0.39,0.84-0.72,1.16c0.71-0.28,1.38-0.69,1.98-1.18
					c1.67-1.36,0.72-2.4-0.53-3.29C418.6,317.19,418.73,318.73,418.35,319.67z"/>
			</g>
			<g>
				<path class="st38" d="M361.78,259.84c-0.95,2.74-0.37,5.96,1.48,8.2c0.45,0.55,0.99,1.05,1.64,1.33
					c1.54,0.68,3.35,0.04,5.01,0.32c1.21,0.21,2.3,0.9,3.51,1.12c2.81,0.52,5.4-1.51,7.54-3.41c0.56-0.49,1.12-1,1.53-1.62
					c1.35-2.04,0.72-4.84-0.59-6.9C377.41,251.81,364.89,250.89,361.78,259.84z"/>
				<path class="st33" d="M378.57,259.87c-3.72-1.44-7.94-1.55-11.75-0.37c-0.56,0.17-1.1,0.4-1.56,0.56
					c-0.82,1.8-1.08,3.85-0.21,5.38c1.05,1.84,2.85,1.09,4.65,1.8c1.71,0.67,3.01,2.26,4.99,2.21c1.04-0.02,2.03-0.56,2.79-1.27
					C380.17,265.7,380.09,262.44,378.57,259.87z"/>
				<path class="st39" d="M378.57,259.87c-1.96-3.32-6.29-5.51-10.16-3.46c-1.24,0.66-2.42,2.06-3.15,3.65
					c0.46-0.16,1-0.38,1.56-0.56C370.63,258.32,374.84,258.43,378.57,259.87z"/>
			</g>
			<path class="st40" d="M408.25,280.42c7.02,6.39,15.86,11.11,25.32,11.87c2.25,0.18,4.69,0.09,6.53-1.22
				c2.77-1.98,3.18-5.89,3.16-9.3c-0.03-5.55-0.56-11.27-3.08-16.22c-2.5-4.9-6.77-8.65-11.18-11.94
				c-8.83-6.6-21.45-13.92-32.99-12.27c-13.48,1.93-5.74,15.49-1.31,22.43C398.55,269.82,402.93,275.59,408.25,280.42z"/>
			<path class="st41" d="M380.99,254.9c-0.66,6.16,1.55,12.28,4.36,17.81c7.62,14.98,19.94,27.43,34.53,35.77
				c4.02,2.3,8.31,4.33,12.91,4.93c4.6,0.6,9.58-0.39,13-3.51c3.6-3.28,4.99-8.39,5.21-13.26c0.32-7.29-1.68-14.67-5.64-20.8
				c-2.36-3.66-5.38-6.86-8.49-9.92C427.2,256.44,384.27,224.47,380.99,254.9z"/>
		</g>
		<path class="st42" d="M344.71,280.47c-4.14,12.46-3.96,26.3,0.49,38.66c2.38,6.62,6.2,13.07,12.22,16.72
			c5.67,3.44,12.59,4.02,18.82,6.31c5.08,1.87,9.69,4.88,14.77,6.74c4.63,1.7,9.62,2.41,14.54,2.08c5.76-0.38,12.36-3.23,13.29-8.92
			c0.82-5.02-3.21-9.45-7.2-12.6c-6.25-4.92-13.24-8.86-19.43-13.85c-6.19-5-11.72-11.36-13.61-19.08
			c-1.68-6.84-0.33-14.11,2.14-20.7c1.96-5.24,4.68-10.64,3.68-16.15c-1.87-10.23-13.66-12.28-20.73-6.57
			C354.94,260.17,348.25,269.81,344.71,280.47z"/>
	</g>
</g>
</svg>
