<?xml version="1.0" encoding="utf-8"?>
<!-- Generator: Adobe Illustrator 24.1.2, SVG Export Plug-In . SVG Version: 6.00 Build 0)  -->
<svg version="1.1" id="Calque_1" xmlns="http://www.w3.org/2000/svg" xmlns:xlink="http://www.w3.org/1999/xlink" x="0px" y="0px"
	 viewBox="0 0 800 600" style="enable-background:new 0 0 800 600;" xml:space="preserve">
<style type="text/css">
	.st0{fill:url(#SVGID_1_);}
	.st1{opacity:0.65;}
	.st2{opacity:0.39;fill:#550036;}
	.st3{opacity:0.77;fill:url(#SVGID_2_);}
	.st4{fill:url(#SVGID_3_);}
</style>
<g>
	<linearGradient id="SVGID_1_" gradientUnits="userSpaceOnUse" x1="145.9351" y1="296.3182" x2="654.0494" y2="296.3182">
		<stop  offset="0" style="stop-color:#D30262"/>
		<stop  offset="1" style="stop-color:#FF4A9C"/>
	</linearGradient>
	<path class="st0" d="M654.05,296.32c0,24.29-3.41,47.79-9.78,70.04c-17.62,61.55-57.9,113.56-111.22,146.39
		c-14.7,9.08-30.38,16.68-46.88,22.62c-26.89,9.7-55.91,14.99-86.16,14.99c-38.23,0-74.5-8.44-107.01-23.61
		c-86.86-40.33-147.06-128.37-147.06-230.43c0-31.03,5.56-60.77,15.77-88.26c22.27-60.15,66.65-109.56,123.29-138.33
		c33.26-16.93,70.76-26.73,110.47-27.4c1.5-0.05,3.01-0.05,4.54-0.05c79.25,0,150.05,36.3,196.63,93.2
		C632.53,179.29,654.05,235.28,654.05,296.32z"/>
	<g class="st1">
		<path class="st2" d="M622.31,173.33c-38.89,1.43-73.4,1.81-185.23-1.47c-100.25-2.98-180.02-12.22-242.22-25.42
			c23.5-32.13,54.35-58.54,90.14-76.72c3.4-1.74,6.83-3.36,10.3-4.9C379.3,81,475.74,95.75,559.4,98.54
			c13.65,10.98,26.14,23.39,37.23,36.93C606.28,147.27,614.88,159.9,622.31,173.33z"/>
		<path class="st2" d="M654.06,296.32c0,4.45-0.11,8.9-0.38,13.31c-54.99-4.79-124.81-4.94-249.99,12.37
			c-120.69,16.67-197.18,34.06-247.99,44.28c-6.37-22.21-9.77-45.71-9.77-69.96c0-22.67,2.94-44.62,8.56-65.51
			c28.78,2.26,67.36,3.02,119.03,1.09c161.54-6.03,271.71-14.67,371.4-3.24C650.9,250.2,654.06,272.9,654.06,296.32z"/>
		<path class="st2" d="M640.6,378.09c-7.77,22.89-18.75,44.32-32.32,63.74c-100.93-0.79-222.61-7.35-314.71,17.01
			c-28.14,7.43-51.63,13.73-71.21,19.08c-21.24-20.78-38.85-45.26-51.79-72.38c20.44-13.16,77.96-28.29,233.13-30.14
			C516.93,374.06,590.13,375.98,640.6,378.09z"/>
		<path class="st2" d="M541.25,507.43c-2.72,1.85-5.43,3.62-8.22,5.32c-14.67,9.09-30.36,16.67-46.88,22.63
			c-26.89,9.69-55.9,14.97-86.15,14.97c-33.57,0-65.55-6.49-94.86-18.29C350.44,513.05,439.72,485.55,541.25,507.43z"/>
	</g>
	<g>
		<linearGradient id="SVGID_2_" gradientUnits="userSpaceOnUse" x1="435.891" y1="485.159" x2="549.0986" y2="113.445">
			<stop  offset="0" style="stop-color:#FFFFFF"/>
			<stop  offset="1" style="stop-color:#550036"/>
		</linearGradient>
		<path class="st3" d="M596.64,135.47c-46.58-56.9-117.38-93.2-196.63-93.2c-0.5,0-0.98,0.02-1.47,0.02
			c20.89,13.99,39.59,30.99,55.48,50.39c35.89,43.82,57.41,99.81,57.41,160.85c0,24.29-3.41,47.79-9.78,70.04
			c-17.62,61.55-57.9,113.56-111.22,146.39c-14.7,9.08-30.39,16.68-46.88,22.62c-26.44,9.53-54.94,14.78-84.63,14.96
			c10.81,7.23,22.19,13.68,34.09,19.21c32.51,15.18,68.78,23.61,107.01,23.61c30.25,0,59.27-5.29,86.16-14.99
			c16.5-5.94,32.19-13.54,46.88-22.62c53.33-32.83,93.6-84.84,111.22-146.39c6.37-22.24,9.78-45.75,9.78-70.04
			C654.05,235.28,632.53,179.29,596.64,135.47z"/>
		<linearGradient id="SVGID_3_" gradientUnits="userSpaceOnUse" x1="384.0183" y1="55.3384" x2="215.2462" y2="391.6938">
			<stop  offset="0" style="stop-color:#FFFFFF"/>
			<stop  offset="1" style="stop-color:#FFFFFF;stop-opacity:0"/>
		</linearGradient>
		<path class="st4" d="M328.32,52.54c-15.07,4.42-29.57,10.18-43.33,17.19c-56.63,28.77-101.02,78.18-123.29,138.33
			c-10.21,27.48-15.77,57.23-15.77,88.26c0,55.53,17.85,106.89,48.09,148.69c2.68,0.1,5.38,0.17,8.09,0.17
			c25.79,0,50.53-4.51,73.46-12.78c14.06-5.06,27.44-11.55,39.97-19.29c45.47-27.99,79.8-72.34,94.83-124.82
			c5.43-18.97,8.34-39.01,8.34-59.72c0-52.04-18.35-99.78-48.95-137.14C357.72,76.73,343.78,63.65,328.32,52.54z"/>
	</g>
</g>
</svg>
