<?xml version="1.0" encoding="utf-8"?>
<!-- Generator: Adobe Illustrator 24.1.2, SVG Export Plug-In . SVG Version: 6.00 Build 0)  -->
<svg version="1.1" id="Calque_1" xmlns="http://www.w3.org/2000/svg" xmlns:xlink="http://www.w3.org/1999/xlink" x="0px" y="0px"
	 viewBox="0 0 800 600" style="enable-background:new 0 0 800 600;" xml:space="preserve">
<style type="text/css">
	.st0{fill:url(#SVGID_1_);}
	.st1{opacity:0.47;}
	.st2{opacity:0.53;fill:#8263CE;}
	.st3{fill:#8263CE;}
	.st4{opacity:0.59;fill:#8263CE;}
	.st5{opacity:0.43;fill:#8263CE;}
	.st6{fill:url(#SVGID_2_);}
	.st7{opacity:0.55;fill:url(#SVGID_3_);}
</style>
<g>
	<linearGradient id="SVGID_1_" gradientUnits="userSpaceOnUse" x1="229.0768" y1="327.8441" x2="623.2251" y2="327.8441">
		<stop  offset="0" style="stop-color:#8263CE"/>
		<stop  offset="1" style="stop-color:#AF9DFC"/>
	</linearGradient>
	<path class="st0" d="M623.23,327.84c0,18.84-2.65,37.07-7.59,54.33c-13.67,47.74-44.91,88.09-86.28,113.56
		c-11.4,7.04-23.57,12.94-36.37,17.55c-20.86,7.52-43.37,11.63-66.83,11.63c-29.66,0-57.79-6.54-83.01-18.32
		c-67.38-31.28-114.08-99.57-114.08-178.75c0-24.07,4.31-47.14,12.23-68.46c17.28-46.66,51.7-84.99,95.64-107.31
		c25.8-13.13,54.89-20.74,85.69-21.26c1.17-0.04,2.33-0.04,3.52-0.04c61.48,0,116.39,28.15,152.53,72.29
		C606.53,237.06,623.23,280.5,623.23,327.84z"/>
	<g class="st1">
		<path class="st2" d="M591.23,220.19c-62.69,4.86-140.03,13.87-206.35,37.86c-45.96,16.66-97.24,16.27-145.21,5.96
			c0.52-1.56,1.04-3.11,1.62-4.6c6.48-17.37,15.23-33.58,26.06-48.23c38.12,2.14,77.6,0.06,117.53-6.22
			c61.13-9.59,121.16-17.05,176.79-20.1c6.09,5.64,11.73,11.8,17.05,18.22C583.19,208.52,587.41,214.23,591.23,220.19z"/>
		<path class="st3" d="M623.26,327.87c0,1.49,0,3.05-0.06,4.54c-53.81-4.86-110.14-2.79-167.26,6.22
			c-77.4,12.19-153.32,21.59-223.59,25.22c-2.14-11.67-3.24-23.66-3.24-35.98c0-3.63,0.06-7.2,0.32-10.76
			c71.76-6.61,154.35-18.48,226.51-44.6c49.2-17.76,103.27-19.97,155.46-11.99C619.11,281.52,623.26,304.21,623.26,327.87z"/>
		<path class="st4" d="M617.29,376.04c-0.52,2.07-1.04,4.15-1.62,6.16c-5.51,19.32-13.94,37.34-24.76,53.74
			c-58.35,3.11-117.86,18.28-175.62,44.86c-21.85,10.05-43.69,19.77-65.28,28.85c-2.33-0.97-4.6-2.01-6.87-3.05
			c-17.57-8.23-33.78-18.93-48.1-31.7c36.04-16.86,71.89-37.02,103.53-61.33C460.08,366.31,543.84,360.15,617.29,376.04z"/>
		<path class="st5" d="M389.81,375.97c-3.11,17.44-61.39,55.49-115.13,77.86c-12.77-15.24-23.21-32.48-30.86-51.21
			C309.29,382.2,392.79,359.25,389.81,375.97z"/>
		<path class="st2" d="M519.53,154.33c-52.25,23.79-146.38,20.94-210.69,15.23c8.82-6.61,18.22-12.45,28.14-17.5
			c25.74-13.1,54.84-20.74,85.64-21.26h3.57C459.95,130.79,491.72,139.29,519.53,154.33z"/>
	</g>
	<g>
		<linearGradient id="SVGID_2_" gradientUnits="userSpaceOnUse" x1="413.7596" y1="140.9137" x2="282.8416" y2="401.8275">
			<stop  offset="0" style="stop-color:#FFFFFF"/>
			<stop  offset="1" style="stop-color:#FFFFFF;stop-opacity:0"/>
		</linearGradient>
		<path class="st6" d="M370.55,138.75c-11.69,3.43-22.93,7.9-33.61,13.33c-43.93,22.32-78.36,60.64-95.64,107.31
			c-7.92,21.32-12.23,44.39-12.23,68.46c0,43.08,13.85,82.91,37.31,115.34c2.08,0.08,4.17,0.13,6.27,0.13
			c20.01,0,39.2-3.5,56.98-9.91c10.91-3.93,21.29-8.96,31.01-14.96c35.27-21.71,61.91-56.11,73.56-96.82
			c4.21-14.71,6.47-30.26,6.47-46.32c0-40.37-14.23-77.4-37.97-106.38C393.36,157.51,382.54,147.36,370.55,138.75z"/>
		<linearGradient id="SVGID_3_" gradientUnits="userSpaceOnUse" x1="453.9974" y1="474.3292" x2="541.8134" y2="185.9877">
			<stop  offset="0" style="stop-color:#FFFFFF"/>
			<stop  offset="1" style="stop-color:#0025D4"/>
		</linearGradient>
		<path class="st7" d="M578.69,203.07c-36.14-44.14-91.05-72.29-152.53-72.29c-0.39,0-0.76,0.01-1.14,0.01
			c16.2,10.85,30.71,24.04,43.04,39.09c27.84,33.99,44.54,77.42,44.54,124.77c0,18.84-2.65,37.07-7.59,54.33
			c-13.67,47.74-44.91,88.09-86.28,113.56c-11.4,7.04-23.57,12.94-36.37,17.55c-20.51,7.4-42.61,11.47-65.65,11.6
			c8.39,5.61,17.21,10.61,26.45,14.9c25.22,11.77,53.35,18.32,83.01,18.32c23.47,0,45.97-4.11,66.83-11.63
			c12.8-4.61,24.97-10.5,36.37-17.55c41.37-25.47,72.61-65.81,86.28-113.56c4.94-17.26,7.59-35.49,7.59-54.33
			C623.23,280.5,606.53,237.06,578.69,203.07z"/>
	</g>
</g>
</svg>
