<?xml version="1.0" encoding="utf-8"?>
<!-- Generator: Adobe Illustrator 24.1.2, SVG Export Plug-In . SVG Version: 6.00 Build 0)  -->
<svg version="1.1" id="Calque_1" xmlns="http://www.w3.org/2000/svg" xmlns:xlink="http://www.w3.org/1999/xlink" x="0px" y="0px"
	 viewBox="0 0 800 600" style="enable-background:new 0 0 800 600;" xml:space="preserve">
<style type="text/css">
	.st0{fill:#A855E7;}
	.st1{fill:url(#SVGID_1_);}
	.st2{fill:#B26BE6;}
	.st3{fill:#BB80E6;}
	.st4{fill:#CBA7E5;}
	.st5{fill:#D5BFE4;}
	.st6{fill:#8028C3;}
	.st7{fill:#8E1CE7;}
	.st8{fill:#9B36E7;}
	.st9{fill:url(#SVGID_2_);}
	.st10{fill:url(#SVGID_3_);}
	.st11{fill:url(#SVGID_4_);}
	.st12{fill:url(#SVGID_5_);}
	.st13{fill:url(#SVGID_6_);}
	.st14{fill:url(#SVGID_7_);}
	.st15{fill:url(#SVGID_8_);}
	.st16{fill:#B473E6;}
	.st17{fill:#B168E6;}
	.st18{fill:#8D31D3;}
	.st19{fill:#C280F5;}
	.st20{fill:#D3A6F4;}
</style>
<g>
	<g>
		<path class="st0" d="M371.13,268.71c1.39-0.89,2.38-2.33,2.92-3.89c0.89-2.56,1.67-5.36,2.13-8.03c1.02,0,1.56,0.67,2.09,1.55
			c0.53,0.87,0.72,1.91,0.81,2.93c0.11,1.19,0.11,2.41-0.19,3.56c-0.31,1.19-0.92,2.28-1.64,3.28c-1.17,1.63-2.68,3.06-4.52,3.86
			c-1.84,0.8-3.84,0.33-5.83,0.06c-2.09-0.28-3.71-4.06-3.09-5c0.32-0.47,1.03,1.84,4.34,2.28
			C369.17,269.46,370.25,269.27,371.13,268.71z"/>
		<path class="st0" d="M374.76,297.34c2,2.06,2.37,5.18,2.35,8.05c-0.02,1.96-0.17,3.91-0.45,5.85c-0.14,0.92-0.31,1.86-0.77,2.66
			c-1.47,2.55-5,2.76-7.94,2.65c2.23,2.31,6.24,1.97,8.78,0.02c2.54-1.95,3.9-5.07,4.83-8.13c1.07-3.49,1.74-7.11,1.99-10.76
			c0.13-1.91,0.13-3.92-0.73-5.63c-1.14-2.26-3.63-3.61-6.14-3.91c-2.51-0.3-5.04,0.31-7.43,1.14c-1.88,0.65-3.76,1.47-5.18,2.85
			c-0.97,0.94-2.83,3.17-2.64,4.65c0.26,2.08,2.19-0.16,3.46-0.69C368.03,294.8,372.23,294.72,374.76,297.34z"/>
		<path class="st0" d="M421.18,337.01c-2.21-4.2-1.73-9.49,1.6-12.87c1.42-1.44,3.19-2.46,4.96-3.45c2.45-1.37,4.93-2.69,7.44-3.97
			c1.47-0.75,4.07-1.41,5.6-0.97c-2,2.56-9.49,7.46-11.85,9.95C427.67,327.02,420.28,335.3,421.18,337.01z"/>
		<path class="st0" d="M407.41,302.15c0.87,3.19-0.53,6.59-2.52,9.23c-1.99,2.64-4.56,4.79-6.57,7.41c4.43,0.3,8.98-0.03,13.07-1.76
			c4.08-1.73,7.65-5.01,9.01-9.23s0.13-9.35-3.45-11.97c-3.28-2.4-7.67-2.38-11.73-2.27c-2.45,0.07-4.97-0.01-7.37,0.42
			C401.53,295.82,406.23,297.72,407.41,302.15z"/>
		<linearGradient id="SVGID_1_" gradientUnits="userSpaceOnUse" x1="438.1499" y1="260.1442" x2="352.1501" y2="339.1439">
			<stop  offset="0.1672" style="stop-color:#A855E7"/>
			<stop  offset="0.2471" style="stop-color:#A353E0"/>
			<stop  offset="0.3597" style="stop-color:#964CCE"/>
			<stop  offset="0.4918" style="stop-color:#8041B0"/>
			<stop  offset="0.6386" style="stop-color:#613186"/>
			<stop  offset="0.7976" style="stop-color:#3A1D50"/>
			<stop  offset="0.9644" style="stop-color:#0B050F"/>
			<stop  offset="1" style="stop-color:#000000"/>
		</linearGradient>
		<path class="st1" d="M440.75,315.74c5.81-13,5.53-28.5-2.13-41.78c-12.63-21.89-40.53-29.47-62.48-17.05
			c1.8,3.59,1.55,8.15-0.71,11.48c-2.11,3.09-6.73,4.92-9.62,2.55c-1.21-0.99-1.79-2.37-1.99-3.9
			c-12.31,14.4-14.89,35.54-4.88,52.88c12.59,21.82,40.35,29.42,62.28,17.16C416.35,329.42,435.08,317.25,440.75,315.74z
			 M381.01,298.63c-0.68,3.83-1.36,7.66-2.05,11.49c-0.31,1.72-0.64,3.51-1.68,4.92c-1.75,2.37-5.21,3.02-8.01,2.08
			s-4.99-3.16-6.63-5.61c-1.54-2.31-2.7-4.95-2.87-7.72C359.05,291.99,383.9,282.39,381.01,298.63z M414.68,306.68
			c-0.58,2.37-2.08,4.44-3.88,6.09c-2.18,2.01-4.92,3.51-7.87,3.83c-2.95,0.32-6.11-0.66-8.06-2.9c-3.06-3.5-3.19-11.91-1.03-16.02
			c3.14-5.98,9.54-2.56,14.78-0.56c1.66,0.63,3.36,1.37,4.55,2.68C414.82,301.61,415.27,304.31,414.68,306.68z"/>
		<path class="st2" d="M411.73,279.71c2.4,1.67,4.96,3.2,7.81,3.87c2.85,0.66,6.04,0.35,8.38-1.39c3.4-2.52,4.21-7.51,2.88-11.52
			c-1.33-4.01-4.39-7.21-7.6-9.96c-6.22-5.31-19.34-12.59-26.04-3.6C391.14,265.17,406.06,275.75,411.73,279.71z"/>
		<path class="st3" d="M406.7,265.47c1.65,1.94,3.94,3.27,6.34,4.13c1.98,0.71,4.16,1.12,6.2,0.61c2.05-0.51,3.92-2.12,4.24-4.2
			c0.13-0.83,0.01-1.69-0.23-2.5c-1.11-3.64-4.62-6.03-8.17-7.42c-2.72-1.07-7.76-2.44-9.94,0.39
			C403.17,259.03,404.91,263.36,406.7,265.47z"/>
		<path class="st4" d="M402.69,258.04c-0.03,0.37,0.02,0.75,0.18,1.08c0.36,0.76,1.26,1.17,2.1,1.14c0.84-0.03,1.63-0.44,2.3-0.95
			c0.29-0.22,0.57-0.47,0.74-0.79c0.23-0.44,0.23-0.96,0.2-1.46c-0.01-0.18-0.03-0.37-0.12-0.53c-0.09-0.15-0.23-0.26-0.38-0.35
			c-0.98-0.64-2-1-3.13-0.57C403.57,255.99,402.77,256.94,402.69,258.04z"/>
		<path class="st4" d="M427.35,277.95c-0.02,0.22,0.01,0.44,0.11,0.64c0.21,0.45,0.74,0.69,1.24,0.67c0.5-0.02,0.96-0.26,1.35-0.56
			c0.17-0.13,0.34-0.28,0.43-0.47c0.14-0.26,0.13-0.56,0.12-0.86c-0.01-0.11-0.02-0.22-0.07-0.31c-0.05-0.09-0.14-0.15-0.22-0.21
			c-0.58-0.37-1.18-0.59-1.84-0.34C427.87,276.75,427.4,277.31,427.35,277.95z"/>
		<path class="st4" d="M414.42,262.45c-0.12-0.05-0.25-0.08-0.38-0.06c-0.3,0.03-0.54,0.29-0.62,0.58c-0.09,0.29-0.04,0.6,0.05,0.88
			c0.04,0.12,0.09,0.25,0.18,0.34c0.12,0.13,0.3,0.19,0.47,0.23c0.06,0.02,0.13,0.03,0.19,0.02c0.06-0.01,0.11-0.05,0.16-0.09
			c0.33-0.26,0.57-0.56,0.55-0.99C415.01,262.98,414.78,262.6,414.42,262.45z"/>
		<path class="st5" d="M426.07,268.14c-0.12-0.05-0.25-0.08-0.38-0.06c-0.3,0.03-0.54,0.29-0.62,0.58c-0.09,0.29-0.04,0.6,0.06,0.88
			c0.04,0.12,0.09,0.25,0.18,0.34c0.12,0.13,0.3,0.19,0.47,0.23c0.06,0.02,0.13,0.03,0.19,0.02c0.06-0.01,0.11-0.05,0.16-0.09
			c0.33-0.26,0.57-0.56,0.55-0.99C426.65,268.67,426.43,268.29,426.07,268.14z"/>
		<path class="st5" d="M406.29,265.36c-0.12-0.05-0.25-0.08-0.38-0.06c-0.3,0.03-0.54,0.29-0.62,0.58c-0.09,0.29-0.04,0.6,0.05,0.88
			c0.04,0.12,0.09,0.25,0.18,0.34c0.12,0.13,0.3,0.19,0.47,0.23c0.06,0.02,0.13,0.03,0.19,0.02c0.06-0.01,0.11-0.05,0.16-0.09
			c0.33-0.26,0.57-0.56,0.55-0.99C406.87,265.89,406.65,265.52,406.29,265.36z"/>
		<path class="st4" d="M418.38,267.74c-0.06-0.02-0.12-0.04-0.18-0.03c-0.14,0.02-0.26,0.14-0.3,0.27
			c-0.04,0.14-0.02,0.28,0.03,0.42c0.02,0.06,0.04,0.12,0.09,0.16c0.06,0.06,0.14,0.09,0.22,0.11c0.03,0.01,0.06,0.02,0.09,0.01
			c0.03-0.01,0.05-0.02,0.08-0.04c0.16-0.12,0.27-0.26,0.26-0.47C418.65,267.99,418.55,267.81,418.38,267.74z"/>
		<path class="st4" d="M424.63,274.07c-0.06-0.02-0.12-0.04-0.18-0.03c-0.14,0.02-0.25,0.14-0.3,0.27
			c-0.04,0.14-0.02,0.28,0.03,0.42c0.02,0.06,0.04,0.12,0.09,0.16c0.06,0.06,0.14,0.09,0.22,0.11c0.03,0.01,0.06,0.02,0.09,0.01
			c0.03-0.01,0.05-0.02,0.08-0.04c0.16-0.12,0.27-0.26,0.26-0.47C424.9,274.32,424.8,274.14,424.63,274.07z"/>
		<path class="st4" d="M417.56,260.21c-0.06-0.02-0.12-0.04-0.18-0.03c-0.14,0.02-0.25,0.14-0.3,0.27
			c-0.04,0.14-0.02,0.28,0.03,0.42c0.02,0.06,0.04,0.12,0.09,0.16c0.06,0.06,0.14,0.09,0.22,0.11c0.03,0.01,0.06,0.02,0.09,0.01
			c0.03-0.01,0.05-0.02,0.08-0.04c0.16-0.12,0.27-0.26,0.26-0.47C417.84,260.47,417.73,260.29,417.56,260.21z"/>
		<path class="st4" d="M410.66,262.11c-0.06-0.02-0.12-0.04-0.18-0.03c-0.14,0.02-0.26,0.14-0.3,0.27
			c-0.04,0.14-0.02,0.28,0.03,0.42c0.02,0.06,0.04,0.12,0.09,0.16c0.06,0.06,0.14,0.09,0.22,0.11c0.03,0.01,0.06,0.02,0.09,0.01
			c0.03-0.01,0.05-0.02,0.08-0.04c0.15-0.12,0.27-0.26,0.26-0.47C410.94,262.36,410.83,262.18,410.66,262.11z"/>
		<path class="st4" d="M417.21,273.11c0.2-0.11,0.37-0.26,0.49-0.45c0.27-0.44,0.18-1.03-0.12-1.44c-0.3-0.42-0.76-0.68-1.24-0.85
			c-0.21-0.07-0.43-0.13-0.65-0.11c-0.3,0.03-0.56,0.2-0.8,0.38c-0.09,0.07-0.18,0.14-0.23,0.23c-0.05,0.09-0.05,0.2-0.05,0.31
			c0,0.71,0.16,1.35,0.75,1.78C415.88,273.34,416.62,273.43,417.21,273.11z"/>
		<path class="st4" d="M420.33,260.18c-0.16,0.18-0.29,0.4-0.33,0.64c-0.11,0.54,0.2,1.11,0.65,1.43c0.46,0.32,1.03,0.42,1.59,0.41
			c0.24,0,0.49-0.02,0.7-0.12c0.3-0.14,0.5-0.41,0.68-0.69c0.07-0.1,0.13-0.2,0.15-0.32c0.01-0.11-0.02-0.23-0.06-0.33
			c-0.27-0.73-0.66-1.32-1.42-1.55C421.61,259.45,420.81,259.63,420.33,260.18z"/>
		<g>
			<path class="st6" d="M420.02,297.61c0.09-0.6,0.51-1.13,0.94-1.55c0.66-0.64,1.43-1.17,2.24-1.35c1.37-0.3,3.58,0.93,4.67,2
				c0.1-0.12,0.2-0.25,0.28-0.39c0.2-0.35,0.3-0.77,0.2-1.12c-0.09-0.29-0.31-0.48-0.53-0.64c-1.15-0.8-4.07-1.54-5.53-0.81
				c-0.78,0.39-1.44,1.1-1.96,1.88c-0.34,0.51-0.65,1.12-0.61,1.71c0.02,0.31,0.14,0.58,0.32,0.8
				C420.01,297.96,419.99,297.79,420.02,297.61z"/>
			<path class="st7" d="M422.21,298.71c1.29-0.12,2.58-0.41,3.85-0.87c0.65-0.24,1.34-0.57,1.82-1.13c-1.09-1.07-3.31-2.3-4.67-2
				c-0.81,0.18-1.58,0.71-2.24,1.35c-0.43,0.42-0.85,0.94-0.94,1.55c-0.03,0.18-0.01,0.35,0.02,0.52c0.16,0.2,0.37,0.35,0.6,0.45
				C421.12,298.77,421.67,298.76,422.21,298.71z"/>
		</g>
		<g>
			<path class="st6" d="M429.06,307.96c0.55,0.5,0.79,1.28,0.92,2c0.2,1.1,0.21,2.24-0.16,3.18c-0.63,1.58-3.38,2.98-5.2,3.35
				c0.05,0.19,0.11,0.37,0.2,0.55c0.22,0.43,0.57,0.83,0.99,0.96c0.35,0.11,0.7,0.02,1.01-0.1c1.59-0.61,4.33-3.06,4.58-5.02
				c0.14-1.05-0.13-2.2-0.56-3.26c-0.28-0.7-0.68-1.42-1.3-1.78c-0.33-0.19-0.68-0.25-1.02-0.22
				C428.72,307.7,428.9,307.81,429.06,307.96z"/>
			<path class="st8" d="M426.46,309.41c-0.76,1.38-1.34,2.88-1.74,4.48c-0.2,0.82-0.34,1.73-0.1,2.6c1.82-0.37,4.57-1.77,5.2-3.35
				c0.38-0.94,0.36-2.08,0.16-3.18c-0.13-0.72-0.37-1.5-0.92-2c-0.16-0.15-0.35-0.25-0.54-0.34c-0.31,0.03-0.61,0.13-0.86,0.3
				C427.14,308.27,426.78,308.84,426.46,309.41z"/>
		</g>
		<g>
			<path class="st6" d="M439.42,297.22c0.32,0.28,0.44,0.72,0.5,1.13c0.09,0.63,0.07,1.29-0.19,1.84c-0.43,0.93-2.13,1.82-3.25,2.08
				c0.03,0.11,0.06,0.21,0.11,0.31c0.12,0.24,0.32,0.47,0.58,0.53c0.21,0.05,0.42-0.01,0.62-0.09c0.98-0.4,2.71-1.89,2.92-3.03
				c0.11-0.61-0.02-1.27-0.25-1.87c-0.15-0.4-0.37-0.8-0.74-1c-0.19-0.1-0.41-0.13-0.61-0.1
				C439.22,297.08,439.33,297.14,439.42,297.22z"/>
			<path class="st8" d="M435.89,300.32c-0.08,0.49,0,1.54,0.6,1.96c1.11-0.26,2.82-1.15,3.25-2.08c0.25-0.55,0.28-1.21,0.19-1.84
				c-0.06-0.41-0.18-0.86-0.5-1.13c-0.09-0.08-0.2-0.14-0.32-0.18C438.92,297.07,436.51,296.28,435.89,300.32z"/>
		</g>
		<g>
			<path class="st6" d="M404.16,332.59c-0.34,0.25-0.8,0.29-1.23,0.26c-0.64-0.03-1.28-0.18-1.77-0.53
				c-0.82-0.59-1.32-2.4-1.34-3.52c-0.11,0-0.22,0.02-0.33,0.04c-0.27,0.07-0.53,0.22-0.65,0.45c-0.1,0.19-0.08,0.41-0.05,0.61
				c0.18,1.02,1.26,2.97,2.34,3.39c0.58,0.23,1.25,0.22,1.9,0.11c0.42-0.07,0.87-0.21,1.14-0.52c0.14-0.17,0.21-0.37,0.23-0.57
				C404.34,332.42,404.26,332.52,404.16,332.59z"/>
			<path class="st8" d="M403.61,330.86c-0.69-0.63-1.48-1.19-2.34-1.64c-0.44-0.23-0.94-0.44-1.45-0.42
				c0.02,1.12,0.51,2.93,1.34,3.52c0.49,0.35,1.13,0.5,1.77,0.53c0.42,0.02,0.88-0.01,1.23-0.26c0.1-0.08,0.18-0.17,0.25-0.27
				c0.02-0.19-0.01-0.38-0.08-0.55C404.18,331.42,403.9,331.13,403.61,330.86z"/>
		</g>
		<g>
			<path class="st6" d="M394.54,335.44c0.02,0.19-0.1,0.35-0.24,0.49c-0.2,0.21-0.46,0.38-0.76,0.45c-0.51,0.11-1.49-0.24-2.01-0.56
				c-0.03,0.04-0.06,0.08-0.08,0.13c-0.05,0.11-0.05,0.24,0.02,0.35c0.06,0.09,0.16,0.15,0.27,0.19c0.52,0.23,1.73,0.42,2.24,0.18
				c0.27-0.13,0.47-0.36,0.61-0.61c0.09-0.16,0.16-0.35,0.09-0.53c-0.03-0.1-0.11-0.18-0.19-0.24
				C394.51,335.33,394.53,335.38,394.54,335.44z"/>
			<path class="st8" d="M393.58,335.13c-0.5,0.05-0.98,0.16-1.44,0.32c-0.24,0.08-0.48,0.19-0.62,0.37c0.52,0.32,1.5,0.67,2.01,0.56
				c0.3-0.06,0.56-0.24,0.76-0.45c0.13-0.14,0.25-0.3,0.24-0.49c0-0.06-0.02-0.11-0.05-0.16c-0.08-0.06-0.18-0.1-0.28-0.13
				C394,335.09,393.79,335.11,393.58,335.13z"/>
		</g>
		<g>
			<path class="st6" d="M391.04,331.49c-0.17-0.06-0.31-0.2-0.42-0.34c-0.16-0.22-0.29-0.46-0.32-0.69
				c-0.04-0.39,0.38-0.93,0.72-1.17c-0.03-0.04-0.07-0.07-0.1-0.1c-0.09-0.07-0.21-0.13-0.32-0.12c-0.09,0.01-0.15,0.06-0.2,0.11
				c-0.27,0.27-0.57,1.03-0.41,1.47c0.09,0.23,0.27,0.45,0.48,0.64c0.14,0.12,0.3,0.24,0.47,0.26c0.09,0.01,0.17-0.01,0.24-0.04
				C391.14,331.51,391.09,331.5,391.04,331.49z"/>
			<path class="st8" d="M391.43,330.95c0.01-0.36-0.04-0.73-0.13-1.1c-0.05-0.19-0.12-0.4-0.27-0.56c-0.34,0.24-0.77,0.78-0.72,1.17
				c0.03,0.23,0.15,0.47,0.32,0.69c0.11,0.14,0.24,0.29,0.42,0.34c0.05,0.02,0.1,0.02,0.15,0.02c0.06-0.03,0.11-0.08,0.15-0.14
				C391.41,331.25,391.43,331.1,391.43,330.95z"/>
		</g>
		<g>
			<linearGradient id="SVGID_2_" gradientUnits="userSpaceOnUse" x1="372.4395" y1="257.8362" x2="367.687" y2="278.9814">
				<stop  offset="0.1672" style="stop-color:#A855E7"/>
				<stop  offset="0.2471" style="stop-color:#A353E0"/>
				<stop  offset="0.3597" style="stop-color:#964CCE"/>
				<stop  offset="0.4918" style="stop-color:#8041B0"/>
				<stop  offset="0.6386" style="stop-color:#613186"/>
				<stop  offset="0.7976" style="stop-color:#3A1D50"/>
				<stop  offset="0.9644" style="stop-color:#0B050F"/>
				<stop  offset="1" style="stop-color:#000000"/>
			</linearGradient>
			<path class="st9" d="M368.94,264.54c-0.22,0.33-0.39,0.73-0.19,1.07c0.14,0.23,0.44,0.37,0.74,0.39c0.3,0.03,0.61-0.04,0.88-0.15
				c0.67-0.26,1.19-0.73,1.65-1.22c0.39-0.41,0.75-0.85,1.07-1.3c0.86-1.2,0.52-2.18-1.13-1.3
				C370.77,262.67,369.65,263.49,368.94,264.54z"/>
			<path class="st7" d="M371.25,259.24c0.32,0.42,1.02,0.57,1.59,0.42c0.57-0.15,1.01-0.55,1.28-0.99c0.22-0.38,0.33-0.83,0.13-1.22
				C373.35,255.74,370.05,257.65,371.25,259.24z"/>
			<path class="st7" d="M365.18,264.01c-0.14,0.21-0.05,0.49,0.15,0.66c0.21,0.17,0.51,0.23,0.8,0.22c0.24-0.01,0.5-0.08,0.65-0.24
				C367.45,263.94,365.71,263.22,365.18,264.01z"/>
			<linearGradient id="SVGID_3_" gradientUnits="userSpaceOnUse" x1="365.9824" y1="253.4174" x2="366.9792" y2="275.3464">
				<stop  offset="0.1672" style="stop-color:#A855E7"/>
				<stop  offset="0.2471" style="stop-color:#A353E0"/>
				<stop  offset="0.3597" style="stop-color:#964CCE"/>
				<stop  offset="0.4918" style="stop-color:#8041B0"/>
				<stop  offset="0.6386" style="stop-color:#613186"/>
				<stop  offset="0.7976" style="stop-color:#3A1D50"/>
				<stop  offset="0.9644" style="stop-color:#0B050F"/>
				<stop  offset="1" style="stop-color:#000000"/>
			</linearGradient>
			<path class="st10" d="M363.43,259.94c0.26,0.89,1.18,1.62,2.25,1.8c0.44,0.07,0.91,0.06,1.32-0.09c0.43-0.15,0.77-0.44,1.05-0.75
				c0.69-0.74,1.14-1.68,1.04-2.62c-0.1-0.94-0.82-1.85-1.9-2.14C364.94,255.53,362.96,258.35,363.43,259.94z"/>
		</g>
		<linearGradient id="SVGID_4_" gradientUnits="userSpaceOnUse" x1="445.7148" y1="309.8559" x2="447.1971" y2="342.4663">
			<stop  offset="0.1672" style="stop-color:#A855E7"/>
			<stop  offset="0.2471" style="stop-color:#A353E0"/>
			<stop  offset="0.3597" style="stop-color:#964CCE"/>
			<stop  offset="0.4918" style="stop-color:#8041B0"/>
			<stop  offset="0.6386" style="stop-color:#613186"/>
			<stop  offset="0.7976" style="stop-color:#3A1D50"/>
			<stop  offset="0.9644" style="stop-color:#0B050F"/>
			<stop  offset="1" style="stop-color:#000000"/>
		</linearGradient>
		<path class="st11" d="M442.62,319.55c0.33,1.32,1.46,2.41,2.79,2.68c0.54,0.11,1.12,0.09,1.63-0.13c0.53-0.23,0.95-0.66,1.31-1.12
			c0.85-1.11,1.41-2.5,1.29-3.89c-0.12-1.39-1.02-2.75-2.35-3.19C444.49,313,442.03,317.2,442.62,319.55z"/>
		<linearGradient id="SVGID_5_" gradientUnits="userSpaceOnUse" x1="414.9648" y1="343.6059" x2="416.4471" y2="376.2163">
			<stop  offset="0.1672" style="stop-color:#A855E7"/>
			<stop  offset="0.2471" style="stop-color:#A353E0"/>
			<stop  offset="0.3597" style="stop-color:#964CCE"/>
			<stop  offset="0.4918" style="stop-color:#8041B0"/>
			<stop  offset="0.6386" style="stop-color:#613186"/>
			<stop  offset="0.7976" style="stop-color:#3A1D50"/>
			<stop  offset="0.9644" style="stop-color:#0B050F"/>
			<stop  offset="1" style="stop-color:#000000"/>
		</linearGradient>
		<path class="st12" d="M411.87,353.3c0.33,1.32,1.46,2.41,2.79,2.68c0.54,0.11,1.12,0.09,1.63-0.13c0.53-0.23,0.95-0.66,1.31-1.12
			c0.85-1.11,1.41-2.5,1.29-3.89c-0.12-1.39-1.02-2.75-2.35-3.19C413.74,346.75,411.28,350.95,411.87,353.3z"/>
		<linearGradient id="SVGID_6_" gradientUnits="userSpaceOnUse" x1="403.2148" y1="337.1059" x2="404.6971" y2="369.7163">
			<stop  offset="0.1672" style="stop-color:#A855E7"/>
			<stop  offset="0.2471" style="stop-color:#A353E0"/>
			<stop  offset="0.3597" style="stop-color:#964CCE"/>
			<stop  offset="0.4918" style="stop-color:#8041B0"/>
			<stop  offset="0.6386" style="stop-color:#613186"/>
			<stop  offset="0.7976" style="stop-color:#3A1D50"/>
			<stop  offset="0.9644" style="stop-color:#0B050F"/>
			<stop  offset="1" style="stop-color:#000000"/>
		</linearGradient>
		<path class="st13" d="M400.12,346.8c0.33,1.32,1.46,2.41,2.79,2.68c0.54,0.11,1.12,0.09,1.63-0.13c0.53-0.23,0.95-0.66,1.31-1.12
			c0.85-1.11,1.41-2.5,1.29-3.89c-0.12-1.39-1.02-2.75-2.35-3.19C401.99,340.25,399.53,344.45,400.12,346.8z"/>
		
			<linearGradient id="SVGID_7_" gradientUnits="userSpaceOnUse" x1="10.8335" y1="1096.6204" x2="11.6135" y2="1113.7793" gradientTransform="matrix(0.0196 0.9998 -0.9998 0.0196 1550.8925 293.6979)">
			<stop  offset="0.1672" style="stop-color:#A855E7"/>
			<stop  offset="0.2471" style="stop-color:#A353E0"/>
			<stop  offset="0.3597" style="stop-color:#964CCE"/>
			<stop  offset="0.4918" style="stop-color:#8041B0"/>
			<stop  offset="0.6386" style="stop-color:#613186"/>
			<stop  offset="0.7976" style="stop-color:#3A1D50"/>
			<stop  offset="0.9644" style="stop-color:#0B050F"/>
			<stop  offset="1" style="stop-color:#000000"/>
		</linearGradient>
		<path class="st14" d="M449.57,324.49c-0.69,0.18-1.25,0.79-1.38,1.5c-0.05,0.29-0.04,0.59,0.09,0.86c0.13,0.28,0.36,0.49,0.6,0.68
			c0.59,0.44,1.33,0.72,2.06,0.64c0.73-0.08,1.44-0.57,1.65-1.27C453.04,325.41,450.8,324.16,449.57,324.49z"/>
		
			<linearGradient id="SVGID_8_" gradientUnits="userSpaceOnUse" x1="34.1628" y1="1156.5896" x2="34.9428" y2="1173.7485" gradientTransform="matrix(0.0196 0.9998 -0.9998 0.0196 1550.8925 293.6979)">
			<stop  offset="0.1672" style="stop-color:#A855E7"/>
			<stop  offset="0.2471" style="stop-color:#A353E0"/>
			<stop  offset="0.3597" style="stop-color:#964CCE"/>
			<stop  offset="0.4918" style="stop-color:#8041B0"/>
			<stop  offset="0.6386" style="stop-color:#613186"/>
			<stop  offset="0.7976" style="stop-color:#3A1D50"/>
			<stop  offset="0.9644" style="stop-color:#0B050F"/>
			<stop  offset="1" style="stop-color:#000000"/>
		</linearGradient>
		<path class="st15" d="M390.07,348.99c-0.69,0.18-1.25,0.79-1.38,1.5c-0.05,0.29-0.04,0.59,0.09,0.86c0.13,0.28,0.36,0.49,0.6,0.68
			c0.59,0.44,1.33,0.72,2.06,0.64c0.73-0.08,1.44-0.57,1.65-1.27C393.54,349.91,391.3,348.66,390.07,348.99z"/>
		<path class="st16" d="M379.31,316.47c-0.4,0.58-0.47,1.39-0.12,2c0.35,0.61,1.13,0.96,1.81,0.75c0.22-0.07,0.43-0.19,0.61-0.33
			c0.59-0.45,1.03-1.14,1.01-1.88C382.55,315.1,380.17,315.22,379.31,316.47z"/>
	</g>
	<g>
		<path class="st8" d="M443.06,332.82c0.61-0.78,1.16-1.7,1.36-2.76c0.19-1.06-0.05-2.28-0.74-2.81c-0.59-0.46-1.36-0.35-2.06-0.49
			c-1.63-0.33-2.98-2.1-4.64-1.84c-0.46,0.07-0.9,0.29-1.33,0.52c-1.11,0.57-2.27,1.21-3.08,2.37c-0.76,1.08-1.15,2.57-1.03,3.96
			c0.25,3.05,2.95,4.84,5.16,4.93C438.82,336.78,441.53,334.74,443.06,332.82z"/>
		<path class="st0" d="M442.61,331.69c0.24-0.53,0.45-1.11,0.49-1.71c0.03-0.6-0.14-1.23-0.53-1.52c-0.26-0.2-0.59-0.21-0.89-0.27
			c-0.55-0.09-1.08-0.31-1.56-0.63c-0.41-0.27-0.82-0.64-1.3-0.58c-0.38,0.05-0.72,0.36-0.98,0.74c-0.88,1.25-1.01,3.26-0.28,4.54
			c0.52,0.92,1.81,1.93,2.75,1.86C441.29,334.05,442.15,332.7,442.61,331.69z"/>
		<path class="st17" d="M442.45,329.76c-0.16-0.75-0.79-1.22-1.4-1.11c-0.61,0.11-1.15,0.76-1.33,1.52
			c-0.13,0.56-0.06,1.23,0.3,1.53c0.2,0.17,0.45,0.2,0.69,0.21C441.62,331.97,442.76,331.14,442.45,329.76z"/>
		<path class="st4" d="M436.24,330.22c0.66,0.31,1.52,0.13,2.02-0.4c0.5-0.54,0.63-1.38,0.34-2.05c-0.52-1.2-2.51-1.79-3.31-0.51
			C434.73,328.15,435.33,329.79,436.24,330.22z"/>
		<path class="st4" d="M437.25,333.76c-0.08,0.34,0.1,0.72,0.4,0.9c0.3,0.18,0.71,0.15,1-0.06c0.51-0.37,0.57-1.37-0.11-1.61
			C438.05,332.83,437.35,333.29,437.25,333.76z"/>
		<path class="st4" d="M439.37,330.47c0.15,0.07,0.34,0.03,0.46-0.09c0.11-0.12,0.14-0.31,0.08-0.46c-0.12-0.27-0.57-0.4-0.75-0.12
			C439.03,330,439.16,330.37,439.37,330.47z"/>
		<path class="st4" d="M442.12,330.97c0.15,0.07,0.34,0.03,0.46-0.09c0.11-0.12,0.14-0.31,0.08-0.46c-0.12-0.27-0.57-0.4-0.75-0.12
			C441.78,330.5,441.91,330.87,442.12,330.97z"/>
		<path class="st4" d="M441.09,332.1c0.07,0.03,0.17,0.01,0.22-0.04c0.06-0.06,0.07-0.15,0.04-0.23c-0.06-0.13-0.28-0.2-0.36-0.06
			C440.92,331.87,440.99,332.05,441.09,332.1z"/>
		<path class="st4" d="M440.92,328.72c0.1,0.19,0.33,0.3,0.54,0.26c0.21-0.03,0.39-0.21,0.44-0.41c0.09-0.37-0.26-0.86-0.67-0.7
			C440.94,327.98,440.78,328.46,440.92,328.72z"/>
		<path class="st18" d="M432.27,332.56c0.17,0.8,0.5,1.59,1.07,2.17c0.86,0.88,2.16,1.2,3.39,1.29c0.76,0.06,1.6,0.02,2.19-0.46
			c-1.22-0.27-2.45-0.63-3.49-1.32c-1.04-0.7-1.87-1.79-1.99-3.04c-0.05-0.56,0.04-1.13,0.17-1.69c0.31-1.33,0.9-2.67,2.01-3.45
			c-0.54,0.38-1.14,0.47-1.66,0.95c-0.49,0.45-0.88,0.99-1.18,1.59C432.18,329.81,431.99,331.23,432.27,332.56z"/>
	</g>
	<g>
		<g>
			<path class="st16" d="M360.48,331.28c1.33,1.42,3.49,1.98,5.34,1.38c0.75-0.24,1.46-0.67,1.94-1.3c0.5-0.66,0.72-1.49,0.84-2.3
				c0.29-1.97,0.02-4.09-1.11-5.74c-1.12-1.65-3.19-2.72-5.15-2.32C358.24,321.81,358.12,328.75,360.48,331.28z"/>
			<path class="st19" d="M361.28,326.31c0.49,0.49,1.02,0.96,1.66,1.23c0.64,0.27,1.4,0.32,2.01-0.01c0.66-0.36,1.05-1.12,1.08-1.87
				c0.04-0.75-0.23-1.49-0.62-2.14c-0.22-0.37-0.49-0.73-0.83-1C362.02,320.43,358.89,323.88,361.28,326.31z"/>
		</g>
		<g>
			<path class="st20" d="M361.49,322.49c0.08,0.26,0.3,0.48,0.56,0.56c0.26,0.07,0.57-0.01,0.74-0.22c0.12-0.15,0.17-0.34,0.18-0.53
				c0-0.1,0-0.21-0.04-0.31c-0.08-0.25-0.33-0.43-0.59-0.45C361.83,321.5,361.32,321.98,361.49,322.49z"/>
			<path class="st20" d="M363.06,324.73c0.03,0.11,0.12,0.2,0.23,0.23c0.11,0.03,0.24,0,0.31-0.09c0.05-0.06,0.07-0.14,0.07-0.22
				c0-0.04,0-0.09-0.02-0.13c-0.04-0.1-0.14-0.18-0.25-0.19C363.21,324.32,363,324.52,363.06,324.73z"/>
			<path class="st20" d="M363.7,322.54c0.04,0.11,0.13,0.21,0.25,0.24c0.12,0.03,0.25,0,0.33-0.1c0.05-0.06,0.07-0.15,0.08-0.23
				c0-0.05,0-0.09-0.02-0.14c-0.04-0.11-0.15-0.19-0.26-0.2C363.85,322.1,363.63,322.32,363.7,322.54z"/>
			<path class="st20" d="M364.51,323.77c0.02,0.06,0.06,0.1,0.12,0.12c0.06,0.02,0.12,0,0.16-0.05c0.03-0.03,0.04-0.07,0.04-0.11
				c0-0.02,0-0.04-0.01-0.07c-0.02-0.05-0.07-0.09-0.13-0.1C364.59,323.55,364.48,323.66,364.51,323.77z"/>
		</g>
	</g>
	<g>
		<g>
			<path class="st16" d="M350.07,293.7c-2.47,1.35-4.05,4.19-3.88,7c0.07,1.14,0.41,2.29,1.12,3.2c0.74,0.94,1.82,1.56,2.93,2.02
				c2.67,1.12,5.74,1.51,8.47,0.53c2.72-0.98,4.97-3.5,5.14-6.39C364.18,293.99,354.47,291.29,350.07,293.7z"/>
			<path class="st19" d="M356.75,296.63c-0.87,0.5-1.72,1.08-2.33,1.88c-0.61,0.8-0.96,1.85-0.71,2.83c0.26,1.06,1.19,1.88,2.24,2.2
				c1.04,0.33,2.18,0.22,3.23-0.09c0.61-0.18,1.2-0.42,1.71-0.8C364.75,299.8,361.04,294.14,356.75,296.63z"/>
		</g>
		<g>
			<path class="st20" d="M362.05,298.3c-0.4,0.02-0.79,0.24-0.99,0.58c-0.2,0.34-0.19,0.81,0.04,1.13c0.16,0.22,0.42,0.36,0.68,0.44
				c0.14,0.04,0.3,0.07,0.45,0.06c0.38-0.03,0.72-0.31,0.84-0.67C363.31,299.15,362.82,298.25,362.05,298.3z"/>
			<path class="st20" d="M358.32,299.7c-0.17,0.01-0.33,0.1-0.41,0.24c-0.08,0.14-0.08,0.34,0.02,0.47
				c0.07,0.09,0.17,0.15,0.28,0.18c0.06,0.02,0.12,0.03,0.19,0.03c0.16-0.01,0.3-0.13,0.35-0.28
				C358.85,300.05,358.65,299.68,358.32,299.7z"/>
			<path class="st20" d="M361.17,301.39c-0.17,0.01-0.35,0.11-0.43,0.26c-0.09,0.15-0.08,0.35,0.02,0.5c0.07,0.1,0.18,0.16,0.3,0.19
				c0.06,0.02,0.13,0.03,0.2,0.03c0.17-0.01,0.32-0.14,0.37-0.3C361.73,301.76,361.51,301.37,361.17,301.39z"/>
			<path class="st20" d="M359.16,302.08c-0.09,0-0.17,0.05-0.21,0.13c-0.04,0.07-0.04,0.17,0.01,0.24c0.04,0.05,0.09,0.08,0.15,0.1
				c0.03,0.01,0.06,0.02,0.1,0.01c0.08-0.01,0.15-0.07,0.18-0.14C359.43,302.27,359.32,302.07,359.16,302.08z"/>
		</g>
	</g>
	<g>
		<g>
			<path class="st16" d="M375.76,274.76c0.1,1.93,1.56,3.82,3.58,4.67c0.83,0.35,1.75,0.53,2.62,0.41c0.91-0.12,1.71-0.56,2.42-1.06
				c1.7-1.21,3.02-2.91,3.26-4.86c0.24-1.95-0.76-4.14-2.73-5.21C380.77,266.46,375.57,271.33,375.76,274.76z"/>
			<path class="st19" d="M380.09,271.77c0.06,0.69,0.17,1.39,0.53,2.02c0.35,0.63,0.97,1.19,1.74,1.38c0.83,0.2,1.72-0.08,2.31-0.59
				c0.58-0.51,0.9-1.23,1.04-1.96c0.08-0.42,0.11-0.86,0.02-1.28C385.04,268.08,379.81,268.38,380.09,271.77z"/>
		</g>
		<g>
			<path class="st20" d="M383.06,269.18c-0.12,0.24-0.1,0.55,0.07,0.78c0.17,0.24,0.5,0.39,0.8,0.35c0.21-0.02,0.4-0.13,0.54-0.26
				c0.08-0.07,0.15-0.15,0.19-0.24c0.11-0.24,0.03-0.53-0.18-0.73C384.09,268.71,383.3,268.71,383.06,269.18z"/>
			<path class="st20" d="M382.78,271.87c-0.05,0.1-0.04,0.23,0.03,0.33c0.07,0.1,0.21,0.16,0.34,0.15c0.09-0.01,0.17-0.05,0.23-0.11
				c0.03-0.03,0.06-0.06,0.08-0.1c0.05-0.1,0.01-0.22-0.08-0.31C383.21,271.68,382.88,271.67,382.78,271.87z"/>
			<path class="st20" d="M384.93,270.74c-0.05,0.11-0.04,0.24,0.03,0.34c0.08,0.1,0.22,0.17,0.35,0.16
				c0.09-0.01,0.17-0.06,0.24-0.11c0.04-0.03,0.07-0.07,0.09-0.11c0.05-0.1,0.01-0.23-0.08-0.32
				C385.39,270.54,385.04,270.53,384.93,270.74z"/>
			<path class="st20" d="M384.73,272.18c-0.03,0.05-0.02,0.12,0.02,0.17c0.04,0.05,0.11,0.08,0.17,0.08c0.05,0,0.09-0.03,0.12-0.06
				c0.02-0.02,0.03-0.03,0.04-0.05c0.02-0.05,0.01-0.11-0.04-0.16C384.95,272.08,384.78,272.08,384.73,272.18z"/>
		</g>
	</g>
	<g>
		<g>
			<path class="st16" d="M383.25,323.06c-2.47,1.35-4.05,4.19-3.88,7c0.07,1.14,0.41,2.29,1.12,3.2c0.74,0.94,1.82,1.56,2.93,2.02
				c2.67,1.12,5.74,1.51,8.47,0.53c2.72-0.98,4.97-3.5,5.14-6.39C397.37,323.35,387.66,320.65,383.25,323.06z"/>
			<path class="st19" d="M389.94,325.99c-0.87,0.5-1.72,1.08-2.33,1.88c-0.61,0.8-0.96,1.85-0.71,2.83c0.26,1.06,1.19,1.88,2.24,2.2
				c1.04,0.33,2.18,0.22,3.23-0.09c0.61-0.18,1.2-0.42,1.71-0.8C397.93,329.17,394.23,323.51,389.94,325.99z"/>
		</g>
		<g>
			<path class="st20" d="M395.23,327.66c-0.4,0.02-0.79,0.24-0.99,0.58c-0.2,0.34-0.19,0.81,0.04,1.13
				c0.16,0.22,0.42,0.36,0.68,0.44c0.14,0.04,0.3,0.07,0.45,0.06c0.38-0.03,0.72-0.31,0.84-0.67
				C396.5,328.51,396.01,327.62,395.23,327.66z"/>
			<path class="st20" d="M391.51,329.06c-0.17,0.01-0.33,0.1-0.41,0.24c-0.08,0.14-0.08,0.34,0.02,0.47
				c0.07,0.09,0.17,0.15,0.28,0.18c0.06,0.02,0.12,0.03,0.19,0.03c0.16-0.01,0.3-0.13,0.35-0.28
				C392.04,329.42,391.83,329.05,391.51,329.06z"/>
			<path class="st20" d="M394.36,330.75c-0.17,0.01-0.35,0.11-0.43,0.26c-0.09,0.15-0.08,0.35,0.02,0.49
				c0.07,0.1,0.18,0.16,0.3,0.19c0.06,0.02,0.13,0.03,0.2,0.03c0.17-0.01,0.32-0.14,0.37-0.3
				C394.92,331.13,394.7,330.74,394.36,330.75z"/>
			<path class="st20" d="M392.34,331.45c-0.09,0-0.17,0.05-0.21,0.13c-0.04,0.07-0.04,0.17,0.01,0.24c0.04,0.05,0.09,0.08,0.15,0.1
				c0.03,0.01,0.06,0.02,0.1,0.01c0.08-0.01,0.15-0.07,0.18-0.14C392.62,331.63,392.51,331.44,392.34,331.45z"/>
		</g>
	</g>
</g>
</svg>
