<?xml version="1.0" encoding="utf-8"?>
<!-- Generator: Adobe Illustrator 24.1.2, SVG Export Plug-In . SVG Version: 6.00 Build 0)  -->
<svg version="1.1" id="Calque_1" xmlns="http://www.w3.org/2000/svg" xmlns:xlink="http://www.w3.org/1999/xlink" x="0px" y="0px"
	 viewBox="0 0 800 600" style="enable-background:new 0 0 800 600;" xml:space="preserve">
<style type="text/css">
	.st0{fill:url(#SVGID_1_);}
	.st1{opacity:0.62;fill:#C1053F;}
	.st2{opacity:0.31;fill:#C1053F;}
	.st3{opacity:0.12;fill:#C1053F;}
	.st4{opacity:0.77;fill:url(#SVGID_2_);}
	.st5{fill:url(#SVGID_3_);}
</style>
<g>
	<linearGradient id="SVGID_1_" gradientUnits="userSpaceOnUse" x1="164.5189" y1="291.5609" x2="656.9142" y2="291.5609">
		<stop  offset="0" style="stop-color:#FF3154"/>
		<stop  offset="1" style="stop-color:#D80B2E"/>
	</linearGradient>
	<path class="st0" d="M656.91,291.56c0,23.54-3.31,46.32-9.48,67.87c-17.08,59.65-56.1,110.05-107.78,141.86
		c-14.24,8.8-29.45,16.17-45.43,21.92c-26.06,9.4-54.18,14.53-83.49,14.53c-37.05,0-72.19-8.17-103.7-22.88
		c-84.17-39.08-142.51-124.39-142.51-223.3c0-30.07,5.39-58.89,15.28-85.52c21.58-58.29,64.59-106.17,119.47-134.05
		c32.23-16.4,68.58-25.91,107.05-26.56c1.46-0.05,2.92-0.05,4.4-0.05c76.8,0,145.4,35.17,190.55,90.31
		C636.06,178.15,656.91,232.41,656.91,291.56z"/>
	<path class="st1" d="M198.5,416.51c-21.62-36.58-34.01-79.38-34.01-124.98c0-30.05,5.42-58.86,15.32-85.47
		C201.36,147.72,244.38,99.85,299.29,72c7.77-3.96,15.76-7.48,23.97-10.63c29.54,21.55,62.45,57.25,16.71,88.99
		c-71.39,49.48,76.96,118.38-58.42,153.2C206.49,322.9,204.73,379.86,198.5,416.51z"/>
	<path class="st2" d="M497.19,330.31c-43.61,24.34-183.91,118.53-106.06,206.63c-29.83-2.27-58.2-9.97-84.07-22.06
		c-29.76-13.78-56.22-33.35-77.99-57.17c3.15-26.46,19.06-53.14,58.2-75.5c130.47-74.55,183.98-85.1,128.86-123.22
		c-55.12-38.12-86.71-58.35-42.95-91.63c33.79-25.65-1.54-79.9-30.05-112.59c19.13-5.42,39.14-8.65,59.89-9.24
		c-7.18,39.73,4.01,83.43,43.98,116.18c66.64,54.61,58.35,51.09,37.24,86.71C463.18,284.13,548.28,301.94,497.19,330.31z"/>
	<path class="st3" d="M656.91,291.53c0,23.53-3.3,46.33-9.46,67.88c-17.08,59.67-56.15,110.1-107.82,141.91
		c-14.22,8.8-29.39,16.13-45.45,21.92c-3.45,1.25-6.89,2.42-10.41,3.45c-22.21-20.96-36.21-46.99-35.99-77.99
		c0.81-123.22,245.63-102.91,145.87-166.17c-99.69-63.26,25.14-90.01-94.85-131.35c-73.89-25.51-67.8-71.54-52.26-103.21
		c62.16,9.09,116.77,41.34,154.74,87.74C636.02,178.14,656.91,232.38,656.91,291.53z"/>
	<linearGradient id="SVGID_2_" gradientUnits="userSpaceOnUse" x1="445.5041" y1="474.5597" x2="555.2094" y2="114.3451">
		<stop  offset="0" style="stop-color:#FFFFFF"/>
		<stop  offset="0.9995" style="stop-color:#B22700"/>
	</linearGradient>
	<path class="st4" d="M601.28,135.69c-45.14-55.14-113.75-90.31-190.55-90.31c-0.48,0-0.95,0.02-1.43,0.02
		c20.24,13.56,38.37,30.03,53.76,48.83c34.78,42.46,55.64,96.72,55.64,155.87c0,23.54-3.31,46.32-9.48,67.87
		c-17.08,59.65-56.11,110.05-107.78,141.86c-14.24,8.8-29.45,16.17-45.43,21.92c-25.62,9.24-53.24,14.32-82.02,14.49
		c10.48,7.01,21.51,13.26,33.04,18.61c31.5,14.71,66.65,22.88,103.7,22.88c29.31,0,57.43-5.13,83.49-14.53
		c15.98-5.75,31.19-13.12,45.43-21.92c51.68-31.81,90.7-82.22,107.78-141.86c6.17-21.56,9.48-44.34,9.48-67.87
		C656.91,232.41,636.06,178.15,601.28,135.69z"/>
	<linearGradient id="SVGID_3_" gradientUnits="userSpaceOnUse" x1="395.2365" y1="58.0366" x2="231.6858" y2="383.986">
		<stop  offset="0" style="stop-color:#FFFFFF"/>
		<stop  offset="1" style="stop-color:#FFFFFF;stop-opacity:0"/>
	</linearGradient>
	<path class="st5" d="M341.26,55.33c-14.6,4.29-28.65,9.87-41.99,16.66c-54.88,27.88-97.89,75.76-119.47,134.05
		c-9.89,26.63-15.28,55.45-15.28,85.52c0,53.81,17.3,103.58,46.6,144.09c2.6,0.1,5.21,0.16,7.84,0.16
		c24.99,0,48.97-4.37,71.19-12.39c13.63-4.91,26.59-11.19,38.74-18.69c44.06-27.13,77.34-70.1,91.9-120.95
		c5.26-18.38,8.08-37.8,8.08-57.87c0-50.43-17.78-96.69-47.44-132.9C369.76,78.76,356.24,66.09,341.26,55.33z"/>
</g>
</svg>
