<?xml version="1.0" encoding="utf-8"?>
<!-- Generator: Adobe Illustrator 24.1.2, SVG Export Plug-In . SVG Version: 6.00 Build 0)  -->
<svg version="1.1" id="Calque_1" xmlns="http://www.w3.org/2000/svg" xmlns:xlink="http://www.w3.org/1999/xlink" x="0px" y="0px"
	 viewBox="0 0 800 600" style="enable-background:new 0 0 800 600;" xml:space="preserve">
<style type="text/css">
	.st0{clip-path:url(#SVGID_2_);fill:url(#SVGID_3_);}
	.st1{clip-path:url(#SVGID_2_);}
	.st2{fill:#FF5959;}
	.st3{fill:#FFA87F;}
	.st4{opacity:0.59;clip-path:url(#SVGID_2_);fill:#FFA87F;}
	.st5{clip-path:url(#SVGID_2_);fill:#FFA87F;}
	.st6{clip-path:url(#SVGID_2_);fill:#FF1F70;}
	.st7{clip-path:url(#SVGID_2_);fill:#FF4084;}
	.st8{clip-path:url(#SVGID_2_);fill:none;stroke:#FF4084;stroke-width:3;stroke-miterlimit:10;}
	.st9{fill:#FF07CC;}
	.st10{fill:#FF1F70;}
	.st11{fill:#FFDB7B;}
</style>
<g>
	<g>
		<defs>
			
				<ellipse id="SVGID_1_" transform="matrix(0.3811 -0.9245 0.9245 0.3811 -29.4334 553.6621)" cx="398.84" cy="298.82" rx="46" ry="46"/>
		</defs>
		<clipPath id="SVGID_2_">
			<use xlink:href="#SVGID_1_"  style="overflow:visible;"/>
		</clipPath>
		
			<radialGradient id="SVGID_3_" cx="403.4573" cy="359.2067" r="152.9991" gradientTransform="matrix(0.9987 -0.0515 0.0515 0.9987 -47.8805 14.2273)" gradientUnits="userSpaceOnUse">
			<stop  offset="0.3094" style="stop-color:#FF4A89"/>
			<stop  offset="0.4249" style="stop-color:#FF6269"/>
			<stop  offset="0.608" style="stop-color:#FF833C"/>
			<stop  offset="0.7715" style="stop-color:#FF9C1B"/>
			<stop  offset="0.9078" style="stop-color:#FFAB07"/>
			<stop  offset="1" style="stop-color:#FFB000"/>
		</radialGradient>
		<circle class="st0" cx="398.84" cy="298.82" r="46"/>
		<g class="st1">
			<path class="st2" d="M424.58,283.21c-0.44-1.94,0.17-4.14,1.71-5.4c0.32-0.26,0.64-0.45,0.97-0.58c-1.18-0.54-2.5-0.53-3.73,0.47
				c-1.54,1.26-2.14,3.46-1.71,5.4c0.44,1.94,1.81,3.59,3.52,4.62c0.88,0.53,1.92,0.91,2.92,0.71c0.21-0.04,0.41-0.12,0.61-0.21
				c-0.27-0.12-0.53-0.25-0.77-0.39C426.4,286.8,425.02,285.15,424.58,283.21z"/>
			<path class="st3" d="M431.37,284c0.01-1.59-0.62-3.12-1.5-4.44c-0.66-0.99-1.59-1.87-2.61-2.33c-0.33,0.13-0.65,0.32-0.97,0.58
				c-1.54,1.26-2.14,3.46-1.71,5.4c0.44,1.94,1.81,3.59,3.52,4.62c0.25,0.15,0.51,0.28,0.77,0.39c0.13-0.06,0.26-0.12,0.38-0.19
				C430.61,287.22,431.36,285.58,431.37,284z"/>
		</g>
		<path class="st4" d="M422.18,317.93c-2.78,1.43-4.49,4.78-3.84,7.84c0.65,3.06,3.71,5.46,6.83,5.21c3-0.24,5.4-2.6,7.1-5.09
			c1.28-1.88,2.35-4.03,2.28-6.3c-0.08-2.41-1.84-5.17-4.46-4.58c-1.24,0.28-2.46,1.15-3.7,1.54
			C424.98,317,423.51,317.25,422.18,317.93z"/>
		<path class="st5" d="M393.84,280.79c1.37,4.73,0.91,9.98,3.13,14.38c1.12,2.21,2.84,4.05,4.69,5.69
			c6.74,5.99,15.58,10.08,19.94,17.97c0.79,1.43,1.42,3,1.46,4.64c0.05,2.31-1.09,4.5-2.58,6.26c-5.1,6.04-13.81,7.63-21.7,7.23
			c-3.55-0.18-7.11-0.68-10.44-1.9c-7.36-2.7-13.13-8.77-16.82-15.68c-3.69-6.92-6.98-14.5-8.31-22.23
			c-0.99-5.77-0.23-11.98,1.53-17.56c1.77-5.61,8.35-12.71,14.8-12.16C386.09,267.99,392.12,274.86,393.84,280.79z"/>
		<path class="st6" d="M369.95,314.77c12.74,2.86,25.86-1.34,38.45-4.81c12.59-3.47,26.52-6.12,38.31-0.52
			c1.31,0.62,2.69,2.42,1.5,3.25c-25.05-9.04-52.63,9.27-78.85,4.59c-3.26-0.58-23.8-7.25-20.74-11.42
			C350.58,303.2,366.25,313.94,369.95,314.77z"/>
		<path class="st7" d="M385.67,327.15c4.66-0.26,9.24-1.28,13.9-1.52c9.89-0.51,19.57,2.49,29.26,4.57
			c4.97,1.07,10.82,1.68,14.51-1.82c2.88-2.73,3.41-7.06,3.68-11.02c0.07-0.98,0.12-2-0.29-2.89c-0.48-1.03-1.5-1.69-2.5-2.24
			c-8.07-4.43-18.02-5.28-26.72-2.28c-2.01,0.69-3.96,1.58-6,2.19c-2.21,0.66-4.5,0.97-6.78,1.29c-5.83,0.8-11.67,1.6-17.5,2.41
			c-5.15,0.71-10.42,1.42-15.53,0.42c-6.6-1.28-12.29-5.62-18.87-6.78c-5.24-0.93-4.06,2.18-1.49,5.39
			C358.84,324.25,374.22,327.8,385.67,327.15z"/>
		<path class="st8" d="M348.87,287.33c5.52,7.53,13.72,13.97,23.06,14.06c9.67,0.1,17.96-6.42,25.8-12.08
			c7.4-5.35,15.29-10.28,24.05-12.85c8.77-2.57,18.58-2.58,26.7,1.61"/>
		<path class="st6" d="M360.69,304.49c4.81,3.24,10.5,5.47,16.3,5.2c10.13-0.47,18.24-8.14,27.35-12.58
			c7.61-3.71,16.29-5.2,24.7-4.24c5.3,0.6,10.65,2.15,15.89,1.13c0.83-0.16,1.73-0.44,2.19-1.15c0.37-0.56,0.39-1.28,0.4-1.96
			c0.04-3.73,0.03-7.7-1.97-10.84c-2.42-3.81-7.2-5.46-11.7-5.67c-9.15-0.42-17.81,3.99-25.41,9.1
			c-7.59,5.12-14.71,11.13-23.17,14.65c-8.45,3.52-18.87,4.1-26.21-1.37c-1.99-1.49-7.91-8.13-7.95-2.18
			C351.08,298.54,357.83,302.56,360.69,304.49z"/>
		<g class="st1">
			<g>
				<path class="st2" d="M398.22,262.84c0.55-1.85,1.77-3.54,3.49-4.42c1.57-0.8,3.55-0.83,5.07,0.04c-0.22-0.53-0.6-1.01-1.17-1.43
					c-1.55-1.14-3.77-1.18-5.49-0.3c-1.72,0.88-2.94,2.57-3.49,4.42c-0.28,0.95-0.39,2.02,0.04,2.91c0.15,0.31,0.36,0.59,0.61,0.83
					c0.27,0.26,0.57,0.48,0.89,0.65C397.85,264.69,397.96,263.72,398.22,262.84z"/>
				<path class="st3" d="M405.39,263.43c1.25-1.39,2.06-3.36,1.38-4.96c-1.52-0.87-3.5-0.84-5.07-0.04
					c-1.72,0.88-2.94,2.57-3.49,4.42c-0.26,0.88-0.37,1.86-0.04,2.7c1.02,0.54,2.27,0.65,3.4,0.37
					C403.07,265.54,404.36,264.57,405.39,263.43z"/>
			</g>
			<g>
				<path class="st2" d="M430.58,301.72c-0.15-0.3-0.16-0.66,0.02-0.97c0.17-0.28,0.51-0.5,0.89-0.56c-0.11-0.04-0.24-0.07-0.4-0.06
					c-0.42,0.02-0.82,0.26-1,0.57c-0.18,0.31-0.17,0.67-0.02,0.97c0.08,0.16,0.2,0.31,0.4,0.38c0.07,0.02,0.14,0.04,0.22,0.04
					c0.08,0.01,0.16,0,0.24-0.01C430.77,302,430.65,301.86,430.58,301.72z"/>
				<path class="st3" d="M431.92,301c0.03-0.32-0.09-0.67-0.42-0.81c-0.38,0.05-0.73,0.28-0.89,0.56c-0.18,0.31-0.17,0.67-0.02,0.97
					c0.07,0.15,0.18,0.29,0.35,0.36c0.25-0.04,0.48-0.17,0.65-0.33C431.79,301.53,431.89,301.26,431.92,301z"/>
			</g>
			<g>
				<path class="st9" d="M383.8,274.46c-2.01,1.73-4.11,3.51-6.67,4.21c-2.56,0.69-5.71-0.04-6.98-2.38
					c-0.41-0.75-0.57-1.56-0.59-2.39c-0.52,1.8-0.72,3.65,0.14,5.25c1.26,2.33,4.42,3.07,6.98,2.38c2.56-0.69,4.66-2.47,6.67-4.21
					c2.13-1.84,4.29-3.71,5.83-6.07c0.91-1.41,1.6-3.02,1.59-4.7c0-0.13-0.01-0.25-0.02-0.38c-0.28,0.78-0.68,1.52-1.13,2.22
					C388.09,270.75,385.93,272.62,383.8,274.46z"/>
				<path class="st10" d="M379.97,262.42c-2.65,0.55-5.21,1.84-6.92,3.93c-1.28,1.57-2.03,3.5-2.75,5.4
					c-0.26,0.69-0.52,1.41-0.74,2.14c0.01,0.83,0.18,1.64,0.59,2.39c1.26,2.33,4.42,3.07,6.98,2.38c2.56-0.69,4.66-2.47,6.67-4.21
					c2.13-1.84,4.29-3.71,5.83-6.07c0.45-0.69,0.85-1.44,1.13-2.22C390.41,260.94,383.76,261.63,379.97,262.42z"/>
			</g>
			<g>
				<path class="st10" d="M395.19,280.37c0.68,0.39,1.45,0.65,2.23,0.73c0.97,0.1,1.99-0.07,2.78-0.64c0.42-0.31,0.76-0.71,1.1-1.12
					c0.12-0.15,0.25-0.31,0.36-0.48c-0.08-0.9-0.37-1.77-0.65-2.63c-0.22-0.66-0.46-1.35-0.98-1.82c-0.64-0.57-1.59-0.68-2.42-0.47
					c-0.83,0.21-1.56,0.7-2.24,1.22c-0.54,0.41-1.08,0.86-1.39,1.46c-0.55,1.05-0.51,2.04-0.11,2.9
					C394.22,279.46,394.85,280.18,395.19,280.37z"/>
				<path class="st9" d="M397.85,282.46c0.85,0.19,1.79,0.14,2.52-0.34c0.89-0.59,1.31-1.71,1.31-2.77c0-0.16-0.01-0.32-0.02-0.48
					c-0.11,0.17-0.23,0.33-0.36,0.48c-0.33,0.4-0.67,0.81-1.1,1.12c-0.79,0.57-1.81,0.74-2.78,0.64c-0.79-0.08-1.55-0.33-2.23-0.73
					c-0.33-0.19-0.96-0.92-1.34-0.85C394.54,281.01,396.28,282.1,397.85,282.46z"/>
			</g>
			<g>
				<path class="st10" d="M416.79,300.22c-0.27,0.53-0.42,1.12-0.45,1.71c-0.03,0.73,0.14,1.5,0.6,2.07
					c0.25,0.31,0.57,0.54,0.89,0.78c0.12,0.09,0.24,0.18,0.38,0.25c0.67-0.1,1.32-0.35,1.95-0.61c0.49-0.2,1-0.41,1.33-0.82
					c0.4-0.51,0.45-1.23,0.25-1.85c-0.19-0.62-0.59-1.15-1.01-1.64c-0.33-0.39-0.69-0.78-1.16-0.99c-0.82-0.37-1.56-0.3-2.19,0.04
					C417.44,299.46,416.92,299.96,416.79,300.22z"/>
				<path class="st9" d="M415.34,302.32c-0.11,0.65-0.03,1.36,0.36,1.88c0.48,0.65,1.34,0.91,2.15,0.87
					c0.12-0.01,0.24-0.02,0.36-0.04c-0.13-0.07-0.26-0.16-0.38-0.25c-0.32-0.23-0.64-0.47-0.89-0.78c-0.46-0.57-0.63-1.34-0.6-2.07
					c0.03-0.6,0.19-1.18,0.45-1.71c0.13-0.26,0.65-0.77,0.58-1.04C416.29,299.76,415.54,301.12,415.34,302.32z"/>
			</g>
			<path class="st3" d="M416.09,265.34c-0.13,0.58,0.03,1.19,0.24,1.75c0.37,0.99,0.98,2.01,1.98,2.33c0.65,0.2,1.35,0.08,2.02,0.19
				c0.46,0.07,0.92,0.26,1.39,0.2c0.95-0.12,1.52-1.26,1.31-2.2c-0.21-0.94-0.96-1.66-1.77-2.19
				C420.05,264.62,416.65,262.89,416.09,265.34z"/>
			<path class="st3" d="M408.94,268.04c-0.28-0.15-0.61-0.14-0.92-0.11c-0.55,0.06-1.15,0.23-1.45,0.7c-0.19,0.3-0.22,0.68-0.36,1
				c-0.1,0.23-0.25,0.44-0.28,0.68c-0.07,0.5,0.44,0.94,0.95,0.96c0.51,0.02,0.97-0.27,1.35-0.61
				C408.79,270.15,410.12,268.65,408.94,268.04z"/>
		</g>
	</g>
	<g>
		<path class="st11" d="M440.05,348.6c-8.04,0.42-15.2-5.92-17.71-12.76c-1.64-4.49-1.77-9.49-0.48-14.1
			c-11.98,0.72-23.13,4.59-31.43,8.39c-5.1,2.33-12.08,5.53-17.55,2.27c-1.65-0.98-2.86-2.41-3.72-4.01
			c-0.53,0.24-1.07,0.48-1.6,0.71c-0.93,0.41-1.85,0.82-2.77,1.24c-6.37,2.91-14.75,6.05-23.2,4.43
			c-7.58-1.45-15.41-8.25-14.82-16.7c0.2-2.91,1.38-5.92,3.5-8.93c4.89-6.94,15.38-11.51,22.59-12.28l-0.03,1.09
			c-7.09,0.76-17.19,5.32-21.74,11.77c-2.02,2.86-3.13,5.7-3.32,8.43c-0.55,7.9,6.85,14.28,14.01,15.65
			c8.17,1.56,16.36-1.51,22.59-4.36c0.92-0.42,1.85-0.83,2.78-1.24c0.52-0.23,1.05-0.46,1.57-0.7c-0.92-2.12-1.29-4.46-1.28-6.5
			c0.04-5.02,2.57-11.16,8.01-12.76c2.54-0.75,5.53,0.75,7.11,3.55c1.44,2.54,1.72,6.4-1.79,9.65c-3.09,2.86-6.89,4.8-10.72,6.54
			c0.77,1.43,1.86,2.7,3.32,3.56c5.02,2.99,11.46,0.05,16.62-2.32c11.12-5.09,21.99-7.94,32.15-8.49c0.62-1.87,1.47-3.66,2.56-5.31
			c4.13-6.26,10.92-9.95,17.48-13.52c1.39-0.75,2.77-1.5,4.12-2.28c7.58-4.33,14.58-9.64,20.78-15.78c2.12-2.09,4.12-4.41,4.46-7.14
			c0.28-2.24-0.62-4.78-2.51-7.17c-4.02-5.05-15.64-11.37-36.92-2.44l-0.92-0.89c6.78-2.85,14.05-4.37,20.5-4.41
			c8.12-0.04,14.38,2.42,18.12,7.11c2.07,2.6,3.03,5.41,2.72,7.91c-0.38,3.04-2.5,5.51-4.75,7.73c-6.27,6.2-13.33,11.56-20.99,15.94
			c-1.36,0.78-2.74,1.53-4.14,2.29c-6.45,3.51-13.13,7.14-17.12,13.2c-0.97,1.46-1.74,3.05-2.32,4.71
			c5.63-0.22,11.03,0.28,16.13,1.5c6.06,1.45,10.04,3.85,12.16,7.35c1.89,3.11,1.97,7.05,0.22,10.82c-2,4.32-5.89,7.42-10.16,8.1
			C441.07,348.52,440.56,348.58,440.05,348.6z M422.91,321.69c-1.33,4.49-1.24,9.41,0.37,13.81c2.52,6.89,9.99,13.24,18.14,11.96
			c3.94-0.63,7.55-3.51,9.41-7.53c1.6-3.46,1.54-7.06-0.17-9.88c-1.98-3.26-5.75-5.51-11.54-6.9
			C433.69,321.84,428.22,321.45,422.91,321.69z M376.62,309.04c-0.29,0.02-0.58,0.06-0.87,0.15c-4.96,1.46-7.26,7.14-7.3,11.81
			c-0.02,1.91,0.33,4.11,1.18,6.08c3.77-1.71,7.48-3.62,10.48-6.38c2.62-2.42,3.22-5.56,1.6-8.42
			C380.53,310.2,378.5,308.95,376.62,309.04z"/>
	</g>
</g>
</svg>
