<?xml version="1.0" encoding="utf-8"?>
<!-- Generator: Adobe Illustrator 24.1.2, SVG Export Plug-In . SVG Version: 6.00 Build 0)  -->
<svg version="1.1" id="Calque_1" xmlns="http://www.w3.org/2000/svg" xmlns:xlink="http://www.w3.org/1999/xlink" x="0px" y="0px"
	 viewBox="0 0 800 600" style="enable-background:new 0 0 800 600;" xml:space="preserve">
<style type="text/css">
	.st0{fill:url(#SVGID_1_);}
	.st1{fill:url(#SVGID_2_);}
	.st2{fill:url(#SVGID_3_);}
	.st3{fill:url(#SVGID_4_);}
	.st4{opacity:0.47;fill:#A00492;}
	.st5{opacity:0.58;fill:#A00492;}
	.st6{opacity:0.5;fill:#A00492;}
	.st7{opacity:0.77;fill:url(#SVGID_5_);}
	.st8{fill:url(#SVGID_6_);}
	.st9{fill:url(#SVGID_7_);}
</style>
<g>
	<g>
		<linearGradient id="SVGID_1_" gradientUnits="userSpaceOnUse" x1="523.4089" y1="446.8646" x2="290.9374" y2="214.3931">
			<stop  offset="0" style="stop-color:#9A14E0"/>
			<stop  offset="0.795" style="stop-color:#C633F2"/>
			<stop  offset="1" style="stop-color:#D23CF7"/>
		</linearGradient>
		<path class="st0" d="M599.13,319.52c0,19.41-2.73,38.2-7.82,55.98c-14.09,49.2-46.27,90.77-88.9,117.01
			c-11.75,7.26-24.29,13.33-37.47,18.08c-21.49,7.75-44.69,11.98-68.87,11.98c-30.56,0-59.55-6.74-85.53-18.88
			C241.12,471.47,193,401.1,193,319.52c0-24.8,4.44-48.57,12.6-70.54c17.8-48.08,53.28-87.57,98.54-110.57
			c26.58-13.53,56.56-21.37,88.3-21.9c1.2-0.04,2.41-0.04,3.63-0.04c63.35,0,119.93,29.01,157.16,74.49
			C581.93,225.98,599.13,270.73,599.13,319.52z"/>
		<linearGradient id="SVGID_2_" gradientUnits="userSpaceOnUse" x1="196.528" y1="331.0261" x2="190.5707" y2="325.0688">
			<stop  offset="0" style="stop-color:#9A14E0"/>
			<stop  offset="0.795" style="stop-color:#C633F2"/>
			<stop  offset="1" style="stop-color:#D23CF7"/>
		</linearGradient>
		<path class="st1" d="M193.53,334.85c-0.32-4.71-0.49-9.42-0.54-14.18L193.53,334.85z"/>
		<linearGradient id="SVGID_3_" gradientUnits="userSpaceOnUse" x1="490.0046" y1="455.1126" x2="331.7628" y2="296.8708">
			<stop  offset="0" style="stop-color:#9A14E0"/>
			<stop  offset="0.795" style="stop-color:#C633F2"/>
			<stop  offset="1" style="stop-color:#D23CF7"/>
		</linearGradient>
		<path class="st2" d="M598.92,328.36c-0.7,16.29-3.3,32.09-7.63,47.13c-0.05,0.22-0.11,0.43-0.22,0.65
			c-54.6,11.8-117.9,22.35-185.43,30.57c-67.53,8.17-130.89,12.88-185.49,14.23c-8.22-14.18-14.77-29.44-19.32-45.51h0.38
			c53.08-1.41,125.1-7.03,204.43-16.61C479.56,349.89,547.09,339.13,598.92,328.36z"/>
		<linearGradient id="SVGID_4_" gradientUnits="userSpaceOnUse" x1="598.3984" y1="280.9193" x2="591.2582" y2="273.7791">
			<stop  offset="0" style="stop-color:#9A14E0"/>
			<stop  offset="0.795" style="stop-color:#C633F2"/>
			<stop  offset="1" style="stop-color:#D23CF7"/>
		</linearGradient>
		<path class="st3" d="M596.06,284.26c-0.81-4.87-1.89-9.74-3.14-14.5L596.06,284.26z"/>
		<path class="st4" d="M518.91,481.19c-5.32,3.99-10.82,7.8-16.5,11.31c-11.73,7.26-24.3,13.36-37.48,18.08
			c-21.46,7.8-44.68,12.03-68.86,12.03c-30.41,0-59.31-6.71-85.25-18.8c24.97-15.78,99.94-53.5,207.55-22.79
			C518.55,481.06,518.73,481.12,518.91,481.19z"/>
		<path class="st5" d="M598.84,308.88v21.52c-22.97,13-47.58,18.5-71.16,8.16c-80.23-35.07-95.28,32.1-210.57-5.98
			c-63.12-20.86-99.45,5.32-119.1,31.98c-3.26-14.51-5.02-29.56-5.02-45.04c0-11.79,1.03-23.28,2.96-34.52
			c25.63-6.83,61.36-8.22,109.07,6.47c117.41,36.09,127.38-68.2,214.69-46.13c23.58,5.98,45.77,4.96,65.48,0.3
			c2.84,7.07,5.26,14.39,7.19,21.89c-24.24,0.97-46.55,2.12-59.01,3.2c-38.09,3.33-162.45,40.08-135.73,42.8
			c26.78,2.66,84.28-16.75,123.03-6.05C539.23,312.57,569.64,312.02,598.84,308.88z"/>
		<path class="st6" d="M219.35,419.52c2.78,4.96,5.8,9.79,9.07,14.51L219.35,419.52z M513.65,380.04
			c-86.27-49.15-85.91,45.16-200.24,5.02c-51.69-18.14-83.19,2.84-100.24,22.67c1.87,3.99,3.93,7.98,6.17,11.79
			c13.42-14.21,33.61-28.6,56.29-20.74c40.63,14.03,101.81,17.05,84.22,21.52c-17.53,4.53-34.58,5.02-68.2,0
			c-23.22-3.45-47.22,1.51-63.24,13.72c2.06,3.02,4.17,5.99,6.47,8.89c40.99-29.87,118.32,20.01,168.44,0.3
			c97.7-38.39,134.7-20.43,163.66-14.21c5.14-7.86,9.67-16.14,13.6-24.73C560.87,401.26,538.26,394.07,513.65,380.04z"/>
		<path class="st6" d="M482.58,135.73c-17.65,10.94-41.41,18.2-72.91,16.32c-75.87-4.6-106.77,39.84-173.76,42.68
			c-9.07,11.55-16.81,24.06-23.16,37.42c39.24-2.42,80.65-0.6,119.04,9.49c91.17,24,170.85-29.62,210.03-63.42
			C524.9,160.7,504.89,146.25,482.58,135.73z M458.27,206.1c-16.51,16.5-64.09,42.26-144.01,16.81c-9.25-2.96-9.25-16.14,0.06-18.86
			c16.75-4.9,41.17-9.43,70.67-7.31C442.43,200.78,476.47,187.9,458.27,206.1z"/>
		<g>
			<linearGradient id="SVGID_5_" gradientUnits="userSpaceOnUse" x1="424.7551" y1="470.459" x2="515.2402" y2="173.3537">
				<stop  offset="0" style="stop-color:#FFFFFF"/>
				<stop  offset="0.9995" style="stop-color:#BF00A5"/>
			</linearGradient>
			<path class="st7" d="M553.24,190.96c-37.24-45.48-93.82-74.49-157.16-74.49c-0.4,0-0.78,0.01-1.18,0.01
				c16.7,11.18,31.65,24.77,44.34,40.28c28.69,35.02,45.89,79.77,45.89,128.56c0,19.41-2.73,38.2-7.82,55.98
				c-14.09,49.2-46.27,90.77-88.9,117.01c-11.75,7.26-24.29,13.34-37.47,18.08c-21.13,7.62-43.91,11.81-67.65,11.96
				c8.64,5.78,17.74,10.93,27.25,15.35c25.98,12.13,54.97,18.88,85.53,18.88c24.18,0,47.37-4.23,68.87-11.98
				c13.18-4.75,25.73-10.82,37.47-18.08c42.63-26.24,74.81-67.81,88.9-117.01c5.09-17.78,7.82-36.57,7.82-55.98
				C599.13,270.73,581.93,225.98,553.24,190.96z"/>
			<linearGradient id="SVGID_6_" gradientUnits="userSpaceOnUse" x1="383.2946" y1="126.9102" x2="248.3979" y2="395.7534">
				<stop  offset="0" style="stop-color:#FFFFFF"/>
				<stop  offset="1" style="stop-color:#FFFFFF;stop-opacity:0"/>
			</linearGradient>
			<path class="st8" d="M338.78,124.68c-12.05,3.53-23.63,8.14-34.63,13.74c-45.27,23-80.74,62.49-98.54,110.57
				c-8.16,21.97-12.6,45.74-12.6,70.54c0,44.38,14.27,85.43,38.44,118.84c2.15,0.08,4.3,0.13,6.46,0.13
				c20.62,0,40.39-3.61,58.72-10.22c11.24-4.05,21.93-9.23,31.95-15.42c36.34-22.37,63.79-57.82,75.8-99.76
				c4.34-15.16,6.66-31.18,6.66-47.73c0-41.6-14.66-79.75-39.13-109.61C362.28,144.01,351.13,133.55,338.78,124.68z"/>
		</g>
	</g>
	<linearGradient id="SVGID_7_" gradientUnits="userSpaceOnUse" x1="-555.4391" y1="798.0222" x2="496.6288" y2="302.5079">
		<stop  offset="0" style="stop-color:#FF7006"/>
		<stop  offset="1" style="stop-color:#F1AE00"/>
	</linearGradient>
	<path class="st9" d="M592.92,269.76c110.82-2.76,185.27,7.95,185.27,30.57c0,22.18-71.32,50.21-178.24,73.86
		c-2.92,0.65-5.9,1.3-8.87,1.95c-54.6,11.8-117.9,22.35-185.43,30.57c-67.53,8.17-130.89,12.88-185.49,14.23
		c-2.33,0.05-4.65,0.11-6.98,0.16c-107.89,2.33-180.02-8.44-180.02-30.73c0-20.89,63.25-46.97,159.84-69.69l0.54,14.18
		c-51.73,11.47-83.6,22.56-83.6,30.46c0,8.28,34.85,11.58,90.9,10.12h0.38c53.08-1.41,125.1-7.03,204.43-16.61
		c73.91-8.93,141.44-19.7,193.28-30.46c0.65-0.11,1.24-0.27,1.89-0.38c61.68-12.82,100.59-25.38,100.59-34.09
		c0-8.98-40.91-12.07-105.35-9.63L592.92,269.76z"/>
</g>
</svg>
